<svg width="47" height="46" viewBox="0 0 47 46" fill="none" xmlns="http://www.w3.org/2000/svg">
<ellipse cx="23.8651" cy="22.9865" rx="23.1033" ry="22.6532" fill="url(#paint0_linear_99_1574)"/>
<g filter="url(#filter0_d_99_1574)">
<path fill-rule="evenodd" clip-rule="evenodd" d="M22.8654 18.8899C22.8654 23.1866 22.8542 23.9385 22.7911 23.8676C22.7502 23.8217 21.9275 22.3977 20.9628 20.7032C18.011 15.5185 17.8252 15.1979 17.7737 15.1979C17.711 15.1979 16.1213 16.1036 16.09 16.1572C16.0774 16.1788 16.5717 17.0822 17.1884 18.1646C17.8052 19.2471 18.9226 21.2077 19.6715 22.5215C20.4205 23.8353 21.0215 24.9225 21.0073 24.9377C20.9929 24.9527 19.0342 23.8229 16.6545 22.427L12.3279 19.889L11.8418 20.7416C11.5744 21.2105 11.3558 21.612 11.3559 21.6337C11.356 21.6554 11.5566 21.7906 11.8017 21.9341C12.0468 22.0776 13.9981 23.2201 16.1379 24.4729L20.0285 26.7507L14.9762 26.7792L9.92377 26.8078V27.8061V28.8045L15.0621 28.8191L20.2006 28.8336L22.0175 27.0077C23.0167 26.0034 23.8485 25.1818 23.8658 25.1818C23.895 25.1818 25.3888 26.6673 26.5939 27.8948C26.8762 28.1823 27.207 28.5107 27.329 28.6245L27.5508 28.8313L32.6786 28.818L37.8064 28.8045V27.8061V26.8078L32.754 26.7792L27.7016 26.7507L32.0383 24.2119C34.4234 22.8156 36.3687 21.6453 36.3611 21.6112C36.3536 21.5773 36.1407 21.1845 35.8881 20.7385C35.5613 20.1618 35.4044 19.9343 35.3445 19.9507C35.2597 19.9739 27.436 24.5406 26.9586 24.8456C26.8174 24.9358 26.702 24.9849 26.702 24.9547C26.702 24.9245 27.8092 22.9581 29.1624 20.585C30.5157 18.2119 31.6282 16.2429 31.6346 16.2096C31.6458 16.1512 30.1353 15.2038 30.0251 15.2001C29.9809 15.1986 26.1277 21.7997 25.2069 23.4546C25.0632 23.7127 24.9276 23.9245 24.9052 23.9252C24.8829 23.926 24.8647 21.6546 24.8647 18.8776V13.8286H23.8651H22.8654V18.8899Z" fill="#631008"/>
</g>
<defs>
<filter id="filter0_d_99_1574" x="5.92377" y="13.8286" width="35.8826" height="23.005" filterUnits="userSpaceOnUse" color-interpolation-filters="sRGB">
<feFlood flood-opacity="0" result="BackgroundImageFix"/>
<feColorMatrix in="SourceAlpha" type="matrix" values="0 0 0 0 0 0 0 0 0 0 0 0 0 0 0 0 0 0 127 0" result="hardAlpha"/>
<feOffset dy="4"/>
<feGaussianBlur stdDeviation="2"/>
<feComposite in2="hardAlpha" operator="out"/>
<feColorMatrix type="matrix" values="0 0 0 0 0 0 0 0 0 0 0 0 0 0 0 0 0 0 0.25 0"/>
<feBlend mode="normal" in2="BackgroundImageFix" result="effect1_dropShadow_99_1574"/>
<feBlend mode="normal" in="SourceGraphic" in2="effect1_dropShadow_99_1574" result="shape"/>
</filter>
<linearGradient id="paint0_linear_99_1574" x1="23.8651" y1="0.333313" x2="23.8651" y2="45.6397" gradientUnits="userSpaceOnUse">
<stop stop-color="#FACCA4"/>
<stop offset="1" stop-color="#AB733D"/>
</linearGradient>
</defs>
</svg>
