<svg width="45" height="44" viewBox="0 0 45 44" fill="none" xmlns="http://www.w3.org/2000/svg">
<ellipse cx="22.1962" cy="21.5582" rx="21.8972" ry="21.4707" fill="url(#paint0_linear_99_1568)"/>
<g filter="url(#filter0_d_99_1568)">
<path fill-rule="evenodd" clip-rule="evenodd" d="M21.2487 17.6754C21.2487 21.7478 21.2381 22.4604 21.1783 22.3932C21.1396 22.3497 20.3598 21.0001 19.4454 19.3941C16.6477 14.48 16.4717 14.1761 16.4228 14.1761C16.3634 14.1761 14.8567 15.0346 14.827 15.0853C14.815 15.1059 15.2835 15.9621 15.8681 16.988C16.4527 18.014 17.5117 19.8722 18.2216 21.1174C18.9314 22.3626 19.5011 23.3931 19.4876 23.4075C19.474 23.4218 17.6175 22.3509 15.3621 21.0279L11.2613 18.6223L10.8005 19.4305C10.5472 19.8749 10.3399 20.2554 10.34 20.276C10.3401 20.2966 10.5302 20.4247 10.7625 20.5607C10.9949 20.6968 12.8443 21.7796 14.8724 22.967L18.5599 25.1259L13.7713 25.1529L8.98267 25.18V26.1262V27.0725L13.8528 27.0863L18.723 27.1001L20.445 25.3695C21.3921 24.4176 22.1805 23.6388 22.1969 23.6388C22.2246 23.6388 23.6403 25.0468 24.7826 26.2102C25.0501 26.4828 25.3637 26.794 25.4793 26.9018L25.6895 27.0979L30.5496 27.0852L35.4097 27.0725V26.1262V25.18L30.6211 25.1529L25.8325 25.1259L29.9427 22.7196C32.2034 21.3962 34.0471 20.287 34.0399 20.2547C34.0328 20.2225 33.831 19.8502 33.5916 19.4276C33.2819 18.8809 33.1332 18.6653 33.0764 18.6809C32.996 18.7029 25.5807 23.0312 25.1282 23.3202C24.9944 23.4057 24.885 23.4523 24.885 23.4236C24.885 23.395 25.9344 21.5313 27.217 19.2821C28.4996 17.0328 29.554 15.1666 29.5601 15.1351C29.5707 15.0797 28.1391 14.1817 28.0347 14.1782C27.9927 14.1769 24.3407 20.4333 23.468 22.0018C23.3318 22.2464 23.2032 22.4472 23.1821 22.4479C23.1609 22.4487 23.1437 20.2958 23.1437 17.6638V12.8784H22.1962H21.2487V17.6754Z" fill="#775001"/>
</g>
<defs>
<filter id="filter0_d_99_1568" x="4.98267" y="12.8784" width="34.4271" height="22.2217" filterUnits="userSpaceOnUse" color-interpolation-filters="sRGB">
<feFlood flood-opacity="0" result="BackgroundImageFix"/>
<feColorMatrix in="SourceAlpha" type="matrix" values="0 0 0 0 0 0 0 0 0 0 0 0 0 0 0 0 0 0 127 0" result="hardAlpha"/>
<feOffset dy="4"/>
<feGaussianBlur stdDeviation="2"/>
<feComposite in2="hardAlpha" operator="out"/>
<feColorMatrix type="matrix" values="0 0 0 0 0 0 0 0 0 0 0 0 0 0 0 0 0 0 0.25 0"/>
<feBlend mode="normal" in2="BackgroundImageFix" result="effect1_dropShadow_99_1568"/>
<feBlend mode="normal" in="SourceGraphic" in2="effect1_dropShadow_99_1568" result="shape"/>
</filter>
<linearGradient id="paint0_linear_99_1568" x1="22.1962" y1="0.0875244" x2="22.1962" y2="43.0288" gradientUnits="userSpaceOnUse">
<stop stop-color="#F5CF59"/>
<stop offset="1" stop-color="#A1810F"/>
</linearGradient>
</defs>
</svg>
