<svg width="48" height="47" viewBox="0 0 48 47" fill="none" xmlns="http://www.w3.org/2000/svg">
<ellipse cx="24.2448" cy="23.1841" rx="23.4831" ry="23.0256" fill="url(#paint0_linear_99_1585)"/>
<g filter="url(#filter0_d_99_1585)">
<path fill-rule="evenodd" clip-rule="evenodd" d="M23.2287 19.0202C23.2287 23.3875 23.2173 24.1518 23.1532 24.0797C23.1117 24.033 22.2754 22.5857 21.2949 20.8634C18.2945 15.5934 18.1057 15.2675 18.0533 15.2675C17.9896 15.2675 16.3738 16.1881 16.342 16.2425C16.3291 16.2646 16.8315 17.1828 17.4584 18.283C18.0853 19.3833 19.2211 21.3761 19.9823 22.7115C20.7436 24.0469 21.3545 25.152 21.3401 25.1674C21.3255 25.1827 19.3345 24.0343 16.9158 22.6155L12.5179 20.0357L12.0239 20.9024C11.7521 21.379 11.5299 21.787 11.53 21.8091C11.5301 21.8312 11.734 21.9686 11.9831 22.1144C12.2323 22.2604 14.2156 23.4216 16.3906 24.695L20.3452 27.0102L15.2098 27.0392L10.0743 27.0682V28.083V29.0978L15.2972 29.1126L20.5201 29.1274L22.3668 27.2715C23.3825 26.2507 24.228 25.4155 24.2456 25.4155C24.2752 25.4155 25.7936 26.9255 27.0185 28.1731C27.3055 28.4654 27.6417 28.7992 27.7657 28.9148L27.9911 29.1251L33.2032 29.1115L38.4153 29.0978V28.083V27.0682L33.2798 27.0392L28.1445 27.0102L32.5524 24.4297C34.9767 23.0104 36.954 21.8209 36.9463 21.7863C36.9386 21.7518 36.7222 21.3525 36.4655 20.8993C36.1334 20.313 35.9739 20.0818 35.913 20.0985C35.8268 20.1221 27.8744 24.7638 27.3892 25.0738C27.2457 25.1655 27.1283 25.2154 27.1283 25.1847C27.1283 25.154 28.2537 23.1553 29.6293 20.7432C31.0047 18.3311 32.1355 16.3297 32.142 16.2959C32.1535 16.2365 30.6181 15.2735 30.5061 15.2697C30.4611 15.2683 26.5447 21.9778 25.6087 23.6599C25.4627 23.9223 25.3248 24.1375 25.3021 24.1383C25.2794 24.1391 25.2609 21.8304 25.2609 19.0077V13.8757H24.2448H23.2287V19.0202Z" fill="#145C2C"/>
</g>
<defs>
<filter id="filter0_d_99_1585" x="6.07434" y="13.8757" width="36.3409" height="23.2516" filterUnits="userSpaceOnUse" color-interpolation-filters="sRGB">
<feFlood flood-opacity="0" result="BackgroundImageFix"/>
<feColorMatrix in="SourceAlpha" type="matrix" values="0 0 0 0 0 0 0 0 0 0 0 0 0 0 0 0 0 0 127 0" result="hardAlpha"/>
<feOffset dy="4"/>
<feGaussianBlur stdDeviation="2"/>
<feComposite in2="hardAlpha" operator="out"/>
<feColorMatrix type="matrix" values="0 0 0 0 0 0 0 0 0 0 0 0 0 0 0 0 0 0 0.25 0"/>
<feBlend mode="normal" in2="BackgroundImageFix" result="effect1_dropShadow_99_1585"/>
<feBlend mode="normal" in="SourceGraphic" in2="effect1_dropShadow_99_1585" result="shape"/>
</filter>
<linearGradient id="paint0_linear_99_1585" x1="24.2448" y1="0.158508" x2="24.2448" y2="46.2097" gradientUnits="userSpaceOnUse">
<stop stop-color="#73EC99"/>
<stop offset="1" stop-color="#1E9244"/>
</linearGradient>
</defs>
</svg>
