<svg width="46" height="45" viewBox="0 0 46 45" fill="none" xmlns="http://www.w3.org/2000/svg">
<ellipse cx="22.8507" cy="22.4351" rx="22.2426" ry="21.8093" fill="url(#paint0_linear_99_1571)"/>
<g filter="url(#filter0_d_99_1571)">
<path fill-rule="evenodd" clip-rule="evenodd" d="M21.8883 18.491C21.8883 22.6277 21.8775 23.3516 21.8168 23.2833C21.7775 23.2391 20.9854 21.8682 20.0566 20.2369C17.2148 15.2453 17.0359 14.9366 16.9863 14.9366C16.926 14.9366 15.3955 15.8086 15.3654 15.8601C15.3532 15.881 15.8291 16.7507 16.4228 17.7928C17.0166 18.835 18.0924 20.7225 18.8134 21.9874C19.5345 23.2522 20.1131 24.299 20.0994 24.3135C20.0856 24.328 18.1999 23.2403 15.9089 21.8964L11.7434 19.4529L11.2754 20.2738C11.018 20.7253 10.8075 21.1117 10.8076 21.1326C10.8077 21.1536 11.0008 21.2837 11.2368 21.4219C11.4728 21.5601 13.3514 22.6599 15.4115 23.8661L19.1571 26.059L14.293 26.0865L9.42883 26.114V27.0752V28.0363L14.3758 28.0504L19.3228 28.0644L21.072 26.3065C22.034 25.3396 22.8348 24.5486 22.8515 24.5486C22.8796 24.5486 24.3177 25.9788 25.4779 27.1605C25.7497 27.4373 26.0682 27.7535 26.1857 27.863L26.3992 28.0622L31.336 28.0493L36.2727 28.0363V27.0752V26.114L31.4085 26.0865L26.5444 26.059L30.7195 23.6148C33.0158 22.2705 34.8886 21.1439 34.8813 21.111C34.874 21.0783 34.6691 20.7002 34.4259 20.2709C34.1113 19.7156 33.9602 19.4966 33.9026 19.5124C33.8209 19.5347 26.2887 23.9313 25.8291 24.2249C25.6931 24.3118 25.582 24.359 25.582 24.33C25.582 24.3009 26.6479 22.4078 27.9508 20.123C29.2536 17.8383 30.3246 15.9427 30.3308 15.9106C30.3416 15.8544 28.8874 14.9423 28.7813 14.9387C28.7387 14.9373 25.0291 21.2925 24.1426 22.8857C24.0043 23.1342 23.8737 23.3381 23.8522 23.3388C23.8307 23.3396 23.8132 21.1528 23.8132 18.4793V13.6183H22.8508H21.8883V18.491Z" fill="#0D3D62"/>
</g>
<defs>
<filter id="filter0_d_99_1571" x="5.42883" y="13.6183" width="34.8439" height="22.446" filterUnits="userSpaceOnUse" color-interpolation-filters="sRGB">
<feFlood flood-opacity="0" result="BackgroundImageFix"/>
<feColorMatrix in="SourceAlpha" type="matrix" values="0 0 0 0 0 0 0 0 0 0 0 0 0 0 0 0 0 0 127 0" result="hardAlpha"/>
<feOffset dy="4"/>
<feGaussianBlur stdDeviation="2"/>
<feComposite in2="hardAlpha" operator="out"/>
<feColorMatrix type="matrix" values="0 0 0 0 0 0 0 0 0 0 0 0 0 0 0 0 0 0 0.25 0"/>
<feBlend mode="normal" in2="BackgroundImageFix" result="effect1_dropShadow_99_1571"/>
<feBlend mode="normal" in="SourceGraphic" in2="effect1_dropShadow_99_1571" result="shape"/>
</filter>
<linearGradient id="paint0_linear_99_1571" x1="22.8507" y1="0.625793" x2="22.8507" y2="44.2444" gradientUnits="userSpaceOnUse">
<stop stop-color="#7EC0F2"/>
<stop offset="1" stop-color="#1B649B"/>
</linearGradient>
</defs>
</svg>
