<svg width="44" height="43" viewBox="0 0 44 43" fill="none" xmlns="http://www.w3.org/2000/svg">
<ellipse cx="22.1985" cy="21.5541" rx="21.4368" ry="21.446" fill="url(#paint0_linear_111_3227)"/>
<g filter="url(#filter0_d_111_3227)">
<path fill-rule="evenodd" clip-rule="evenodd" d="M21.2709 17.6758C21.2709 21.7435 21.2605 22.4553 21.202 22.3882C21.1641 22.3447 20.4007 20.9966 19.5056 19.3925C16.7667 14.484 16.5943 14.1805 16.5465 14.1805C16.4884 14.1805 15.0133 15.038 14.9843 15.0887C14.9725 15.1092 15.4312 15.9644 16.0034 16.9892C16.5757 18.014 17.6125 19.87 18.3074 21.1139C19.0024 22.3576 19.56 23.387 19.5468 23.4013C19.5335 23.4155 17.7161 22.3459 15.5081 21.0244L11.4935 18.6216L11.0425 19.4288C10.7944 19.8728 10.5915 20.2528 10.5916 20.2734C10.5918 20.2939 10.7778 20.4219 11.0053 20.5577C11.2327 20.6937 13.0432 21.7752 15.0287 22.9612L18.6386 25.1177L13.9508 25.1447L9.26282 25.1717V26.1169V27.0621L14.0305 27.0759L18.7983 27.0896L20.4841 25.361C21.4113 24.4103 22.1831 23.6324 22.1992 23.6324C22.2263 23.6324 23.6123 25.0388 24.7305 26.2008C24.9924 26.4731 25.2994 26.7839 25.4126 26.8916L25.6183 27.0875L30.3763 27.0748L35.1341 27.0621V26.1169V25.1717L30.4462 25.1447L25.7583 25.1177L29.7821 22.7142C31.9952 21.3923 33.8002 20.2844 33.7932 20.2521C33.7862 20.2199 33.5886 19.8481 33.3542 19.4259C33.0511 18.8799 32.9055 18.6646 32.8499 18.6801C32.7712 18.7021 25.5118 23.0254 25.0689 23.3141C24.9379 23.3995 24.8307 23.446 24.8307 23.4174C24.8307 23.3888 25.8581 21.5272 27.1137 19.2806C28.3694 17.0339 29.4016 15.1699 29.4076 15.1383C29.418 15.083 28.0164 14.1861 27.9142 14.1826C27.8731 14.1812 24.2979 20.4305 23.4435 21.9972C23.3102 22.2415 23.1843 22.4421 23.1636 22.4428C23.1429 22.4435 23.126 20.2932 23.126 17.6642V12.8842H22.1985H21.2709V17.6758Z" fill="black"/>
</g>
<defs>
<filter id="filter0_d_111_3227" x="5.26282" y="12.8842" width="33.8713" height="22.2054" filterUnits="userSpaceOnUse" color-interpolation-filters="sRGB">
<feFlood flood-opacity="0" result="BackgroundImageFix"/>
<feColorMatrix in="SourceAlpha" type="matrix" values="0 0 0 0 0 0 0 0 0 0 0 0 0 0 0 0 0 0 127 0" result="hardAlpha"/>
<feOffset dy="4"/>
<feGaussianBlur stdDeviation="2"/>
<feComposite in2="hardAlpha" operator="out"/>
<feColorMatrix type="matrix" values="0 0 0 0 0 0 0 0 0 0 0 0 0 0 0 0 0 0 0.25 0"/>
<feBlend mode="normal" in2="BackgroundImageFix" result="effect1_dropShadow_111_3227"/>
<feBlend mode="normal" in="SourceGraphic" in2="effect1_dropShadow_111_3227" result="shape"/>
</filter>
<linearGradient id="paint0_linear_111_3227" x1="22.1985" y1="0.108032" x2="22.1985" y2="43.0001" gradientUnits="userSpaceOnUse">
<stop stop-color="#D9D9D9"/>
<stop offset="1" stop-color="#737373"/>
</linearGradient>
</defs>
</svg>
