<svg width="305" height="484" viewBox="0 0 305 484" fill="none" xmlns="http://www.w3.org/2000/svg">
<path d="M163.696 418.433C143.931 418.66 124.166 417.712 104.4 417.901C93.7015 417.977 83.0029 417.484 72.2589 417.219C67.2722 417.105 62.2855 417.181 57.3442 417.636C53.8989 413.349 50.2269 409.176 48.0055 404.32C46.0109 399.919 43.2455 395.746 41.7949 391.118C37.1255 376.587 38.1682 361.944 40.7069 347.3C42.6109 336.298 46.9629 325.713 48.9575 314.711C54.1709 320.212 59.5202 325.6 65.2322 330.721C79.8295 343.696 96.0135 354.887 115.552 362.437C117.32 363.12 119.088 363.461 121.038 363.423C123.984 363.385 126.251 361.982 128.79 361.071C135.816 358.491 142.208 355.039 148.374 351.283C160.07 344.189 170.678 336.032 180.152 326.851C184.595 322.564 188.766 318.05 194.115 314.522C196.744 324.082 201.096 333.149 205.992 342.026C209.936 349.121 211.931 356.708 213.155 364.41C214.832 374.766 214.515 385.199 214.334 395.632C214.198 402.726 212.384 409.631 210.979 416.574C209.12 416.422 207.262 416.574 205.358 416.687C202.683 416.877 200.008 417.37 197.288 417.181C187.904 416.574 178.52 416.649 169.136 417.332C167.278 417.484 165.283 417.408 163.696 418.433Z" fill="#EED05E"/>
<path d="M48.9122 314.711C46.9175 325.713 42.5655 336.298 40.6615 347.3C38.1229 361.944 37.0802 376.588 41.7495 391.118C43.2455 395.708 45.9655 399.881 47.9602 404.32C50.1815 409.176 53.8535 413.349 57.2988 417.636C57.6615 418.167 58.0695 418.698 58.5229 419.343C56.3015 419.191 54.2162 419.002 52.1762 418.888C51.4055 418.85 51.1789 418.357 50.8615 417.939C42.3389 406.179 35.5842 393.887 33.9522 379.964C31.7308 360.995 35.3575 342.596 41.4322 324.386C42.9282 319.871 44.4695 315.394 45.3308 310.766C45.5575 309.476 45.1495 308.566 44.0615 307.579C39.0295 302.913 34.3602 297.981 32.5469 291.721C31.1415 286.941 32.0482 282.389 36.5362 278.823C37.2162 278.291 37.2615 277.798 37.1255 277.153C35.4028 268.997 38.6668 262.396 46.1922 257.16C58.6588 248.473 73.0295 243.237 88.8055 240.468C94.5628 239.443 100.366 238.571 106.214 238.116C107.12 238.04 107.483 237.812 107.574 236.978C108.163 230.149 112.832 225.407 119.179 221.727C125.254 218.198 131.827 215.277 137.448 211.218C139.398 209.814 141.392 210.421 142.798 212.584C145.518 216.719 146.016 221.233 145.336 225.824C145.11 227.228 145.155 227.531 147.014 227.19C151.728 226.393 155.99 224.648 160.432 223.206C163.968 222.068 165.827 222.789 166.598 225.824C168.003 231.363 167.142 236.674 163.152 241.378C162.11 242.592 162.654 242.706 163.878 243.048C174.304 245.893 183.96 249.952 192.619 255.605C193.571 256.212 194.478 256.895 195.384 257.54C202.638 262.661 205.448 269.186 203.998 277.002C203.907 277.609 203.635 278.102 204.36 278.709C209.71 283.11 210.163 288.345 207.715 293.922C205.584 298.778 201.912 302.913 197.878 306.783C197.016 307.617 196.744 308.3 197.062 309.438C199.192 318.278 203.136 326.624 207.624 334.78C210.254 339.523 212.974 344.227 214.696 349.273C215.739 349.159 216.147 348.476 216.691 348.021C221.451 343.772 226.166 339.485 230.926 335.274C235.822 330.911 241.126 327.003 247.427 324.12C252.595 321.768 258.126 320.668 264.019 321.351C271.454 322.223 276.712 325.713 280.339 331.1C284.011 336.526 285.235 342.482 285.643 348.59C286.958 367.217 281.971 384.744 271.182 401.019C264.427 411.224 254.726 419.381 244.39 427.006C230.744 437.06 215.603 445.179 198.92 451.173C195.656 452.349 192.392 453.487 188.766 453.714C186.726 453.866 185.728 453.183 186.091 451.4C187.768 450.414 189.536 449.617 191.44 449.01C205.675 444.609 218.55 438.084 230.744 430.648C231.152 430.383 231.923 430.269 231.696 429.586C232.648 429.852 233.056 429.169 233.6 428.79C236.592 426.741 239.403 424.578 242.486 422.606C246.294 420.178 248.288 417.029 249.376 413.159C250.827 407.924 252.731 402.802 252.142 397.339C251.824 394.342 250.827 391.687 247.2 390.207C245.296 389.41 244.752 387.969 245.07 386.224C245.568 383.416 246.339 380.647 246.838 377.839C247.971 371.352 239.63 364.296 232.331 366.306C231.832 366.458 231.288 366.42 230.744 366.42C229.112 366.458 228.342 365.699 228.568 364.372C228.704 363.575 229.067 362.778 229.339 362.02C230.336 359.364 231.334 356.708 231.424 353.901C231.56 350.904 229.656 348.172 226.71 347.148C225.576 346.731 224.624 346.769 223.672 347.603C221.678 349.31 219.592 351.018 217.371 352.497C216.192 353.294 216.238 353.977 216.827 354.887C216.51 355.38 216.691 355.874 216.827 356.367C219.366 365.092 219.32 373.97 219.774 382.885C220.318 393.849 219.003 404.661 216.51 415.398C216.102 417.143 215.92 418.888 215.422 420.595C215.15 421.619 214.243 422.53 212.883 422.416C211.342 422.302 210.888 421.202 210.843 420.064C210.798 418.888 210.888 417.674 210.934 416.46C212.339 409.517 214.198 402.575 214.288 395.518C214.47 385.123 214.787 374.691 213.11 364.296C211.84 356.594 209.846 349.007 205.947 341.913C201.051 333.035 196.699 323.968 194.07 314.408C193.888 313.346 193.707 312.246 193.526 311.032C193.072 311.335 192.891 311.411 192.755 311.563C182.51 320.668 170.723 328.255 158.619 335.501C147.694 342.064 136.451 348.172 123.803 352.27C121.627 352.99 119.678 353.028 117.502 352.27C109.206 349.348 101.182 346.048 93.7015 341.799C78.3789 333.111 63.1922 324.272 50.3629 312.966C50.1362 312.739 49.8642 312.435 49.2295 312.663C49.0935 313.384 49.0028 314.029 48.9122 314.711ZM190.307 290.166C189.582 288.99 190.443 288.231 191.304 287.51C194.614 284.817 197.016 281.592 198.286 277.912C199.782 273.587 199.646 269.3 196.608 265.355C193.979 261.902 190.216 259.512 186.318 257.198C169.907 247.6 151.184 243.237 131.691 241.492C115.371 240.05 99.1869 241.72 83.4109 245.893C70.7629 249.231 58.8402 253.67 48.8215 261.106C41.6589 266.417 40.0722 272.487 43.6082 279.923C45.0589 282.92 47.2349 285.462 49.9095 287.7C50.7709 288.459 51.2242 289.217 50.7708 290.242C49.9548 290.204 49.1842 290.242 48.4588 289.711C46.3282 288.155 44.1068 286.638 42.3842 284.741C41.3868 283.679 40.5255 282.503 39.0749 281.592C37.6242 283.299 36.8988 285.196 36.7175 287.207C36.3548 289.331 36.9442 291.38 37.9415 293.277C40.4349 298.019 44.1069 302.04 48.4135 305.758C57.4349 313.497 67.0455 320.706 77.4722 327.117C90.5282 335.122 103.539 343.089 118.544 348.4C119.904 348.893 121.038 348.931 122.352 348.4C129.696 345.555 136.859 342.52 143.614 338.764C161.43 328.9 178.384 318.24 193.163 305.227C196.608 302.192 199.646 298.892 201.958 295.174C203.499 292.708 204.632 290.128 204.27 287.245C204.134 285.803 203.544 284.437 202.955 283.072C202.32 281.706 201.595 281.402 200.416 282.73C198.286 285.158 195.928 287.434 193.027 289.331C192.256 289.9 191.44 290.318 190.307 290.166ZM251.915 414.222C252.096 414.335 252.232 414.411 252.414 414.525C253.23 413.804 254.046 413.121 254.816 412.363C273.766 394.418 281.291 373.211 280.43 349.652C280.248 344.113 279.115 338.612 275.896 333.566C271.68 327.003 264.246 324.12 255.723 326.207C243.392 329.166 235.867 337.36 227.39 344.644C233.51 347.224 235.595 350.714 234.643 356.215C234.235 358.643 233.374 360.995 232.648 363.499C233.147 363.499 233.51 363.499 233.872 363.499C242.486 363.196 249.875 369.152 249.966 376.398C250.011 379.736 248.832 382.885 247.926 386.072C247.518 387.438 247.926 388.234 249.331 388.841C251.915 389.942 253.411 391.725 254.227 394.039C255.451 397.643 255.315 401.285 254.68 404.927C254.091 408.076 252.867 411.111 251.915 414.222ZM122.67 237.888C122.67 237.926 122.67 237.926 122.67 237.964C126.206 237.964 129.742 237.926 133.323 238.002C134.275 238.002 134.864 237.812 135.363 237.129C139.942 230.832 141.71 224.117 139.579 216.833C139.126 215.315 138.4 215.429 137.176 216.264C133.822 218.616 130.014 220.475 126.16 222.182C123.032 223.586 120.04 225.179 117.411 227.152C114.011 229.694 111.608 232.729 110.52 236.484C110.158 237.66 110.566 237.85 111.88 237.85C115.416 237.85 119.043 237.888 122.67 237.888ZM139.579 238.571C145.88 239.481 151.955 240.316 157.939 241.606C158.71 241.758 158.936 241.34 159.208 240.847C161.475 236.826 162.654 232.653 162.246 228.176C162.155 227.152 161.928 226.583 160.523 227.19C155.854 229.087 150.958 230.187 145.835 230.794C145.019 230.908 144.067 231.021 143.704 231.932C142.752 234.208 141.392 236.408 139.579 238.571ZM252.006 414.791C251.96 414.753 251.915 414.715 251.87 414.639C251.824 414.677 251.734 414.715 251.734 414.753C251.734 414.791 251.824 414.829 251.87 414.904C251.915 414.866 251.96 414.829 252.006 414.791Z" fill="#060605"/>
<path d="M210.933 416.574C210.888 417.788 210.797 418.964 210.843 420.178C210.888 421.316 211.387 422.416 212.883 422.53C214.243 422.644 215.149 421.733 215.421 420.709C215.92 419.002 216.101 417.219 216.509 415.511C219.003 404.775 220.317 393.963 219.773 382.999C219.365 374.122 219.365 365.206 216.827 356.481C216.691 355.987 216.555 355.494 216.827 355.001C218.821 356.708 219.501 359.022 220.272 361.185C224.397 372.414 225.984 384.099 228.477 395.632C230.2 403.561 231.56 411.566 231.968 419.609C232.149 422.947 232.421 426.286 231.651 429.624C231.832 430.307 231.107 430.459 230.699 430.686C218.459 438.122 205.629 444.647 191.395 449.048C189.491 449.655 187.677 450.414 186.045 451.438C181.013 448.858 177.296 445.179 174.123 441.043C169.997 435.656 166.915 429.89 165.011 423.668C164.467 421.923 163.016 420.367 163.651 418.433C165.237 417.408 167.232 417.484 169.045 417.37C178.429 416.649 187.813 416.574 197.197 417.219C199.917 417.408 202.592 416.915 205.267 416.725C207.171 416.574 209.029 416.422 210.933 416.574Z" fill="#937234"/>
<path d="M48.9121 314.711C49.0028 314.029 49.0934 313.384 49.1841 312.777C49.8188 312.587 50.0454 312.89 50.3174 313.08C63.1921 324.348 78.3334 333.225 93.6561 341.913C101.136 346.162 109.16 349.462 117.456 352.383C119.632 353.142 121.581 353.066 123.757 352.383C136.405 348.286 147.648 342.178 158.573 335.615C170.677 328.369 182.464 320.781 192.709 311.676C192.845 311.563 193.072 311.449 193.48 311.145C193.661 312.359 193.843 313.459 194.024 314.522C188.675 318.088 184.459 322.564 180.061 326.851C170.587 336.032 160.024 344.151 148.283 351.283C142.117 355.039 135.725 358.491 128.699 361.071C126.16 361.982 123.893 363.385 120.947 363.423C118.997 363.461 117.229 363.082 115.461 362.437C95.9681 354.887 79.7388 343.696 65.1415 330.721C59.4295 325.6 54.1254 320.212 48.9121 314.711Z" fill="#937234"/>
<path d="M204.405 287.207C204.768 290.09 203.635 292.67 202.093 295.136C199.736 298.854 196.744 302.154 193.299 305.189C178.52 318.202 161.565 328.862 143.749 338.726C136.995 342.482 129.832 345.517 122.488 348.362C121.128 348.893 119.995 348.855 118.68 348.362C103.675 343.013 90.6187 335.084 77.608 327.079C67.1813 320.668 57.5707 313.46 48.5493 305.72C44.2427 302.04 40.5707 297.981 38.0773 293.239C37.08 291.304 36.4907 289.293 36.8533 287.169C37.624 287.131 37.9867 287.7 38.5307 288.003C42.2027 290.166 46.2827 291.494 50.7707 291.759C51.36 291.797 52.0853 291.835 52.176 291.152C52.2213 290.469 51.7227 290.128 50.9067 290.204C51.4053 289.179 50.952 288.421 50.0453 287.662C47.3707 285.386 45.1493 282.882 43.744 279.885C40.208 272.449 41.7493 266.379 48.9573 261.068C58.976 253.632 70.8987 249.193 83.5467 245.855C99.3227 241.682 115.507 240.012 131.827 241.454C151.32 243.199 170.043 247.562 186.453 257.16C190.352 259.437 194.115 261.865 196.744 265.317C199.781 269.3 199.917 273.549 198.421 277.874C197.152 281.554 194.704 284.779 191.44 287.472C190.579 288.193 189.717 288.952 190.443 290.128C189.627 290.128 189.128 290.393 189.264 291.152C189.355 291.721 189.944 291.721 190.488 291.759C191.848 291.835 193.163 291.494 194.477 291.228C198.013 290.469 201.232 288.838 204.405 287.207ZM120.448 309.666C126.885 309.552 133.141 308.831 139.08 307.2C153.451 303.292 166.869 297.943 178.157 289.142C185.093 283.717 187.541 277.457 185.592 269.869C182.6 258.185 172.581 251.773 160.115 248.359C149.824 245.513 138.853 245.058 127.973 244.679C115.507 244.224 103.131 244.868 90.8 246.614C85.4053 247.372 80.0107 248.055 75.0693 250.369C68.5867 253.366 62.8293 256.819 59.0213 262.244C53.2187 270.438 52.6747 281.63 62.9653 289.293C71.7147 295.819 81.6427 300.561 92.3413 304.317C101.408 307.503 110.792 309.324 120.448 309.666ZM122.579 329.621C121.717 326.396 122.624 323.437 122.352 320.478C122.261 319.34 122.307 318.202 120.448 318.202C118.68 318.24 118.816 319.378 118.816 320.402C118.816 323.399 118.816 326.396 118.816 329.811C116.277 327.155 114.555 324.689 113.24 321.995C112.877 321.237 112.197 320.44 111.064 320.63C109.704 320.857 110.157 321.957 110.203 322.678C110.248 323.399 110.565 324.158 110.883 324.879C112.016 327.231 113.512 329.431 115.371 331.442C116.141 332.276 116.368 332.808 115.325 333.642C113.285 335.236 113.376 335.274 111.789 333.339C111.291 332.694 110.837 332.049 110.339 331.442C109.16 329.886 108.389 328.179 106.893 326.776C106.395 326.32 105.987 325.637 105.08 325.979C104.219 326.32 104.672 326.927 104.763 327.496C105.125 330 106.667 332.125 108.163 334.249C108.661 334.932 109.523 335.501 109.795 336.791C107.709 335.767 105.987 335.008 104.355 334.097C101.907 332.732 99.5493 331.252 97.1467 329.811C96.512 329.431 95.7867 329.128 95.1067 329.773C94.5627 330.304 94.6987 330.949 95.152 331.518C95.424 331.821 95.696 332.125 96.0133 332.39C99.8667 335.767 104.4 338.346 109.387 340.357C111.064 341.04 112.56 340.85 113.875 339.674C115.688 338.081 117.637 336.563 119.451 334.97C120.267 334.249 120.856 334.287 121.627 334.97C123.44 336.563 125.435 338.043 127.248 339.674C128.427 340.737 129.877 341.078 131.328 340.509C136.632 338.422 141.437 335.691 145.427 332.087C146.107 331.48 147.013 330.683 145.971 329.773C145.064 328.976 144.157 329.659 143.387 330.114C140.803 331.632 138.264 333.225 135.589 334.667C134.365 335.349 133.096 336.146 131.237 336.374C133.459 333.566 135.589 331.025 136.315 327.914C136.451 327.269 136.904 326.434 136.043 326.017C135.045 325.562 134.547 326.434 134.139 326.965C132.416 329.166 130.829 331.48 129.061 333.68C128.653 334.173 128.336 335.691 127.067 334.477C126.251 333.718 123.803 333.453 125.707 331.518C128.019 329.166 129.832 326.51 130.784 323.551C131.101 322.565 131.781 321.199 130.195 320.743C128.835 320.326 128.2 321.578 127.656 322.451C127.429 322.792 127.248 323.134 127.067 323.475C125.979 325.599 124.437 327.534 122.579 329.621Z" fill="#F4FB95"/>
<path d="M251.915 414.222C252.867 411.111 254.136 408.076 254.635 404.889C255.27 401.247 255.406 397.605 254.182 394.001C253.366 391.687 251.87 389.904 249.286 388.803C247.835 388.196 247.472 387.4 247.88 386.034C248.787 382.847 249.966 379.698 249.92 376.36C249.83 369.076 242.486 363.12 233.827 363.461C233.464 363.461 233.102 363.461 232.603 363.461C233.328 360.957 234.19 358.643 234.598 356.177C235.55 350.676 233.464 347.186 227.344 344.606C235.822 337.322 243.392 329.128 255.678 326.169C264.2 324.12 271.635 327.003 275.851 333.528C279.07 338.574 280.203 344.075 280.384 349.614C281.246 373.173 273.72 394.418 254.771 412.325C254 413.045 253.139 413.766 252.368 414.487C252.232 414.411 252.096 414.335 251.915 414.222Z" fill="#FAF0EE"/>
<path d="M231.696 429.624C232.467 426.286 232.195 422.947 232.014 419.609C231.56 411.528 230.2 403.561 228.523 395.632C226.03 384.099 224.443 372.452 220.318 361.185C219.502 359.022 218.867 356.708 216.872 355.001C216.283 354.091 216.238 353.408 217.416 352.611C219.638 351.094 221.678 349.424 223.718 347.717C224.67 346.882 225.622 346.882 226.755 347.262C229.702 348.286 231.606 351.018 231.47 354.015C231.334 356.822 230.382 359.478 229.384 362.133C229.112 362.93 228.75 363.689 228.614 364.485C228.387 365.813 229.158 366.534 230.79 366.534C231.334 366.534 231.878 366.534 232.376 366.42C239.675 364.372 248.016 371.466 246.883 377.953C246.384 380.761 245.614 383.53 245.115 386.337C244.798 388.083 245.342 389.562 247.246 390.321C250.872 391.8 251.87 394.456 252.187 397.453C252.776 402.916 250.872 408.038 249.422 413.273C248.334 417.105 246.339 420.292 242.531 422.72C239.494 424.654 236.638 426.855 233.646 428.903C233.056 429.207 232.603 429.89 231.696 429.624Z" fill="#ECCF5D"/>
<path d="M122.67 237.888C119.043 237.888 115.416 237.85 111.79 237.926C110.475 237.964 110.112 237.736 110.43 236.56C111.518 232.804 113.92 229.769 117.32 227.228C119.995 225.255 122.942 223.661 126.07 222.258C129.923 220.513 133.731 218.692 137.086 216.34C138.31 215.467 139.035 215.391 139.488 216.909C141.664 224.193 139.851 230.908 135.272 237.205C134.774 237.888 134.184 238.078 133.232 238.078C129.696 238.002 126.16 238.04 122.579 238.04C122.67 237.926 122.67 237.926 122.67 237.888Z" fill="#F3FA95"/>
<path d="M139.579 238.571C141.347 236.408 142.707 234.208 143.659 231.894C144.021 230.983 144.973 230.87 145.789 230.756C150.912 230.149 155.853 229.049 160.477 227.152C161.928 226.583 162.109 227.152 162.2 228.138C162.608 232.615 161.429 236.788 159.163 240.809C158.891 241.302 158.664 241.758 157.893 241.568C152 240.278 145.88 239.481 139.579 238.571Z" fill="#F1F893"/>
<path d="M50.816 290.204C51.632 290.128 52.176 290.469 52.0854 291.152C52.04 291.873 51.2694 291.797 50.68 291.759C46.192 291.494 42.112 290.166 38.44 288.003C37.896 287.7 37.5334 287.131 36.7627 287.169C36.9894 285.158 37.6694 283.261 39.12 281.554C40.5707 282.465 41.432 283.641 42.4294 284.703C44.152 286.638 46.3734 288.117 48.504 289.673C49.2294 290.204 50 290.166 50.816 290.204Z" fill="#9A9A52"/>
<path d="M204.406 287.207C201.232 288.838 198.014 290.469 194.342 291.228C193.027 291.494 191.712 291.835 190.352 291.759C189.808 291.721 189.219 291.721 189.128 291.152C188.992 290.431 189.491 290.128 190.307 290.128C191.44 290.318 192.256 289.862 193.118 289.293C196.019 287.396 198.376 285.12 200.507 282.692C201.686 281.326 202.411 281.668 203.046 283.034C203.68 284.399 204.27 285.727 204.406 287.207Z" fill="#9A9A52"/>
<path d="M252.005 414.791C251.96 414.829 251.915 414.866 251.869 414.904C251.824 414.866 251.733 414.829 251.733 414.753C251.733 414.715 251.824 414.677 251.869 414.639C251.915 414.715 251.96 414.753 252.005 414.791Z" fill="#FAF0EE"/>
<path d="M120.448 309.666C110.792 309.324 101.408 307.503 92.3413 304.317C81.6427 300.561 71.76 295.781 62.9653 289.293C52.6747 281.63 53.2187 270.438 59.0213 262.244C62.8293 256.819 68.5867 253.367 75.0693 250.369C80.056 248.055 85.4053 247.372 90.8 246.614C103.085 244.906 115.507 244.224 127.973 244.679C138.808 245.058 149.824 245.513 160.115 248.359C172.627 251.811 182.6 258.185 185.592 269.869C187.496 277.419 185.093 283.717 178.157 289.142C166.915 297.943 153.451 303.292 139.08 307.2C133.141 308.793 126.931 309.514 120.448 309.666ZM120.584 255.719C123.893 255.984 127.157 256.174 130.467 256.477C139.851 257.388 149.144 258.754 157.757 262.32C160.931 263.648 164.059 265.089 166.552 267.252C169.136 269.49 169.499 271.463 167.867 273.891C167.413 274.574 166.779 275.332 167.595 275.939C168.365 276.546 169.453 276.319 170.36 275.939C172.536 275.067 173.851 272.791 173.488 270.476C172.944 266.683 170.088 264.255 166.597 262.206C161.112 259.057 155.037 257.009 148.645 255.643C139.171 253.594 129.605 252.532 119.768 252.608C108.752 252.684 98.0987 254.049 87.7173 256.895C81.688 258.564 75.8853 260.726 71.2613 264.558C68.9947 266.455 67.5893 268.731 67.6347 271.463C67.68 273.739 69.584 275.788 71.76 276.167C72.5307 276.319 73.3013 276.319 73.8 275.712C74.2533 275.181 73.8907 274.649 73.528 274.118C71.6693 271.235 71.9867 269.338 74.752 267.024C77.6533 264.634 81.144 263.041 84.816 261.637C96.1947 257.464 108.389 256.629 120.584 255.719Z" fill="#9C9C53"/>
<path d="M122.579 329.621C124.483 327.534 125.979 325.6 127.112 323.475C127.294 323.134 127.475 322.792 127.702 322.451C128.291 321.578 128.88 320.326 130.24 320.744C131.782 321.237 131.147 322.565 130.83 323.551C129.832 326.51 128.019 329.166 125.752 331.518C123.848 333.453 126.296 333.718 127.112 334.477C128.382 335.691 128.699 334.173 129.107 333.68C130.875 331.48 132.462 329.204 134.184 326.965C134.592 326.434 135.136 325.562 136.088 326.017C136.95 326.434 136.542 327.269 136.36 327.914C135.635 331.025 133.504 333.566 131.283 336.374C133.142 336.146 134.411 335.349 135.635 334.667C138.264 333.225 140.848 331.632 143.432 330.114C144.248 329.659 145.11 328.976 146.016 329.773C147.059 330.645 146.152 331.442 145.472 332.087C141.483 335.691 136.678 338.46 131.374 340.509C129.878 341.078 128.472 340.737 127.294 339.674C125.48 338.081 123.531 336.563 121.672 334.97C120.856 334.249 120.312 334.249 119.496 334.97C117.683 336.563 115.734 338.081 113.92 339.674C112.56 340.85 111.064 341.04 109.432 340.357C104.446 338.346 99.9122 335.729 96.0589 332.39C95.7416 332.125 95.4242 331.821 95.1976 331.518C94.7442 330.949 94.6082 330.304 95.1522 329.773C95.7869 329.166 96.5122 329.431 97.1922 329.811C99.5949 331.214 101.952 332.694 104.4 334.097C106.032 335.008 107.755 335.767 109.84 336.791C109.568 335.501 108.707 334.97 108.208 334.249C106.712 332.125 105.171 330.038 104.808 327.496C104.718 326.965 104.264 326.32 105.126 325.979C106.032 325.6 106.44 326.32 106.939 326.776C108.435 328.141 109.206 329.886 110.384 331.442C110.883 332.087 111.336 332.732 111.835 333.339C113.376 335.274 113.331 335.236 115.371 333.642C116.414 332.808 116.232 332.314 115.416 331.442C113.558 329.431 112.016 327.269 110.928 324.879C110.611 324.196 110.339 323.437 110.248 322.678C110.203 321.92 109.75 320.857 111.11 320.63C112.243 320.44 112.923 321.237 113.286 321.995C114.646 324.651 116.323 327.155 118.862 329.811C118.862 326.358 118.862 323.361 118.862 320.402C118.862 319.378 118.726 318.202 120.494 318.202C122.307 318.164 122.307 319.34 122.398 320.478C122.579 323.437 121.718 326.396 122.579 329.621Z" fill="#A17729"/>
<path d="M120.584 255.719C108.39 256.629 96.195 257.426 84.8163 261.751C81.1443 263.154 77.6537 264.748 74.7523 267.138C71.9417 269.452 71.6697 271.349 73.5283 274.232C73.8457 274.763 74.2537 275.256 73.8003 275.825C73.3017 276.395 72.531 276.395 71.7603 276.281C69.5843 275.901 67.6803 273.853 67.635 271.577C67.5443 268.807 68.9497 266.569 71.2617 264.672C75.8857 260.84 81.6883 258.64 87.7177 257.009C98.099 254.163 108.752 252.797 119.768 252.722C129.606 252.646 139.171 253.708 148.646 255.757C155.038 257.122 161.112 259.171 166.598 262.32C170.088 264.368 172.944 266.796 173.488 270.59C173.806 272.904 172.536 275.143 170.36 276.053C169.454 276.433 168.366 276.698 167.595 276.053C166.824 275.408 167.414 274.687 167.867 274.005C169.499 271.577 169.136 269.604 166.552 267.365C164.059 265.203 160.931 263.761 157.758 262.434C149.144 258.867 139.896 257.54 130.467 256.591C127.158 256.174 123.848 255.984 120.584 255.719Z" fill="#050502"/>
<path d="M236.097 231.637C237.366 231.182 238.545 230.651 239.86 230.347C242.036 229.816 244.257 229.702 245.98 231.258C247.748 232.851 248.156 234.824 247.43 236.91C245.889 241.425 243.532 245.636 240.676 249.695C229.342 265.743 213.34 277.883 194.572 287.519C173.809 298.141 151.414 305.236 127.206 307.967C108.438 310.092 89.8515 309.712 71.8995 303.87C62.3795 300.797 53.9022 296.245 46.4222 290.44C43.8835 288.505 41.9795 286.153 40.8915 283.384C40.5742 282.549 39.9395 282.018 39.0782 281.563C36.7208 280.349 34.7262 278.831 33.3208 276.821C31.0088 273.558 31.2808 271.206 34.2728 268.398C34.6808 268.019 35.0888 267.64 35.5422 267.26C33.0488 265.857 30.8275 264.225 29.2862 262.063C27.5635 259.597 28.1075 257.814 31.0088 256.296C33.0942 255.196 35.4062 254.627 37.7182 254.134C38.8062 253.906 39.3048 253.527 38.9422 252.541C38.7608 252.009 38.6702 251.44 38.6248 250.871C38.4435 248.595 37.5368 246.774 34.9982 245.598C33.6835 244.991 32.7768 243.891 32.0515 242.753C31.7795 242.297 31.5982 241.728 32.0968 241.349C32.6862 240.932 33.2302 241.273 33.6382 241.69C34.0462 242.108 34.5902 242.26 35.3608 242.184C34.9075 240.59 33.8648 239.376 33.1395 238.011C27.5635 228.071 21.2168 218.473 16.6835 208.154C4.71551 180.877 -1.31383 152.803 0.726174 123.819C2.53951 98.0211 7.0275 72.5651 19.7208 48.6265C26.1128 36.5624 33.4115 24.9914 44.5635 15.4312C49.5502 11.1442 55.1262 7.54018 61.7902 5.22599C68.9075 2.72212 75.2088 4.16374 79.7875 9.39912C84.2302 14.5207 86.3155 20.4769 88.1288 26.471C91.3475 36.9417 92.7528 47.716 95.0195 58.3385C98.4195 74.3102 99.9155 90.5474 103.18 106.557C105.764 119.152 107.94 131.899 112.972 144.039C115.193 149.388 115.238 149.351 121.902 149.199C122.945 149.161 123.126 148.63 123.489 148.099C149.148 112.513 176.891 78.066 205.315 43.9981C215.017 32.3513 226.35 21.8047 239.497 12.7756C245.3 8.79212 251.51 5.33981 258.22 2.53243C260.804 1.47018 263.478 0.635559 266.38 0.407934C274.132 -0.199066 279.98 2.83593 282.564 8.94387C284.966 14.5586 285.329 20.4389 285.646 26.3192C286.78 47.6401 284.558 68.7334 280.07 89.7128C278.076 99.0454 277.305 108.568 274.812 117.787C267.422 144.684 258.945 171.316 243.214 195.862C239.361 201.818 235.19 207.585 229.705 212.592C228.753 213.465 228.39 216.917 229.025 217.942C229.388 218.587 229.932 218.207 230.34 218.169C235.689 217.828 238.001 219.687 237.91 224.201C237.865 226.743 236.732 228.981 235.598 231.258C235.508 231.409 235.326 231.675 235.372 231.713C235.598 231.941 235.825 231.751 236.097 231.637ZM63.6488 264.756C63.6942 264.832 63.7848 264.908 63.8302 264.946C63.8302 264.908 63.8302 264.87 63.7848 264.832C63.7395 264.832 63.6488 264.832 63.6488 264.756C63.4675 264.643 63.3768 264.491 63.2408 264.339C61.2915 261.646 60.0675 258.649 58.7982 255.462C57.9368 258.042 60.2942 262.784 63.0595 264.491C63.2408 264.605 63.4222 264.681 63.6488 264.756ZM226.713 257.966L226.758 257.89C227.121 257.814 227.348 257.624 227.257 257.283L227.302 257.207C227.71 257.131 227.891 256.941 227.755 256.6L227.846 256.486C228.164 256.486 228.254 256.372 228.118 256.145L228.164 256.107C228.3 256.069 228.526 256.107 228.572 256.031C233.468 250.188 238.953 244.65 241.582 237.707C242.036 236.569 243.214 235.165 241.945 234.141C240.63 233.079 238.817 233.837 237.276 234.293C237.23 234.293 237.185 234.369 237.14 234.444C234.42 235.165 232.017 236.379 229.433 237.29C227.393 238.048 226.668 237.555 226.713 235.62C227.846 235.279 228.436 234.444 228.98 233.61C230.793 230.878 231.7 227.919 232.244 224.884C232.833 221.659 231.926 221.052 228.164 221.963C227.076 221.925 226.124 222.266 225.126 222.532C219.188 224.012 213.249 225.529 207.31 227.009C206.177 227.312 205.044 227.692 203.82 227.198C203.638 226.629 203.956 226.174 204.273 225.757C210.62 224.315 216.649 222.191 222.769 220.332C225.489 219.497 225.489 219.383 224.582 216.879C222.451 218.017 220.412 219.573 217.646 218.169C217.556 216.917 218.372 216.045 219.46 215.324C225.625 211.113 230.294 205.839 234.284 200.149C245.526 184.215 253.505 167.181 259.398 149.388C263.206 137.818 267.513 126.36 269.961 114.524C271.956 105.002 273.18 95.3655 275.084 85.8432C279.345 64.712 281.34 43.467 279.708 22.0323C279.39 17.9351 278.937 13.8378 277.124 9.96818C275.129 5.68124 270.732 3.86025 265.473 4.96043C263.161 5.41568 261.076 6.2503 258.99 7.1608C246.161 12.6997 235.78 20.7804 226.124 29.5439C215.017 39.5974 205.724 50.8269 196.657 62.1702C179.158 84.0601 161.523 105.874 144.569 128.068C138.494 135.997 132.284 143.812 126.345 151.816C125.62 152.803 124.804 154.017 123.217 153.486C118.956 152.082 114.604 152.841 110.524 153.486C87.5395 156.976 68.9528 166.802 54.2195 181.901C53.1315 183.001 53.4035 183.456 54.6728 184.177C60.2035 187.288 65.4168 190.74 70.4942 194.269C71.4462 194.913 72.3982 195.52 72.8062 196.545C72.7608 197.038 72.8515 197.569 72.6702 198.062C70.1315 205.308 67.7742 212.592 64.3288 219.611C63.2408 221.773 62.1982 222.039 59.5235 221.204C53.2675 219.193 47.3288 216.576 41.3448 214.034C38.4888 212.82 38.4888 212.82 37.9902 215.324C36.8115 223.139 37.1288 230.84 40.2115 238.352C40.3475 236.076 40.7555 233.837 41.8888 231.751C45.0168 226.022 51.2275 225.112 56.3048 229.702C57.3022 230.613 58.2088 231.675 59.0702 232.699C61.4275 235.583 63.1955 238.731 64.6915 241.956C68.5448 250.151 72.8062 258.345 69.4515 267.526C69.0888 267.564 69.0435 267.791 69.0435 268.019C68.0462 269.081 66.7768 269.916 65.3715 270.637C65.0542 270.599 64.7368 270.637 64.6462 270.94V270.902C58.2995 270.826 53.2675 267.943 51.5448 263.391C51.2728 262.67 50.6382 261.797 52.1795 261.456C53.6755 262.442 54.6275 263.846 55.8062 265.022C58.1635 267.374 61.0195 268.588 63.9208 268.323C59.7502 266.957 57.8915 264.187 56.7128 260.963C56.5315 260.432 56.3502 259.862 56.1688 259.331C55.3075 257.169 55.3528 255.12 57.5288 253.451C59.1155 252.237 58.4808 251.63 56.6222 251.402C55.0355 251.213 53.3582 251.099 52.8142 249.544C50.8195 243.777 49.5502 237.973 53.4035 232.358C53.7662 231.865 53.8115 231.523 53.3582 231.068C51.6808 229.399 49.0968 229.209 47.1928 230.727C45.0168 232.51 44.1555 234.748 44.1102 237.214C44.0648 240.439 44.4728 243.625 44.9715 246.812C45.0168 247.874 43.7475 248.671 44.0648 249.847C44.9262 253.034 45.1528 256.296 45.5608 259.521C45.8328 264.643 46.2862 269.764 45.5608 274.848C44.7902 280.349 47.0115 284.825 51.8168 288.392C63.7848 297.231 77.8835 302.353 93.5688 304.325C105.764 305.843 117.913 305.198 130.017 303.301C144.297 301.025 158.26 298.028 171.633 293.248C185.868 288.126 198.969 281.411 210.257 272.496C215.833 268.095 221.772 263.922 226.124 258.535C226.668 258.307 226.804 258.193 226.713 257.966ZM57.3022 240.021C58.0728 240.173 58.9342 240.438 59.5688 239.794C60.1582 239.149 59.4328 238.655 59.1608 238.124C58.7982 237.441 58.5715 236.721 57.8462 236.227C57.5742 235.317 56.9848 234.558 56.1235 233.799C53.9475 237.176 53.9022 240.666 54.4008 244.194C54.5822 245.56 55.0808 246.888 55.4888 248.216C55.7155 248.937 56.6222 249.164 57.2568 249.088C58.2995 248.974 57.7555 248.14 57.6648 247.723C56.9395 245.143 57.3022 242.601 57.3022 240.021ZM53.6755 31.5167C51.4542 32.6927 49.8675 34.3999 48.2808 36.0692C38.4888 46.3502 31.7342 58.1109 26.0675 70.2509C20.2195 82.7703 16.1848 95.7449 14.5982 109.251C13.4648 118.963 13.0568 128.675 14.8702 138.273C17.3635 151.437 20.8542 164.412 26.7022 176.893C28.0168 179.663 29.0142 182.584 30.6915 185.391C32.5955 182.432 34.0915 179.549 36.1315 176.893C37.6728 174.92 38.7608 174.655 41.1635 175.983C43.8835 177.462 46.4222 179.132 49.0515 180.725C49.7768 181.142 50.5475 182.28 51.3635 181.522C52.2702 180.649 53.9475 179.89 53.3582 178.221C52.0435 174.465 52.0888 170.747 53.9475 167.105C54.0835 166.84 54.3102 166.536 53.8568 166.195C53.5395 166.233 53.1768 166.271 52.8142 166.347C47.6462 167.257 44.0648 165.133 43.3395 160.77C43.1128 159.328 43.1128 157.849 43.3848 156.445C44.5182 150.565 46.8302 144.988 50.3662 139.79C50.6835 139.297 51.0008 138.766 51.4542 137.969C49.7768 138.462 48.5075 138.842 47.2382 139.145C41.2088 140.663 37.3102 139.411 34.1822 135.086C33.9102 130.268 35.3608 125.753 37.6728 121.391C42.4782 112.286 48.5528 103.788 56.0328 96.0484C57.3475 95.3655 57.9368 94.1136 59.1155 93.3548C60.9288 92.1408 61.2462 90.6992 61.0195 88.8023C60.4755 84.1739 61.6542 79.5076 61.4275 74.8413C61.2462 71.5028 61.2915 68.1264 61.5182 64.8258C62.1982 55.5691 63.1955 46.3502 62.3795 37.0556C62.2435 35.3863 61.8808 33.7929 61.0648 32.3134C59.1155 28.9369 56.6222 28.6714 53.6755 31.5167ZM55.5795 173.706C55.3982 174.579 55.8515 175.338 56.0328 176.362C56.4862 176.021 56.7128 175.869 56.8942 175.679C65.7795 166.991 76.5688 160.466 89.1262 156.028C95.2008 153.903 101.412 152.196 107.849 151.134C108.484 151.02 109.844 151.285 109.254 150.033C108.302 148.061 107.305 146.126 106.308 144.153C105.537 141.611 104.63 139.032 103.95 136.49C98.1928 115.131 94.9742 93.4686 91.6648 71.7684C89.4888 57.6177 86.9048 43.5049 83.0968 29.5819C81.5102 23.8154 79.4702 18.0868 75.6622 13.0032C72.5342 8.83006 68.8168 7.95749 63.4675 9.85437C57.5288 11.9789 52.5875 15.1656 48.0995 19.0352C36.5395 29.0128 29.1955 41.1907 22.8488 53.786C11.3342 76.7761 7.7075 101.17 6.2115 125.791C5.16884 143.318 7.1635 160.77 12.0142 177.917C16.0488 192.296 21.0355 206.447 28.3342 219.99C30.3742 223.48 32.4595 226.971 34.4995 230.461C34.2728 224.619 34.3635 218.966 35.4968 213.351C35.8142 211.72 35.2248 210.809 33.3208 210.506C30.7822 209.178 28.2888 207.736 25.6595 206.522C22.9395 205.308 22.6222 205.119 23.4382 202.691C24.9795 197.873 26.5662 193.093 29.0142 188.502C29.4675 187.667 29.4222 186.985 29.0142 186.188C23.7555 175.11 19.0408 163.956 16.1848 152.234C14.4622 145.139 12.4222 138.083 11.9688 130.837C11.2435 119.266 12.5128 107.809 15.0515 96.3898C19.0862 78.2557 27.0195 61.3735 37.8995 45.4397C41.6622 39.9009 45.9688 34.6276 51.8168 30.3786C58.3902 25.5984 61.5635 29.1646 63.1048 33.4894C63.1502 33.6032 63.1502 33.755 63.1955 33.8688C64.5102 38.2316 64.0568 42.6703 64.1475 47.0711C64.3288 56.2899 63.1502 65.5087 63.1502 74.7275C63.1502 77.8004 63.2408 80.9113 62.8328 83.9842C62.5608 85.8811 61.7902 87.8159 62.9688 89.8266C63.8302 89.1437 64.6008 88.4988 65.4168 87.8539C65.8248 87.5124 66.3688 87.3607 66.8222 87.778C67.2302 88.1194 66.8222 88.4609 66.5502 88.7644C66.2328 89.1058 65.8248 89.4093 65.4622 89.7508C56.4862 97.6797 49.0062 106.519 43.0222 116.231C39.9395 121.239 37.2648 126.36 36.8115 132.089C36.4942 136.148 39.3955 137.552 44.1102 137.059C45.1528 136.945 46.1502 136.641 47.1475 136.376C48.7795 135.921 50.3662 135.2 52.0435 135.01C53.4488 134.858 54.2648 134.327 55.1262 133.493C57.4382 131.33 59.8862 129.244 62.2888 127.157C62.7422 126.74 63.3768 125.981 64.1475 126.588C64.8275 127.119 63.9208 127.574 63.5582 127.992C62.7422 128.826 61.9262 129.661 61.0648 130.458C53.9022 136.793 49.4595 144.381 47.0115 152.803C46.2408 155.345 45.5155 157.962 46.2862 160.656C47.0568 163.501 49.2328 164.639 52.6328 163.956C55.0808 163.463 57.0755 162.477 58.4808 160.694C58.7982 160.277 59.3422 159.859 60.0222 160.163C60.7928 160.504 60.6568 161.149 60.3848 161.68C60.0222 162.439 59.4782 163.122 58.9795 163.843C56.9848 166.916 55.2168 170.064 55.5795 173.706ZM69.2248 197.911C69.4062 197.114 68.7262 196.735 68.1368 196.317C59.3875 189.906 49.5955 184.595 40.6195 178.449C39.3502 177.576 38.7155 177.766 37.8995 178.942C32.7315 186.529 28.9235 194.61 26.5208 203.108C26.2035 204.208 26.7475 204.474 27.7448 204.891C34.7262 207.888 41.6622 210.923 48.5982 213.92C51.9982 215.4 55.4888 216.803 59.0248 217.979C60.3848 218.435 61.0195 218.169 61.4728 217.031C63.0595 213.237 64.7822 209.444 66.3688 205.65C67.4115 203.146 68.2728 200.528 69.2248 197.911ZM39.3502 278.073C40.0302 272.344 40.2115 267.26 39.8942 262.139C39.8035 260.545 40.4382 258.042 39.1235 257.586C37.4008 257.017 34.9528 258.155 32.9582 258.876C31.6888 259.369 31.5075 260.014 32.2328 260.963C33.5928 262.746 35.3608 264.149 37.4915 265.326C39.5768 266.502 39.6222 266.843 37.8542 268.285C34.2728 271.13 34.1822 272.875 37.4008 276.024C37.8995 276.593 38.4435 277.124 39.3502 278.073Z" fill="#060605"/>
<path d="M204.273 225.757C203.91 226.212 203.638 226.667 203.819 227.198C202.414 228.678 200.374 229.626 199.014 231.182C195.478 235.203 192.531 239.528 189.675 243.891C185.323 250.492 180.473 256.752 173.355 261.57C170.091 263.77 166.465 265.288 162.294 265.781C162.747 265.06 163.155 264.339 163.654 263.656C164.289 262.784 164.651 261.949 163.518 261.152C163.609 260.318 164.833 259.445 163.427 258.648C164.742 256.448 165.739 254.172 166.51 251.782C167.598 248.33 167.417 244.763 167.734 241.235C167.825 240.325 167.961 239.869 169.139 239.528C175.577 237.555 179.203 233.344 181.379 228.109C181.515 227.767 181.515 227.35 181.561 226.971C181.561 226.44 181.425 225.946 180.745 225.757C180.065 225.567 179.566 225.833 179.203 226.288C178.977 226.591 178.795 226.971 178.569 227.274C176.891 229.55 175.033 231.713 172.313 233.154C169.547 234.634 167.462 234.027 166.374 231.523C163.745 225.453 159.574 220.294 153.635 216.158C142.846 208.723 129.155 208.609 118.366 216.007C109.209 222.266 105.401 230.802 104.494 240.401C103.769 247.912 105.763 255.044 109.707 261.835C107.486 261.38 105.537 260.394 103.633 259.445C98.5554 256.903 93.3421 256.865 88.0381 258.611C82.1901 260.507 77.0221 263.467 71.8541 266.426C71.1288 266.843 70.5394 267.526 69.5421 267.45C72.8968 258.307 68.6354 250.075 64.7821 241.88C63.2861 238.655 61.4728 235.507 59.1608 232.623C58.2994 231.599 57.4381 230.537 56.3954 229.626C51.3181 225.036 45.0621 225.908 41.9794 231.675C40.8461 233.762 40.4381 235.962 40.3021 238.276C37.2194 230.764 36.9474 223.063 38.0808 215.248C45.2434 217.942 51.8168 221.584 59.2514 223.784C64.0114 225.226 66.2328 224.657 68.6808 220.863C70.9474 217.41 72.6701 213.768 73.9394 210.013C74.9821 206.788 76.3874 203.639 76.3874 200.225C76.3874 198.024 75.4354 197.076 72.8514 196.507C72.4434 195.483 71.4461 194.876 70.5394 194.231C65.4168 190.665 60.2034 187.212 54.7181 184.139C53.4488 183.418 53.1768 182.963 54.2648 181.863C68.9981 166.764 87.5848 156.938 110.569 153.448C114.649 152.841 119.001 152.044 123.262 153.448C124.849 153.979 125.665 152.765 126.39 151.779C132.329 143.774 138.585 135.959 144.614 128.03C161.614 105.836 179.249 84.0222 196.702 62.1323C205.769 50.751 215.062 39.5595 226.169 29.506C235.825 20.7425 246.206 12.6618 259.035 7.12289C261.121 6.21239 263.251 5.41571 265.518 4.92252C270.777 3.82233 275.174 5.64333 277.169 9.93027C278.982 13.7999 279.481 17.8971 279.753 21.9944C281.385 43.4291 279.39 64.6741 275.129 85.8053C273.225 95.3276 271.955 104.964 270.006 114.486C267.558 126.323 263.251 137.78 259.443 149.351C253.55 167.143 245.571 184.177 234.329 200.111C230.294 205.802 225.67 211.075 219.505 215.286C218.462 216.007 217.601 216.879 217.691 218.169C213.339 220.142 208.942 222.077 204.635 224.125C203.91 224.391 203.23 225.036 204.273 225.757ZM92.9341 188.009C92.0728 189.375 92.8888 190.74 93.1154 192.068C93.9314 197 94.4754 201.97 96.3794 206.712C98.0114 210.809 98.8274 211.265 104.041 211.303C112.337 211.378 120.542 210.126 128.793 209.595C134.051 209.254 139.265 208.647 144.433 207.888C151.641 206.788 153.953 204.626 154.315 198.518C154.361 198.138 154.406 197.759 154.451 197.379C155.177 189.526 154.587 181.749 152.275 174.124C151.686 172.189 150.598 170.064 147.379 170.027C146.563 168.585 145.339 168.206 143.481 168.699C140.67 169.457 137.859 170.064 135.049 170.747C121.585 174.01 108.211 177.5 95.3368 182.129C91.9368 183.343 92.0274 183.456 92.7528 186.34C92.8888 186.871 92.8888 187.44 92.9341 188.009ZM202.006 185.467C202.595 186.378 203.366 187.174 204.363 187.781C206.857 191.347 209.305 194.951 211.889 198.48C213.385 200.566 214.427 202.918 216.649 204.588C216.603 206.029 217.51 205.726 218.326 205.157C219.55 204.322 220.819 203.449 221.726 202.387C228.118 195.255 234.238 188.009 238.681 179.852C243.531 170.899 247.339 161.566 250.83 152.196C256.361 137.4 260.758 122.339 264.113 107.088C266.47 96.4657 268.51 85.8432 269.961 75.1448C270.777 68.961 271.593 62.7393 272.454 56.5555C273.678 47.7919 275.446 39.0663 274.947 30.1889C274.902 29.1266 274.857 28.0644 274.449 27.0021C273.451 24.3465 271.457 23.436 268.193 24.1948C265.518 24.8018 263.297 26.1296 261.166 27.5712C251.465 34.1723 244.075 42.5186 236.459 50.7131C236.051 51.1683 235.734 51.6995 235.553 52.2306C235.326 52.9514 235.779 53.5963 236.686 53.4825C240.721 52.8376 243.849 54.5068 246.75 56.3278C249.515 58.073 250.694 60.5009 249.923 63.498C249.153 66.5709 247.113 69.0369 244.71 71.3131C239.769 75.9415 233.603 79.2421 227.211 82.2771C226.441 82.6564 224.899 82.922 225.534 83.9084C226.214 84.9327 227.438 84.0981 228.299 83.7566C231.201 82.5806 233.966 81.1389 236.641 79.6214C237.139 79.3559 237.547 78.9386 238.227 78.9765C242.806 79.1283 247.113 82.8841 247.113 86.7537C247.113 90.3578 245.163 93.3548 242.67 96.0863C234.51 104.964 223.539 110.351 211.027 113.803C207.174 114.865 203.185 115.662 199.105 115.776C198.289 115.814 197.246 115.852 197.291 116.838C197.337 117.862 198.379 117.673 199.195 117.673C201.009 117.673 202.822 117.749 204.59 117.369C207.537 116.724 210.393 117.028 213.158 118.052C216.241 119.19 218.326 122.263 217.918 124.957C217.238 129.661 214.79 133.644 210.665 136.793C203.955 141.953 196.521 146.278 187.998 149.085C174.851 153.448 161.251 156.369 147.107 157.355C146.291 157.393 145.203 157.317 145.203 158.266C145.203 159.101 146.155 159.29 147.062 159.328C147.379 159.328 147.651 159.366 147.969 159.328C152.502 158.835 157.126 158.797 161.659 157.962C162.385 157.811 163.11 157.735 163.881 158C167.099 159.252 170.409 160.315 173.401 161.946C181.017 166.119 187.817 171.089 193.71 176.931C196.611 179.739 199.286 182.622 202.006 185.467Z" fill="#EDCF5D"/>
<path d="M28.334 219.99C21.0354 206.484 16.0487 192.334 12.014 177.917C7.2087 160.77 5.1687 143.318 6.21137 125.791C7.70737 101.208 11.334 76.814 22.8487 53.786C29.1954 41.1528 36.494 29.0128 48.0994 19.0352C52.5874 15.1656 57.5287 11.9788 63.4674 9.85434C68.8167 7.95747 72.534 8.83003 75.662 13.0032C79.47 18.0868 81.51 23.8153 83.0967 29.5818C86.95 43.5049 89.4887 57.6177 91.6647 71.7684C95.0194 93.4307 98.1927 115.131 103.95 136.49C104.63 139.069 105.537 141.611 106.307 144.153C103.859 144.343 101.683 145.253 99.598 146.24C83.958 153.524 69.3607 161.946 57.0754 172.948C56.6674 173.327 56.3047 173.744 55.5794 173.668C55.2167 170.026 56.9847 166.916 58.9794 163.843C59.4327 163.122 60.022 162.439 60.3847 161.68C60.6567 161.187 60.7927 160.504 60.022 160.163C59.342 159.897 58.798 160.314 58.4807 160.694C57.0754 162.477 55.0807 163.463 52.6327 163.956C49.2327 164.639 47.102 163.501 46.286 160.656C45.5607 157.962 46.286 155.345 47.0114 152.803C49.5047 144.381 53.902 136.831 61.0647 130.458C61.926 129.661 62.742 128.826 63.558 127.992C63.966 127.574 64.8274 127.119 64.1474 126.588C63.3767 125.981 62.7874 126.74 62.2887 127.157C59.8407 129.244 57.438 131.33 55.126 133.493C54.2647 134.327 53.4487 134.82 52.0434 135.01C50.366 135.2 48.7794 135.921 47.1474 136.376C46.15 136.641 45.1527 136.983 44.11 137.059C39.3954 137.514 36.494 136.148 36.8114 132.089C37.2647 126.36 39.9394 121.201 43.022 116.231C48.9607 106.519 56.4407 97.6797 65.462 89.7507C65.8247 89.4472 66.1874 89.1058 66.55 88.7643C66.822 88.4608 67.23 88.1573 66.822 87.778C66.3687 87.3986 65.8247 87.5503 65.4167 87.8538C64.6007 88.4988 63.7847 89.1437 62.9687 89.8266C61.8354 87.8159 62.606 85.8432 62.8327 83.9842C63.2407 80.8733 63.15 77.8004 63.15 74.7275C63.15 65.5087 64.3287 56.2898 64.1474 47.071C64.0567 42.6703 64.4647 38.2316 63.1954 33.8688C63.15 33.755 63.15 33.6032 63.1047 33.4894C61.518 29.1645 58.39 25.5984 51.8167 30.3785C45.9687 34.6275 41.662 39.9388 37.8994 45.4397C27.0194 61.3735 19.086 78.2557 15.0514 96.3898C12.5127 107.771 11.2434 119.228 11.9687 130.837C12.422 138.083 14.462 145.139 16.1847 152.234C18.9954 163.956 23.7554 175.11 29.014 186.188C29.3767 186.985 29.422 187.667 29.014 188.502C26.566 193.055 24.9794 197.873 23.438 202.691C22.6674 205.119 22.9847 205.308 25.6594 206.522C28.2887 207.698 30.782 209.178 33.3207 210.506C31.87 213.048 30.5554 215.627 29.4674 218.283C29.2407 218.852 29.286 219.687 28.334 219.99Z" fill="#ECCF5D"/>
<path d="M162.294 265.781C166.465 265.288 170.092 263.77 173.356 261.57C180.473 256.752 185.324 250.492 189.676 243.891C192.532 239.528 195.478 235.203 199.014 231.182C200.374 229.626 202.414 228.678 203.82 227.198C204.998 227.692 206.177 227.312 207.31 227.009C213.249 225.529 219.188 224.012 225.126 222.532C226.124 222.266 227.076 221.925 228.164 221.963C229.161 226.288 228.39 230.499 226.622 234.596C226.486 234.938 226.214 235.317 226.758 235.582C226.713 237.517 227.438 238.011 229.478 237.252C232.062 236.303 234.51 235.089 237.185 234.406C238.273 234.976 237.684 235.772 237.502 236.417C236.414 240.249 234.782 243.967 233.105 247.647C231.79 250.568 229.478 253.11 228.254 256.069L228.209 256.107C227.892 256.107 227.801 256.221 227.937 256.448L227.846 256.562C227.393 256.6 227.257 256.828 227.393 257.169L227.348 257.245C226.94 257.321 226.758 257.51 226.849 257.852L226.804 257.928C226.486 257.966 226.396 258.079 226.441 258.345C222.089 263.77 216.15 267.905 210.574 272.306C199.286 281.221 186.185 287.974 171.95 293.058C158.622 297.838 144.614 300.835 130.334 303.111C118.23 305.046 106.081 305.691 93.8863 304.136C78.1556 302.163 64.1023 297.003 52.1343 288.202C47.329 284.636 45.1076 280.197 45.8783 274.658C46.6036 269.575 46.1049 264.453 45.8783 259.331C46.5129 259.483 46.7849 259.863 47.0116 260.394C49.0969 265.781 53.3583 269.575 59.2969 272.154C62.6063 273.596 62.833 273.558 64.8276 270.751V270.788C65.145 270.826 65.3716 270.713 65.5529 270.485C66.9583 269.802 68.2276 268.967 69.2249 267.867C69.4969 267.791 69.7236 267.64 69.6329 267.374C70.6756 267.45 71.2649 266.767 71.9449 266.35C77.1129 263.391 82.2809 260.47 88.1289 258.535C93.4329 256.79 98.6463 256.828 103.724 259.369C105.628 260.318 107.577 261.342 109.798 261.759C112.246 265.401 115.193 268.74 119.092 271.396C127.841 277.352 137.542 279.021 148.196 275.569C153.953 273.71 158.26 270.181 162.022 266.16C162.204 266.198 162.385 266.084 162.294 265.781ZM72.1263 286.836C72.3529 286.533 72.6703 286.495 73.0783 286.533C80.3316 287.519 84.6383 279.704 82.7343 275.758C82.689 274.089 82.5529 272.496 80.6489 271.433C78.9263 270.447 76.9316 270.371 74.8463 270.144C75.3449 269.423 76.1156 269.233 76.7049 268.93C79.1529 267.678 81.6009 266.464 84.0489 265.212C84.6836 264.908 85.4996 264.529 85.0916 263.77C84.7289 263.011 83.7769 263.087 83.1423 263.353C77.7929 265.591 72.1716 267.526 67.6836 271.054C65.1903 273.027 64.2836 275.569 65.0543 278.338C66.505 283.611 68.9983 288.505 73.2596 292.678C74.3929 293.817 75.7983 294.651 77.3396 295.296C77.9743 295.562 78.6996 295.713 79.1983 295.182C79.7876 294.537 79.0623 294.158 78.5636 293.817C75.7983 291.92 73.8036 289.492 72.1263 286.836ZM109.345 295.903C112.201 295.22 114.513 293.475 116.1 291.085C116.644 290.288 116.825 289.34 117.097 288.429C117.233 287.974 116.916 287.481 116.417 287.329C115.782 287.14 115.601 287.595 115.374 288.05C114.06 290.782 111.657 292.565 108.393 293.513C107.577 293.741 107.033 294.082 107.124 294.841C107.26 295.713 108.03 295.903 109.345 295.903Z" fill="#FBF1EE"/>
<path d="M55.942 96.0104C48.462 103.75 42.3873 112.248 37.582 121.353C35.27 125.678 33.8193 130.23 34.0913 135.048C33.774 135.01 33.4567 135.124 33.4113 135.39C33.0033 138.462 33.094 141.422 35.814 143.888C38.126 146.012 41.118 146.581 44.4727 146.391C44.4273 146.733 44.518 146.923 44.4273 147.074C41.7073 152.082 40.9367 157.355 41.4353 162.742C41.798 166.764 42.614 170.747 47.918 172.53C48.4167 172.682 48.6433 172.948 48.6433 173.365C48.462 175.603 48.9153 177.766 49.5953 179.89C49.686 180.232 49.4593 180.497 49.0513 180.611C46.422 179.018 43.838 177.386 41.1633 175.869C38.7607 174.541 37.6727 174.807 36.1313 176.779C34.0913 179.435 32.5953 182.318 30.6913 185.277C29.014 182.432 28.0167 179.549 26.702 176.779C20.854 164.298 17.3633 151.323 14.87 138.159C13.0567 128.561 13.4647 118.849 14.598 109.137C16.1847 95.669 20.174 82.6564 26.0673 70.137C31.734 57.997 38.4887 46.2743 48.2807 35.9553C49.8673 34.2861 51.454 32.5789 53.6753 31.4029C57.3927 31.3649 58.0273 31.7443 58.662 34.8931C59.07 36.752 59.342 38.611 59.478 40.5078C59.9767 47.5263 58.9793 54.4688 58.526 61.4493C58.2993 65.0155 57.9367 68.6195 57.6193 72.1857C56.8487 80.1905 55.534 88.0815 55.942 96.0104Z" fill="#FBF1EE"/>
<path d="M69.2247 197.911C68.2727 200.49 67.4114 203.108 66.3687 205.688C64.8274 209.519 63.1047 213.275 61.4727 217.069C61.0194 218.169 60.3847 218.473 59.0247 218.017C55.4434 216.803 51.998 215.4 48.598 213.958C41.6167 210.961 34.726 207.926 27.7447 204.929C26.7927 204.512 26.2487 204.208 26.5207 203.146C28.9234 194.61 32.7314 186.567 37.8994 178.98C38.7154 177.804 39.35 177.614 40.6194 178.487C49.6407 184.632 59.3874 189.944 68.1367 196.355C68.726 196.772 69.406 197.114 69.2247 197.911Z" fill="#F4FB95"/>
<path d="M45.1529 246.66C44.6542 243.474 44.2462 240.287 44.2915 237.062C44.3369 234.596 45.1529 232.32 47.3742 230.575C49.2329 229.057 51.8622 229.247 53.5395 230.916C53.9929 231.409 53.9475 231.713 53.5849 232.206C49.6862 237.821 50.9555 243.625 52.9955 249.392C53.5395 250.947 55.2622 251.061 56.8035 251.251C58.6622 251.478 59.2515 252.085 57.7102 253.299C55.4889 255.007 55.4889 257.017 56.3502 259.18C56.5769 259.711 56.7129 260.28 56.8942 260.811C58.0729 264.036 59.9315 266.805 64.1022 268.171C61.2009 268.436 58.3449 267.222 55.9875 264.87C54.8089 263.656 53.8569 262.291 52.3609 261.304C48.7795 256.828 46.8302 251.782 45.1529 246.66Z" fill="#F9F8F8"/>
<path d="M49.0513 180.687C49.4593 180.573 49.686 180.308 49.5953 179.966C48.9153 177.842 48.462 175.679 48.6433 173.441C48.6886 173.024 48.4166 172.758 47.9179 172.606C42.6139 170.823 41.798 166.84 41.4353 162.818C40.9366 157.431 41.7073 152.12 44.4273 147.15C44.518 146.998 44.4726 146.809 44.4726 146.467C41.1633 146.657 38.1713 146.088 35.814 143.963C33.094 141.497 33.0486 138.5 33.4113 135.465C33.4566 135.2 33.7739 135.086 34.0913 135.124C37.2193 139.487 41.118 140.701 47.1473 139.183C48.4166 138.88 49.686 138.462 51.3633 138.007C50.8646 138.804 50.5926 139.335 50.2753 139.828C46.7393 145.026 44.4273 150.602 43.294 156.483C43.022 157.924 43.022 159.366 43.2486 160.808C43.974 165.171 47.5553 167.257 52.7233 166.384C53.086 166.309 53.4486 166.271 53.7659 166.233C54.2646 166.574 53.9926 166.878 53.8566 167.143C52.0433 170.785 51.998 174.503 53.2673 178.259C53.8566 179.928 52.2246 180.687 51.2726 181.559C50.5473 182.242 49.7766 181.104 49.0513 180.687Z" fill="#A0908A"/>
<path d="M55.942 96.0104C55.534 88.0436 56.8486 80.1905 57.6193 72.2995C57.9366 68.7334 58.2993 65.1293 58.526 61.5632C58.9793 54.5827 59.9766 47.6022 59.478 40.6217C59.342 38.7627 59.07 36.8659 58.662 35.0069C57.982 31.8581 57.3473 31.4787 53.6753 31.5167C56.6673 28.6714 59.1606 28.9369 61.0193 32.2754C61.8353 33.7929 62.198 35.3863 62.334 37.0176C63.15 46.3123 62.1073 55.5311 61.4726 64.7879C61.246 68.1264 61.2006 71.4649 61.382 74.8034C61.6086 79.4697 60.43 84.0981 60.974 88.7644C61.2006 90.6612 60.8833 92.1029 59.07 93.3169C57.846 94.0756 57.2566 95.3276 55.942 96.0104Z" fill="#A0908A"/>
<path d="M55.5793 173.706C56.3046 173.782 56.6673 173.327 57.0753 172.986C69.3606 161.984 83.9579 153.562 99.5979 146.278C101.683 145.291 103.859 144.381 106.307 144.191C107.305 146.164 108.302 148.099 109.254 150.071C109.843 151.323 108.483 151.058 107.849 151.172C101.411 152.234 95.2006 153.903 89.1259 156.065C76.5686 160.504 65.7793 167.029 56.8939 175.717C56.7126 175.907 56.4859 176.059 56.0326 176.4C55.8966 175.338 55.3979 174.579 55.5793 173.706Z" fill="#937234"/>
<path d="M72.7609 196.469C75.3449 197.038 76.2969 197.986 76.2969 200.187C76.2969 203.601 74.8916 206.75 73.8489 209.975C72.5796 213.768 70.8569 217.372 68.5902 220.825C66.1422 224.619 63.9209 225.15 59.1609 223.746C51.7262 221.508 45.1529 217.866 37.9902 215.21C38.4889 212.706 38.4436 212.706 41.3449 213.92C47.3289 216.462 53.2222 219.08 59.5236 221.09C62.1982 221.963 63.2409 221.659 64.3289 219.497C67.7742 212.516 70.1316 205.195 72.6702 197.948C72.8062 197.493 72.7156 196.962 72.7609 196.469Z" fill="#937234"/>
<path d="M45.1526 246.66C46.83 251.782 48.8246 256.828 52.27 261.342C50.7286 261.684 51.3633 262.556 51.6353 263.277C53.358 267.867 58.39 270.713 64.7366 270.789C62.742 273.596 62.5153 273.634 59.206 272.192C53.222 269.612 49.006 265.819 46.9206 260.432C46.7393 259.9 46.422 259.521 45.7873 259.369C45.334 256.145 45.1526 252.882 44.2913 249.695C43.9286 248.519 45.1526 247.723 45.1526 246.66Z" fill="#ECCF5D"/>
<path d="M39.3501 278.073C38.3981 277.124 37.8994 276.593 37.3554 276.062C34.1368 272.875 34.2728 271.168 37.8088 268.323C39.5768 266.919 39.5314 266.54 37.4461 265.363C35.3607 264.187 33.5928 262.784 32.1874 261.001C31.4621 260.052 31.6434 259.407 32.9127 258.914C34.9074 258.155 37.3101 257.017 39.0781 257.624C40.4381 258.079 39.7581 260.583 39.8488 262.177C40.2114 267.222 40.0301 272.306 39.3501 278.073Z" fill="#ECCF5D"/>
<path d="M28.334 219.99C29.286 219.687 29.2407 218.89 29.4673 218.245C30.5553 215.589 31.87 213.01 33.3207 210.468C35.2247 210.809 35.814 211.72 35.4966 213.313C34.3633 218.928 34.2726 224.581 34.4993 230.423C32.4593 226.971 30.4193 223.48 28.334 219.99Z" fill="#937234"/>
<path d="M228.209 256.069C229.433 253.11 231.745 250.606 233.06 247.647C234.737 243.967 236.369 240.249 237.457 236.417C237.638 235.734 238.273 234.976 237.14 234.406C237.185 234.369 237.23 234.293 237.276 234.255C238.817 233.799 240.63 233.041 241.945 234.103C243.214 235.127 241.99 236.531 241.582 237.669C238.953 244.612 233.468 250.15 228.572 255.993C228.572 256.031 228.345 256.031 228.209 256.069Z" fill="#A0908A"/>
<path d="M204.273 225.757C203.276 225.074 203.956 224.391 204.59 224.087C208.897 222.039 213.294 220.104 217.646 218.131C220.412 219.535 222.452 217.979 224.582 216.841C225.534 219.383 225.489 219.497 222.769 220.294C216.604 222.191 210.574 224.315 204.273 225.757Z" fill="#937234"/>
<path d="M226.713 235.583C226.169 235.279 226.441 234.938 226.577 234.596C228.39 230.499 229.115 226.288 228.118 221.963C231.881 221.015 232.787 221.622 232.198 224.884C231.654 227.919 230.747 230.916 228.934 233.61C228.435 234.369 227.846 235.203 226.713 235.583Z" fill="#A0908A"/>
<path d="M57.3024 240.021C57.3024 242.601 56.985 245.181 57.665 247.723C57.7557 248.14 58.2997 248.974 57.2571 249.088C56.5771 249.164 55.7157 248.937 55.4891 248.216C55.0811 246.888 54.5824 245.56 54.4011 244.194C53.9024 240.666 53.9931 237.176 56.1237 233.799C56.9851 234.558 57.5744 235.317 57.8464 236.227C55.8064 236.986 55.6704 238.048 57.3024 240.021Z" fill="#90573F"/>
<path d="M63.0144 264.529C60.249 262.784 57.8917 258.079 58.753 255.5C60.0677 258.686 61.2464 261.684 63.1957 264.377C63.1504 264.415 63.105 264.491 63.0144 264.529Z" fill="#90573F"/>
<path d="M57.3024 240.021C55.6704 238.048 55.8064 236.986 57.8464 236.227C58.5264 236.721 58.7984 237.479 59.161 238.124C59.433 238.655 60.2037 239.149 59.569 239.794C58.9344 240.438 58.073 240.135 57.3024 240.021Z" fill="#FBF1EE"/>
<path d="M227.302 257.207C227.211 256.865 227.302 256.638 227.755 256.6C227.891 256.941 227.755 257.131 227.302 257.207Z" fill="#A0908A"/>
<path d="M226.758 257.89C226.668 257.548 226.849 257.321 227.257 257.283C227.348 257.624 227.166 257.814 226.758 257.89Z" fill="#A0908A"/>
<path d="M227.892 256.486C227.756 256.258 227.892 256.145 228.164 256.145C228.3 256.372 228.209 256.486 227.892 256.486Z" fill="#A0908A"/>
<path d="M63.6488 264.756C63.4222 264.681 63.2408 264.605 63.0142 264.529C63.0595 264.491 63.1502 264.415 63.2408 264.377C63.3768 264.529 63.4675 264.643 63.6488 264.756Z" fill="#90573F"/>
<path d="M63.6035 264.794C63.6488 264.832 63.7395 264.832 63.7848 264.87C63.8302 264.87 63.7848 264.946 63.8302 264.984C63.7395 264.908 63.6942 264.832 63.6035 264.794Z" fill="#90573F"/>
<path d="M69.4969 267.412C69.5875 267.716 69.3609 267.829 69.0889 267.905C69.0889 267.678 69.1342 267.45 69.4969 267.412Z" fill="#EDCF5D"/>
<path d="M65.4167 270.523C65.2354 270.751 65.0087 270.864 64.6914 270.826C64.8274 270.523 65.0994 270.485 65.4167 270.523Z" fill="#ECCF5D"/>
<path d="M226.35 258.345C226.305 258.117 226.396 257.966 226.713 257.928C226.804 258.193 226.668 258.307 226.35 258.345Z" fill="#A0908A"/>
<path d="M216.649 204.625C214.427 202.956 213.385 200.604 211.889 198.518C209.305 194.989 206.857 191.385 204.363 187.819C205.361 186.719 203.955 186.226 203.457 185.505C201.643 184.139 200.827 182.204 199.377 180.649C192.985 173.668 185.867 167.257 177.39 161.984C177.662 161.528 178.206 161.453 178.705 161.301C193.121 157.355 204.907 150.299 214.11 140.208C218.915 134.896 223.177 129.471 221.409 122.263C221.273 121.694 221.635 121.353 222.225 121.049C230.702 116.648 236.867 110.389 241.99 103.37C243.577 101.17 245.345 99.0075 245.889 96.4277C246.342 95.7828 246.795 95.1379 247.203 94.455C249.697 90.206 250.966 85.919 248.246 81.3665C248.835 80.7216 248.382 80.0387 248.065 79.5835C246.931 78.028 247.747 76.9658 248.835 75.7139C251.147 73.0203 252.689 69.9853 253.414 66.7227C253.777 65.0914 254.411 63.2704 252.87 61.7149C252.87 58.7937 251.238 56.5554 248.699 54.6206C247.203 53.4825 245.299 52.7996 243.577 51.927C244.121 50.4475 244.801 48.93 245.254 47.4125C245.526 46.464 246.342 45.5535 245.617 44.4913C247.385 42.6324 249.107 40.6975 250.966 38.8765C255.681 34.324 260.577 29.9233 266.878 26.8883C270.641 25.0673 272.409 25.8261 272.545 29.4301C272.726 33.0342 272.817 36.6762 272.363 40.2423C271.094 50.751 269.507 61.2597 268.147 71.7684C266.606 83.7946 264.203 95.7069 261.574 107.619C258.219 122.87 253.369 137.818 248.11 152.651C241.401 171.658 232.062 189.413 216.649 204.625Z" fill="#FBF1EE"/>
<path d="M161.886 266.236C158.169 270.257 153.862 273.786 148.059 275.644C137.406 279.097 127.705 277.428 118.955 271.471C115.057 268.816 112.11 265.477 109.662 261.835C105.763 255.082 103.769 247.95 104.449 240.401C105.355 230.802 109.163 222.266 118.321 216.007C129.11 208.609 142.801 208.723 153.59 216.158C159.574 220.256 163.699 225.453 166.329 231.523C167.417 234.027 169.457 234.634 172.267 233.154C174.987 231.713 176.846 229.512 178.523 227.274C178.75 226.971 178.931 226.591 179.158 226.288C179.521 225.833 180.019 225.567 180.699 225.757C181.379 225.946 181.515 226.44 181.515 226.971C181.515 227.35 181.515 227.729 181.334 228.109C179.158 233.344 175.577 237.555 169.094 239.528C167.915 239.907 167.734 240.363 167.689 241.235C167.417 244.763 167.598 248.292 166.465 251.782C165.694 254.172 164.742 256.448 163.382 258.648C161.025 261.683 158.214 264.263 153.817 265.174C142.529 267.45 133.462 261.911 127.523 254.893C126.662 253.868 126.979 252.844 127.795 251.896C128.974 250.454 130.198 249.05 131.467 247.533C129.609 247.191 128.022 247.647 126.39 247.647C124.259 247.647 122.945 247.002 121.857 245.257C119.001 240.78 118.91 236.038 119.454 231.258C120.134 225.301 122.763 220.028 128.067 215.855C128.793 215.286 129.609 214.717 130.47 214.11C129.699 213.92 129.201 214.072 128.702 214.224C121.811 215.969 116.734 219.687 113.062 224.77C107.531 232.396 106.081 240.666 107.894 249.354C109.617 257.624 113.923 264.832 121.947 270.106C130.107 275.493 139.129 276.972 148.785 273.103C154.361 270.902 158.259 267.184 161.297 262.746C161.841 261.949 162.339 261.19 163.609 261.19C164.742 261.987 164.379 262.822 163.745 263.694C163.246 264.377 162.838 265.098 162.385 265.819V265.857C161.977 265.819 161.931 266.008 161.886 266.236ZM136.499 217.752C136.454 219.269 136.862 220.559 138.902 220.939C140.307 221.204 141.395 220.711 142.166 219.687C142.846 218.814 142.71 217.866 142.347 216.955C143.163 216.196 144.206 216.5 145.113 216.614C146.835 216.765 148.513 217.107 150.19 217.335C150.235 217.41 150.326 217.448 150.371 217.524C150.371 217.486 150.371 217.448 150.326 217.41C150.281 217.372 150.19 217.373 150.145 217.335C147.289 215.362 143.843 214.489 140.307 213.731C137.859 213.237 135.774 213.617 133.643 214.717C121.449 221.052 119.59 236.872 124.259 243.777C124.758 244.536 125.211 245.408 126.39 245.029C127.841 244.574 126.571 243.701 126.435 243.17C124.441 236.986 124.486 230.916 127.614 224.998C129.382 221.659 131.921 218.814 136.499 217.752ZM158.305 259.863C155.902 260.166 154.179 260.583 152.366 260.507C144.614 260.166 138.313 257.51 133.417 252.465C132.147 251.175 131.467 251.327 130.47 252.806C129.881 253.679 130.425 254.324 131.014 254.855C135.502 259.028 140.398 262.632 147.47 263.125C151.323 263.391 155.041 262.86 158.305 259.863ZM152.955 258.042C154.905 258.042 156.129 257.283 156.083 255.993C156.038 254.475 154.769 253.944 153.227 253.868C151.414 253.755 149.782 254.779 149.873 256.031C149.963 257.586 151.278 258.042 152.955 258.042ZM154.723 251.744C154.451 251.175 153.862 250.833 153.046 250.909C152.366 250.947 151.958 251.365 152.049 251.972C152.094 252.654 152.638 253.034 153.409 252.958C154.043 252.844 154.678 252.578 154.723 251.744Z" fill="#030302"/>
<path d="M248.201 81.3666C250.966 85.8811 249.652 90.206 247.158 94.455C246.75 95.1379 246.297 95.7449 245.844 96.4278C245.617 96.5416 245.3 96.6554 245.164 96.8451C241.174 101.625 236.052 105.381 230.34 108.682C225.308 111.603 219.777 113.651 214.11 115.51C214.246 115.966 214.654 116.041 214.972 116.193C215.289 116.345 215.652 116.497 215.969 116.686C219.324 118.659 220.91 121.277 220.638 124.767C220.276 129.927 217.692 134.251 213.34 137.818C205.044 144.646 195.388 149.654 184.417 152.917C179.022 154.548 173.401 155.686 167.825 157.09C171.316 158.38 174.444 160.087 177.39 161.984C185.868 167.257 192.985 173.669 199.377 180.649C200.828 182.242 201.644 184.177 203.457 185.505C202.958 185.505 202.46 185.505 201.961 185.505C199.241 182.66 196.566 179.776 193.756 176.969C187.862 171.127 181.062 166.157 173.446 161.984C170.454 160.352 167.145 159.29 163.926 158.038C163.201 157.735 162.476 157.849 161.705 158C157.217 158.835 152.593 158.873 148.014 159.366C147.697 159.404 147.425 159.366 147.108 159.366C146.246 159.328 145.249 159.138 145.249 158.304C145.249 157.355 146.292 157.469 147.153 157.393C161.297 156.407 174.897 153.486 188.044 149.123C196.566 146.316 204.001 141.991 210.71 136.831C214.836 133.644 217.284 129.699 217.964 124.995C218.326 122.301 216.286 119.228 213.204 118.09C210.438 117.066 207.582 116.8 204.636 117.407C202.868 117.787 201.054 117.711 199.241 117.711C198.47 117.711 197.382 117.9 197.337 116.876C197.292 115.928 198.334 115.852 199.15 115.814C203.276 115.7 207.22 114.903 211.073 113.841C223.585 110.389 234.556 105.002 242.716 96.1243C245.209 93.3928 247.113 90.3957 247.158 86.7916C247.158 82.922 242.852 79.2041 238.273 79.0144C237.593 78.9765 237.185 79.3938 236.686 79.6594C234.012 81.1769 231.246 82.6185 228.345 83.7946C227.484 84.136 226.26 84.9706 225.58 83.9463C224.945 82.9599 226.486 82.6564 227.257 82.315C233.649 79.28 239.769 75.9415 244.756 71.3511C247.204 69.0748 249.198 66.6089 249.969 63.5359C250.74 60.5009 249.561 58.1109 246.796 56.3658C243.894 54.5448 240.766 52.8755 236.732 53.5205C235.825 53.6722 235.372 53.0273 235.598 52.2685C235.78 51.7374 236.097 51.2063 236.505 50.751C244.121 42.5944 251.465 34.2103 261.212 27.6091C263.297 26.1675 265.518 24.8776 268.238 24.2327C271.502 23.4739 273.497 24.3844 274.494 27.0401C274.902 28.1023 274.902 29.1266 274.993 30.2268C275.492 39.1042 273.724 47.8298 272.5 56.5934C271.638 62.7772 270.822 68.999 270.006 75.1828C268.556 85.8811 266.516 96.5416 264.158 107.126C260.758 122.377 256.361 137.438 250.876 152.234C247.385 161.604 243.577 170.937 238.726 179.89C234.329 188.047 228.209 195.331 221.772 202.425C220.82 203.487 219.55 204.322 218.372 205.195C217.556 205.764 216.649 206.067 216.694 204.626C232.108 189.451 241.446 171.696 248.156 152.765C253.414 137.931 258.265 122.984 261.62 107.733C264.249 95.8208 266.652 83.9084 268.193 71.8822C269.553 61.3735 271.14 50.8648 272.409 40.3561C272.817 36.79 272.726 33.148 272.59 29.5439C272.409 25.9399 270.686 25.1432 266.924 27.0021C260.622 30.0751 255.726 34.4758 251.012 38.9904C249.153 40.8114 247.43 42.7083 245.662 44.6051C244.212 45.5156 243.305 46.8055 242.126 47.9436C239.225 50.8648 239.225 50.8648 243.622 52.003C245.345 52.8755 247.204 53.5205 248.745 54.6965C251.238 56.5934 252.916 58.8317 252.916 61.7908C252.054 68.6196 246.569 72.9824 240.63 77.4211C243.894 78.066 246.116 79.6973 248.201 81.3666Z" fill="#090806"/>
<path d="M163.518 261.152C162.249 261.152 161.75 261.949 161.206 262.708C158.169 267.147 154.27 270.864 148.694 273.065C139.038 276.896 130.017 275.455 121.857 270.068C113.833 264.794 109.571 257.586 107.803 249.316C105.99 240.628 107.441 232.358 112.971 224.732C116.643 219.649 121.721 215.969 128.611 214.186C129.11 214.072 129.609 213.882 130.379 214.072C129.518 214.717 128.747 215.248 127.977 215.817C122.673 219.99 120.043 225.264 119.363 231.22C118.819 236.038 118.91 240.742 121.766 245.219C122.854 246.964 124.169 247.647 126.299 247.609C127.931 247.609 129.518 247.153 131.377 247.495C130.107 249.012 128.929 250.454 127.705 251.858C126.889 252.806 126.617 253.83 127.433 254.855C133.417 261.873 142.483 267.412 153.726 265.136C158.123 264.263 160.934 261.646 163.291 258.611C164.833 259.445 163.609 260.318 163.518 261.152Z" fill="#FBFBFB"/>
<path d="M92.9342 188.009C92.8889 187.44 92.8889 186.871 92.7529 186.34C92.0275 183.456 91.9822 183.343 95.3369 182.129C108.212 177.5 121.585 174.01 135.049 170.747C137.86 170.064 140.716 169.42 143.481 168.699C145.34 168.206 146.564 168.623 147.38 170.027C147.652 171.089 147.924 172.113 148.196 173.175C150.236 181.787 151.777 190.437 151.55 199.238C151.505 200.832 150.825 201.666 148.876 201.894C139.492 203.07 130.153 204.284 120.769 205.498C115.284 206.219 109.798 207.129 104.222 207.433C101.094 207.623 99.9609 206.978 99.0542 204.512C98.1475 201.97 97.2862 199.428 96.2435 196.924C95.0649 193.965 94.5662 190.854 92.9342 188.009ZM105.9 204.512C109.526 204.398 113.062 203.791 116.644 203.298C126.3 201.97 136.092 201.211 145.657 199.504C146.382 199.352 147.742 199.542 147.606 198.669C147.38 196.924 148.105 195.293 147.878 193.586C146.926 186.833 146.518 180.004 144.614 173.365C144.206 171.885 143.572 171.696 141.94 171.999C126.436 175.072 111.566 179.701 96.5609 184.139C95.2915 184.519 95.2915 184.936 95.6542 185.922C97.6035 191.158 99.3715 196.431 101.23 201.666C102.318 204.663 102.318 204.663 105.9 204.512Z" fill="#060605"/>
<path d="M92.9344 188.009C94.5664 190.854 95.065 193.965 96.289 196.924C97.3317 199.428 98.193 201.97 99.0997 204.512C100.006 206.978 101.14 207.585 104.268 207.433C109.844 207.129 115.329 206.219 120.814 205.498C130.153 204.284 139.537 203.07 148.921 201.894C150.916 201.666 151.55 200.794 151.596 199.238C151.822 190.437 150.281 181.787 148.241 173.175C148.014 172.113 147.697 171.089 147.425 170.026C150.598 170.064 151.732 172.189 152.321 174.124C154.633 181.749 155.222 189.526 154.497 197.379C154.452 197.759 154.361 198.138 154.361 198.518C153.953 204.625 151.686 206.788 144.478 207.888C139.31 208.685 134.097 209.292 128.838 209.595C120.588 210.088 112.382 211.378 104.086 211.302C98.873 211.265 98.057 210.809 96.425 206.712C94.5664 201.97 93.977 197 93.161 192.068C92.889 190.74 92.073 189.375 92.9344 188.009Z" fill="#937234"/>
<path d="M202.006 185.467C202.505 185.467 203.004 185.467 203.502 185.467C204.001 186.188 205.361 186.681 204.409 187.781C203.366 187.174 202.596 186.378 202.006 185.467Z" fill="#523123"/>
<path d="M72.1261 286.836C73.7581 289.492 75.7528 291.92 78.5635 293.817C79.0621 294.158 79.7875 294.499 79.1981 295.182C78.6995 295.713 77.9741 295.562 77.3395 295.296C75.7981 294.651 74.3928 293.779 73.2595 292.678C69.0435 288.505 66.5048 283.611 65.0541 278.338C64.2835 275.569 65.2355 273.027 67.6835 271.054C72.1261 267.526 77.7475 265.629 83.1421 263.353C83.7768 263.087 84.7288 263.011 85.0915 263.77C85.4995 264.567 84.6835 264.908 84.0488 265.212C81.6008 266.464 79.1528 267.678 76.7048 268.93C76.0701 269.233 75.3448 269.423 74.8461 270.144C76.8861 270.371 78.8808 270.447 80.6488 271.433C82.5528 272.496 82.6888 274.089 82.7341 275.758C82.3715 275.796 82.3261 276.024 82.2355 276.289C80.5128 280.956 76.7501 283.649 70.8568 284.294C71.1288 285.243 71.4915 286.077 72.1261 286.836ZM68.7261 277.238C68.7715 278.49 69.4061 279.552 70.1768 280.538C70.7208 281.221 71.4461 281.828 72.5795 281.677C75.8888 281.259 79.2435 278.035 79.5155 275.038C79.8328 274.165 79.3795 273.672 78.3821 273.33C75.4355 272.344 72.8061 273.027 70.2675 274.241C68.9075 274.886 68.2275 275.872 68.7261 277.238Z" fill="#060605"/>
<path d="M72.1262 286.836C71.4915 286.077 71.0835 285.205 70.8115 284.294C76.7049 283.649 80.4675 280.956 82.1902 276.289C82.2809 276.024 82.3262 275.796 82.6889 275.758C84.5929 279.704 80.2862 287.519 73.0329 286.533C72.7155 286.495 72.3982 286.533 72.1262 286.836Z" fill="#A0908A"/>
<path d="M109.345 295.903C108.03 295.941 107.259 295.713 107.123 294.879C106.987 294.12 107.531 293.817 108.393 293.551C111.657 292.565 114.059 290.819 115.374 288.088C115.601 287.633 115.782 287.177 116.417 287.367C116.915 287.519 117.233 287.974 117.097 288.467C116.825 289.378 116.598 290.326 116.099 291.123C114.467 293.475 112.201 295.22 109.345 295.903Z" fill="#090806"/>
<path d="M161.886 266.236C161.932 266.008 161.977 265.819 162.34 265.819C162.385 266.084 162.204 266.198 161.886 266.236Z" fill="#EDCF5D"/>
<path d="M177.435 161.946C174.489 160.049 171.406 158.304 167.87 157.052C173.491 155.648 179.067 154.51 184.462 152.879C195.387 149.578 205.089 144.608 213.385 137.78C217.691 134.214 220.275 129.889 220.683 124.729C220.955 121.239 219.369 118.621 216.014 116.648C215.697 116.459 215.379 116.307 215.017 116.155C214.699 116.004 214.291 115.966 214.155 115.472C219.777 113.613 225.353 111.565 230.385 108.644C236.051 105.343 241.219 101.587 245.209 96.8071C245.345 96.6175 245.662 96.5416 245.889 96.3898C245.299 99.0075 243.577 101.17 241.99 103.332C236.867 110.351 230.747 116.611 222.225 121.011C221.635 121.315 221.273 121.618 221.409 122.225C223.177 129.395 218.961 134.858 214.11 140.17C204.907 150.261 193.121 157.317 178.705 161.263C178.251 161.415 177.662 161.491 177.435 161.946Z" fill="#A0908A"/>
<path d="M248.201 81.3666C246.07 79.6594 243.894 78.066 240.494 77.4211C246.478 72.9824 251.963 68.5816 252.779 61.7908C254.321 63.3463 253.686 65.1673 253.323 66.7986C252.598 70.0233 251.057 73.0962 248.745 75.7898C247.657 77.0417 246.886 78.104 247.974 79.6594C248.337 80.0388 248.79 80.7596 248.201 81.3666Z" fill="#A0908A"/>
<path d="M243.532 52.0409C239.134 50.9028 239.089 50.9027 242.036 47.9816C243.169 46.8434 244.121 45.5536 245.572 44.6431C246.297 45.6674 245.526 46.6158 245.209 47.5642C244.756 49.0438 244.076 50.5234 243.532 52.0409Z" fill="#A0908A"/>
<path d="M150.19 217.373C148.513 217.107 146.79 216.803 145.113 216.652C144.206 216.576 143.164 216.272 142.348 216.993C141.441 216.007 140.58 214.982 138.766 215.324C137.225 215.627 136.681 216.614 136.454 217.79C131.921 218.852 129.337 221.659 127.569 225.074C124.486 230.992 124.396 237.062 126.39 243.246C126.572 243.777 127.796 244.65 126.345 245.105C125.166 245.484 124.713 244.612 124.214 243.853C119.5 236.986 121.404 221.128 133.598 214.793C135.729 213.693 137.814 213.313 140.262 213.806C143.889 214.527 147.289 215.4 150.19 217.373Z" fill="#90573F"/>
<path d="M158.305 259.862C155.041 262.86 151.323 263.391 147.425 263.125C140.353 262.67 135.457 259.028 130.969 254.855C130.379 254.286 129.881 253.679 130.425 252.806C131.377 251.327 132.102 251.175 133.371 252.465C138.267 257.51 144.569 260.166 152.321 260.507C154.179 260.583 155.902 260.166 158.305 259.862Z" fill="#90573F"/>
<path d="M136.499 217.752C136.726 216.576 137.225 215.589 138.811 215.286C140.625 214.944 141.486 215.969 142.393 216.955C142.71 217.904 142.846 218.814 142.211 219.687C141.441 220.673 140.353 221.204 138.947 220.939C136.862 220.559 136.454 219.269 136.499 217.752Z" fill="#F9F8F8"/>
<path d="M152.955 258.042C151.233 258.042 149.918 257.586 149.827 255.993C149.737 254.741 151.369 253.717 153.182 253.83C154.723 253.944 155.993 254.437 156.038 255.955C156.129 257.283 154.95 258.042 152.955 258.042Z" fill="#90573F"/>
<path d="M154.723 251.744C154.678 252.616 154.089 252.882 153.363 252.92C152.593 252.996 152.049 252.616 152.003 251.934C151.958 251.327 152.321 250.909 153.001 250.871C153.817 250.833 154.451 251.175 154.723 251.744Z" fill="#90573F"/>
<path d="M150.19 217.372C150.236 217.41 150.326 217.41 150.372 217.448C150.417 217.448 150.417 217.524 150.417 217.562C150.326 217.486 150.281 217.41 150.19 217.372Z" fill="#90573F"/>
<path d="M105.899 204.512C102.318 204.663 102.318 204.663 101.275 201.704C99.4167 196.431 97.6034 191.196 95.6994 185.96C95.3367 184.974 95.3367 184.557 96.606 184.177C111.566 179.739 126.481 175.11 141.985 172.037C143.617 171.696 144.251 171.923 144.659 173.403C146.563 180.08 146.971 186.871 147.923 193.624C148.15 195.331 147.425 196.962 147.651 198.707C147.787 199.58 146.427 199.39 145.702 199.542C136.091 201.249 126.345 202.008 116.689 203.336C113.107 203.791 109.571 204.398 105.899 204.512Z" fill="#F4FB95"/>
<path d="M68.7261 277.238C68.2274 275.872 68.9528 274.886 70.2674 274.241C72.8061 273.027 75.4354 272.344 78.3821 273.33C79.3794 273.672 79.8328 274.165 79.5154 275.038C76.3421 277.276 72.8967 278.566 68.7261 277.238Z" fill="#90573F"/>
<path d="M68.7261 277.238C72.9421 278.566 76.3421 277.238 79.5154 275.037C79.2434 278.035 75.8887 281.259 72.5794 281.677C71.4461 281.828 70.7207 281.221 70.1767 280.538C69.4061 279.552 68.7714 278.49 68.7261 277.238Z" fill="#523123"/>
<path d="M95.4359 408.852C99.2821 410.863 103.717 411.014 107.97 411.621C120.097 413.404 132.405 413.594 144.623 413.101C154.985 412.646 165.257 411.28 175.031 408.093C176.614 408.814 178.017 408.473 179.42 407.638C183.538 405.172 187.972 403.199 192.769 401.796C192.995 401.72 193.266 401.606 193.493 401.53C193.628 401.492 193.764 401.454 193.9 401.416C200.371 400.733 206.796 399.671 213.357 400.657C216.434 401.151 219.149 402.365 221.683 403.92C232.453 410.597 237.34 424.596 232.679 435.674C228.652 445.31 220.1 451.645 210.054 456.767C207.339 458.133 207.203 458.057 205.891 455.705C200.552 446.41 193.855 438.102 183.628 432.032C178.832 429.186 173.945 426.91 167.881 427.1C168.243 425.696 169.103 424.558 170.144 423.458C171.456 422.054 172.768 420.726 174.035 419.285C174.623 418.602 174.985 417.729 174.216 417.009C173.356 416.212 172.406 416.705 171.592 417.16C166.795 419.854 163.99 423.686 162.904 428.39C159.872 430.818 158.198 434.042 155.709 436.774C154.894 436.546 154.442 437.077 153.899 437.343C147.383 440.454 140.595 442.73 132.903 442.237C126.477 441.82 120.052 441.251 114.441 438.102C111.816 434.839 109.237 431.577 106.613 428.352C105.843 424.293 103.355 421.182 99.4178 418.83C98.5581 418.298 97.3363 417.995 96.5218 418.754C95.7526 419.474 96.4313 420.309 96.9743 420.992C97.2006 421.258 97.4721 421.447 97.6984 421.713C99.2369 423.648 100.775 425.582 101.273 427.897C96.9291 429.49 92.6303 431.235 88.8293 433.587C78.4671 440.037 70.0958 448.003 63.6703 457.374C63.1273 458.171 62.7653 458.892 61.3173 458.285C46.7468 452.177 37.6516 442.73 36.4751 428.845C35.2986 415.188 45.9776 404.262 62.0413 402.289C70.9556 401.189 79.2363 403.123 86.9741 406.879C88.9198 407.828 90.8203 408.89 92.7661 409.8C94.0783 410.521 95.2096 410.445 95.4359 408.852Z" fill="#EDCF5D"/>
<path d="M106.613 428.39C109.237 431.652 111.817 434.915 114.441 438.14C115.889 441.858 118.695 445.044 120.505 448.648C120.776 449.179 121.5 449.104 122.043 449.293C126.568 450.773 131.319 450.773 136.025 451C139.872 451.19 143.673 451 147.428 450.166C148.198 449.976 149.057 449.862 149.465 449.142C151.546 445.044 153.628 440.947 155.709 436.812C158.153 434.042 159.872 430.818 162.904 428.428C164.488 427.783 166.117 427.252 167.927 427.138C173.99 426.948 178.877 429.224 183.674 432.07C193.9 438.14 200.642 446.448 205.937 455.743C207.294 458.095 207.43 458.171 210.1 456.805C220.145 451.683 228.697 445.386 232.725 435.712C237.34 424.634 232.498 410.635 221.729 403.958C219.24 402.403 216.525 401.189 213.403 400.695C206.796 398.761 200.28 398.95 193.945 401.454C193.81 401.492 193.674 401.53 193.538 401.568C193.221 401.53 192.95 401.568 192.814 401.833C188.018 403.237 183.583 405.21 179.465 407.676C178.063 408.51 176.66 408.852 175.076 408.131C174.216 406.765 174.307 405.438 175.8 404.565C185.257 399.14 195.167 394.55 207.158 395.27C225.304 396.371 237.657 407.372 239.331 423.078C240.598 434.801 235.802 444.399 225.756 452.328C221.141 455.97 216.344 459.461 210.235 461.282C209.149 461.623 209.466 462.116 209.647 462.761C210.688 466.1 210.009 467.731 206.751 469.818C204.579 471.221 202.181 472.283 199.647 473.08C198.47 473.46 198.199 473.801 198.923 474.825C202.09 479.492 199.647 483.134 193.176 483.247C186.57 483.361 180.28 481.995 174.352 479.681C163.899 475.622 154.261 470.5 146.433 463.216C145.03 461.927 144.985 460.75 145.483 459.271C145.935 457.905 147.428 456.236 146.523 455.25C145.709 454.415 143.446 455.325 141.817 455.363C136.252 455.477 130.686 455.287 125.12 454.643C124.849 454.491 124.532 454.415 124.306 454.605C124.215 454.68 124.351 454.908 124.396 455.098C124.849 456.426 125.346 457.753 125.799 459.081C126.432 460.94 125.935 462.534 124.396 463.975C122.903 465.341 121.364 466.631 119.554 467.655C108.332 473.877 96.4315 478.733 83.128 480.933C80.6845 481.35 78.1958 481.35 75.707 480.895C70.6843 479.947 69.0553 476.874 71.8155 473.27C72.8563 471.942 72.7205 471.487 70.9558 470.994C67.6978 470.007 64.6208 468.603 61.9058 466.745C60.5935 465.872 59.6433 464.848 60.4578 463.292C61.1365 462.04 59.779 462.078 59.1003 461.851C48.2403 457.753 40.3215 451.114 35.525 442.047C30.1403 431.842 30.0045 421.637 36.9278 411.849C44.756 400.809 60.7293 395.801 76.5215 399.292C83.9425 400.923 90.6848 403.617 95.5265 408.89C95.3003 410.483 94.169 410.559 92.8115 409.914C90.8658 408.966 88.9653 407.941 87.0195 406.993C79.2818 403.237 71.0463 401.302 62.0868 402.403C46.023 404.375 35.344 415.301 36.5205 428.959C37.697 442.844 46.747 452.328 61.3628 458.398C62.8108 459.005 63.1728 458.285 63.7158 457.488C70.1413 448.117 78.5125 440.15 88.8748 433.701C92.721 431.311 96.9745 429.604 101.319 428.01C103.129 427.365 104.893 427.441 106.613 428.39ZM81.861 477.329C87.472 476.646 92.6758 474.825 97.9248 473.08C104.758 470.766 111.183 467.807 117.111 464.089C121.319 461.509 121.41 461.282 119.509 457.26C117.066 452.101 113.672 447.283 110.776 442.313C109.011 439.316 106.794 436.546 104.577 433.739C103.445 432.373 102.495 432.373 100.866 432.98C91.5898 436.395 84.4855 442.085 77.9243 448.307C73.535 452.48 69.6435 456.957 66.5213 461.926C65.7973 463.103 65.8878 463.823 67.3358 464.544C70.3223 466.062 73.6255 467.01 76.793 468.148C77.336 468.338 77.8338 468.224 78.2863 467.959C81.9063 465.644 86.205 464.317 90.0965 462.42C91.092 461.927 92.4495 460.561 93.3998 461.699C94.4858 463.027 92.4495 463.747 91.4088 464.392C88.0603 466.441 84.6213 468.338 81.1823 470.311C79.0555 471.525 77.0645 472.853 75.4355 474.56C73.897 476.191 74.44 477.291 76.8383 477.557C78.422 477.746 80.1868 477.822 81.861 477.329ZM186.705 478.05C188.063 478.657 189.601 478.809 191.095 478.809C192.316 478.809 194.036 479.34 194.669 478.278C195.348 477.139 193.855 476.267 193.04 475.432C189.918 472.17 186.027 469.514 182.723 466.403C181.909 465.644 180.823 464.81 181.728 463.785C182.678 462.685 183.9 463.444 184.986 463.899C188.199 465.265 190.823 467.238 193.312 469.362C194.036 469.969 194.715 470.462 195.891 469.931C198.425 468.831 201.05 467.845 203.403 466.441C204.76 465.644 205.032 464.772 204.443 463.52C203.131 460.75 201.547 458.095 199.873 455.477C195.891 449.217 191.819 443.034 184.895 438.595C181.321 436.281 178.063 433.625 173.719 432.259C168.786 430.742 165.981 431.463 163.311 435.181C159.872 439.961 157.157 445.006 154.668 450.166C153.22 453.163 152.044 456.236 150.234 459.081C149.057 460.902 149.736 461.547 151.546 462.116C151.818 462.42 152.044 462.761 152.406 462.989C160.325 468.452 168.786 473.156 178.334 476.343C180.959 477.215 183.674 478.202 186.705 478.05Z" fill="#090807"/>
<path d="M155.664 436.812C153.582 440.909 151.501 445.006 149.419 449.142C149.057 449.9 148.198 450.014 147.383 450.166C143.627 451.001 139.826 451.19 135.98 451C131.274 450.773 126.523 450.735 121.998 449.293C121.455 449.104 120.731 449.18 120.459 448.648C118.649 445.082 115.889 441.858 114.396 438.14C119.962 441.326 126.387 441.858 132.858 442.275C140.55 442.768 147.338 440.492 153.854 437.381C154.397 437.115 154.849 436.546 155.664 436.812Z" fill="#917133"/>
<path d="M167.881 427.1C166.071 427.214 164.442 427.745 162.858 428.39C163.944 423.648 166.75 419.854 171.546 417.16C172.361 416.705 173.311 416.212 174.171 417.008C174.94 417.729 174.623 418.602 173.99 419.285C172.768 420.688 171.411 422.054 170.098 423.458C169.103 424.558 168.198 425.696 167.881 427.1Z" fill="#987836"/>
<path d="M106.613 428.39C104.939 427.441 103.129 427.365 101.228 427.934C100.73 425.582 99.1919 423.685 97.6534 421.751C97.4272 421.485 97.1557 421.295 96.9294 421.03C96.3864 420.347 95.7077 419.512 96.4769 418.792C97.2914 418.033 98.4679 418.336 99.3729 418.867C103.355 421.22 105.844 424.33 106.613 428.39Z" fill="#977636"/>
<path d="M193.9 401.378C200.28 398.912 206.751 398.685 213.357 400.62C206.841 399.671 200.371 400.733 193.9 401.378Z" fill="#CCC4A4"/>
<path d="M192.769 401.796C192.904 401.53 193.176 401.454 193.493 401.53C193.266 401.606 192.995 401.682 192.769 401.796Z" fill="#CCC4A4"/>
<path d="M151.456 462.154C149.6 461.585 148.967 460.94 150.143 459.119C151.953 456.312 153.13 453.201 154.578 450.204C157.067 445.044 159.782 439.961 163.221 435.218C165.936 431.501 168.741 430.78 173.628 432.297C177.972 433.663 181.23 436.319 184.805 438.633C191.728 443.072 195.801 449.255 199.783 455.515C201.457 458.133 202.995 460.788 204.353 463.558C204.941 464.81 204.67 465.682 203.312 466.479C200.959 467.883 198.335 468.869 195.801 469.969C194.669 470.462 193.991 470.007 193.221 469.4C190.733 467.276 188.108 465.303 184.895 463.937C183.855 463.482 182.588 462.723 181.637 463.823C180.732 464.848 181.864 465.72 182.633 466.441C185.936 469.552 189.828 472.208 192.95 475.47C193.764 476.305 195.303 477.177 194.579 478.315C193.945 479.378 192.226 478.809 191.004 478.847C189.511 478.847 188.018 478.695 186.615 478.088C186.66 477.329 186.117 476.798 185.619 476.229C182.723 473.042 179.239 470.424 175.257 468.262C169.872 465.341 164.488 462.533 158.198 461.244C156.026 460.75 153.401 460.105 151.456 462.154Z" fill="#945940"/>
<path d="M81.8611 477.329C80.1869 477.822 78.4221 477.784 76.7026 477.595C74.3044 477.329 73.7614 476.229 75.2999 474.598C76.8836 472.89 78.9199 471.563 81.0466 470.349C84.4404 468.376 87.9246 466.479 91.2731 464.43C92.3139 463.785 94.3501 463.065 93.2641 461.737C92.3139 460.599 90.9564 461.964 89.9609 462.458C86.0694 464.354 81.7706 465.682 78.1506 467.996C77.6981 468.262 77.2004 468.376 76.6574 468.186C73.4899 467.01 70.2319 466.062 67.2001 464.582C65.7521 463.861 65.6616 463.103 66.3856 461.964C69.5079 457.033 73.3994 452.518 77.7886 448.345C84.3499 442.123 91.4541 436.432 100.73 433.018C102.359 432.411 103.355 432.411 104.441 433.777C106.658 436.546 108.921 439.316 110.64 442.351C113.536 447.358 116.93 452.139 119.373 457.298C121.274 461.319 121.229 461.547 116.975 464.127C116.523 463.292 115.844 462.571 114.667 462.533C112.631 462.458 110.595 462.268 108.604 462.647C99.5086 464.392 91.5446 468.034 84.2141 472.777C82.5851 473.839 81.4991 475.318 81.8611 477.329Z" fill="#945940"/>
<path d="M151.456 462.154C153.401 460.105 156.026 460.75 158.288 461.206C164.578 462.496 169.963 465.303 175.348 468.224C179.375 470.387 182.859 473.004 185.71 476.191C186.208 476.76 186.705 477.291 186.705 478.05C183.674 478.202 180.959 477.215 178.244 476.343C168.696 473.156 160.234 468.452 152.315 462.989C151.999 462.761 151.727 462.42 151.456 462.154Z" fill="#513224"/>
<path d="M81.861 477.329C81.499 475.356 82.6302 473.877 84.3497 472.739C91.6802 467.996 99.6442 464.355 108.739 462.609C110.73 462.23 112.767 462.42 114.803 462.496C115.979 462.533 116.658 463.254 117.111 464.089C111.183 467.807 104.757 470.766 97.9247 473.08C92.6757 474.825 87.472 476.646 81.861 477.329Z" fill="#523224"/>
<path d="M124.306 455.06C124.26 454.908 124.125 454.642 124.215 454.567C124.441 454.377 124.758 454.453 125.03 454.605C124.758 454.756 124.532 454.908 124.306 455.06Z" fill="#FEFEFE"/>
<path d="M83.6425 383.88C77.7601 383.337 72.5994 380.635 67.724 376.934C64.5919 374.553 62.2414 371.438 60.5611 367.549C64.1965 364.17 67.9393 360.899 71.8102 357.872C83.5949 348.769 96.2378 341.543 108.376 333.204C109.383 332.518 109.478 333.336 109.72 334.061C112.845 343.45 115.882 352.902 118.481 362.532C118.667 363.253 118.646 363.624 117.975 363.924C109.94 367.658 102.126 372.015 94.3398 376.372C90.5763 378.525 87.0727 381.099 83.6425 383.88Z" fill="#ECCF5D"/>
<path d="M83.6423 383.88C87.0726 381.099 90.5761 378.525 94.3377 376.406C102.126 372.015 109.938 367.692 117.972 363.958C118.646 363.624 118.665 363.287 118.479 362.565C115.88 352.936 112.843 343.484 109.718 334.094C109.475 333.369 109.381 332.551 108.374 333.238C96.2357 341.576 83.5645 348.801 71.8081 357.906C67.9392 360.899 64.2247 364.172 60.559 367.582C60.0412 367.688 59.4071 368.328 59.0591 367.462C58.7317 366.732 59.3032 366.19 59.6989 365.738C62.9687 361.797 66.6588 358.455 70.5033 355.393C78.7902 348.762 87.561 343.107 96.4334 337.661C100.237 335.307 103.965 332.78 107.744 330.358C108.393 329.955 108.279 329.475 108.146 328.824C107.514 325.977 107.702 325.683 110.061 324.702C113.47 323.274 116.857 321.743 120.466 321.274C120.895 321.231 121.344 320.851 121.705 320.499C123.84 318.49 125.948 316.445 128.03 314.364C131.651 310.748 134.79 311.031 137.637 315.393C138.212 316.273 138.804 316.849 139.728 317.105C140.568 317.323 141.237 318.039 141.822 318.75C144.105 321.556 146.507 324.268 146.83 328.519C146.865 328.893 146.961 329.203 147.269 329.289C148.666 329.708 149.271 331.063 149.848 332.383C151.388 335.756 152.286 339.397 152.374 343.295C152.474 347.465 151.116 349.317 147.649 349.794C147.333 349.843 146.914 349.717 146.749 350.114C146.491 350.641 146.959 350.905 147.196 351.223C148.303 352.743 149.32 354.325 149.861 356.286C150.571 358.765 150.327 361.019 148.953 363.14C147.332 365.62 145.212 367.36 142.888 368.715C141.506 369.515 140.149 369.369 138.842 368.38C137.042 367.057 135.461 365.374 133.786 363.856C133.083 363.24 132.578 363.109 131.776 363.706C129.166 365.586 126.376 367.118 123.642 368.687C121.465 369.949 121.295 369.939 120.073 367.465C119.715 366.767 119.5 366.552 118.768 366.916C109.995 371.623 101.223 376.33 92.4253 380.968C90.1957 382.159 88.2182 383.907 85.9172 384.858C85.0437 385.214 83.9338 385.725 83.6423 383.88ZM124.632 322.497C124.282 322.646 123.904 322.793 123.556 322.909C119.657 323.97 115.873 325.478 112.137 327.158C111.233 327.546 111.008 328.007 111.37 329.111C115.351 340.92 119.067 352.883 121.968 365.171C122.197 366.132 122.463 366.452 123.35 365.86C126.042 364.052 128.811 362.383 131.531 360.577C132.773 359.734 133.852 359.763 134.927 360.841C136.351 362.277 137.775 363.714 139.227 365.152C140.734 366.627 141.356 366.697 143.049 365.44C143.97 364.749 144.816 363.883 145.687 363.087C148.779 360.253 148.287 356.466 144.956 353.091C144.168 350.981 142.693 349.947 140.836 349.603C140.976 348.156 141.982 347.977 142.88 347.69C144.795 347.022 146.834 347.647 148.708 346.706C149.546 346.484 149.566 345.639 149.639 344.864C150.024 340.654 148.931 336.935 147.26 333.385C146.78 332.342 146.023 332.162 145.102 332.346C143.808 332.61 142.517 332.806 141.196 333.035C140.824 333.081 140.429 333.024 140.282 333.591C139.878 333.703 139.537 333.21 139.066 333.487C138.623 333.766 138.242 333.473 138.135 332.858C138.027 332.276 138.3 331.987 138.793 331.812C140.245 331.287 141.644 330.691 143.071 330.096C144.76 329.415 145.064 328.586 144.202 326.776C143.441 325.174 142.592 323.636 141.441 322.384C140.559 321.419 139.855 319.821 138.394 320.008C136.905 320.192 135.435 320.548 134.172 321.727C133.743 321.77 133.29 321.744 133.125 321.159C132.988 320.576 133.264 320.219 133.652 319.903C133.921 319.682 134.165 319.391 134.408 319.134C134.953 318.556 136.153 318.456 135.634 317.106C134.793 314.924 131.958 314.287 130.493 316.03C128.906 317.902 127.19 319.564 125.526 321.296C125.16 321.715 124.908 322.14 124.632 322.497Z" fill="#0C0B09"/>
<path d="M134.375 319.2C134.133 319.457 133.889 319.747 133.62 319.969C133.232 320.285 132.956 320.641 133.093 321.225C133.256 321.844 133.683 321.835 134.14 321.793C134.801 323.152 135.739 322.664 136.563 322.17C137.299 321.739 137.777 321.834 138.392 322.513C140.213 324.446 141.494 326.89 142.926 329.173C143.056 329.384 142.974 329.819 143.013 330.126C141.587 330.687 140.158 331.316 138.734 331.843C138.241 332.018 137.968 332.307 138.077 332.888C138.185 333.47 138.566 333.763 139.007 333.518C139.478 333.24 139.819 333.734 140.224 333.622C141.299 333.718 142.398 333.883 143.479 333.878C144.389 333.862 144.906 334.265 145.303 335.269C146.797 338.944 147.825 342.796 148.648 346.77C146.774 347.712 144.734 347.086 142.819 347.754C141.919 348.075 140.916 348.22 140.775 349.667C139.935 351.413 140.198 352.275 141.739 352.669C142.776 352.932 143.853 352.994 144.924 353.157C148.254 356.532 148.748 360.285 145.654 363.153C144.784 363.949 143.94 364.781 143.016 365.506C141.352 366.764 140.728 366.728 139.195 365.218C137.741 363.813 136.319 362.343 134.895 360.907C133.82 359.829 132.769 359.802 131.498 360.643C128.807 362.451 126.038 364.119 123.318 365.926C122.43 366.518 122.165 366.198 121.936 365.236C119.035 352.949 115.347 340.988 111.338 329.177C110.947 328.071 111.201 327.612 112.105 327.224C115.841 325.544 119.624 324.036 123.524 322.974C123.9 322.861 124.25 322.712 124.6 322.563C125.264 322.872 125.798 322.496 126.307 322.052C127.983 320.591 129.662 319.097 131.338 317.636C132.776 316.365 134.018 317.013 134.375 319.2Z" fill="#955A40"/>
<path d="M148.65 346.737C147.856 342.764 146.827 338.912 145.305 335.236C144.88 334.229 144.39 333.862 143.481 333.844C142.4 333.849 141.329 333.686 140.226 333.588C140.372 333.021 140.767 333.078 141.139 333.031C142.43 332.835 143.751 332.607 145.046 332.343C145.966 332.159 146.724 332.338 147.204 333.382C148.847 336.93 149.968 340.651 149.583 344.861C149.508 345.669 149.487 346.514 148.65 346.737Z" fill="#503123"/>
<path d="M143.013 330.126C143.004 329.787 143.085 329.386 142.926 329.173C141.466 326.889 140.184 324.478 138.392 322.513C137.749 321.832 137.3 321.739 136.564 322.17C135.711 322.663 134.773 323.15 134.141 321.793C135.375 320.612 136.871 320.292 138.363 320.073C139.823 319.887 140.529 321.451 141.41 322.45C142.533 323.666 143.409 325.24 144.17 326.842C145.005 328.616 144.702 329.445 143.013 330.126Z" fill="#503023"/>
<path d="M134.376 319.2C134.047 317.014 132.777 316.365 131.371 317.571C129.694 319.031 128.016 320.525 126.339 321.986C125.83 322.43 125.297 322.806 124.632 322.497C124.911 322.107 125.161 321.715 125.494 321.362C127.158 319.629 128.874 317.968 130.461 316.096C131.926 314.352 134.761 314.99 135.602 317.172C136.121 318.522 134.893 318.62 134.376 319.2Z" fill="#4F3023"/>
<path d="M144.898 353.122C143.827 352.958 142.75 352.896 141.713 352.633C140.172 352.24 139.938 351.38 140.749 349.632C142.632 350.012 144.11 351.011 144.898 353.122Z" fill="#513124"/>
<path d="M210.567 349.461C209.595 350.63 208.632 350.372 207.845 349.724C204.168 346.729 200.419 343.775 196.833 340.658C194.214 338.374 191.477 336.192 189.159 333.565C188.876 333.254 188.688 332.871 188.428 332.53C189.355 331.996 190.076 331.209 190.745 330.383C194.283 326.112 197.818 321.791 201.381 317.539C211.006 306.072 220.631 294.605 229.976 282.876C230.669 282.02 231.021 281.716 231.835 282.432C237.424 287.172 243.033 291.831 248.668 296.51C249.277 297.023 249.442 297.435 248.745 298.192C247.795 299.281 246.869 300.39 245.946 301.547C234.072 316.645 222.605 332.102 210.933 347.354C210.404 348.048 210.118 348.737 210.567 349.461Z" fill="#EDCF5D"/>
<path d="M210.567 349.461C210.118 348.737 210.404 348.048 210.956 347.324C222.653 332.091 234.095 316.615 245.969 301.517C246.869 300.39 247.818 299.251 248.768 298.162C249.466 297.405 249.3 296.993 248.691 296.48C243.056 291.801 237.447 287.141 231.858 282.402C231.021 281.716 230.669 282.02 229.999 282.846C220.654 294.575 211.029 306.042 201.404 317.508C197.841 321.761 194.281 326.062 190.768 330.353C190.076 331.209 189.378 331.966 188.451 332.5C186.767 331.979 186.57 331.399 187.909 329.747C192.828 323.665 197.795 317.572 202.764 311.528C206.762 306.653 210.833 301.787 214.882 296.95C219.255 291.741 223.651 286.501 228.049 281.311C228.744 280.504 229.089 280.052 228.199 279.278C225.934 277.264 226.105 275.15 228.616 272.435C232.146 268.54 236.219 265.298 240.194 262.028C240.946 261.408 241.413 260.953 241.124 259.969C240.834 258.984 240.929 257.863 241.199 256.828C242.441 251.999 244.453 247.471 247.735 243.482C249.678 241.145 252.132 240.392 254.433 241.573C257.308 243.05 260.3 244.425 261.649 247.745C261.787 248.089 262.006 248.065 262.27 247.98C265.584 246.784 268.022 248.309 270.545 249.565C270.869 249.717 271.196 249.918 271.499 250.149C272.41 250.844 273.11 250.661 273.982 249.465C275.683 247.182 277.662 245.111 279.825 243.324C282.223 241.334 284.114 241.058 286.279 242.47C289.324 244.458 291.881 246.981 294.068 249.938C295.188 251.46 295.139 253.046 293.887 255.002C290.814 259.819 287.435 264.355 283.55 268.504C282.758 269.333 282.68 269.75 283.372 270.469C284.501 271.664 285.584 272.92 286.338 274.449C286.848 275.459 287.12 276.573 286.737 277.809C284.591 284.716 280.689 290.094 273.201 290.207C270.493 290.242 267.744 290.962 265.07 290.689C264.36 290.625 264.037 291.047 263.598 291.571C261.565 294.079 259.508 296.567 257.498 299.044C256.044 300.847 255.078 301.064 253.371 300.049C251.036 298.651 251.011 298.632 249.036 301.326C237.346 317.232 224.97 332.568 213.052 348.301C212.334 349.138 211.692 350.032 210.567 349.461ZM251.85 244.33C250.659 244.423 249.918 245.29 249.278 246.234C247.153 249.387 245.452 252.72 244.346 256.268C243.708 258.312 244.032 260.038 245.361 261.338C246.444 262.594 247.725 263.38 249.639 263.074C250.366 262.96 250.746 262.724 251.027 261.936C252.632 257.575 255.344 253.915 258.559 250.591C259.35 249.763 259.581 248.936 258.891 248.267C257.017 246.265 254.797 244.715 251.85 244.33ZM254.486 266.006C254.915 267.384 255.909 268.284 256.9 269.136C258.549 270.489 259.032 270.38 260.698 268.405C264.004 264.386 267.033 260.204 269.834 255.849C271.178 253.771 271.096 253.565 269.147 252.604C267.949 252.024 266.728 251.475 265.509 250.975C264.862 250.72 264.167 250.477 263.417 251.146C262.845 250.9 262.35 251.286 261.855 251.673C258.129 254.512 255.692 258.286 254.034 262.558C253.435 263.868 253.517 265.124 254.486 266.006ZM281.476 246.302C281.055 246.172 280.728 246.495 280.427 246.838C277.021 250.255 273.944 253.923 270.97 257.717C268.94 260.274 268.99 260.313 271.935 260.649C274.591 262.675 277.271 264.67 279.833 266.767C280.67 267.454 281.132 267.424 282.014 266.426C285.404 262.663 288.212 258.456 291.099 254.356C291.854 253.261 291.937 252.417 291.212 251.531C289.375 249.271 287.239 247.403 284.962 245.666C283.671 244.682 282.597 244.674 281.476 246.302ZM268.99 278.834C266.618 279.268 265.517 277.617 264.137 276.278C262.732 274.92 261.948 273.272 262.05 270.725C259.735 273.446 257.768 273.139 255.735 271.923C253.702 270.706 252.182 268.974 251.034 266.858C250.795 266.437 250.814 265.783 249.924 266.059C247.685 266.738 245.755 266.173 244.276 264.807C243.027 263.664 241.916 263.389 240.531 265.101C240.416 265.252 240.275 265.384 240.135 265.515C237.18 268.131 234.2 270.727 231.503 273.634C229.574 275.743 229.608 275.961 231.508 277.457C233.941 279.408 236.351 281.39 238.81 283.36C244.079 287.521 248.934 292.226 254.297 296.316C255.056 296.895 255.544 296.885 256.207 295.911C258.011 293.23 260.299 290.965 262.281 288.419C262.971 287.513 263.827 287.02 264.759 287.11C267.48 287.372 270.308 286.76 273.062 286.664C278.422 286.456 280.735 284.735 283.217 279.277C283.903 277.748 283.945 276.538 283.085 275.358C279.721 270.692 275.36 267.175 270.698 264.002C269.916 263.453 269.217 263.636 268.427 264.514C266.711 266.45 265.49 268.575 264.673 270.958C264.438 271.686 264.47 272.379 264.766 272.987C265.684 274.88 266.509 276.893 268.62 277.692C269.069 277.891 269.232 278.254 268.99 278.834Z" fill="#050504"/>
<path d="M268.991 278.834C269.21 278.284 269.069 277.891 268.598 277.722C266.486 276.923 265.661 274.91 264.744 273.017C264.447 272.409 264.415 271.716 264.65 270.989C265.443 268.586 266.688 266.48 268.405 264.544C269.194 263.666 269.871 263.514 270.676 264.032C275.338 267.206 279.698 270.722 283.062 275.388C283.922 276.569 283.906 277.797 283.194 279.307C280.712 284.765 278.399 286.486 273.039 286.694C270.285 286.79 267.458 287.402 264.736 287.141C263.805 287.051 262.949 287.543 262.258 288.449C260.302 291.014 257.989 293.26 256.184 295.941C255.498 296.946 255.033 296.925 254.275 296.347C248.911 292.256 244.082 287.571 238.787 283.39C236.354 281.439 233.944 279.458 231.485 277.487C229.586 275.991 229.551 275.774 231.48 273.664C234.152 270.738 237.157 268.161 240.112 265.546C242.113 267.119 244.694 267.512 247.14 268.136C249.189 268.649 250.746 269.598 251.831 271.428C252.652 272.817 253.583 274.482 255.085 274.769C257.057 275.174 257.869 276.366 258.625 277.945C258.843 278.446 259.204 278.864 259.54 279.264C261.446 281.433 263.818 282.574 267.016 281.528C268.291 281.116 269.533 280.536 268.991 278.834Z" fill="#955A40"/>
<path d="M281.476 246.302C282.597 244.674 283.697 244.701 284.937 245.647C287.213 247.383 289.35 249.251 291.187 251.512C291.937 252.417 291.854 253.261 291.073 254.337C288.189 258.486 285.379 262.643 281.989 266.407C281.107 267.405 280.645 267.434 279.808 266.748C277.22 264.632 274.566 262.655 271.91 260.63C275.006 255.783 278.003 250.908 281.476 246.302Z" fill="#945940"/>
<path d="M263.392 251.127C264.145 250.507 264.862 250.72 265.483 250.955C266.725 251.425 267.924 252.005 269.122 252.585C271.093 253.515 271.153 253.752 269.809 255.829C267.007 260.185 263.978 264.367 260.673 268.386C259.032 270.38 258.524 270.47 256.875 269.117C255.86 268.295 254.89 267.364 254.46 265.986C255.178 265.675 255.592 265.131 255.901 264.412C257.982 259.794 260.287 255.251 263.392 251.127Z" fill="#945940"/>
<path d="M251.85 244.329C254.772 244.696 256.991 246.245 258.939 248.256C259.606 248.955 259.399 249.752 258.607 250.58C255.392 253.904 252.657 257.595 251.075 261.925C250.794 262.713 250.415 262.949 249.688 263.063C247.774 263.369 246.492 262.583 245.409 261.327C246.268 259.834 246.411 258.177 246.877 256.623C248.171 252.407 249.417 248.202 251.85 244.329Z" fill="#945940"/>
<path d="M268.99 278.833C269.532 280.536 268.242 281.127 267.064 281.517C263.84 282.543 261.494 281.422 259.588 279.253C259.252 278.853 258.891 278.435 258.672 277.934C257.916 276.355 257.104 275.163 255.133 274.758C253.631 274.471 252.675 272.787 251.879 271.417C250.794 269.587 249.237 268.638 247.187 268.125C244.742 267.501 242.138 267.138 240.16 265.535C240.3 265.403 240.441 265.271 240.556 265.12C241.941 263.409 243.075 263.653 244.301 264.826C245.78 266.193 247.735 266.777 249.949 266.078C250.839 265.803 250.82 266.457 251.059 266.878C252.207 268.994 253.701 270.706 255.76 271.942C257.793 273.158 259.76 273.465 262.075 270.744C261.973 273.291 262.757 274.939 264.162 276.297C265.54 277.586 266.641 279.238 268.99 278.833Z" fill="#513224"/>
<path d="M263.392 251.127C260.313 255.27 258.006 259.764 255.95 264.401C255.618 265.151 255.204 265.694 254.509 265.975C253.541 265.094 253.458 263.838 254.006 262.49C255.69 258.236 258.102 254.443 261.828 251.604C262.325 251.267 262.794 250.861 263.392 251.127Z" fill="#503123"/>
<path d="M251.85 244.329C249.417 248.202 248.171 252.407 246.851 256.604C246.363 258.188 246.243 259.815 245.384 261.308C244.055 260.008 243.731 258.281 244.369 256.238C245.449 252.67 247.176 249.357 249.301 246.204C249.917 245.29 250.684 244.442 251.85 244.329Z" fill="#503123"/>
<path d="M281.476 246.302C278.051 250.897 275.006 255.783 271.933 260.599C268.988 260.263 268.963 260.244 270.968 257.668C273.967 253.892 277.067 250.195 280.425 246.788C280.729 246.495 281.007 246.182 281.476 246.302Z" fill="#4F3023"/>
</svg>
