<svg width="373" height="513" viewBox="0 0 373 513" fill="none" xmlns="http://www.w3.org/2000/svg">
<path d="M238.346 416.836C218.484 417.065 198.621 416.112 178.759 416.302C168.008 416.378 157.256 415.883 146.46 415.616C141.448 415.502 136.437 415.578 131.472 416.035C128.009 411.727 124.319 407.534 122.087 402.654C120.083 398.232 117.304 394.038 115.846 389.387C111.154 374.785 112.202 360.07 114.753 345.354C116.666 334.298 121.039 323.661 123.044 312.605C128.283 318.133 133.658 323.547 139.398 328.694C154.067 341.732 170.331 352.979 189.966 360.565C191.742 361.251 193.519 361.595 195.478 361.556C198.439 361.518 200.717 360.108 203.268 359.193C210.329 356.6 216.752 353.131 222.948 349.357C234.702 342.228 245.362 334.031 254.883 324.805C259.347 320.497 263.538 315.96 268.914 312.415C271.556 322.022 275.93 331.134 280.85 340.055C284.813 347.184 286.818 354.808 288.048 362.548C289.733 372.955 289.414 383.44 289.232 393.924C289.095 401.053 287.273 407.991 285.861 414.968C283.993 414.815 282.125 414.968 280.212 415.082C277.524 415.273 274.836 415.768 272.103 415.578C262.673 414.968 253.243 415.044 243.813 415.73C241.945 415.883 239.94 415.807 238.346 416.836Z" fill="#EED05E"/>
<path d="M122.999 312.605C120.995 323.661 116.621 334.298 114.708 345.354C112.157 360.07 111.109 374.785 115.801 389.387C117.304 394 120.038 398.193 122.042 402.654C124.275 407.534 127.965 411.727 131.427 416.035C131.791 416.569 132.201 417.103 132.657 417.751C130.425 417.598 128.329 417.408 126.279 417.293C125.505 417.255 125.277 416.76 124.958 416.34C116.393 404.522 109.606 392.17 107.965 378.178C105.733 359.116 109.378 340.626 115.482 322.327C116.986 317.79 118.534 313.292 119.4 308.641C119.628 307.344 119.218 306.429 118.124 305.438C113.068 300.749 108.376 295.793 106.553 289.502C105.141 284.699 106.052 280.124 110.562 276.54C111.246 276.007 111.291 275.511 111.154 274.863C109.423 266.666 112.703 260.033 120.266 254.772C132.794 246.041 147.235 240.78 163.088 237.997C168.874 236.968 174.705 236.091 180.582 235.633C181.493 235.557 181.857 235.328 181.948 234.49C182.541 227.627 187.233 222.862 193.611 219.164C199.715 215.618 206.321 212.683 211.97 208.604C213.929 207.193 215.933 207.803 217.345 209.976C220.079 214.132 220.58 218.668 219.897 223.281C219.669 224.692 219.714 224.997 221.582 224.654C226.32 223.853 230.602 222.099 235.067 220.651C238.62 219.507 240.488 220.231 241.262 223.281C242.675 228.847 241.809 234.185 237.8 238.912C236.752 240.132 237.299 240.246 238.529 240.59C249.007 243.449 258.71 247.528 267.411 253.209C268.368 253.818 269.279 254.505 270.19 255.153C277.479 260.3 280.304 266.857 278.846 274.71C278.755 275.32 278.482 275.816 279.21 276.426C284.586 280.848 285.042 286.109 282.582 291.714C280.44 296.593 276.75 300.749 272.696 304.638C271.83 305.476 271.557 306.163 271.876 307.306C274.017 316.189 277.98 324.576 282.49 332.773C285.133 337.538 287.866 342.266 289.597 347.336C290.645 347.222 291.055 346.536 291.602 346.078C296.385 341.808 301.123 337.5 305.906 333.269C310.826 328.884 316.156 324.958 322.489 322.06C327.682 319.696 333.24 318.591 339.162 319.277C346.633 320.154 351.918 323.661 355.562 329.075C359.252 334.527 360.482 340.512 360.892 346.65C362.213 365.369 357.202 382.982 346.36 399.337C339.572 409.592 329.823 417.789 319.436 425.452C305.724 435.555 290.508 443.713 273.744 449.737C270.464 450.919 267.184 452.062 263.539 452.291C261.489 452.444 260.487 451.757 260.851 449.966C262.537 448.974 264.314 448.174 266.227 447.564C280.532 443.141 293.469 436.584 305.724 429.112C306.134 428.845 306.908 428.731 306.681 428.044C307.637 428.311 308.047 427.625 308.594 427.244C311.601 425.185 314.425 423.012 317.523 421.03C321.35 418.59 323.354 415.425 324.448 411.537C325.905 406.276 327.819 401.129 327.226 395.639C326.908 392.627 325.905 389.959 322.261 388.472C320.347 387.671 319.801 386.223 320.12 384.469C320.621 381.648 321.395 378.865 321.896 376.043C323.035 369.524 314.653 362.433 307.318 364.454C306.817 364.606 306.271 364.568 305.724 364.568C304.084 364.606 303.31 363.844 303.537 362.51C303.674 361.709 304.038 360.908 304.312 360.146C305.314 357.477 306.316 354.809 306.407 351.987C306.544 348.976 304.631 346.231 301.67 345.201C300.531 344.782 299.574 344.82 298.617 345.659C296.613 347.374 294.517 349.09 292.285 350.577C291.101 351.377 291.146 352.064 291.738 352.979C291.419 353.474 291.602 353.97 291.738 354.465C294.289 363.234 294.244 372.155 294.699 381.114C295.246 392.132 293.925 402.997 291.419 413.786C291.009 415.54 290.827 417.293 290.326 419.009C290.053 420.038 289.142 420.953 287.775 420.839C286.226 420.725 285.77 419.619 285.725 418.475C285.679 417.293 285.771 416.074 285.816 414.854C287.228 407.877 289.096 400.9 289.187 393.809C289.369 383.363 289.688 372.879 288.003 362.433C286.727 354.694 284.723 347.069 280.805 339.94C275.885 331.019 271.511 321.908 268.869 312.3C268.687 311.233 268.505 310.127 268.323 308.907C267.867 309.212 267.685 309.289 267.548 309.441C257.252 318.591 245.408 326.216 233.244 333.497C222.265 340.093 210.968 346.231 198.257 350.348C196.071 351.072 194.112 351.11 191.925 350.348C183.588 347.412 175.525 344.096 168.008 339.826C152.61 331.095 137.349 322.213 124.457 310.852C124.229 310.623 123.956 310.318 123.318 310.547C123.181 311.271 123.09 311.919 122.999 312.605ZM265.088 287.939C264.359 286.757 265.225 285.995 266.09 285.271C269.416 282.564 271.83 279.323 273.106 275.625C274.609 271.279 274.473 266.971 271.42 263.006C268.778 259.537 264.997 257.135 261.079 254.81C244.588 245.164 225.773 240.78 206.184 239.026C189.784 237.578 173.521 239.255 157.667 243.449C144.957 246.804 132.976 251.264 122.908 258.736C115.71 264.074 114.116 270.174 117.669 277.646C119.127 280.658 121.313 283.212 124.001 285.461C124.867 286.224 125.322 286.986 124.867 288.016C124.047 287.977 123.272 288.016 122.543 287.482C120.402 285.919 118.17 284.394 116.439 282.488C115.437 281.42 114.571 280.238 113.113 279.323C111.656 281.039 110.927 282.945 110.744 284.966C110.38 287.101 110.972 289.159 111.974 291.065C114.48 295.831 118.17 299.872 122.498 303.608C131.564 311.385 141.221 318.629 151.699 325.072C164.819 333.116 177.894 341.122 192.973 346.459C194.34 346.955 195.479 346.993 196.8 346.459C204.18 343.6 211.378 340.55 218.165 336.776C236.069 326.864 253.107 316.151 267.958 303.074C271.42 300.025 274.473 296.708 276.796 292.972C278.345 290.494 279.484 287.901 279.119 285.004C278.983 283.555 278.39 282.183 277.798 280.81C277.16 279.438 276.432 279.133 275.247 280.467C273.106 282.907 270.737 285.194 267.821 287.101C267.047 287.672 266.227 288.092 265.088 287.939ZM326.999 412.604C327.181 412.719 327.318 412.795 327.5 412.909C328.32 412.185 329.14 411.499 329.914 410.736C348.957 392.704 356.519 371.392 355.653 347.717C355.471 342.151 354.332 336.623 351.098 331.553C346.861 324.958 339.39 322.06 330.825 324.157C318.434 327.131 310.872 335.365 302.353 342.685C308.503 345.278 310.599 348.785 309.642 354.313C309.232 356.753 308.366 359.116 307.637 361.633C308.138 361.633 308.503 361.633 308.867 361.633C317.523 361.328 324.949 367.313 325.04 374.595C325.085 377.95 323.901 381.114 322.99 384.316C322.58 385.689 322.99 386.489 324.402 387.099C326.999 388.205 328.502 389.997 329.322 392.322C330.552 395.944 330.415 399.604 329.778 403.264C329.185 406.428 327.955 409.478 326.999 412.604ZM197.119 235.405C197.119 235.443 197.119 235.443 197.119 235.481C200.672 235.481 204.225 235.443 207.824 235.519C208.781 235.519 209.373 235.328 209.874 234.642C214.475 228.314 216.252 221.566 214.111 214.246C213.655 212.721 212.926 212.835 211.696 213.674C208.325 216.038 204.499 217.906 200.626 219.621C197.483 221.032 194.476 222.633 191.834 224.616C188.417 227.17 186.003 230.22 184.91 233.994C184.545 235.176 184.955 235.367 186.276 235.367C189.83 235.367 193.474 235.405 197.119 235.405ZM214.111 236.091C220.443 237.006 226.548 237.845 232.561 239.141C233.336 239.293 233.563 238.874 233.837 238.378C236.114 234.337 237.299 230.144 236.889 225.645C236.798 224.616 236.57 224.044 235.158 224.654C230.466 226.56 225.545 227.666 220.398 228.276C219.578 228.39 218.621 228.504 218.257 229.419C217.3 231.707 215.933 233.918 214.111 236.091ZM327.09 413.176C327.044 413.138 326.999 413.1 326.953 413.024C326.908 413.062 326.816 413.1 326.816 413.138C326.816 413.176 326.908 413.214 326.953 413.29C326.999 413.252 327.044 413.214 327.09 413.176Z" fill="#060605"/>
<path d="M285.816 414.968C285.77 416.188 285.679 417.37 285.725 418.59C285.77 419.733 286.271 420.839 287.775 420.953C289.141 421.068 290.053 420.153 290.326 419.123C290.827 417.408 291.009 415.616 291.419 413.9C293.925 403.111 295.246 392.246 294.699 381.228C294.289 372.307 294.289 363.348 291.738 354.58C291.602 354.084 291.465 353.589 291.738 353.093C293.743 354.808 294.426 357.134 295.2 359.307C299.346 370.592 300.94 382.334 303.446 393.924C305.177 401.891 306.544 409.935 306.954 418.018C307.136 421.373 307.409 424.728 306.635 428.082C306.817 428.769 306.088 428.921 305.678 429.15C293.378 436.622 280.486 443.179 266.181 447.602C264.268 448.212 262.446 448.974 260.806 450.004C255.749 447.411 252.013 443.713 248.824 439.558C244.679 434.144 241.581 428.349 239.668 422.097C239.121 420.343 237.663 418.78 238.301 416.836C239.895 415.807 241.9 415.883 243.722 415.768C253.152 415.044 262.582 414.968 272.012 415.616C274.746 415.807 277.434 415.311 280.121 415.12C282.035 414.968 283.903 414.815 285.816 414.968Z" fill="#937234"/>
<path d="M122.999 312.605C123.09 311.919 123.181 311.271 123.272 310.661C123.91 310.471 124.138 310.776 124.411 310.966C137.349 322.289 152.565 331.21 167.963 339.94C175.48 344.21 183.543 347.527 191.88 350.462C194.066 351.225 196.025 351.149 198.212 350.462C210.922 346.345 222.22 340.207 233.199 333.612C245.362 326.33 257.207 318.705 267.503 309.556C267.639 309.441 267.867 309.327 268.277 309.022C268.459 310.242 268.642 311.347 268.824 312.415C263.448 315.998 259.211 320.497 254.792 324.805C245.271 334.031 234.657 342.19 222.858 349.357C216.662 353.131 210.239 356.6 203.178 359.193C200.626 360.108 198.349 361.518 195.387 361.556C193.429 361.595 191.652 361.213 189.875 360.565C170.286 352.979 153.977 341.732 139.308 328.694C133.568 323.547 128.238 318.133 122.999 312.605Z" fill="#937234"/>
<path d="M279.256 284.966C279.62 287.863 278.481 290.455 276.932 292.934C274.563 296.67 271.557 299.986 268.094 303.036C253.243 316.113 236.205 326.826 218.302 336.738C211.514 340.512 204.316 343.562 196.936 346.421C195.569 346.955 194.43 346.917 193.109 346.421C178.03 341.046 164.91 333.078 151.836 325.034C141.358 318.591 131.7 311.347 122.634 303.57C118.306 299.872 114.616 295.793 112.111 291.027C111.108 289.083 110.516 287.062 110.881 284.928C111.655 284.889 112.02 285.461 112.566 285.766C116.256 287.939 120.356 289.274 124.866 289.54C125.459 289.579 126.188 289.617 126.279 288.931C126.324 288.244 125.823 287.901 125.003 287.977C125.504 286.948 125.049 286.186 124.137 285.423C121.45 283.136 119.217 280.62 117.805 277.608C114.252 270.135 115.801 264.036 123.044 258.698C133.112 251.226 145.093 246.766 157.803 243.411C173.657 239.217 189.92 237.54 206.321 238.988C225.91 240.742 244.724 245.126 261.215 254.772C265.133 257.059 268.914 259.499 271.557 262.968C274.609 266.971 274.746 271.241 273.242 275.587C271.967 279.285 269.507 282.526 266.227 285.232C265.361 285.957 264.496 286.719 265.224 287.901C264.404 287.901 263.903 288.168 264.04 288.931C264.131 289.502 264.723 289.502 265.27 289.54C266.637 289.617 267.958 289.274 269.279 289.007C272.832 288.244 276.067 286.605 279.256 284.966ZM194.886 307.535C201.355 307.421 207.642 306.696 213.609 305.057C228.051 301.13 241.535 295.755 252.879 286.91C259.849 281.458 262.309 275.168 260.35 267.543C257.343 255.801 247.275 249.358 234.747 245.927C224.406 243.068 213.382 242.61 202.448 242.229C189.92 241.771 177.484 242.419 165.092 244.173C159.671 244.936 154.25 245.622 149.284 247.947C142.77 250.959 136.984 254.428 133.158 259.88C127.326 268.115 126.78 279.361 137.121 287.062C145.913 293.62 155.89 298.385 166.641 302.159C175.752 305.362 185.183 307.192 194.886 307.535ZM197.027 327.588C196.162 324.348 197.073 321.374 196.799 318.4C196.708 317.257 196.754 316.113 194.886 316.113C193.109 316.151 193.246 317.295 193.246 318.324C193.246 321.336 193.246 324.348 193.246 327.779C190.695 325.11 188.964 322.632 187.643 319.925C187.278 319.163 186.595 318.362 185.456 318.553C184.089 318.781 184.545 319.887 184.59 320.611C184.636 321.336 184.955 322.098 185.274 322.823C186.413 325.186 187.916 327.397 189.784 329.418C190.558 330.257 190.786 330.79 189.738 331.629C187.688 333.23 187.779 333.268 186.185 331.324C185.684 330.676 185.228 330.028 184.727 329.418C183.543 327.855 182.768 326.139 181.265 324.729C180.764 324.271 180.354 323.585 179.442 323.928C178.577 324.271 179.032 324.881 179.124 325.453C179.488 327.969 181.037 330.104 182.54 332.239C183.041 332.925 183.907 333.497 184.18 334.793C182.085 333.764 180.354 333.002 178.714 332.087C176.254 330.714 173.885 329.227 171.47 327.779C170.832 327.397 170.103 327.092 169.42 327.741C168.873 328.274 169.01 328.922 169.466 329.494C169.739 329.799 170.012 330.104 170.331 330.371C174.204 333.764 178.759 336.357 183.77 338.377C185.456 339.063 186.959 338.873 188.28 337.691C190.103 336.09 192.061 334.565 193.884 332.964C194.704 332.239 195.296 332.277 196.07 332.964C197.893 334.565 199.897 336.052 201.719 337.691C202.904 338.758 204.362 339.101 205.819 338.53C211.149 336.433 215.978 333.688 219.987 330.066C220.671 329.456 221.582 328.656 220.534 327.741C219.623 326.94 218.712 327.626 217.937 328.084C215.341 329.609 212.789 331.21 210.102 332.659C208.872 333.345 207.596 334.145 205.728 334.374C207.961 331.553 210.102 328.999 210.831 325.873C210.967 325.224 211.423 324.386 210.557 323.966C209.555 323.509 209.054 324.386 208.644 324.919C206.913 327.131 205.318 329.456 203.542 331.667C203.132 332.163 202.813 333.688 201.537 332.468C200.717 331.705 198.257 331.439 200.17 329.494C202.494 327.131 204.316 324.462 205.273 321.488C205.592 320.497 206.275 319.125 204.68 318.667C203.314 318.248 202.676 319.506 202.129 320.383C201.902 320.726 201.719 321.069 201.537 321.412C200.444 323.547 198.895 325.491 197.027 327.588Z" fill="#F4FB95"/>
<path d="M326.998 412.604C327.955 409.478 329.23 406.428 329.731 403.226C330.369 399.566 330.506 395.906 329.276 392.284C328.456 389.959 326.952 388.167 324.356 387.061C322.898 386.451 322.533 385.651 322.943 384.278C323.855 381.076 325.039 377.912 324.994 374.557C324.902 367.237 317.522 361.251 308.821 361.595C308.457 361.595 308.092 361.595 307.591 361.595C308.32 359.078 309.186 356.753 309.596 354.275C310.552 348.747 308.457 345.239 302.307 342.647C310.826 335.327 318.433 327.092 330.779 324.119C339.344 322.06 346.815 324.957 351.052 331.515C354.286 336.585 355.425 342.113 355.607 347.679C356.473 371.354 348.91 392.704 329.868 410.698C329.094 411.422 328.228 412.147 327.454 412.871C327.317 412.795 327.18 412.719 326.998 412.604Z" fill="#FAF0EE"/>
<path d="M306.679 428.082C307.454 424.728 307.18 421.373 306.998 418.018C306.543 409.897 305.176 401.891 303.49 393.923C300.985 382.334 299.39 370.63 295.245 359.307C294.425 357.134 293.787 354.808 291.782 353.093C291.19 352.178 291.145 351.492 292.329 350.691C294.561 349.166 296.611 347.489 298.661 345.773C299.618 344.934 300.575 344.934 301.714 345.316C304.675 346.345 306.588 349.09 306.451 352.102C306.315 354.923 305.358 357.591 304.356 360.26C304.083 361.061 303.718 361.823 303.581 362.624C303.354 363.958 304.128 364.682 305.768 364.682C306.315 364.682 306.861 364.683 307.363 364.568C314.697 362.509 323.079 369.639 321.94 376.158C321.439 378.979 320.665 381.762 320.164 384.583C319.845 386.337 320.392 387.824 322.305 388.586C325.949 390.073 326.952 392.742 327.271 395.753C327.863 401.243 325.949 406.39 324.492 411.651C323.398 415.502 321.394 418.704 317.567 421.144C314.515 423.088 311.645 425.299 308.638 427.358C308.046 427.663 307.59 428.349 306.679 428.082Z" fill="#ECCF5D"/>
<path d="M197.117 235.405C193.473 235.405 189.829 235.367 186.184 235.443C184.863 235.481 184.498 235.252 184.817 234.07C185.911 230.296 188.325 227.246 191.742 224.692C194.43 222.71 197.391 221.108 200.534 219.698C204.406 217.944 208.233 216.114 211.604 213.75C212.834 212.874 213.563 212.797 214.019 214.322C216.205 221.642 214.383 228.39 209.782 234.719C209.281 235.405 208.689 235.595 207.732 235.595C204.179 235.519 200.625 235.557 197.026 235.557C197.117 235.443 197.117 235.443 197.117 235.405Z" fill="#F3FA95"/>
<path d="M214.11 236.091C215.887 233.918 217.254 231.707 218.21 229.381C218.575 228.466 219.532 228.352 220.352 228.237C225.499 227.627 230.465 226.522 235.112 224.616C236.569 224.044 236.752 224.616 236.843 225.607C237.253 230.106 236.068 234.299 233.791 238.34C233.517 238.836 233.289 239.293 232.515 239.103C226.593 237.807 220.443 237.006 214.11 236.091Z" fill="#F1F893"/>
<path d="M124.912 287.978C125.732 287.901 126.279 288.244 126.188 288.931C126.142 289.655 125.368 289.579 124.776 289.541C120.266 289.274 116.166 287.94 112.476 285.766C111.929 285.461 111.564 284.89 110.79 284.928C111.018 282.907 111.701 281.001 113.159 279.285C114.617 280.2 115.482 281.382 116.485 282.45C118.216 284.394 120.448 285.881 122.589 287.444C123.318 287.978 124.092 287.94 124.912 287.978Z" fill="#9A9A52"/>
<path d="M279.256 284.966C276.067 286.605 272.832 288.244 269.142 289.007C267.821 289.274 266.5 289.617 265.133 289.541C264.587 289.502 263.994 289.502 263.903 288.931C263.767 288.206 264.268 287.901 265.088 287.901C266.227 288.092 267.047 287.634 267.912 287.063C270.828 285.156 273.197 282.869 275.338 280.429C276.522 279.057 277.251 279.4 277.889 280.772C278.527 282.145 279.119 283.479 279.256 284.966Z" fill="#9A9A52"/>
<path d="M327.09 413.176C327.044 413.214 326.999 413.252 326.953 413.29C326.908 413.252 326.816 413.214 326.816 413.138C326.816 413.1 326.908 413.062 326.953 413.023C326.999 413.1 327.044 413.138 327.09 413.176Z" fill="#FAF0EE"/>
<path d="M194.886 307.535C185.182 307.192 175.752 305.362 166.641 302.16C155.89 298.385 145.959 293.582 137.121 287.062C126.779 279.361 127.326 268.115 133.157 259.88C136.984 254.428 142.77 250.959 149.284 247.947C154.295 245.622 159.671 244.936 165.092 244.173C177.438 242.458 189.92 241.771 202.448 242.229C213.336 242.61 224.406 243.068 234.747 245.927C247.321 249.396 257.343 255.801 260.35 267.543C262.263 275.13 259.849 281.458 252.878 286.91C241.581 295.755 228.05 301.13 213.609 305.057C207.641 306.658 201.4 307.382 194.886 307.535ZM195.022 253.323C198.348 253.59 201.628 253.78 204.954 254.085C214.384 255 223.723 256.373 232.378 259.956C235.567 261.291 238.711 262.739 241.216 264.913C243.813 267.162 244.177 269.144 242.537 271.584C242.082 272.27 241.444 273.033 242.264 273.643C243.038 274.253 244.132 274.024 245.043 273.643C247.23 272.766 248.551 270.479 248.186 268.153C247.64 264.341 244.77 261.901 241.262 259.842C235.749 256.678 229.645 254.619 223.222 253.247C213.7 251.188 204.088 250.121 194.202 250.197C183.132 250.273 172.427 251.645 161.994 254.505C155.935 256.182 150.104 258.355 145.457 262.206C143.18 264.112 141.767 266.399 141.813 269.144C141.859 271.432 143.772 273.49 145.959 273.872C146.733 274.024 147.507 274.024 148.009 273.414C148.464 272.88 148.1 272.347 147.735 271.813C145.867 268.916 146.186 267.009 148.965 264.684C151.881 262.282 155.389 260.681 159.079 259.27C170.513 255.077 182.768 254.238 195.022 253.323Z" fill="#9C9C53"/>
<path d="M197.026 327.588C198.939 325.491 200.443 323.547 201.582 321.412C201.764 321.069 201.946 320.726 202.174 320.383C202.766 319.506 203.358 318.248 204.725 318.667C206.274 319.163 205.636 320.497 205.317 321.488C204.315 324.462 202.493 327.131 200.215 329.494C198.301 331.439 200.761 331.705 201.582 332.468C202.857 333.688 203.176 332.163 203.586 331.667C205.363 329.456 206.957 327.169 208.688 324.919C209.098 324.386 209.645 323.509 210.602 323.966C211.467 324.386 211.057 325.224 210.875 325.873C210.146 328.999 208.005 331.553 205.773 334.374C207.64 334.145 208.916 333.345 210.146 332.659C212.788 331.21 215.385 329.609 217.982 328.084C218.802 327.626 219.667 326.94 220.578 327.741C221.626 328.617 220.715 329.418 220.032 330.066C216.023 333.688 211.194 336.471 205.864 338.53C204.36 339.102 202.948 338.758 201.764 337.691C199.941 336.09 197.983 334.565 196.115 332.964C195.295 332.239 194.748 332.239 193.928 332.964C192.106 334.565 190.147 336.09 188.325 337.691C186.958 338.873 185.455 339.063 183.815 338.377C178.804 336.357 174.248 333.726 170.376 330.371C170.057 330.104 169.738 329.799 169.51 329.494C169.055 328.922 168.918 328.274 169.465 327.741C170.102 327.131 170.831 327.398 171.515 327.779C173.929 329.189 176.298 330.676 178.758 332.087C180.398 333.002 182.129 333.764 184.225 334.794C183.951 333.497 183.086 332.964 182.585 332.239C181.081 330.104 179.532 328.007 179.168 325.453C179.077 324.919 178.621 324.271 179.487 323.928C180.398 323.547 180.808 324.271 181.309 324.729C182.812 326.101 183.587 327.855 184.771 329.418C185.272 330.066 185.728 330.714 186.229 331.324C187.778 333.269 187.732 333.23 189.783 331.629C190.83 330.791 190.648 330.295 189.828 329.418C187.96 327.397 186.411 325.224 185.318 322.823C184.999 322.136 184.726 321.374 184.635 320.611C184.589 319.849 184.134 318.782 185.5 318.553C186.639 318.362 187.322 319.163 187.687 319.925C189.054 322.594 190.739 325.11 193.29 327.779C193.29 324.309 193.29 321.298 193.29 318.324C193.29 317.295 193.154 316.113 194.93 316.113C196.753 316.075 196.753 317.257 196.844 318.4C197.026 321.374 196.16 324.348 197.026 327.588Z" fill="#A17729"/>
<path d="M195.022 253.323C182.768 254.238 170.513 255.039 159.078 259.385C155.388 260.795 151.881 262.396 148.965 264.798C146.141 267.124 145.867 269.03 147.735 271.927C148.054 272.461 148.464 272.957 148.008 273.529C147.507 274.1 146.733 274.1 145.958 273.986C143.772 273.605 141.858 271.546 141.813 269.259C141.722 266.476 143.134 264.226 145.457 262.32C150.104 258.47 155.935 256.259 161.994 254.619C172.426 251.76 183.132 250.387 194.202 250.311C204.088 250.235 213.7 251.302 223.221 253.361C229.645 254.734 235.749 256.792 241.261 259.957C244.769 262.015 247.639 264.455 248.186 268.268C248.505 270.593 247.229 272.842 245.043 273.757C244.131 274.139 243.038 274.405 242.264 273.757C241.489 273.109 242.081 272.385 242.537 271.699C244.177 269.259 243.813 267.276 241.216 265.027C238.71 262.854 235.567 261.405 232.378 260.071C223.722 256.487 214.429 255.153 204.953 254.2C201.628 253.78 198.302 253.59 195.022 253.323Z" fill="#050502"/>
<path d="M151.373 357.072C151.481 358.321 152.209 359.402 152.694 360.567C153.563 362.61 153.506 364.48 151.876 366.115C144.758 373.235 137.641 380.354 128.548 385.763C127.663 386.266 126.841 386.86 125.635 386.908C124.87 385.632 124.106 384.355 123.332 383.114C107.658 358.042 91.9335 332.993 76.2593 307.921C77.4308 306.349 79.4588 305.707 81.1706 304.76C88.4909 300.689 95.463 296.266 103.081 292.57C103.645 292.277 104.187 291.904 105.003 292.159C119.591 313.022 134.229 333.862 148.816 354.725C149.457 355.636 150.08 356.616 151.373 357.072Z" fill="#ECCF5D"/>
<path d="M76.269 307.887C91.9431 332.959 107.668 358.007 123.342 383.079C124.115 384.321 124.88 385.597 125.644 386.873C125.625 387.94 125.596 389.041 124.096 389.195C122.495 389.396 121.616 388.385 120.938 387.28C115.848 379.193 110.757 371.105 105.717 362.995C94.8863 345.611 84.0875 328.274 73.298 310.901C72.4602 309.569 71.6133 308.27 70.9682 306.878C70.195 305.304 69.6646 303.979 67.1318 304.856C65.9159 305.27 64.6511 304.378 64.0149 303.284C60.5405 297.587 56.9745 291.903 54.6059 285.874C54.2629 285.006 53.8234 284.334 53.1087 283.699C43.9314 275.852 36.5853 266.94 30.6254 257.142C25.8923 249.372 30.1638 244.302 36.585 240.287C38.6046 239.014 40.9567 239.643 43.1245 240.961C43.5003 241.209 43.8529 241.71 44.3853 241.371C44.858 241.091 44.6705 240.634 44.6068 240.211C44.1372 234.023 49.8634 228.306 57.0419 227.746C60.5141 227.49 62.8146 229.139 64.6371 231.585C65.0309 232.097 65.1719 233.059 66.1627 232.991C67.1534 232.923 66.9114 232.008 67.0681 231.421C67.9018 228.465 70.0551 226.526 73.1708 225.288C76.5802 223.943 80.3048 223.57 84.1433 223.929C87.7662 224.268 90.19 226.283 91.2225 229.701C92.3463 233.439 92.1905 237.168 92.0026 240.852C91.9325 241.942 91.0868 243.454 92.0263 244.074C93.1216 244.773 94.247 243.373 95.3391 242.926C97.4316 242.043 99.4736 241.183 101.763 240.722C105.304 240.041 108.412 241.315 109.67 244.386C112.14 250.369 111.876 255.992 107.444 260.834C105.64 262.792 103.436 264.422 101.031 265.813C99.6633 266.631 99.6946 267.341 100.551 268.605C103.779 273.238 106.268 278.153 108.808 283.046C110.011 285.327 109.661 286.305 107.229 287.467C106.018 288.031 105.797 288.526 106.639 289.676C122.194 310.723 136.901 332.136 152.162 353.29C153.87 355.668 153.64 356.531 151.167 357.017C149.883 356.526 149.21 355.57 148.537 354.614C133.95 333.751 119.362 312.887 104.724 292.048C103.95 291.139 103.943 289.177 101.754 290.256C92.7043 294.679 83.3248 298.681 73.7073 302.249C72.7666 302.627 72.5323 303.008 73.1917 303.849C74.4193 305.212 75.2983 306.556 76.269 307.887ZM32.3857 250.219C32.0268 251.232 32.1678 252.194 32.5977 253.233C34.0933 256.737 36.066 260.11 38.5115 263.203C43.6268 269.708 48.9028 276.107 55.2941 281.806C56.9023 283.234 58.0148 284.862 58.8566 286.676C60.9014 291.104 63.7676 295.27 66.2896 299.566C66.7748 300.398 67.2375 300.817 68.4306 300.323C80.4162 295.501 92.2964 290.578 103.577 284.754C104.706 284.169 104.858 283.766 104.221 282.672C101.507 278.102 99.0268 273.484 95.9591 269.079C94.462 266.905 94.6975 265.526 96.667 263.945C97.8973 262.98 99.201 262.071 100.473 261.117C104.811 257.95 107.264 254.058 106.39 248.723C105.671 244.464 104.639 243.856 100.395 245.68C97.3018 246.999 94.3692 248.545 91.3405 249.954C90.1795 250.494 88.9087 250.783 87.5657 250.018C86.2641 249.264 86.1599 248.164 86.3217 247.061C86.6086 244.994 86.9779 242.948 87.2235 240.87C87.5852 237.528 87.5479 234.191 86.7723 230.805C86.4666 229.466 85.8628 228.085 84.088 227.944C75.7369 227.267 70.5519 229.135 70.4286 236.385C70.369 240.251 70.9836 244.075 71.6302 247.944C71.8262 249.031 71.7424 250.007 70.4897 250.56C69.682 250.936 68.8611 250.864 68.1095 250.368C67.2434 249.804 66.8912 248.97 66.6308 248.125C66.0002 246.182 65.3788 244.204 64.7482 242.262C63.7838 239.416 62.7185 236.618 61.0018 233.942C59.4132 231.447 58.0607 231.049 55.2799 232.192C53.3389 233.005 51.4527 233.943 49.9468 235.278C48.4593 236.544 47.8704 238.088 48.2534 239.964C48.7458 242.425 49.3712 244.884 50.5563 247.233C51.5811 249.355 52.606 251.477 53.5895 253.588C54.0607 254.638 53.8532 255.581 52.6785 256.007C51.5451 256.444 50.6057 255.823 49.9278 255.051C49.3461 254.415 48.925 253.674 48.3525 253.003C46.1726 250.24 44.2956 247.336 41.6843 244.864C40.768 243.991 39.6867 243.074 38.3787 243.834C35.6111 245.424 33.3981 247.421 32.3857 250.219ZM44.4306 241.864C44.3985 241.818 44.3757 241.738 44.3344 241.727C44.2519 241.705 44.1509 241.752 44.0592 241.765C44.0913 241.81 44.1141 241.89 44.1554 241.901C44.2471 241.889 44.3388 241.876 44.4306 241.864Z" fill="#0A0907"/>
<path d="M76.2689 307.887C75.3395 306.567 74.4605 305.223 73.4392 303.915C72.7798 303.074 72.9821 302.647 73.9548 302.315C83.5815 298.712 92.9518 294.745 102.002 290.323C104.191 289.244 104.197 291.205 104.972 292.114C104.187 291.904 103.655 292.243 103.091 292.536C95.5139 296.243 88.4913 300.689 81.1802 304.725C79.4683 305.673 77.3991 306.303 76.2689 307.887Z" fill="#907133"/>
<path d="M32.3859 250.219C33.3982 247.421 35.6113 245.424 38.3284 243.857C39.6364 243.098 40.7177 244.015 41.634 244.888C44.2866 247.371 46.1543 250.309 48.3021 253.027C48.8334 253.686 49.2957 254.438 49.8775 255.074C50.5966 255.858 51.4948 256.467 52.6282 256.03C53.8028 255.605 54.0103 254.662 53.5392 253.612C52.5648 251.466 51.54 249.344 50.506 247.257C49.3301 244.873 48.7367 242.459 48.2031 239.988C47.82 238.111 48.441 236.613 49.8965 235.301C51.4437 233.977 53.2886 233.028 55.2296 232.216C57.9691 231.062 59.3216 231.46 60.9514 233.965C62.6361 236.596 63.7427 239.405 64.6978 242.285C65.3284 244.228 65.9498 246.205 66.5804 248.148C66.8409 248.994 67.2435 249.804 68.0592 250.391C68.8108 250.888 69.6317 250.959 70.4394 250.583C71.6509 250.02 71.7254 249.078 71.5799 247.967C70.924 244.132 70.3186 240.274 70.3783 236.408C70.5016 229.159 75.6865 227.29 84.0377 227.967C85.8125 228.109 86.4163 229.49 86.7219 230.828C87.4976 234.215 87.5257 237.586 87.1732 240.893C86.9276 242.972 86.5582 245.017 86.2714 247.085C86.1096 248.187 86.2137 249.287 87.5154 250.041C88.8583 250.807 90.1199 250.552 91.2901 249.977C94.3189 248.568 97.2515 247.022 100.344 245.704C104.589 243.88 105.62 244.488 106.34 248.746C107.214 254.081 104.76 257.973 100.422 261.14C99.1506 262.094 97.8562 262.969 96.6167 263.969C94.6472 265.55 94.4116 266.929 95.9088 269.103C98.9673 273.542 101.448 278.16 104.171 282.695C104.807 283.789 104.646 284.227 103.527 284.778C92.2461 290.601 80.3246 295.514 68.3802 300.346C67.1964 300.806 66.7657 300.433 66.2393 299.59C63.7173 295.293 60.8419 291.162 58.8062 286.699C57.9645 284.885 56.8519 283.257 55.2438 281.83C48.8525 276.131 43.5857 269.697 38.4612 263.227C36.0157 260.134 34.043 256.761 32.5474 253.256C32.168 252.194 32.0269 251.232 32.3859 250.219ZM80.8848 275.701C80.9133 274.932 80.634 274.488 79.9137 274.702C79.2026 274.882 78.4546 275.2 78.0183 275.675C76.7968 276.938 75.2412 277.632 73.4199 277.996C70.6123 278.577 67.9557 279.42 65.5279 280.731C64.7523 281.152 63.917 281.632 64.4755 282.52C65.066 283.454 66.1209 283.477 67.08 283.031C69.5443 281.914 72.2193 281.002 74.9852 280.743C78.8429 280.368 78.4114 276.852 80.8848 275.701Z" fill="#955A40"/>
<path d="M44.4307 241.864C44.3389 241.876 44.2472 241.889 44.1554 241.901C44.1142 241.89 44.0913 241.81 44.0593 241.765C44.151 241.752 44.2428 241.74 44.3345 241.727C44.3758 241.738 44.4078 241.784 44.4307 241.864Z" fill="#FEFEFE"/>
<path d="M80.8849 275.701C78.4114 276.852 78.8429 280.368 74.944 280.732C72.178 280.991 69.5122 281.869 67.0388 283.02C66.0797 283.466 65.034 283.409 64.4343 282.509C63.8345 281.61 64.6698 281.13 65.4867 280.72C67.9145 279.409 70.5711 278.566 73.3787 277.985C75.2092 277.586 76.8061 276.904 77.9771 275.664C78.4134 275.189 79.1934 274.916 79.8725 274.691C80.634 274.488 80.9133 274.932 80.8849 275.701Z" fill="#573526"/>
<path d="M306.166 232.018C307.436 231.562 308.614 231.031 309.929 230.728C312.105 230.197 314.326 230.083 316.049 231.638C317.817 233.232 318.225 235.204 317.5 237.291C315.958 241.805 313.601 246.017 310.745 250.076C299.412 266.123 283.409 278.263 264.641 287.9C243.878 298.522 221.484 305.616 197.276 308.348C178.507 310.472 159.921 310.093 141.969 304.251C132.449 301.178 123.972 296.625 116.492 290.821C113.953 288.886 112.049 286.534 110.961 283.764C110.644 282.93 110.009 282.399 109.148 281.943C106.79 280.729 104.796 279.212 103.39 277.201C101.078 273.939 101.35 271.586 104.342 268.779C104.75 268.4 105.158 268.02 105.612 267.641C103.118 266.237 100.897 264.606 99.3555 262.443C97.6328 259.978 98.1768 258.194 101.078 256.677C103.164 255.577 105.476 255.008 107.788 254.515C108.876 254.287 109.374 253.908 109.012 252.921C108.83 252.39 108.74 251.821 108.694 251.252C108.513 248.976 107.606 247.155 105.068 245.979C103.753 245.372 102.846 244.271 102.121 243.133C101.849 242.678 101.668 242.109 102.166 241.73C102.756 241.312 103.3 241.654 103.708 242.071C104.116 242.488 104.66 242.64 105.43 242.564C104.977 240.971 103.934 239.757 103.209 238.391C97.6328 228.451 91.2862 218.853 86.7528 208.534C74.7848 181.257 68.7555 153.183 70.7955 124.199C72.6088 98.4017 77.0968 72.9456 89.7902 49.0071C96.1822 36.9429 103.481 25.372 114.633 15.8117C119.62 11.5248 125.196 7.92074 131.86 5.60655C138.977 3.10267 145.278 4.5443 149.857 9.77967C154.3 14.9012 156.385 20.8574 158.198 26.8515C161.417 37.3223 162.822 48.0965 165.089 58.719C168.489 74.6907 169.985 90.928 173.249 106.938C175.833 119.533 178.009 132.28 183.041 144.42C185.262 149.769 185.308 149.731 191.972 149.579C193.014 149.541 193.196 149.01 193.558 148.479C219.217 112.894 246.961 78.4465 275.385 44.3787C285.086 32.7319 296.42 22.1852 309.566 13.1561C315.369 9.17267 321.58 5.72036 328.289 2.91298C330.873 1.85073 333.548 1.01611 336.449 0.788488C344.201 0.181488 350.049 3.21649 352.633 9.32443C355.036 14.9392 355.398 20.8195 355.716 26.6998C356.849 48.0207 354.628 69.1139 350.14 90.0934C348.145 99.426 347.374 108.948 344.881 118.167C337.492 145.065 329.014 171.697 313.284 196.242C309.43 202.199 305.26 207.965 299.774 212.973C298.822 213.846 298.46 217.298 299.094 218.322C299.457 218.967 300.001 218.588 300.409 218.55C305.758 218.208 308.07 220.067 307.98 224.582C307.934 227.124 306.801 229.362 305.668 231.638C305.577 231.79 305.396 232.055 305.441 232.093C305.668 232.321 305.894 232.131 306.166 232.018ZM133.718 265.137C133.764 265.213 133.854 265.289 133.9 265.327C133.9 265.289 133.9 265.251 133.854 265.213C133.809 265.213 133.718 265.213 133.718 265.137C133.537 265.023 133.446 264.871 133.31 264.72C131.361 262.026 130.137 259.029 128.868 255.842C128.006 258.422 130.364 263.164 133.129 264.871C133.31 264.985 133.492 265.061 133.718 265.137ZM296.782 258.346L296.828 258.27C297.19 258.194 297.417 258.005 297.326 257.663L297.372 257.587C297.779 257.512 297.961 257.322 297.825 256.98L297.916 256.867C298.233 256.867 298.324 256.753 298.188 256.525L298.233 256.487C298.369 256.449 298.596 256.487 298.641 256.411C303.537 250.569 309.022 245.03 311.652 238.088C312.105 236.949 313.284 235.546 312.014 234.521C310.7 233.459 308.886 234.218 307.345 234.673C307.3 234.673 307.254 234.749 307.209 234.825C304.489 235.546 302.086 236.76 299.502 237.67C297.462 238.429 296.737 237.936 296.782 236.001C297.916 235.66 298.505 234.825 299.049 233.99C300.862 231.259 301.769 228.3 302.313 225.265C302.902 222.04 301.996 221.433 298.233 222.343C297.145 222.306 296.193 222.647 295.196 222.913C289.257 224.392 283.318 225.91 277.38 227.389C276.246 227.693 275.113 228.072 273.889 227.579C273.708 227.01 274.025 226.555 274.342 226.137C280.689 224.696 286.718 222.571 292.838 220.712C295.558 219.878 295.558 219.764 294.652 217.26C292.521 218.398 290.481 219.953 287.715 218.55C287.625 217.298 288.441 216.425 289.529 215.704C295.694 211.493 300.364 206.22 304.353 200.529C315.596 184.596 323.574 167.562 329.468 149.769C333.276 138.198 337.582 126.741 340.03 114.904C342.025 105.382 343.249 95.746 345.153 86.2237C349.414 65.0925 351.409 43.8476 349.777 22.4129C349.46 18.3156 349.006 14.2184 347.193 10.3487C345.198 6.0618 340.801 4.2408 335.542 5.34099C333.23 5.79624 331.145 6.63086 329.06 7.54136C316.23 13.0802 305.849 21.1609 296.193 29.9245C285.086 39.9779 275.793 51.2074 266.726 62.5507C249.228 84.4407 231.593 106.255 214.638 128.448C208.563 136.377 202.353 144.192 196.414 152.197C195.689 153.183 194.873 154.397 193.286 153.866C189.025 152.463 184.673 153.221 180.593 153.866C157.609 157.357 139.022 167.182 124.289 182.281C123.201 183.382 123.473 183.837 124.742 184.558C130.273 187.669 135.486 191.121 140.564 194.649C141.516 195.294 142.468 195.901 142.876 196.925C142.83 197.419 142.921 197.95 142.74 198.443C140.201 205.689 137.844 212.973 134.398 219.991C133.31 222.154 132.268 222.419 129.593 221.585C123.337 219.574 117.398 216.956 111.414 214.415C108.558 213.201 108.558 213.201 108.06 215.704C106.881 223.52 107.198 231.221 110.281 238.732C110.417 236.456 110.825 234.218 111.958 232.131C115.086 226.403 121.297 225.492 126.374 230.083C127.372 230.993 128.278 232.056 129.14 233.08C131.497 235.963 133.265 239.112 134.761 242.337C138.614 250.531 142.876 258.726 139.521 267.906C139.158 267.944 139.113 268.172 139.113 268.4C138.116 269.462 136.846 270.297 135.441 271.017C135.124 270.979 134.806 271.017 134.716 271.321V271.283C128.369 271.207 123.337 268.324 121.614 263.771C121.342 263.05 120.708 262.178 122.249 261.836C123.745 262.823 124.697 264.227 125.876 265.403C128.233 267.755 131.089 268.969 133.99 268.703C129.82 267.337 127.961 264.568 126.782 261.343C126.601 260.812 126.42 260.243 126.238 259.712C125.377 257.549 125.422 255.501 127.598 253.832C129.185 252.618 128.55 252.011 126.692 251.783C125.105 251.593 123.428 251.479 122.884 249.924C120.889 244.158 119.62 238.353 123.473 232.738C123.836 232.245 123.881 231.904 123.428 231.448C121.75 229.779 119.166 229.59 117.262 231.107C115.086 232.89 114.225 235.128 114.18 237.594C114.134 240.819 114.542 244.006 115.041 247.193C115.086 248.255 113.817 249.051 114.134 250.228C114.996 253.414 115.222 256.677 115.63 259.902C115.902 265.023 116.356 270.145 115.63 275.228C114.86 280.729 117.081 285.206 121.886 288.772C133.854 297.612 147.953 302.733 163.638 304.706C175.833 306.223 187.982 305.578 200.086 303.681C214.366 301.405 228.329 298.408 241.702 293.628C255.937 288.507 269.038 281.792 280.326 272.876C285.902 268.475 291.841 264.302 296.193 258.915C296.737 258.688 296.873 258.574 296.782 258.346ZM127.372 240.402C128.142 240.553 129.004 240.819 129.638 240.174C130.228 239.529 129.502 239.036 129.23 238.505C128.868 237.822 128.641 237.101 127.916 236.608C127.644 235.698 127.054 234.939 126.193 234.18C124.017 237.556 123.972 241.047 124.47 244.575C124.652 245.941 125.15 247.268 125.558 248.596C125.785 249.317 126.692 249.545 127.326 249.469C128.369 249.355 127.825 248.52 127.734 248.103C127.009 245.523 127.372 242.982 127.372 240.402ZM123.745 31.8972C121.524 33.0733 119.937 34.7805 118.35 36.4497C108.558 46.7308 101.804 58.4914 96.1368 70.6314C90.2888 83.1508 86.2542 96.1254 84.6675 109.631C83.5342 119.343 83.1262 129.055 84.9395 138.653C87.4328 151.818 90.9235 164.792 96.7715 177.274C98.0862 180.043 99.0835 182.964 100.761 185.772C102.665 182.813 104.161 179.929 106.201 177.274C107.742 175.301 108.83 175.035 111.233 176.363C113.953 177.843 116.492 179.512 119.121 181.105C119.846 181.523 120.617 182.661 121.433 181.902C122.34 181.03 124.017 180.271 123.428 178.602C122.113 174.846 122.158 171.128 124.017 167.486C124.153 167.22 124.38 166.917 123.926 166.575C123.609 166.613 123.246 166.651 122.884 166.727C117.716 167.638 114.134 165.513 113.409 161.15C113.182 159.709 113.182 158.229 113.454 156.825C114.588 150.945 116.9 145.368 120.436 140.171C120.753 139.678 121.07 139.147 121.524 138.35C119.846 138.843 118.577 139.222 117.308 139.526C111.278 141.043 107.38 139.791 104.252 135.467C103.98 130.649 105.43 126.134 107.742 121.771C112.548 112.666 118.622 104.168 126.102 96.4289C127.417 95.7461 128.006 94.4941 129.185 93.7354C130.998 92.5214 131.316 91.0797 131.089 89.1829C130.545 84.5545 131.724 79.8882 131.497 75.2219C131.316 71.8834 131.361 68.5069 131.588 65.2064C132.268 55.9496 133.265 46.7308 132.449 37.4361C132.313 35.7669 131.95 34.1735 131.134 32.6939C129.185 29.3175 126.692 29.0519 123.745 31.8972ZM125.649 174.087C125.468 174.96 125.921 175.718 126.102 176.743C126.556 176.401 126.782 176.249 126.964 176.06C135.849 167.372 146.638 160.847 159.196 156.408C165.27 154.284 171.481 152.576 177.918 151.514C178.553 151.4 179.913 151.666 179.324 150.414C178.372 148.441 177.374 146.506 176.377 144.534C175.606 141.992 174.7 139.412 174.02 136.87C168.262 115.511 165.044 93.8492 161.734 72.1489C159.558 57.9982 156.974 43.8855 153.166 29.9624C151.58 24.1959 149.54 18.4674 145.732 13.3837C142.604 9.21061 138.886 8.33805 133.537 10.2349C127.598 12.3594 122.657 15.5462 118.169 19.4158C106.609 29.3934 99.2648 41.5713 92.9182 54.1665C81.4035 77.1567 77.7768 101.55 76.2808 126.172C75.2382 143.699 77.2328 161.15 82.0835 178.298C86.1182 192.676 91.1048 206.827 98.4035 220.371C100.444 223.861 102.529 227.351 104.569 230.842C104.342 224.999 104.433 219.346 105.566 213.732C105.884 212.1 105.294 211.19 103.39 210.886C100.852 209.559 98.3582 208.117 95.7288 206.903C93.0088 205.689 92.6915 205.499 93.5075 203.071C95.0488 198.253 96.6355 193.473 99.0835 188.883C99.5368 188.048 99.4915 187.365 99.0835 186.568C93.8248 175.491 89.1102 164.337 86.2542 152.614C84.5315 145.52 82.4915 138.464 82.0382 131.218C81.3128 119.647 82.5822 108.19 85.1208 96.7704C89.1555 78.6362 97.0888 61.754 107.969 45.8203C111.732 40.2814 116.038 35.0081 121.886 30.7591C128.46 25.979 131.633 29.5451 133.174 33.87C133.22 33.9838 133.22 34.1355 133.265 34.2494C134.58 38.6122 134.126 43.0509 134.217 47.4516C134.398 56.6704 133.22 65.8892 133.22 75.1081C133.22 78.181 133.31 81.2919 132.902 84.3648C132.63 86.2617 131.86 88.1965 133.038 90.2072C133.9 89.5243 134.67 88.8794 135.486 88.2344C135.894 87.893 136.438 87.7412 136.892 88.1585C137.3 88.5 136.892 88.8414 136.62 89.1449C136.302 89.4864 135.894 89.7899 135.532 90.1313C126.556 98.0602 119.076 106.9 113.092 116.612C110.009 121.619 107.334 126.741 106.881 132.47C106.564 136.529 109.465 137.933 114.18 137.439C115.222 137.326 116.22 137.022 117.217 136.756C118.849 136.301 120.436 135.58 122.113 135.391C123.518 135.239 124.334 134.708 125.196 133.873C127.508 131.711 129.956 129.624 132.358 127.538C132.812 127.12 133.446 126.362 134.217 126.969C134.897 127.5 133.99 127.955 133.628 128.372C132.812 129.207 131.996 130.042 131.134 130.838C123.972 137.174 119.529 144.761 117.081 153.183C116.31 155.725 115.585 158.343 116.356 161.036C117.126 163.882 119.302 165.02 122.702 164.337C125.15 163.844 127.145 162.857 128.55 161.074C128.868 160.657 129.412 160.24 130.092 160.543C130.862 160.885 130.726 161.53 130.454 162.061C130.092 162.82 129.548 163.502 129.049 164.223C127.054 167.296 125.286 170.445 125.649 174.087ZM139.294 198.291C139.476 197.494 138.796 197.115 138.206 196.698C129.457 190.286 119.665 184.975 110.689 178.829C109.42 177.957 108.785 178.146 107.969 179.322C102.801 186.91 98.9928 194.991 96.5902 203.489C96.2728 204.589 96.8168 204.854 97.8142 205.272C104.796 208.269 111.732 211.304 118.668 214.301C122.068 215.78 125.558 217.184 129.094 218.36C130.454 218.815 131.089 218.55 131.542 217.412C133.129 213.618 134.852 209.824 136.438 206.03C137.481 203.526 138.342 200.909 139.294 198.291ZM109.42 278.453C110.1 272.724 110.281 267.641 109.964 262.519C109.873 260.926 110.508 258.422 109.193 257.967C107.47 257.398 105.022 258.536 103.028 259.257C101.758 259.75 101.577 260.395 102.302 261.343C103.662 263.126 105.43 264.53 107.561 265.706C109.646 266.882 109.692 267.224 107.924 268.665C104.342 271.51 104.252 273.256 107.47 276.404C107.969 276.973 108.513 277.505 109.42 278.453Z" fill="#060605"/>
<path d="M274.343 226.137C273.98 226.592 273.708 227.048 273.889 227.579C272.484 229.058 270.444 230.007 269.084 231.562C265.548 235.584 262.601 239.909 259.745 244.271C255.393 250.872 250.543 257.132 243.425 261.95C240.161 264.151 236.535 265.668 232.364 266.161C232.817 265.44 233.225 264.72 233.724 264.037C234.359 263.164 234.721 262.33 233.588 261.533C233.679 260.698 234.903 259.826 233.497 259.029C234.812 256.829 235.809 254.552 236.58 252.162C237.668 248.71 237.487 245.144 237.804 241.616C237.895 240.705 238.031 240.25 239.209 239.909C245.647 237.936 249.273 233.725 251.449 228.489C251.585 228.148 251.585 227.731 251.631 227.351C251.631 226.82 251.495 226.327 250.815 226.137C250.135 225.947 249.636 226.213 249.273 226.668C249.047 226.972 248.865 227.351 248.639 227.655C246.961 229.931 245.103 232.093 242.383 233.535C239.617 235.015 237.532 234.408 236.444 231.904C233.815 225.834 229.644 220.674 223.705 216.539C212.916 209.103 199.225 208.989 188.436 216.387C179.279 222.647 175.471 231.183 174.564 240.781C173.839 248.293 175.833 255.425 179.777 262.216C177.556 261.76 175.607 260.774 173.703 259.826C168.625 257.284 163.412 257.246 158.108 258.991C152.26 260.888 147.092 263.847 141.924 266.806C141.199 267.223 140.609 267.906 139.612 267.831C142.967 258.688 138.705 250.455 134.852 242.261C133.356 239.036 131.543 235.887 129.231 233.004C128.369 231.98 127.508 230.917 126.465 230.007C121.388 225.416 115.132 226.289 112.049 232.055C110.916 234.142 110.508 236.342 110.372 238.657C107.289 231.145 107.017 223.444 108.151 215.629C115.313 218.322 121.887 221.964 129.321 224.164C134.081 225.606 136.303 225.037 138.751 221.243C141.017 217.791 142.74 214.149 144.009 210.393C145.052 207.168 146.457 204.02 146.457 200.605C146.457 198.405 145.505 197.456 142.921 196.887C142.513 195.863 141.516 195.256 140.609 194.611C135.487 191.045 130.273 187.593 124.788 184.52C123.519 183.799 123.247 183.344 124.335 182.244C139.068 167.144 157.655 157.319 180.639 153.828C184.719 153.221 189.071 152.425 193.332 153.828C194.919 154.359 195.735 153.145 196.46 152.159C202.399 144.154 208.655 136.339 214.684 128.41C231.684 106.217 249.319 84.4027 266.772 62.5128C275.839 51.1315 285.132 39.9399 296.239 29.8865C305.895 21.123 316.276 13.0423 329.105 7.50339C331.191 6.59289 333.321 5.7962 335.588 5.30301C340.847 4.20282 345.244 6.02382 347.239 10.3108C349.052 14.1804 349.551 18.2776 349.823 22.3749C351.455 43.8096 349.46 65.0546 345.199 86.1858C343.295 95.7081 342.025 105.344 340.076 114.867C337.628 126.703 333.321 138.16 329.513 149.731C323.62 167.524 315.641 184.558 304.399 200.491C300.364 206.182 295.74 211.455 289.575 215.666C288.532 216.387 287.671 217.26 287.761 218.55C283.409 220.522 279.012 222.457 274.705 224.506C273.98 224.771 273.3 225.416 274.343 226.137ZM163.004 188.389C162.143 189.755 162.959 191.121 163.185 192.449C164.001 197.381 164.545 202.35 166.449 207.093C168.081 211.19 168.897 211.645 174.111 211.683C182.407 211.759 190.612 210.507 198.863 209.976C204.121 209.634 209.335 209.027 214.503 208.269C221.711 207.168 224.023 205.006 224.385 198.898C224.431 198.519 224.476 198.139 224.521 197.76C225.247 189.907 224.657 182.13 222.345 174.504C221.756 172.569 220.668 170.445 217.449 170.407C216.633 168.965 215.409 168.586 213.551 169.079C210.74 169.838 207.929 170.445 205.119 171.128C191.655 174.39 178.281 177.881 165.407 182.509C162.007 183.723 162.097 183.837 162.823 186.72C162.959 187.251 162.959 187.82 163.004 188.389ZM272.076 185.848C272.665 186.758 273.436 187.555 274.433 188.162C276.927 191.728 279.375 195.332 281.959 198.86C283.455 200.947 284.497 203.299 286.719 204.968C286.673 206.41 287.58 206.106 288.396 205.537C289.62 204.702 290.889 203.83 291.796 202.768C298.188 195.635 304.308 188.389 308.751 180.233C313.601 171.28 317.409 161.947 320.9 152.576C326.431 137.781 330.828 122.72 334.183 107.469C336.54 96.8462 338.58 86.2237 340.031 75.5253C340.847 69.3415 341.663 63.1198 342.524 56.9359C343.748 48.1724 345.516 39.4468 345.017 30.5694C344.972 29.5071 344.927 28.4449 344.519 27.3826C343.521 24.727 341.527 23.8165 338.263 24.5753C335.588 25.1823 333.367 26.5101 331.236 27.9517C321.535 34.5528 314.145 42.8991 306.529 51.0936C306.121 51.5488 305.804 52.08 305.623 52.6111C305.396 53.3319 305.849 53.9768 306.756 53.863C310.791 53.2181 313.919 54.8873 316.82 56.7083C319.585 58.4534 320.764 60.8814 319.993 63.8785C319.223 66.9514 317.183 69.4174 314.78 71.6936C309.839 76.322 303.673 79.6226 297.281 82.6576C296.511 83.0369 294.969 83.3025 295.604 84.2889C296.284 85.3132 297.508 84.4786 298.369 84.1371C301.271 82.9611 304.036 81.5194 306.711 80.0019C307.209 79.7364 307.617 79.3191 308.297 79.357C312.876 79.5088 317.183 83.2646 317.183 87.1342C317.183 90.7383 315.233 93.7353 312.74 96.4668C304.58 105.344 293.609 110.731 281.097 114.184C277.244 115.246 273.255 116.043 269.175 116.156C268.359 116.194 267.316 116.232 267.361 117.219C267.407 118.243 268.449 118.053 269.265 118.053C271.079 118.053 272.892 118.129 274.66 117.75C277.607 117.105 280.463 117.408 283.228 118.433C286.311 119.571 288.396 122.644 287.988 125.337C287.308 130.042 284.86 134.025 280.735 137.174C274.025 142.333 266.591 146.658 258.068 149.466C244.921 153.828 231.321 156.749 217.177 157.736C216.361 157.774 215.273 157.698 215.273 158.646C215.273 159.481 216.225 159.671 217.132 159.709C217.449 159.709 217.721 159.747 218.039 159.709C222.572 159.215 227.196 159.178 231.729 158.343C232.455 158.191 233.18 158.115 233.951 158.381C237.169 159.633 240.479 160.695 243.471 162.326C251.087 166.499 257.887 171.469 263.78 177.312C266.681 180.119 269.356 183.002 272.076 185.848Z" fill="#EDCF5D"/>
<path d="M98.4034 220.371C91.1047 206.865 86.118 192.714 82.0834 178.298C77.278 161.15 75.238 143.699 76.2807 126.172C77.7767 101.588 81.4034 77.1946 92.918 54.1666C99.2647 41.5334 106.563 29.3934 118.169 19.4158C122.657 15.5462 127.598 12.3595 133.537 10.235C138.886 8.33808 142.603 9.21065 145.731 13.3838C149.539 18.4674 151.579 24.196 153.166 29.9625C157.019 43.8855 159.558 57.9983 161.734 72.149C165.089 93.8113 168.262 115.512 174.019 136.87C174.699 139.45 175.606 141.992 176.377 144.534C173.929 144.723 171.753 145.634 169.667 146.62C154.027 153.904 139.43 162.326 127.145 173.328C126.737 173.708 126.374 174.125 125.649 174.049C125.286 170.407 127.054 167.296 129.049 164.223C129.502 163.502 130.091 162.82 130.454 162.061C130.726 161.568 130.862 160.885 130.091 160.543C129.411 160.278 128.867 160.695 128.55 161.074C127.145 162.858 125.15 163.844 122.702 164.337C119.302 165.02 117.171 163.882 116.355 161.037C115.63 158.343 116.355 155.725 117.081 153.183C119.574 144.761 123.971 137.212 131.134 130.838C131.995 130.042 132.811 129.207 133.627 128.372C134.035 127.955 134.897 127.5 134.217 126.969C133.446 126.362 132.857 127.12 132.358 127.538C129.91 129.624 127.507 131.711 125.195 133.873C124.334 134.708 123.518 135.201 122.113 135.391C120.435 135.58 118.849 136.301 117.217 136.757C116.219 137.022 115.222 137.364 114.179 137.439C109.465 137.895 106.563 136.529 106.881 132.47C107.334 126.741 110.009 121.582 113.091 116.612C119.03 106.9 126.51 98.0603 135.531 90.1313C135.894 89.8278 136.257 89.4864 136.619 89.145C136.891 88.8415 137.299 88.538 136.891 88.1586C136.438 87.7792 135.894 87.931 135.486 88.2345C134.67 88.8794 133.854 89.5243 133.038 90.2072C131.905 88.1965 132.675 86.2238 132.902 84.3648C133.31 81.254 133.219 78.181 133.219 75.1081C133.219 65.8893 134.398 56.6705 134.217 47.4516C134.126 43.0509 134.534 38.6122 133.265 34.2494C133.219 34.1356 133.219 33.9838 133.174 33.87C131.587 29.5451 128.459 25.979 121.886 30.7591C116.038 35.0082 111.731 40.3194 107.969 45.8203C97.0887 61.7541 89.1554 78.6363 85.1207 96.7704C82.582 108.152 81.3127 119.609 82.038 131.218C82.4914 138.464 84.5314 145.52 86.254 152.614C89.0647 164.337 93.8247 175.491 99.0834 186.568C99.446 187.365 99.4914 188.048 99.0834 188.883C96.6354 193.435 95.0487 198.253 93.5074 203.071C92.7367 205.499 93.054 205.689 95.7287 206.903C98.358 208.079 100.851 209.559 103.39 210.886C101.939 213.428 100.625 216.008 99.5367 218.664C99.31 219.233 99.3554 220.067 98.4034 220.371Z" fill="#ECCF5D"/>
<path d="M232.364 266.161C236.534 265.668 240.161 264.151 243.425 261.95C250.542 257.132 255.393 250.872 259.745 244.271C262.601 239.909 265.548 235.584 269.084 231.562C270.444 230.007 272.484 229.058 273.889 227.579C275.068 228.072 276.246 227.693 277.38 227.389C283.318 225.91 289.257 224.392 295.196 222.913C296.193 222.647 297.145 222.306 298.233 222.343C299.23 226.668 298.46 230.879 296.692 234.977C296.556 235.318 296.284 235.697 296.828 235.963C296.782 237.898 297.508 238.391 299.548 237.632C302.132 236.684 304.58 235.47 307.254 234.787C308.342 235.356 307.753 236.153 307.572 236.798C306.484 240.629 304.852 244.347 303.174 248.027C301.86 250.948 299.548 253.49 298.324 256.449L298.278 256.487C297.961 256.487 297.87 256.601 298.006 256.829L297.916 256.942C297.462 256.98 297.326 257.208 297.462 257.55L297.417 257.625C297.009 257.701 296.828 257.891 296.918 258.232L296.873 258.308C296.556 258.346 296.465 258.46 296.51 258.726C292.158 264.151 286.22 268.286 280.644 272.687C269.356 281.602 256.254 288.355 242.02 293.438C228.692 298.218 214.684 301.216 200.404 303.492C188.3 305.427 176.15 306.072 163.956 304.516C148.225 302.543 134.172 297.384 122.204 288.582C117.398 285.016 115.177 280.578 115.948 275.039C116.673 269.955 116.174 264.833 115.948 259.712C116.582 259.864 116.854 260.243 117.081 260.774C119.166 266.161 123.428 269.955 129.366 272.535C132.676 273.976 132.902 273.938 134.897 271.131V271.169C135.214 271.207 135.441 271.093 135.622 270.866C137.028 270.183 138.297 269.348 139.294 268.248C139.566 268.172 139.793 268.02 139.702 267.755C140.745 267.831 141.334 267.148 142.014 266.73C147.182 263.771 152.35 260.85 158.198 258.915C163.502 257.17 168.716 257.208 173.793 259.75C175.697 260.698 177.646 261.723 179.868 262.14C182.316 265.782 185.262 269.12 189.161 271.776C197.91 277.732 207.612 279.402 218.265 275.949C224.022 274.09 228.329 270.562 232.092 266.541C232.273 266.579 232.454 266.465 232.364 266.161ZM142.196 287.217C142.422 286.913 142.74 286.875 143.148 286.913C150.401 287.899 154.708 280.084 152.804 276.139C152.758 274.47 152.622 272.876 150.718 271.814C148.996 270.828 147.001 270.752 144.916 270.524C145.414 269.803 146.185 269.614 146.774 269.31C149.222 268.058 151.67 266.844 154.118 265.592C154.753 265.289 155.569 264.909 155.161 264.151C154.798 263.392 153.846 263.468 153.212 263.733C147.862 265.972 142.241 267.906 137.753 271.435C135.26 273.407 134.353 275.949 135.124 278.719C136.574 283.992 139.068 288.886 143.329 293.059C144.462 294.197 145.868 295.032 147.409 295.677C148.044 295.942 148.769 296.094 149.268 295.563C149.857 294.918 149.132 294.539 148.633 294.197C145.868 292.3 143.873 289.872 142.196 287.217ZM179.414 296.284C182.27 295.601 184.582 293.856 186.169 291.466C186.713 290.669 186.894 289.72 187.166 288.81C187.302 288.355 186.985 287.862 186.486 287.71C185.852 287.52 185.67 287.975 185.444 288.431C184.129 291.162 181.726 292.945 178.462 293.894C177.646 294.121 177.102 294.463 177.193 295.221C177.329 296.094 178.1 296.284 179.414 296.284Z" fill="#FBF1EE"/>
<path d="M126.012 96.391C118.532 104.13 112.457 112.628 107.652 121.733C105.34 126.058 103.889 130.611 104.161 135.429C103.844 135.391 103.526 135.505 103.481 135.77C103.073 138.843 103.164 141.802 105.884 144.268C108.196 146.393 111.188 146.962 114.542 146.772C114.497 147.113 114.588 147.303 114.497 147.455C111.777 152.463 111.007 157.736 111.505 163.123C111.868 167.144 112.684 171.128 117.988 172.911C118.486 173.063 118.713 173.328 118.713 173.746C118.532 175.984 118.985 178.146 119.665 180.271C119.756 180.612 119.529 180.878 119.121 180.992C116.492 179.398 113.908 177.767 111.233 176.249C108.83 174.922 107.742 175.187 106.201 177.16C104.161 179.816 102.665 182.699 100.761 185.658C99.0838 182.813 98.0865 179.929 96.7718 177.16C90.9238 164.678 87.4332 151.704 84.9398 138.54C83.1265 128.941 83.5345 119.229 84.6678 109.517C86.2545 96.0495 90.2438 83.037 96.1372 70.5176C101.804 58.3776 108.559 46.6549 118.351 36.3359C119.937 34.6666 121.524 32.9595 123.745 31.7834C127.462 31.7455 128.097 32.1248 128.732 35.2737C129.14 37.1326 129.412 38.9915 129.548 40.8884C130.046 47.9068 129.049 54.8494 128.596 61.8299C128.369 65.396 128.006 69.0001 127.689 72.5662C126.918 80.571 125.604 88.462 126.012 96.391Z" fill="#FBF1EE"/>
<path d="M139.295 198.291C138.343 200.871 137.481 203.489 136.439 206.068C134.897 209.9 133.175 213.656 131.543 217.45C131.089 218.55 130.455 218.853 129.095 218.398C125.513 217.184 122.068 215.78 118.668 214.339C111.687 211.342 104.796 208.307 97.8145 205.31C96.8625 204.892 96.3185 204.589 96.5905 203.527C98.9932 194.991 102.801 186.948 107.969 179.36C108.785 178.184 109.42 177.995 110.689 178.867C119.711 185.013 129.457 190.324 138.207 196.736C138.796 197.153 139.476 197.494 139.295 198.291Z" fill="#F4FB95"/>
<path d="M115.222 247.041C114.724 243.854 114.316 240.667 114.361 237.443C114.406 234.977 115.222 232.7 117.444 230.955C119.302 229.438 121.932 229.628 123.609 231.297C124.062 231.79 124.017 232.093 123.654 232.587C119.756 238.201 121.025 244.006 123.065 249.772C123.609 251.328 125.332 251.442 126.873 251.631C128.732 251.859 129.321 252.466 127.78 253.68C125.558 255.387 125.558 257.398 126.42 259.56C126.646 260.091 126.782 260.66 126.964 261.192C128.142 264.416 130.001 267.186 134.172 268.551C131.27 268.817 128.414 267.603 126.057 265.251C124.878 264.037 123.926 262.671 122.43 261.685C118.849 257.208 116.9 252.162 115.222 247.041Z" fill="#F9F8F8"/>
<path d="M119.121 181.067C119.529 180.954 119.755 180.688 119.665 180.347C118.985 178.222 118.531 176.06 118.713 173.821C118.758 173.404 118.486 173.139 117.987 172.987C112.683 171.204 111.867 167.22 111.505 163.199C111.006 157.812 111.777 152.501 114.497 147.531C114.587 147.379 114.542 147.189 114.542 146.848C111.233 147.038 108.241 146.468 105.883 144.344C103.163 141.878 103.118 138.881 103.481 135.846C103.526 135.58 103.843 135.467 104.161 135.505C107.289 139.867 111.187 141.081 117.217 139.564C118.486 139.26 119.755 138.843 121.433 138.388C120.934 139.184 120.662 139.716 120.345 140.209C116.809 145.406 114.497 150.983 113.363 156.863C113.091 158.305 113.091 159.747 113.318 161.188C114.043 165.551 117.625 167.638 122.793 166.765C123.155 166.689 123.518 166.651 123.835 166.613C124.334 166.955 124.062 167.258 123.926 167.524C122.113 171.166 122.067 174.884 123.337 178.639C123.926 180.309 122.294 181.067 121.342 181.94C120.617 182.623 119.846 181.485 119.121 181.067Z" fill="#A0908A"/>
<path d="M126.012 96.391C125.604 88.4241 126.918 80.571 127.689 72.68C128.006 69.1139 128.369 65.5098 128.596 61.9437C129.049 54.9632 130.046 47.9827 129.548 41.0022C129.412 39.1433 129.14 37.2464 128.732 35.3875C128.052 32.2387 127.417 31.8593 123.745 31.8972C126.737 29.0519 129.23 29.3175 131.089 32.656C131.905 34.1735 132.268 35.7669 132.404 37.3982C133.22 46.6929 132.177 55.9117 131.542 65.1684C131.316 68.5069 131.27 71.8454 131.452 75.1839C131.678 79.8502 130.5 84.4786 131.044 89.1449C131.27 91.0418 130.953 92.4834 129.14 93.6974C127.916 94.4562 127.326 95.7081 126.012 96.391Z" fill="#A0908A"/>
<path d="M125.649 174.087C126.374 174.163 126.737 173.708 127.145 173.366C139.43 162.364 154.027 153.942 169.667 146.658C171.753 145.672 173.929 144.761 176.377 144.572C177.374 146.544 178.371 148.479 179.323 150.452C179.913 151.704 178.553 151.438 177.918 151.552C171.481 152.614 165.27 154.284 159.195 156.446C146.638 160.885 135.849 167.41 126.963 176.098C126.782 176.287 126.555 176.439 126.102 176.781C125.966 175.718 125.467 174.96 125.649 174.087Z" fill="#937234"/>
<path d="M142.83 196.849C145.414 197.419 146.366 198.367 146.366 200.567C146.366 203.982 144.961 207.131 143.918 210.355C142.649 214.149 140.926 217.753 138.66 221.205C136.212 224.999 133.99 225.53 129.23 224.127C121.796 221.888 115.222 218.246 108.06 215.591C108.558 213.087 108.513 213.087 111.414 214.301C117.398 216.843 123.292 219.46 129.593 221.471C132.268 222.343 133.31 222.04 134.398 219.878C137.844 212.897 140.201 205.575 142.74 198.329C142.876 197.874 142.785 197.343 142.83 196.849Z" fill="#937234"/>
<path d="M115.222 247.041C116.9 252.162 118.894 257.208 122.34 261.723C120.798 262.064 121.433 262.937 121.705 263.657C123.428 268.248 128.46 271.093 134.806 271.169C132.812 273.976 132.585 274.014 129.276 272.573C123.292 269.993 119.076 266.199 116.99 260.812C116.809 260.281 116.492 259.902 115.857 259.75C115.404 256.525 115.222 253.263 114.361 250.076C113.998 248.9 115.222 248.103 115.222 247.041Z" fill="#ECCF5D"/>
<path d="M109.42 278.453C108.468 277.505 107.969 276.973 107.425 276.442C104.207 273.256 104.343 271.548 107.879 268.703C109.647 267.299 109.601 266.92 107.516 265.744C105.431 264.568 103.663 263.164 102.257 261.381C101.532 260.433 101.713 259.788 102.983 259.295C104.977 258.536 107.38 257.398 109.148 258.005C110.508 258.46 109.828 260.964 109.919 262.557C110.281 267.603 110.1 272.687 109.42 278.453Z" fill="#ECCF5D"/>
<path d="M98.4033 220.371C99.3553 220.067 99.31 219.271 99.5367 218.626C100.625 215.97 101.939 213.39 103.39 210.848C105.294 211.19 105.883 212.1 105.566 213.694C104.433 219.308 104.342 224.961 104.569 230.804C102.529 227.351 100.489 223.861 98.4033 220.371Z" fill="#937234"/>
<path d="M298.278 256.449C299.502 253.49 301.814 250.986 303.129 248.027C304.806 244.347 306.438 240.629 307.526 236.798C307.708 236.115 308.342 235.356 307.209 234.787C307.254 234.749 307.3 234.673 307.345 234.635C308.886 234.18 310.7 233.421 312.014 234.483C313.284 235.508 312.06 236.911 311.652 238.05C309.022 244.992 303.537 250.531 298.641 256.373C298.641 256.411 298.414 256.411 298.278 256.449Z" fill="#A0908A"/>
<path d="M274.342 226.137C273.345 225.454 274.025 224.772 274.66 224.468C278.966 222.419 283.364 220.485 287.716 218.512C290.481 219.915 292.521 218.36 294.652 217.222C295.604 219.764 295.558 219.878 292.838 220.674C286.673 222.571 280.644 224.696 274.342 226.137Z" fill="#937234"/>
<path d="M296.782 235.963C296.238 235.66 296.51 235.318 296.646 234.977C298.46 230.879 299.185 226.668 298.188 222.343C301.95 221.395 302.857 222.002 302.268 225.265C301.724 228.3 300.817 231.297 299.004 233.99C298.505 234.749 297.916 235.584 296.782 235.963Z" fill="#A0908A"/>
<path d="M127.372 240.402C127.372 242.981 127.054 245.561 127.734 248.103C127.825 248.52 128.369 249.355 127.326 249.469C126.646 249.545 125.785 249.317 125.558 248.596C125.15 247.268 124.652 245.941 124.47 244.575C123.972 241.047 124.062 237.556 126.193 234.18C127.054 234.939 127.644 235.697 127.916 236.608C125.876 237.367 125.74 238.429 127.372 240.402Z" fill="#90573F"/>
<path d="M133.083 264.909C130.318 263.164 127.961 258.46 128.822 255.88C130.137 259.067 131.315 262.064 133.265 264.758C133.219 264.796 133.174 264.871 133.083 264.909Z" fill="#90573F"/>
<path d="M127.372 240.402C125.74 238.429 125.876 237.367 127.916 236.608C128.596 237.101 128.868 237.86 129.23 238.505C129.502 239.036 130.273 239.529 129.638 240.174C129.004 240.819 128.142 240.516 127.372 240.402Z" fill="#FBF1EE"/>
<path d="M297.371 257.587C297.281 257.246 297.371 257.018 297.825 256.98C297.961 257.322 297.825 257.512 297.371 257.587Z" fill="#A0908A"/>
<path d="M296.828 258.27C296.737 257.929 296.918 257.701 297.326 257.663C297.417 258.005 297.236 258.194 296.828 258.27Z" fill="#A0908A"/>
<path d="M297.961 256.867C297.825 256.639 297.961 256.525 298.233 256.525C298.369 256.753 298.278 256.867 297.961 256.867Z" fill="#A0908A"/>
<path d="M133.719 265.137C133.492 265.061 133.311 264.985 133.084 264.909C133.129 264.871 133.22 264.796 133.311 264.758C133.447 264.909 133.537 265.023 133.719 265.137Z" fill="#90573F"/>
<path d="M133.673 265.175C133.718 265.213 133.809 265.213 133.854 265.251C133.9 265.251 133.854 265.327 133.9 265.365C133.809 265.289 133.764 265.213 133.673 265.175Z" fill="#90573F"/>
<path d="M139.566 267.793C139.657 268.096 139.43 268.21 139.158 268.286C139.158 268.058 139.204 267.831 139.566 267.793Z" fill="#EDCF5D"/>
<path d="M135.486 270.903C135.305 271.131 135.078 271.245 134.761 271.207C134.897 270.904 135.169 270.866 135.486 270.903Z" fill="#ECCF5D"/>
<path d="M296.419 258.726C296.374 258.498 296.464 258.346 296.782 258.308C296.872 258.574 296.736 258.688 296.419 258.726Z" fill="#A0908A"/>
<path d="M286.719 205.006C284.497 203.337 283.455 200.985 281.959 198.898C279.375 195.37 276.927 191.766 274.433 188.2C275.431 187.1 274.025 186.606 273.527 185.886C271.713 184.52 270.897 182.585 269.447 181.03C263.055 174.049 255.937 167.638 247.46 162.364C247.732 161.909 248.276 161.833 248.775 161.681C263.191 157.736 274.977 150.68 284.18 140.588C288.985 135.277 293.247 129.852 291.479 122.644C291.343 122.075 291.705 121.733 292.295 121.43C300.772 117.029 306.937 110.769 312.06 103.751C313.647 101.55 315.415 99.388 315.959 96.8083C316.412 96.1634 316.865 95.5184 317.273 94.8355C319.767 90.5865 321.036 86.2996 318.316 81.7471C318.905 81.1022 318.452 80.4193 318.135 79.964C317.001 78.4086 317.817 77.3464 318.905 76.0944C321.217 73.4009 322.759 70.3658 323.484 67.1032C323.847 65.4719 324.481 63.6509 322.94 62.0955C322.94 59.1743 321.308 56.936 318.769 55.0012C317.273 53.863 315.369 53.1802 313.647 52.3076C314.191 50.828 314.871 49.3105 315.324 47.793C315.596 46.8446 316.412 45.9341 315.687 44.8718C317.455 43.0129 319.177 41.0781 321.036 39.2571C325.751 34.7046 330.647 30.3039 336.948 27.2689C340.711 25.4479 342.479 26.2066 342.615 29.8107C342.796 33.4147 342.887 37.0567 342.433 40.6229C341.164 51.1315 339.577 61.6402 338.217 72.1489C336.676 84.1751 334.273 96.0875 331.644 108C328.289 123.251 323.439 138.198 318.18 153.032C311.471 172.038 302.132 189.793 286.719 205.006Z" fill="#FBF1EE"/>
<path d="M231.955 266.617C228.238 270.638 223.931 274.166 218.129 276.025C207.475 279.477 197.774 277.808 189.025 271.852C185.126 269.196 182.179 265.858 179.731 262.216C175.833 255.463 173.838 248.331 174.518 240.781C175.425 231.183 179.233 222.647 188.39 216.387C199.179 208.989 212.87 209.103 223.659 216.539C229.643 220.636 233.769 225.834 236.398 231.904C237.486 234.408 239.526 235.015 242.337 233.535C245.057 232.093 246.915 229.893 248.593 227.655C248.819 227.351 249.001 226.972 249.227 226.668C249.59 226.213 250.089 225.948 250.769 226.137C251.449 226.327 251.585 226.82 251.585 227.351C251.585 227.731 251.585 228.11 251.403 228.489C249.227 233.725 245.646 237.936 239.163 239.909C237.985 240.288 237.803 240.743 237.758 241.616C237.486 245.144 237.667 248.672 236.534 252.162C235.763 254.552 234.811 256.829 233.451 259.029C231.094 262.064 228.283 264.644 223.886 265.554C212.598 267.831 203.531 262.292 197.593 255.273C196.731 254.249 197.049 253.225 197.865 252.276C199.043 250.835 200.267 249.431 201.537 247.913C199.678 247.572 198.091 248.027 196.459 248.027C194.329 248.027 193.014 247.382 191.926 245.637C189.07 241.16 188.979 236.418 189.523 231.638C190.203 225.682 192.833 220.409 198.137 216.236C198.862 215.666 199.678 215.097 200.539 214.49C199.769 214.301 199.27 214.452 198.771 214.604C191.881 216.349 186.803 220.067 183.131 225.151C177.601 232.776 176.15 241.047 177.963 249.734C179.686 258.005 183.993 265.213 192.017 270.486C200.177 275.873 209.198 277.353 218.854 273.483C224.43 271.283 228.329 267.565 231.366 263.126C231.91 262.33 232.409 261.571 233.678 261.571C234.811 262.368 234.449 263.202 233.814 264.075C233.315 264.758 232.907 265.478 232.454 266.199V266.237C232.046 266.199 232.001 266.389 231.955 266.617ZM206.569 218.132C206.523 219.65 206.931 220.94 208.971 221.319C210.377 221.585 211.465 221.092 212.235 220.067C212.915 219.195 212.779 218.246 212.417 217.336C213.233 216.577 214.275 216.88 215.182 216.994C216.905 217.146 218.582 217.487 220.259 217.715C220.305 217.791 220.395 217.829 220.441 217.905C220.441 217.867 220.441 217.829 220.395 217.791C220.35 217.753 220.259 217.753 220.214 217.715C217.358 215.742 213.913 214.87 210.377 214.111C207.929 213.618 205.843 213.997 203.713 215.097C191.518 221.433 189.659 237.253 194.329 244.158C194.827 244.916 195.281 245.789 196.459 245.409C197.91 244.954 196.641 244.082 196.505 243.551C194.51 237.367 194.555 231.297 197.683 225.378C199.451 222.04 201.99 219.195 206.569 218.132ZM228.374 260.243C225.971 260.547 224.249 260.964 222.435 260.888C214.683 260.547 208.382 257.891 203.486 252.845C202.217 251.555 201.537 251.707 200.539 253.187C199.95 254.059 200.494 254.704 201.083 255.235C205.571 259.408 210.467 263.012 217.539 263.506C221.393 263.771 225.11 263.24 228.374 260.243ZM223.025 258.422C224.974 258.422 226.198 257.663 226.153 256.373C226.107 254.856 224.838 254.325 223.297 254.249C221.483 254.135 219.851 255.159 219.942 256.411C220.033 257.967 221.347 258.422 223.025 258.422ZM224.793 252.124C224.521 251.555 223.931 251.214 223.115 251.29C222.435 251.328 222.027 251.745 222.118 252.352C222.163 253.035 222.707 253.414 223.478 253.338C224.113 253.225 224.747 252.959 224.793 252.124Z" fill="#030302"/>
<path d="M318.27 81.7471C321.036 86.2617 319.721 90.5866 317.228 94.8356C316.82 95.5184 316.366 96.1255 315.913 96.8083C315.686 96.9221 315.369 97.0359 315.233 97.2256C311.244 102.006 306.121 105.762 300.409 109.062C295.377 111.983 289.846 114.032 284.18 115.891C284.316 116.346 284.724 116.422 285.041 116.574C285.358 116.726 285.721 116.877 286.038 117.067C289.393 119.04 290.98 121.657 290.708 125.148C290.345 130.307 287.761 134.632 283.409 138.198C275.113 145.027 265.457 150.035 254.486 153.297C249.092 154.929 243.47 156.067 237.894 157.47C241.385 158.76 244.513 160.467 247.46 162.364C255.937 167.638 263.054 174.049 269.446 181.03C270.897 182.623 271.713 184.558 273.526 185.886C273.028 185.886 272.529 185.886 272.03 185.886C269.31 183.04 266.636 180.157 263.825 177.35C257.932 171.507 251.132 166.537 243.516 162.364C240.524 160.733 237.214 159.671 233.996 158.419C233.27 158.115 232.545 158.229 231.774 158.381C227.286 159.215 222.662 159.253 218.084 159.747C217.766 159.785 217.494 159.747 217.177 159.747C216.316 159.709 215.318 159.519 215.318 158.684C215.318 157.736 216.361 157.85 217.222 157.774C231.366 156.788 244.966 153.866 258.113 149.503C266.636 146.696 274.07 142.371 280.78 137.212C284.905 134.025 287.353 130.079 288.033 125.375C288.396 122.682 286.356 119.609 283.273 118.471C280.508 117.446 277.652 117.181 274.705 117.788C272.937 118.167 271.124 118.091 269.31 118.091C268.54 118.091 267.452 118.281 267.406 117.257C267.361 116.308 268.404 116.232 269.22 116.194C273.345 116.081 277.289 115.284 281.142 114.222C293.654 110.769 304.625 105.382 312.785 96.5048C315.278 93.7733 317.182 90.7763 317.228 87.1722C317.228 83.3026 312.921 79.5847 308.342 79.395C307.662 79.3571 307.254 79.7744 306.756 80.0399C304.081 81.5574 301.316 82.9991 298.414 84.1751C297.553 84.5166 296.329 85.3512 295.649 84.3269C295.014 83.3405 296.556 83.037 297.326 82.6956C303.718 79.6606 309.838 76.3221 314.825 71.7316C317.273 69.4554 319.268 66.9894 320.038 63.9165C320.809 60.8815 319.63 58.4914 316.865 56.7463C313.964 54.9253 310.836 53.2561 306.801 53.901C305.894 54.0528 305.441 53.4078 305.668 52.6491C305.849 52.1179 306.166 51.5868 306.574 51.1316C314.19 42.975 321.534 34.5908 331.281 27.9897C333.366 26.5481 335.588 25.2582 338.308 24.6132C341.572 23.8545 343.566 24.765 344.564 27.4206C344.972 28.4829 344.972 29.5072 345.062 30.6074C345.561 39.4848 343.793 48.2104 342.569 56.9739C341.708 63.1578 340.892 69.3795 340.076 75.5633C338.625 86.2617 336.585 96.9221 334.228 107.507C330.828 122.758 326.43 137.819 320.945 152.614C317.454 161.985 313.646 171.318 308.796 180.271C304.398 188.427 298.278 195.711 291.841 202.806C290.889 203.868 289.62 204.703 288.441 205.575C287.625 206.144 286.718 206.448 286.764 205.006C302.177 189.831 311.516 172.076 318.225 153.146C323.484 138.312 328.334 123.365 331.689 108.114C334.318 96.2013 336.721 84.2889 338.262 72.2628C339.622 61.7541 341.209 51.2454 342.478 40.7367C342.886 37.1706 342.796 33.5286 342.66 29.9245C342.478 26.3204 340.756 25.5238 336.993 27.3827C330.692 30.4556 325.796 34.8564 321.081 39.3709C319.222 41.1919 317.5 43.0888 315.732 44.9857C314.281 45.8962 313.374 47.1861 312.196 48.3242C309.294 51.2454 309.294 51.2454 313.692 52.3835C315.414 53.2561 317.273 53.901 318.814 55.0771C321.308 56.9739 322.985 59.2122 322.985 62.1714C322.124 69.0001 316.638 73.3629 310.7 77.8016C313.964 78.4466 316.185 80.0779 318.27 81.7471Z" fill="#090806"/>
<path d="M233.587 261.533C232.318 261.533 231.819 262.33 231.275 263.088C228.238 267.527 224.339 271.245 218.763 273.445C209.107 277.277 200.086 275.835 191.926 270.448C183.902 265.175 179.641 257.967 177.873 249.696C176.059 241.009 177.51 232.738 183.041 225.113C186.713 220.029 191.79 216.349 198.681 214.566C199.179 214.452 199.678 214.263 200.449 214.452C199.587 215.097 198.817 215.629 198.046 216.198C192.742 220.371 190.113 225.644 189.433 231.6C188.889 236.418 188.979 241.123 191.835 245.599C192.923 247.344 194.238 248.027 196.369 247.989C198.001 247.989 199.587 247.534 201.446 247.875C200.177 249.393 198.998 250.835 197.774 252.238C196.958 253.187 196.686 254.211 197.502 255.235C203.486 262.254 212.553 267.793 223.795 265.516C228.193 264.644 231.003 262.026 233.361 258.991C234.902 259.826 233.678 260.698 233.587 261.533Z" fill="#FBFBFB"/>
<path d="M163.004 188.389C162.958 187.82 162.958 187.251 162.822 186.72C162.097 183.837 162.052 183.723 165.406 182.509C178.281 177.881 191.654 174.39 205.118 171.128C207.929 170.445 210.785 169.8 213.55 169.079C215.409 168.586 216.633 169.003 217.449 170.407C217.721 171.469 217.993 172.494 218.265 173.556C220.305 182.168 221.846 190.817 221.62 199.619C221.574 201.212 220.894 202.047 218.945 202.275C209.561 203.451 200.222 204.665 190.838 205.879C185.353 206.599 179.868 207.51 174.292 207.813C171.164 208.003 170.03 207.358 169.124 204.892C168.217 202.35 167.356 199.809 166.313 197.305C165.134 194.346 164.636 191.235 163.004 188.389ZM175.969 204.892C179.596 204.778 183.132 204.171 186.713 203.678C196.369 202.35 206.161 201.592 215.726 199.885C216.452 199.733 217.812 199.922 217.676 199.05C217.449 197.305 218.174 195.673 217.948 193.966C216.996 187.213 216.588 180.385 214.684 173.746C214.276 172.266 213.641 172.076 212.009 172.38C196.505 175.453 181.636 180.081 166.63 184.52C165.361 184.899 165.361 185.316 165.724 186.303C167.673 191.538 169.441 196.812 171.3 202.047C172.388 205.044 172.388 205.044 175.969 204.892Z" fill="#060605"/>
<path d="M163.004 188.389C164.636 191.235 165.134 194.346 166.358 197.305C167.401 199.809 168.262 202.35 169.169 204.892C170.076 207.358 171.209 207.965 174.337 207.813C179.913 207.51 185.398 206.599 190.884 205.879C200.222 204.665 209.606 203.451 218.99 202.275C220.985 202.047 221.62 201.174 221.665 199.619C221.892 190.817 220.35 182.168 218.31 173.556C218.084 172.494 217.766 171.469 217.494 170.407C220.668 170.445 221.801 172.57 222.39 174.504C224.702 182.13 225.292 189.907 224.566 197.76C224.521 198.139 224.43 198.519 224.43 198.898C224.022 205.006 221.756 207.169 214.548 208.269C209.38 209.065 204.166 209.672 198.908 209.976C190.657 210.469 182.452 211.759 174.156 211.683C168.942 211.645 168.126 211.19 166.494 207.093C164.636 202.35 164.046 197.381 163.23 192.449C162.958 191.121 162.142 189.755 163.004 188.389Z" fill="#937234"/>
<path d="M272.075 185.848C272.574 185.848 273.073 185.848 273.571 185.848C274.07 186.568 275.43 187.062 274.478 188.162C273.435 187.555 272.665 186.758 272.075 185.848Z" fill="#523123"/>
<path d="M142.195 287.217C143.827 289.872 145.822 292.3 148.633 294.197C149.131 294.539 149.857 294.88 149.267 295.563C148.769 296.094 148.043 295.942 147.409 295.677C145.867 295.032 144.462 294.159 143.329 293.059C139.113 288.886 136.574 283.992 135.123 278.719C134.353 275.949 135.305 273.407 137.753 271.435C142.195 267.906 147.817 266.01 153.211 263.733C153.846 263.468 154.798 263.392 155.161 264.151C155.569 264.947 154.753 265.289 154.118 265.592C151.67 266.844 149.222 268.058 146.774 269.31C146.139 269.614 145.414 269.803 144.915 270.524C146.955 270.752 148.95 270.828 150.718 271.814C152.622 272.876 152.758 274.47 152.803 276.139C152.441 276.177 152.395 276.404 152.305 276.67C150.582 281.336 146.819 284.03 140.926 284.675C141.198 285.623 141.561 286.458 142.195 287.217ZM138.795 277.618C138.841 278.87 139.475 279.933 140.246 280.919C140.79 281.602 141.515 282.209 142.649 282.057C145.958 281.64 149.313 278.415 149.585 275.418C149.902 274.545 149.449 274.052 148.451 273.711C145.505 272.724 142.875 273.407 140.337 274.621C138.977 275.266 138.297 276.253 138.795 277.618Z" fill="#060605"/>
<path d="M142.196 287.217C141.561 286.458 141.153 285.585 140.881 284.675C146.774 284.03 150.537 281.336 152.26 276.67C152.35 276.404 152.396 276.177 152.758 276.139C154.662 280.084 150.356 287.9 143.102 286.913C142.785 286.875 142.468 286.913 142.196 287.217Z" fill="#A0908A"/>
<path d="M179.414 296.284C178.099 296.322 177.329 296.094 177.193 295.259C177.057 294.501 177.601 294.197 178.462 293.932C181.726 292.945 184.129 291.2 185.443 288.469C185.67 288.013 185.851 287.558 186.486 287.748C186.985 287.9 187.302 288.355 187.166 288.848C186.894 289.758 186.667 290.707 186.169 291.504C184.537 293.856 182.27 295.601 179.414 296.284Z" fill="#090806"/>
<path d="M231.955 266.617C232 266.389 232.046 266.199 232.408 266.199C232.454 266.465 232.272 266.579 231.955 266.617Z" fill="#EDCF5D"/>
<path d="M247.505 162.326C244.558 160.43 241.475 158.684 237.939 157.432C243.561 156.029 249.137 154.891 254.531 153.259C265.457 149.959 275.158 144.989 283.454 138.16C287.761 134.594 290.345 130.269 290.753 125.11C291.025 121.619 289.438 119.002 286.083 117.029C285.766 116.839 285.449 116.688 285.086 116.536C284.769 116.384 284.361 116.346 284.225 115.853C289.846 113.994 295.422 111.945 300.454 109.024C306.121 105.724 311.289 101.968 315.278 97.1877C315.414 96.998 315.731 96.9221 315.958 96.7704C315.369 99.3881 313.646 101.551 312.059 103.713C306.937 110.731 300.817 116.991 292.294 121.392C291.705 121.695 291.342 121.999 291.478 122.606C293.246 129.776 289.03 135.239 284.179 140.55C274.977 150.642 263.19 157.698 248.774 161.644C248.321 161.795 247.731 161.871 247.505 162.326Z" fill="#A0908A"/>
<path d="M318.27 81.7471C316.139 80.04 313.963 78.4466 310.563 77.8016C316.547 73.363 322.033 68.9622 322.849 62.1714C324.39 63.7268 323.755 65.5478 323.393 67.1791C322.667 70.4038 321.126 73.4768 318.814 76.1703C317.726 77.4223 316.955 78.4845 318.043 80.04C318.406 80.4193 318.859 81.1401 318.27 81.7471Z" fill="#A0908A"/>
<path d="M313.601 52.4214C309.204 51.2832 309.158 51.2832 312.105 48.3621C313.238 47.2239 314.19 45.9341 315.641 45.0236C316.366 46.0479 315.596 46.9963 315.278 47.9447C314.825 49.4243 314.145 50.9039 313.601 52.4214Z" fill="#A0908A"/>
<path d="M220.26 217.753C218.582 217.487 216.86 217.184 215.182 217.032C214.276 216.956 213.233 216.653 212.417 217.374C211.51 216.387 210.649 215.363 208.836 215.704C207.294 216.008 206.75 216.994 206.524 218.17C201.99 219.233 199.406 222.04 197.638 225.454C194.556 231.373 194.465 237.443 196.46 243.626C196.641 244.158 197.865 245.03 196.414 245.485C195.236 245.865 194.782 244.992 194.284 244.233C189.569 237.367 191.473 221.509 203.668 215.173C205.798 214.073 207.884 213.694 210.332 214.187C213.958 214.908 217.358 215.78 220.26 217.753Z" fill="#90573F"/>
<path d="M228.375 260.243C225.111 263.24 221.393 263.771 217.495 263.506C210.423 263.05 205.527 259.408 201.039 255.235C200.449 254.666 199.951 254.059 200.495 253.187C201.447 251.707 202.172 251.555 203.441 252.845C208.337 257.891 214.639 260.547 222.391 260.888C224.249 260.964 225.972 260.547 228.375 260.243Z" fill="#90573F"/>
<path d="M206.569 218.132C206.795 216.956 207.294 215.97 208.881 215.667C210.694 215.325 211.555 216.349 212.462 217.336C212.779 218.284 212.915 219.195 212.281 220.067C211.51 221.054 210.422 221.585 209.017 221.319C206.931 220.94 206.523 219.65 206.569 218.132Z" fill="#F9F8F8"/>
<path d="M223.025 258.422C221.302 258.422 219.988 257.967 219.897 256.373C219.806 255.122 221.438 254.097 223.252 254.211C224.793 254.325 226.063 254.818 226.108 256.336C226.199 257.663 225.02 258.422 223.025 258.422Z" fill="#90573F"/>
<path d="M224.793 252.124C224.748 252.997 224.158 253.263 223.433 253.301C222.662 253.376 222.118 252.997 222.073 252.314C222.028 251.707 222.39 251.29 223.07 251.252C223.886 251.214 224.521 251.555 224.793 252.124Z" fill="#90573F"/>
<path d="M220.26 217.753C220.305 217.791 220.396 217.791 220.441 217.829C220.486 217.829 220.486 217.905 220.486 217.943C220.396 217.867 220.35 217.791 220.26 217.753Z" fill="#90573F"/>
<path d="M175.969 204.892C172.388 205.044 172.388 205.044 171.345 202.085C169.487 196.812 167.673 191.576 165.769 186.341C165.407 185.354 165.407 184.937 166.676 184.558C181.636 180.119 196.551 175.491 212.055 172.418C213.687 172.076 214.321 172.304 214.729 173.783C216.633 180.46 217.041 187.251 217.993 194.004C218.22 195.711 217.495 197.343 217.721 199.088C217.857 199.96 216.497 199.771 215.772 199.922C206.161 201.63 196.415 202.388 186.759 203.716C183.177 204.171 179.641 204.778 175.969 204.892Z" fill="#F4FB95"/>
<path d="M138.796 277.618C138.297 276.253 139.023 275.266 140.337 274.621C142.876 273.407 145.505 272.725 148.452 273.711C149.449 274.052 149.903 274.546 149.585 275.418C146.412 277.656 142.967 278.946 138.796 277.618Z" fill="#90573F"/>
<path d="M138.796 277.618C143.012 278.946 146.412 277.618 149.585 275.418C149.313 278.415 145.959 281.64 142.649 282.057C141.516 282.209 140.791 281.602 140.247 280.919C139.476 279.933 138.841 278.87 138.796 277.618Z" fill="#523123"/>
<path d="M272.346 388.89C269.379 387.898 267.249 385.437 265.021 383.241C259.018 377.396 253.889 370.695 248.726 364C247.386 362.262 246.958 360.28 247.532 358.158C247.894 356.693 248.412 355.282 248.852 353.844C249.513 353.232 250.125 352.545 250.558 351.685C262.029 329.241 273.501 306.797 284.937 284.36C285.484 284.138 285.954 284.301 286.467 284.704C294.512 291.089 302.585 297.428 310.659 303.766C305.645 314.921 300.603 326.121 295.59 337.276C287.806 354.487 280.094 371.685 272.346 388.89Z" fill="#ECCF5D"/>
<path d="M284.936 284.358C273.465 306.802 261.993 329.246 250.557 351.684C250.124 352.544 249.513 353.23 248.852 353.843C246.546 353.267 246.175 352.221 247.432 349.813C254.287 336.64 261.106 323.474 267.968 310.341C272.89 300.932 277.884 291.512 282.892 282.171C283.695 280.709 283.787 279.786 282.249 278.785C280.448 277.542 280.162 276.358 280.972 274.112C282.902 268.7 284.861 263.241 287.44 258.166C288.093 256.896 287.936 256.224 286.897 255.339C284.917 253.716 283.08 251.862 281.456 249.764C277.012 244.011 276.359 237.496 278.117 230.714C279.061 227.168 281.699 225.913 284.987 227.054C287.414 227.896 289.578 229.321 291.714 230.792C292.255 231.148 292.789 232.082 293.429 231.555C294.041 231.075 293.549 230.175 293.463 229.49C292.983 225.786 292.767 222.118 292.948 218.419C293.025 216.799 293.259 215.233 293.756 213.703C294.671 211.026 296.498 209.545 299.045 209.419C302.354 209.238 305.563 209.94 308.588 211.664C311.45 213.293 313.444 215.819 314.329 219.327C314.465 219.879 314.416 220.629 315.135 220.747C315.853 220.866 315.938 220.109 316.215 219.607C318.566 215.314 321.44 214.346 325.512 216.788C329.05 218.914 332.389 221.364 333.801 225.971C334.251 227.456 334.181 228.91 334.111 230.365C334.034 231.573 334.368 232.007 335.463 231.358C338.664 229.549 340.3 229.874 342.942 232.737C344.132 234.048 345.228 235.458 346.19 236.933C348.634 240.532 349.206 244.343 347.68 248.529C343.57 259.81 337.246 269.387 329.726 278.024C328.908 278.995 328.269 279.933 327.921 281.272C326.269 287.623 323.613 293.495 321.071 299.387C320.318 301.128 319.088 301.843 317.365 301.039C316.362 300.56 315.978 301.082 315.623 301.969C303.112 331.314 289.76 360.067 276.857 389.069C276.729 389.38 276.594 389.652 276.424 389.929C275.884 391.015 275.209 391.959 273.921 391.737C272.476 391.46 272.518 390.052 272.346 388.889C280.058 371.69 287.806 354.485 295.511 337.247C300.517 326.053 305.566 314.892 310.58 303.738C310.935 303.056 311.29 302.375 311.653 301.733C313.336 298.631 313.365 298.584 310.354 296.941C302.851 292.765 295.562 288.139 288.436 283.196C286.079 281.517 286.115 281.511 284.936 284.358ZM298.098 232.82C298.241 233.618 298.384 234.416 298.526 235.214C298.734 236.372 298.792 237.515 297.839 238.344C296.858 239.22 295.805 238.874 294.765 238.401C293.285 237.718 292.074 236.494 290.7 235.586C288.608 234.149 286.571 232.619 284.237 231.678C283.013 231.197 282.188 231.509 281.89 232.922C280.912 237.299 281.165 241.578 283.601 245.549C285.418 248.519 287.946 250.744 290.324 253.16C292.482 255.368 292.746 256.845 291.361 259.564C289.003 264.229 287.179 269.211 285.07 274.037C284.601 275.109 284.879 275.636 285.833 276.248C289.257 278.559 292.589 280.969 295.992 283.367C302.755 288.128 310.051 291.764 316.913 296.26C317.703 296.777 318.258 296.596 318.642 295.662C320.438 291.139 322.711 286.819 324.18 282.107C324.932 279.748 326.076 277.731 327.54 275.862C333.95 267.794 339.891 259.357 343.91 249.41C346.097 243.993 346.337 242.468 341.444 236.671C341.16 236.31 340.782 236.048 340.497 235.687C339.272 234.383 338.099 234.387 337.061 235.768C335.775 237.398 334.581 239.136 333.6 241.042C332.563 243.04 331.405 244.977 330.24 246.875C329.729 247.708 328.996 248.333 327.957 247.655C327.003 247.043 326.803 246.131 327.122 245.044C327.314 244.269 327.548 243.526 327.782 242.784C329.01 239.187 330.238 235.589 330.754 231.707C331.065 229.345 331.17 227.061 329.489 225.055C327.815 223.089 325.886 221.54 323.672 220.454C322.021 219.638 320.819 220.1 320.052 221.761C319.413 223.112 318.852 224.489 318.376 225.933C317.063 229.876 316.49 234.056 315.562 238.094C315.356 238.996 315.151 239.898 314.276 240.343C312.519 241.193 311.081 239.721 311.299 237.251C311.63 233.361 311.819 229.497 311.78 225.591C311.668 218.403 308.626 214.746 302.123 214.099C301.824 214.07 301.518 214.001 301.226 214.012C298.444 213.851 297.57 214.708 297.281 217.808C296.702 222.772 297.311 227.812 298.098 232.82Z" fill="#0E0C0A"/>
<path d="M284.937 284.36C286.115 281.512 286.123 281.552 288.515 283.225C295.641 288.168 302.923 292.754 310.433 296.969C313.415 298.659 313.415 298.659 311.732 301.762C311.377 302.443 311.014 303.085 310.659 303.766C302.586 297.427 294.548 291.082 286.467 284.703C285.954 284.301 285.484 284.138 284.937 284.36Z" fill="#907133"/>
<path d="M298.098 232.821C297.347 227.807 296.71 222.813 297.161 217.748C297.457 214.689 298.324 213.792 301.106 213.952C301.405 213.981 301.704 214.01 302.003 214.039C308.506 214.686 311.547 218.343 311.66 225.531C311.735 229.431 311.51 233.302 311.179 237.192C310.968 239.701 312.435 241.127 314.156 240.283C315.03 239.838 315.236 238.937 315.442 238.035C316.37 233.997 316.936 229.776 318.256 225.874C318.738 224.469 319.292 223.052 319.931 221.702C320.698 220.04 321.9 219.578 323.552 220.394C325.765 221.481 327.688 222.99 329.368 224.995C331.049 227.001 330.944 229.285 330.633 231.648C330.117 235.53 328.925 239.121 327.662 242.725C327.392 243.473 327.201 244.249 327.002 244.985C326.718 246.065 326.883 246.983 327.837 247.595C328.876 248.274 329.615 247.688 330.12 246.815C331.285 244.918 332.443 242.98 333.48 240.982C334.46 239.077 335.661 237.379 336.941 235.708C337.985 234.367 339.152 234.323 340.377 235.628C340.69 235.942 341.039 236.251 341.324 236.611C346.21 242.368 345.976 243.934 343.79 249.351C339.771 259.297 333.83 267.734 327.419 275.803C325.948 277.631 324.804 279.649 324.059 282.047C322.591 286.759 320.31 291.039 318.521 295.602C318.138 296.536 317.583 296.718 316.793 296.2C309.923 291.664 302.635 288.068 295.871 283.307C292.511 280.943 289.137 278.499 285.712 276.188C284.759 275.577 284.481 275.05 284.949 273.977C287.023 269.157 288.847 264.176 291.241 259.505C292.626 256.785 292.361 255.308 290.204 253.1C287.825 250.684 285.333 248.453 283.481 245.489C281.044 241.519 280.834 237.272 281.77 232.862C282.075 231.49 282.892 231.137 284.117 231.618C286.451 232.559 288.487 234.089 290.58 235.527C291.926 236.48 293.165 237.659 294.645 238.341C295.684 238.814 296.738 239.161 297.719 238.285C298.636 237.461 298.621 236.352 298.406 235.155C298.384 234.417 298.241 233.619 298.098 232.821ZM305.249 266.387C304.537 266.72 304.623 267.199 304.987 267.793C305.713 268.981 306.732 269.952 307.16 271.317C307.495 272.369 308.15 272.952 309.125 273.272C311.893 274.176 314.555 275.306 317.104 276.826C317.887 277.304 318.705 277.363 319.174 276.497C319.65 275.67 319.087 274.988 318.446 274.485C316.852 273.165 315.129 272.155 313.25 271.503C311.015 270.709 308.88 269.855 307.228 267.804C306.708 267.155 306.024 266.619 305.249 266.387Z" fill="#945940"/>
<path d="M305.25 266.387C306.061 266.612 306.745 267.149 307.229 267.803C308.881 269.855 311.024 270.748 313.251 271.503C315.13 272.155 316.853 273.164 318.448 274.485C319.096 275.028 319.616 275.676 319.175 276.497C318.706 277.363 317.888 277.304 317.105 276.826C314.557 275.305 311.888 274.136 309.126 273.271C308.151 272.952 307.496 272.369 307.161 271.317C306.697 269.958 305.707 268.941 304.988 267.793C304.589 267.205 304.503 266.726 305.25 266.387Z" fill="#583627"/>
<path d="M128.792 414.159C135.23 412.975 141.668 413.847 148.106 413.411C153.984 412.975 159.909 412.975 165.787 412.913C179.969 412.788 194.151 414.096 208.38 414.408C228.953 414.844 249.526 414.595 270.1 414.906C275.698 414.968 281.249 415.093 286.847 415.218C284.468 428.861 279.85 441.196 274.951 453.468C272.852 458.701 269.773 461.006 265.901 462.252C261.002 463.81 255.964 464.246 250.926 464.433C250.506 463.81 249.899 464.059 249.386 463.997C244.441 463.685 239.496 464.183 234.551 463.374C227.927 462.314 221.629 460.321 216.357 454.527C216.917 453.468 217.337 452.285 216.637 451.163C215.797 449.917 214.631 449.98 213.605 450.416C210.152 451.786 206.607 452.409 203.015 452.098C201.568 451.973 200.076 451.599 198.629 451.412C197.183 451.226 196.437 451.911 197.323 453.904C194.851 465.118 189.159 471.472 180.762 473.902C178.336 474.587 175.817 475.085 173.531 476.518C169.565 476.954 165.647 476.581 161.775 475.646C156.13 474.338 150.625 472.469 147.126 465.679C145.073 461.691 143.161 457.58 141.341 453.344C135.93 441.071 131.824 427.926 128.792 414.159Z" fill="#EED05E"/>
<path d="M250.926 464.433C255.964 464.246 261.002 463.81 265.901 462.252C269.773 461.006 272.898 458.701 274.951 453.468C279.803 441.196 284.468 428.861 286.847 415.218C287.78 414.532 288.713 413.598 289.833 414.657C290.953 415.778 290.719 417.398 290.533 418.955C289.226 429.795 285.074 439.14 281.622 448.858C280.503 452.035 279.01 454.963 277.75 458.078C277.517 458.701 276.677 459.387 277.47 460.134C280.409 462.938 280.409 467.236 280.596 471.348C280.829 476.705 280.316 481.627 275.697 483.558C274.531 484.056 274.718 484.742 275.464 485.738C279.15 490.473 282.835 495.27 286.521 500.005C287.5 501.251 288.62 502.372 288.2 504.428C287.78 506.608 286.427 506.982 284.935 507.169C280.363 507.792 275.791 508.228 271.219 508.352C264.361 508.477 257.55 508.29 250.692 508.726C244.161 509.162 237.676 508.103 231.145 507.418C227.04 506.982 222.935 506.857 218.876 505.923C213.324 504.615 212.298 503.369 211.598 495.831C211.505 494.896 211.225 493.899 211.412 493.089C212.018 489.663 209.919 489.476 208.473 488.417C207.866 487.981 207.68 488.542 207.446 489.165C206.653 491.47 205.16 492.467 203.388 492.778C202.128 493.027 201.895 493.775 201.895 495.457C201.895 499.195 201.708 502.933 201.102 506.546C200.728 508.726 199.795 509.785 198.116 509.661C187.153 508.602 176.283 510.782 165.367 511.592C156.503 512.215 147.686 512.589 138.868 511.53C138.402 511.467 137.935 511.405 137.469 511.28C133.317 509.972 132.617 506.92 135.556 502.746C138.262 499.008 141.294 495.768 144.42 492.653C144.7 492.342 145.073 492.155 145.446 491.906C144.513 490.535 143.58 490.722 142.787 490.348C140.268 489.04 138.355 486.922 137.469 483.433C136.303 478.886 135.51 474.276 134.763 469.603C134.157 465.866 135.463 463.374 137.935 461.878C139.428 460.944 139.428 460.134 138.589 458.203C133.037 445.556 128.139 432.536 125.993 418.021C125.899 417.398 125.806 416.775 125.713 416.214C125.573 415.093 125.433 413.785 126.319 413.162C127.346 412.414 128.092 413.224 128.698 414.283C131.731 427.989 135.836 441.133 141.201 453.531C143.02 457.705 144.933 461.878 146.986 465.866C150.485 472.656 155.99 474.587 161.634 475.833C165.553 476.705 169.472 477.141 173.391 476.705C175.257 477.64 177.076 476.643 178.849 476.394C185.893 475.397 192.658 472.967 199.002 468.669C199.889 468.108 200.915 467.61 201.195 466.115C201.708 463.747 202.175 461.318 202.641 458.95C202.968 457.393 202.595 456.77 201.382 456.459C199.889 456.085 198.396 455.4 197.136 454.091C196.25 452.035 196.996 451.412 198.443 451.599C199.889 451.786 201.382 452.16 202.828 452.285C206.42 452.534 209.965 451.973 213.418 450.603C214.444 450.167 215.657 450.104 216.45 451.35C217.196 452.472 216.777 453.655 216.17 454.714C215.004 455.586 213.138 456.147 212.811 457.455C212.391 459.013 213.184 461.193 213.511 463.124C213.604 463.81 213.884 464.557 213.884 465.243C213.884 467.61 214.911 468.046 216.45 468.046C224.894 468.108 233.338 467.797 241.689 466.426C244.861 465.741 247.986 465.803 250.926 464.433ZM194.944 492.591C193.684 488.916 196.157 490.099 197.23 489.414C201.008 489.476 202.921 487.981 203.201 484.43C203.434 481.066 203.294 477.577 203.294 474.213C203.294 473.03 202.828 472.22 201.988 472.781C198.816 474.961 195.27 475.646 192.098 477.827C190.652 478.138 189.159 478.263 187.759 478.699C182.908 480.194 177.916 480.443 172.971 480.568C162.754 480.879 153.144 476.768 143.627 472.594C142.507 472.095 141.481 471.099 139.988 471.036C140.828 475.086 141.621 478.948 142.461 482.81C142.881 484.679 143.907 485.676 145.213 486.299C148.059 487.67 150.671 489.725 153.704 490.473C154.45 490.66 155.85 490.847 155.57 492.591C155.336 493.899 154.217 493.65 153.377 493.712C151.698 493.899 149.738 492.84 148.339 494.211C144.793 497.824 141.341 501.687 138.262 506.421C142.507 506.982 146.753 507.48 150.951 507.293C156.969 507.044 163.034 506.359 169.052 505.611C175.443 504.864 181.928 504.864 188.272 503.493C189.625 504.116 191.025 503.805 192.378 503.805C197.649 503.867 197.509 503.867 197.789 496.952C197.929 493.837 197.136 492.591 194.944 492.591ZM219.109 486.486C219.622 486.673 220.135 486.86 220.649 486.984C221.302 487.109 221.955 487.109 221.955 488.23C221.955 489.352 221.302 489.476 220.649 489.539C220.322 489.539 220.042 489.601 219.716 489.663C214.304 489.476 215.517 489.102 215.47 495.27C215.47 496.08 215.61 496.89 215.704 497.7C215.89 499.319 216.59 500.316 217.803 500.628C222.142 501.687 226.48 502.995 230.912 502.434C233.385 503.68 235.997 503.493 238.47 503.618C252.138 504.054 265.807 503.929 279.43 503.119C279.943 503.057 280.503 503.057 280.922 502.434C278.59 497.575 275.184 494.086 272.292 489.912C270.986 488.043 269.819 486.174 267.58 487.047C266.88 487.296 266.181 486.86 265.947 485.738C265.761 484.804 266.181 484.119 266.694 483.62C267.673 482.81 268.653 481.938 269.726 481.378C273.878 479.073 275.931 475.459 275.091 469.105C274.625 465.616 274.764 465.554 272.152 466.052C265.388 467.361 258.623 468.607 251.859 469.541C242.715 470.849 233.524 471.784 224.334 472.905C222.701 472.033 221.115 473.466 219.529 473.092C216.45 472.282 213.371 472.843 210.292 472.594C209.126 472.531 208.799 473.279 208.892 474.649C209.032 476.518 209.172 478.325 209.406 480.132C209.639 481.876 210.105 483.745 211.552 484.243C214.164 485.178 216.497 486.797 219.109 486.486ZM211.225 466.115C210.759 463.436 210.292 461.069 209.965 458.639C209.826 457.393 209.359 457.144 208.566 457.206C207.866 457.268 207.026 456.832 206.7 458.39C206.187 460.882 205.534 463.311 204.88 465.741C204.601 466.738 204.74 467.734 205.534 467.174C207.353 465.865 209.219 466.675 211.225 466.115Z" fill="#050504"/>
<path d="M250.926 464.433C247.987 465.803 244.908 465.741 241.876 466.239C233.478 467.672 225.081 467.921 216.637 467.859C215.098 467.859 214.071 467.485 214.071 465.056C214.071 464.37 213.838 463.685 213.698 462.937C213.418 461.006 212.578 458.826 212.998 457.268C213.325 455.96 215.191 455.399 216.357 454.527C221.675 460.321 227.973 462.314 234.551 463.373C239.496 464.183 244.441 463.685 249.386 463.996C249.9 464.059 250.459 463.81 250.926 464.433Z" fill="#917133"/>
<path d="M197.323 453.967C198.582 455.275 200.029 456.022 201.568 456.334C202.781 456.645 203.154 457.268 202.828 458.826C202.315 461.193 201.848 463.623 201.381 465.99C201.055 467.485 200.029 467.984 199.189 468.544C192.844 472.781 186.08 475.272 179.035 476.269C177.263 476.518 175.397 477.515 173.577 476.581C175.863 475.148 178.382 474.649 180.808 473.964C189.159 471.535 194.85 465.18 197.323 453.967Z" fill="#917133"/>
<path d="M224.474 472.967C233.664 471.846 242.855 470.911 251.999 469.603C258.763 468.669 265.527 467.361 272.292 466.115C274.904 465.616 274.764 465.679 275.231 469.167C276.071 475.522 274.018 479.135 269.866 481.44C268.793 482 267.813 482.873 266.834 483.682C266.321 484.119 265.901 484.804 266.087 485.801C266.321 486.86 267.02 487.358 267.72 487.109C269.959 486.237 271.126 488.106 272.432 489.974C275.324 494.148 278.73 497.637 281.062 502.496C280.643 503.119 280.083 503.182 279.57 503.182C265.901 504.054 252.232 504.116 238.61 503.68C236.09 503.618 233.478 503.742 231.052 502.496C230.959 500.939 229.979 500.627 229.093 500.254C227.32 499.506 225.594 498.447 224.241 496.827C222.561 494.771 220.229 493.276 219.856 489.725C220.182 489.663 220.462 489.663 220.789 489.601C221.442 489.538 222.095 489.476 222.095 488.292C222.095 487.109 221.442 487.109 220.789 487.047C220.275 486.984 219.762 486.735 219.249 486.548C219.016 486.05 218.783 485.489 218.503 485.053C216.17 481.751 216.357 480.568 219.202 478.013C220.882 476.331 223.215 475.708 224.474 472.967Z" fill="#955A40"/>
<path d="M188.272 503.493C181.928 504.864 175.443 504.864 169.052 505.611C163.034 506.359 157.016 506.982 150.951 507.293C146.752 507.48 142.507 506.982 138.262 506.421C141.341 501.749 144.793 497.824 148.338 494.211C149.691 492.84 151.651 493.899 153.377 493.712C154.217 493.588 155.336 493.899 155.569 492.591C155.849 490.847 154.45 490.66 153.703 490.473C150.671 489.725 148.059 487.67 145.213 486.299C143.907 485.676 142.88 484.679 142.46 482.81C141.621 478.948 140.828 475.086 139.988 471.036C141.481 471.161 142.507 472.095 143.627 472.594C153.19 476.768 162.754 480.879 172.97 480.568C177.916 480.443 182.861 480.194 187.759 478.699C189.205 478.263 190.651 478.138 192.098 477.827C192.144 478.387 192.331 478.823 192.751 478.948C196.809 480.505 197.416 484.679 197.229 489.414C196.156 490.099 193.684 488.916 194.943 492.591C194.85 493.089 194.757 493.588 194.617 494.024C193.59 498.447 190.745 500.752 188.272 503.493Z" fill="#945940"/>
<path d="M224.474 472.967C223.261 475.709 220.882 476.331 219.062 477.951C216.216 480.505 216.03 481.689 218.362 484.991C218.642 485.427 218.876 485.988 219.109 486.486C216.45 486.797 214.117 485.178 211.691 484.306C210.245 483.807 209.779 481.938 209.545 480.194C209.265 478.387 209.172 476.518 209.032 474.712C208.892 473.341 209.219 472.531 210.432 472.656C213.511 472.905 216.636 472.344 219.669 473.154C221.255 473.528 222.841 472.095 224.474 472.967Z" fill="#503123"/>
<path d="M197.276 489.476C197.463 484.742 196.903 480.505 192.798 479.01C192.378 478.886 192.145 478.45 192.145 477.889C195.317 475.708 198.862 475.023 202.035 472.843C202.828 472.282 203.341 473.092 203.341 474.276C203.341 477.702 203.481 481.128 203.248 484.492C202.968 488.043 201.008 489.476 197.276 489.476Z" fill="#503123"/>
<path d="M219.763 489.663C220.136 493.214 222.469 494.709 224.148 496.765C225.501 498.385 227.227 499.444 229 500.191C229.84 500.565 230.82 500.877 230.96 502.434C226.481 502.995 222.189 501.624 217.85 500.628C216.637 500.316 215.938 499.319 215.751 497.699C215.658 496.89 215.518 496.08 215.518 495.27C215.564 489.102 214.352 489.414 219.763 489.663Z" fill="#503123"/>
<path d="M188.272 503.493C190.698 500.752 193.544 498.509 194.617 494.086C194.757 493.588 194.804 493.089 194.944 492.653C197.136 492.653 197.929 493.899 197.789 497.014C197.509 503.867 197.649 503.929 192.378 503.867C191.025 503.742 189.625 504.054 188.272 503.493Z" fill="#4F3023"/>
<path d="M211.224 466.115C209.265 466.675 207.352 465.866 205.579 467.111C204.786 467.672 204.646 466.675 204.926 465.679C205.579 463.249 206.233 460.819 206.746 458.328C207.072 456.832 207.865 457.268 208.612 457.144C209.405 457.082 209.871 457.331 210.011 458.577C210.245 461.069 210.758 463.498 211.224 466.115Z" fill="#EEEEEE"/>
</svg>
