<svg width="325" height="501" viewBox="0 0 325 501" fill="none" xmlns="http://www.w3.org/2000/svg">
<path d="M162.613 460.08C158.895 458.183 158.623 457.234 161.117 454.237C161.751 453.479 162.658 452.834 163.383 452.113C164.834 450.671 166.149 449.23 165.015 447.181C163.927 445.17 161.978 444.298 159.439 444.184C154.453 443.918 149.511 444.487 144.57 445.17C133.871 446.612 123.127 446.574 112.338 445.891C104.586 445.398 96.8341 444.943 89.1727 443.842C83.0981 442.97 76.9781 442.173 70.9487 440.997C67.6847 440.352 64.5114 440.542 61.3381 440.921C57.9381 441.339 54.5834 441.301 51.1834 441.111C47.7381 435.989 45.9247 430.413 44.7461 424.646C43.8394 420.094 44.1114 415.617 45.6527 411.178C46.6954 408.181 48.4181 405.45 50.0501 402.68C54.7194 394.751 59.1167 386.709 60.6581 377.831C62.1087 377.869 62.3354 379.007 62.8794 379.728C68.1381 387.088 75.1647 393.082 83.3701 398.128C88.2207 401.087 93.1621 404.008 98.9194 405.753C101.594 406.588 103.498 406.133 104.359 404.198C105.674 401.201 106.581 398.052 107.306 394.903C110.978 394.979 111.431 394.675 112.565 391.754C113.335 389.744 113.879 387.695 115.149 385.836C115.33 385.722 115.602 385.684 115.693 385.532C119.591 380.449 123.535 375.365 127.389 370.206C135.277 359.697 144.797 350.402 156.311 342.549C163.157 337.883 170.093 333.331 176.53 328.285C185.37 321.38 193.757 314.134 198.471 304.536C200.239 307.609 201.826 310.758 202.914 314.02C207.447 327.64 210.53 341.449 210.53 355.638C210.53 361.822 210.893 368.005 210.213 374.189C209.669 379.083 208.309 383.939 208.037 388.833C207.674 395.662 206.631 402.415 206.269 409.206C205.906 417.059 204.501 424.912 201.735 432.537C201.101 434.32 200.239 436.141 200.647 438.076C200.149 438.038 199.831 438.342 199.514 438.607C196.749 441.301 193.439 443.501 190.175 445.701C183.013 450.482 174.989 454.086 166.783 457.462C165.378 458.183 163.474 458.524 162.613 460.08Z" fill="#EED05E"/>
<path d="M115.285 385.912C113.97 387.733 113.472 389.819 112.701 391.83C111.568 394.751 111.114 395.055 107.442 394.979C107.034 394.827 106.672 394.638 106.218 394.486C99.3275 392.437 92.3462 390.692 85.7729 387.998C77.6582 384.66 69.4982 381.435 61.9275 377.224C60.7942 376.579 60.4769 376.845 60.7489 377.907C59.1622 386.784 54.8102 394.827 50.1409 402.756C48.5089 405.526 46.7862 408.257 45.7435 411.254C44.1569 415.693 43.8849 420.169 44.8369 424.722C46.0155 430.488 47.7835 436.065 51.2742 441.187C51.5462 442.515 52.4529 443.615 53.1329 444.791C53.5409 445.512 53.9489 446.27 53.1329 446.84C52.3169 447.409 51.5462 446.839 50.9569 446.384C47.7835 444.108 45.5622 441.225 43.9755 438.114C37.8102 425.86 37.1755 413.72 45.0182 401.618C50.1409 393.651 54.2209 385.305 56.4422 376.39C56.8502 374.758 56.4422 373.81 54.9009 372.71C43.7489 364.591 37.4022 354.196 34.9542 342.094C33.1409 332.951 32.8689 323.656 36.2689 314.855C40.6662 303.474 48.9622 294.293 62.8795 289.854C75.1195 285.947 87.4502 282.153 99.5089 277.866C111.522 273.617 123.445 269.178 135.549 265.157C143.618 262.501 152.05 261.173 160.618 260.377C165.197 259.959 169.64 260.908 173.992 261.932C175.488 262.274 176.077 262.312 176.485 260.756C179.25 250.172 189.586 242.774 202.506 242.053C207.992 241.749 212.933 240.232 217.738 238.145C222 236.248 224.04 237.045 224.448 241.029C225.536 250.779 222.952 259.959 217.421 268.571C216.741 269.633 216.696 270.278 217.512 271.227C221.864 276.348 227.304 279.725 235.282 279.345C238.365 279.194 239.816 280.939 238.456 283.329C232.245 294.293 221.274 304.839 204.184 304.005C211.754 320.242 215.381 337.124 215.834 354.651C216.968 354.5 217.784 353.931 218.645 353.475C233.242 346.002 245.029 335.872 256.544 325.477C264.341 318.421 271.821 311.099 281.25 305.484C286.373 302.449 291.813 300.097 298.341 300.097C304.053 300.097 308.632 301.956 312.304 305.674C318.605 312.086 321.461 319.597 323.184 327.602C325.722 339.401 322.64 350.63 318.922 361.935C313.845 377.376 304.234 390.616 292.04 402.718C271.73 422.939 248.565 440.504 221.32 454.01C206.042 461.597 189.36 466.074 171.634 467.743C171.408 467.781 171.181 467.781 170.954 467.781C169.413 467.819 167.736 467.857 167.146 466.339C166.512 464.746 167.962 464.101 169.368 463.57C181.109 462.546 192.352 459.624 203.368 456.362C215.925 452.644 226.669 446.157 237.413 439.821C250.061 432.196 261.576 423.508 272.546 414.213C273.181 413.644 273.589 412.961 273.952 412.278C277.578 405.715 280.752 399 283.018 391.982C284.152 388.492 285.058 385.001 284.061 381.359C283.698 379.994 282.973 378.969 281.25 378.438C277.941 377.414 277.578 376.807 278.576 373.886C280.298 368.764 281.341 363.529 280.797 358.18C280.434 354.613 279.301 351.275 276.218 348.543C273.68 346.305 270.688 345.774 267.152 346.381C265.52 346.647 264.93 345.584 265.066 344.332C265.293 342.322 265.61 340.311 265.792 338.3C266.018 336.138 265.837 333.975 264.885 331.965C263.525 329.044 260.216 328.588 257.632 330.827C253.96 334.013 250.378 337.314 246.48 340.387C238.002 347.102 228.981 353.134 218.645 357.762C216.424 358.142 215.698 359.166 215.834 361.101C216.197 366.905 215.744 372.71 214.973 378.514C213.477 390.426 212.117 402.377 210.984 414.327C210.258 421.877 208.581 429.35 205.816 436.596C204.818 439.138 203.368 439.593 200.602 438.228C200.24 436.255 201.056 434.472 201.69 432.689C204.456 425.101 205.861 417.248 206.224 409.357C206.541 402.529 207.584 395.776 207.992 388.985C208.264 384.091 209.624 379.235 210.168 374.341C210.848 368.157 210.485 361.973 210.485 355.79C210.53 341.601 207.402 327.792 202.869 314.172C201.781 310.872 200.194 307.761 198.426 304.688C197.429 302.184 195.797 299.908 194.12 297.555C193.802 297.821 193.576 298.011 193.44 298.2C179.84 315.538 163.338 330.903 146.384 345.926C134.96 356.017 124.805 366.867 118.05 379.728C117.098 381.663 115.693 383.636 115.285 385.912ZM214.474 274.945C213.205 273.238 212.072 271.417 210.666 269.823C208.264 267.13 205.226 265.422 200.965 266.029C198.064 266.409 195.389 267.357 192.578 268.533C199.197 271.872 201.554 276.728 200.738 282.798C200.33 285.871 199.197 288.868 197.61 291.675C196.658 293.382 195.888 294.862 198.381 296.114C199.061 296.455 199.424 297.176 199.922 297.745C202.053 300.363 202.869 300.59 206.858 299.908C212.026 300.021 216.56 298.466 220.594 295.886C225.626 292.662 229.298 288.45 232.744 284.05C232.97 283.784 233.152 283.519 232.88 283.253C231.656 283.139 230.432 283.139 229.253 282.95C223.042 281.849 218.418 278.814 214.474 274.945ZM211.437 264.588C212.208 265.195 212.978 265.764 213.93 266.523C218.328 258.707 220.05 250.627 219.914 241.825C213.794 244.822 207.674 245.809 201.237 245.96C197.61 246.036 194.074 246.719 191.082 248.73C185.325 251.385 182.106 255.672 179.976 260.68C179.024 262.918 179.25 263.222 182.016 263.829C182.65 263.981 183.376 263.981 184.01 263.981C185.642 264.019 187.32 264.208 188.498 265.119C189.949 266.219 191.037 265.84 192.488 265.195C198.653 262.312 204.954 261.06 211.437 264.588ZM279.482 408.105C282.293 405.905 284.696 403.401 287.189 400.935C299.202 388.985 309.085 376.086 313.936 360.759C316.973 351.161 320.282 341.639 318.605 331.51C317.29 323.277 315.024 315.424 308.586 308.709C305.186 305.181 301.016 303.891 295.802 304.574C291.496 305.143 287.869 306.888 284.378 308.975C275.674 314.134 268.829 320.925 261.576 327.336C261.485 327.412 261.53 327.564 261.44 327.754C265.61 328.475 267.469 330.94 267.786 334.241C268.058 337.124 268.058 340.045 267.56 342.929C267.424 343.801 267.152 344.674 268.874 344.294C272.002 343.65 274.632 344.56 277.034 346.191C281.976 349.53 283.336 354.196 283.653 359.166C284.016 364.325 282.973 369.371 281.069 374.227C280.57 375.441 280.661 376.162 282.384 376.579C285.421 377.3 286.554 379.387 286.872 381.739C287.234 384.622 287.144 387.543 286.192 390.389C284.288 396.307 281.794 401.997 278.984 407.612C278.757 407.878 278.485 408.181 278.893 408.485C278.938 408.561 279.256 408.257 279.482 408.105ZM173.992 266.371C169.866 265.384 165.696 264.322 161.344 264.664C151.733 265.384 142.485 267.281 133.554 270.392C111.84 277.942 90.5782 286.44 68.2289 292.624C55.9889 296 48.4635 303.322 42.1622 312.048C41.7995 312.541 41.5729 313.072 41.4369 313.641C39.1249 322.67 38.0369 331.737 39.9409 340.918C42.5702 353.475 49.0982 364.174 61.7462 371.685C75.0742 379.576 89.7169 385.343 105.221 389.63C107.17 390.161 107.941 390.085 108.666 388.264C113.426 376.162 120.544 365.122 130.064 355.145C138.722 346.04 148.605 337.845 157.853 329.157C168.96 318.725 179.568 307.95 188.77 296.304C190.493 294.103 192.261 291.865 192.896 289.209C195.026 286.174 195.933 282.836 195.661 279.345C195.48 277.145 194.256 275.248 192.306 273.731C191.944 273.427 191.128 272.593 190.81 273.655C189.949 276.766 187.32 279.004 185.506 281.66C183.512 283.443 181.562 285.226 179.568 286.971C178.57 287.843 177.437 288.526 175.896 288.526C174.808 287.881 174.626 287.312 175.714 286.44C179.84 283.063 183.104 279.194 184.962 274.527C185.552 273.086 185.869 271.606 185.914 270.089C185.96 269.216 185.733 268.457 184.509 268.23C181.064 267.509 177.618 266.485 173.992 266.371Z" fill="#060604"/>
<path d="M200.784 438.152C203.549 439.518 205.045 439.1 205.997 436.521C208.762 429.274 210.44 421.839 211.165 414.251C212.298 402.301 213.658 390.351 215.154 378.438C215.88 372.672 216.378 366.867 216.016 361.025C215.88 359.09 216.605 358.028 218.826 357.686C219.098 359.963 218.6 362.239 218.328 364.477C217.194 373.62 215.925 382.763 216.106 392.02C216.333 401.466 218.554 410.495 222.725 419.297C226.306 426.846 232.064 433.22 237.549 439.783C226.805 446.157 216.061 452.644 203.504 456.324C192.442 459.587 181.245 462.508 169.504 463.532C167.418 462.09 164.88 461.332 162.658 460.08C163.474 458.524 165.378 458.183 166.92 457.538C175.125 454.161 183.149 450.557 190.312 445.777C193.621 443.577 196.885 441.377 199.65 438.683C199.922 438.417 200.24 438.152 200.784 438.152Z" fill="#937234"/>
<path d="M115.285 385.912C115.693 383.636 117.098 381.663 118.186 379.614C124.941 366.791 135.095 355.941 146.519 345.812C163.474 330.789 179.975 315.462 193.575 298.087C193.711 297.897 193.983 297.707 194.255 297.442C195.978 299.794 197.565 302.032 198.562 304.574C193.847 314.172 185.506 321.418 176.621 328.323C170.183 333.368 163.247 337.921 156.402 342.587C144.887 350.44 135.367 359.735 127.479 370.244C123.626 375.365 119.682 380.449 115.783 385.57C115.693 385.722 115.466 385.798 115.285 385.912Z" fill="#927233"/>
<path d="M60.7488 377.869C60.4768 376.807 60.7941 376.579 61.9274 377.186C69.4981 381.359 77.6581 384.622 85.7728 387.961C92.3461 390.692 99.3274 392.437 106.218 394.448C106.626 394.562 107.034 394.751 107.442 394.941C106.717 398.09 105.81 401.201 104.495 404.236C103.634 406.171 101.73 406.626 99.0554 405.791C93.3434 404.046 88.4021 401.125 83.5061 398.166C75.2554 393.158 68.2741 387.126 63.0154 379.766C62.4714 379.045 62.1994 377.945 60.7488 377.869Z" fill="#937334"/>
<path d="M175.941 288.488C177.482 288.488 178.615 287.806 179.613 286.933C181.607 285.15 183.557 283.367 185.551 281.622C187.682 280.635 189.042 281.394 189.903 283.063C190.493 284.277 191.082 285.491 191.717 286.667C192.125 287.464 191.762 288.564 192.895 289.133C192.261 291.789 190.493 294.027 188.77 296.228C179.567 307.912 168.914 318.649 157.853 329.082C148.605 337.769 138.722 345.964 130.063 355.069C120.543 365.046 113.426 376.086 108.666 388.188C107.941 390.009 107.215 390.085 105.221 389.554C89.7167 385.267 75.0741 379.5 61.7461 371.609C49.0981 364.136 42.5247 353.437 39.9407 340.842C38.0367 331.661 39.1701 322.594 41.4367 313.565C41.5727 313.034 41.7994 312.465 42.1621 311.972C48.4634 303.284 55.9887 295.962 68.2287 292.548C90.5781 286.364 111.885 277.904 133.554 270.316C142.485 267.205 151.733 265.309 161.343 264.588C165.695 264.246 169.866 265.309 173.991 266.295C169.458 267.395 165.287 269.899 160.165 268.571C159.983 268.533 159.711 268.609 159.485 268.609C152.549 268.951 146.021 270.658 139.629 272.82C116.418 280.787 93.1167 288.602 69.3167 295.241C59.2527 298.049 51.2741 303.246 49.0074 312.882C47.5114 319.142 49.1887 323.353 55.3541 326.274C59.4794 328.247 64.0127 328.968 68.7274 329.347C76.1167 329.992 83.4607 330.296 90.8047 329.499C101.73 328.285 112.383 326.047 122.81 323.087C140.49 318.08 156.901 311.479 168.415 298.428C171.271 295.355 174.535 292.396 175.941 288.488ZM83.4154 356.966C80.6501 355.562 79.1087 353.134 76.8421 351.275C75.5727 350.213 74.0767 348.657 72.3087 349.909C70.5861 351.123 71.9914 352.755 73.0341 353.969C75.7994 357.231 78.8821 360.304 83.1434 362.277C84.5941 362.922 84.1407 363.681 83.6421 364.439C83.0074 365.502 82.1914 364.743 81.6021 364.401C79.7887 363.377 78.0207 362.277 76.2981 361.177C74.7567 360.19 73.2607 359.09 71.7194 358.104C70.8127 357.535 69.7247 357.497 68.6821 357.914C67.7754 358.293 67.9114 359.052 67.9567 359.773C68.0474 360.911 68.9994 361.594 69.9061 362.239C71.7647 363.567 73.6687 364.857 75.8901 366.374C73.0794 366.64 70.8581 365.995 68.5914 365.691C66.9141 365.464 64.8287 364.553 64.1034 366.526C63.3781 368.499 65.6447 368.992 67.3221 369.523C72.8527 371.23 78.5647 371.116 84.3221 370.661C85.6367 370.547 86.5887 369.94 87.1327 368.954C87.5861 368.081 88.0394 367.209 88.4474 366.336C89.8527 363.377 89.9887 363.225 92.7087 365.35C96.2447 368.119 99.8261 368.081 103.906 366.45C109.799 364.098 114.877 360.949 119.41 357.041C120.09 356.434 120.679 355.789 121.042 354.993C121.541 354.006 121.495 353.058 120.498 352.413C119.455 351.73 118.322 352.034 117.37 352.679C116.69 353.172 116.055 353.703 115.421 354.234C111.477 357.383 107.306 360.304 102.274 362.201C101.549 362.466 100.687 363.111 100.007 362.618C99.1914 362.049 100.143 361.366 100.461 360.759C102.002 357.724 104.269 355.031 106.218 352.185C107.759 349.947 107.759 348.392 106.399 347.747C105.085 347.102 103.362 347.899 101.73 349.947C99.3274 352.944 97.1967 356.055 95.4287 359.356C95.1567 359.811 95.0207 360.608 94.0687 360.342C93.2981 360.114 93.2527 359.507 93.3434 358.9C93.3887 358.407 93.4794 357.914 93.5701 357.383C94.2954 353.741 96.0181 350.364 97.7407 346.988C98.3301 345.812 98.9194 344.636 98.7381 343.346C98.6474 342.625 98.4661 341.904 97.5594 341.639C96.7887 341.411 96.1087 341.791 95.4741 342.17C93.6607 343.384 92.9354 345.129 92.0741 346.798C90.7594 349.34 89.6714 351.92 88.7647 354.651C87.7221 354.158 87.7221 353.399 87.4954 352.755C86.4074 350.099 86.3167 347.291 85.8181 344.56C85.5461 343.194 85.1381 341.297 82.8714 341.563C80.8767 341.791 80.7861 343.574 80.8314 344.939C80.8767 348.164 81.5567 351.351 82.7807 354.424C83.0527 355.258 83.6421 356.055 83.4154 356.966Z" fill="#F4FA95"/>
<path d="M237.549 439.783C232.063 433.22 226.306 426.846 222.725 419.297C218.554 410.533 216.333 401.466 216.106 392.02C215.879 382.763 217.149 373.658 218.327 364.477C218.599 362.239 219.143 359.963 218.826 357.686C229.162 353.096 238.183 347.026 246.661 340.349C250.514 337.276 254.095 333.975 257.813 330.789C260.351 328.588 263.706 329.006 265.066 331.927C265.973 333.938 266.199 336.1 265.973 338.262C265.791 340.273 265.474 342.284 265.247 344.294C265.111 345.546 265.701 346.647 267.333 346.343C270.869 345.736 273.861 346.267 276.399 348.505C279.482 351.237 280.615 354.576 280.978 358.142C281.477 363.491 280.479 368.688 278.757 373.848C277.759 376.807 278.122 377.376 281.431 378.4C283.154 378.931 283.879 379.956 284.242 381.321C285.285 384.963 284.333 388.454 283.199 391.944C280.978 398.962 277.805 405.677 274.133 412.241C273.77 412.923 273.362 413.606 272.727 414.175C261.757 423.432 250.197 432.12 237.549 439.783Z" fill="#EDD05E"/>
<path d="M175.941 288.488C174.536 292.396 171.317 295.355 168.506 298.542C157.037 311.592 140.626 318.193 122.901 323.201C112.474 326.16 101.821 328.399 90.8957 329.613C83.5517 330.409 76.1623 330.106 68.8183 329.461C64.1037 329.044 59.5703 328.361 55.445 326.388C49.2797 323.429 47.6023 319.256 49.0983 312.996C51.365 303.36 59.2983 298.162 69.4077 295.355C93.253 288.716 116.509 280.901 139.72 272.934C146.066 270.772 152.64 269.064 159.576 268.723C159.802 268.723 160.029 268.647 160.256 268.685C165.378 269.975 169.549 267.509 174.082 266.409C177.709 266.523 181.154 267.547 184.645 268.23C185.869 268.457 186.096 269.216 186.05 270.089C186.005 271.606 185.642 273.086 185.098 274.527C183.24 279.156 180.021 283.063 175.85 286.44C174.672 287.274 174.808 287.843 175.941 288.488ZM60.341 305.143C64.6023 304.65 68.637 304.27 72.6717 303.739C91.6663 301.122 110.026 296.683 127.933 290.84C138.722 287.312 149.104 283.139 158.624 277.562C159.984 276.766 161.208 275.817 162.16 274.641C162.658 273.958 163.112 273.275 162.477 272.555C161.752 271.796 160.845 272.137 160.029 272.479C157.173 273.503 154.68 275.058 152.05 276.386C127.162 288.982 99.9623 295.924 71.7197 300.477C67.8663 301.084 63.9223 301.311 60.205 302.449C59.253 302.753 58.3463 303.17 58.6183 304.232C58.845 305.067 59.7063 305.143 60.341 305.143Z" fill="#9C9C53"/>
<path d="M278.983 407.688C281.794 402.073 284.333 396.345 286.191 390.464C287.098 387.619 287.189 384.698 286.871 381.815C286.599 379.462 285.466 377.338 282.383 376.655C280.661 376.238 280.57 375.517 281.069 374.303C283.018 369.409 284.015 364.401 283.653 359.242C283.29 354.272 281.93 349.606 277.034 346.267C274.631 344.636 272.002 343.725 268.874 344.37C267.151 344.75 267.423 343.877 267.559 343.005C268.058 340.121 268.058 337.2 267.786 334.317C267.469 331.016 265.61 328.588 261.439 327.83C261.485 327.64 261.485 327.488 261.575 327.412C268.874 321.001 275.674 314.21 284.378 309.05C287.869 307.002 291.495 305.219 295.802 304.65C301.015 303.967 305.186 305.219 308.586 308.785C315.023 315.462 317.29 323.353 318.605 331.585C320.237 341.715 316.973 351.199 313.935 360.835C309.085 376.162 299.202 389.061 287.189 401.011C284.695 403.477 282.293 405.981 279.482 408.181C279.301 407.954 279.165 407.802 278.983 407.688Z" fill="#FAF0EE"/>
<path d="M191.082 248.73C194.029 246.757 197.61 246.036 201.237 245.96C207.674 245.809 213.794 244.822 219.914 241.825C220.05 250.627 218.327 258.707 213.93 266.523C212.933 265.764 212.207 265.157 211.437 264.588C210.983 262.919 209.125 262.805 207.719 262.274C203.821 260.832 199.469 260.453 195.661 258.707C193.122 257.531 191.672 255.824 191.218 253.396C190.856 251.841 191.082 250.285 191.082 248.73Z" fill="#F3FA95"/>
<path d="M214.474 274.945C218.418 278.852 222.997 281.849 229.162 282.874C230.341 283.063 231.565 283.101 232.789 283.177C233.061 283.443 232.879 283.708 232.653 283.974C229.253 288.375 225.581 292.586 220.503 295.81C216.469 298.39 211.981 299.946 206.767 299.832C206.631 299.339 206.495 298.845 206.314 298.39C204.501 293.306 204.727 288.337 207.674 283.594C209.669 280.522 211.89 277.638 214.474 274.945Z" fill="#F3FA95"/>
<path d="M214.474 274.945C211.845 277.638 209.623 280.559 207.719 283.594C204.727 288.375 204.501 293.306 206.359 298.39C206.541 298.883 206.677 299.338 206.813 299.832C202.823 300.515 202.007 300.249 199.877 297.669C199.423 297.1 199.015 296.379 198.335 296.038C195.842 294.748 196.613 293.306 197.565 291.599C199.151 288.792 200.285 285.833 200.693 282.722C201.509 276.652 199.151 271.796 192.533 268.457C195.343 267.281 198.018 266.371 200.919 265.954C205.181 265.384 208.218 267.092 210.621 269.747C212.117 271.417 213.25 273.2 214.474 274.945Z" fill="#9A9A52"/>
<path d="M191.082 248.73C191.082 250.285 190.856 251.803 191.173 253.396C191.672 255.824 193.077 257.531 195.616 258.707C199.424 260.491 203.776 260.832 207.674 262.274C209.08 262.805 210.938 262.919 211.392 264.588C204.909 261.022 198.608 262.311 192.442 265.195C191.037 265.84 189.904 266.257 188.453 265.119C187.274 264.208 185.597 264.057 183.965 263.981C183.285 263.943 182.605 263.943 181.97 263.829C179.205 263.222 178.978 262.956 179.93 260.68C182.106 255.672 185.325 251.423 191.082 248.73Z" fill="#9A9A52"/>
<path d="M192.896 289.133C191.717 288.564 192.125 287.502 191.717 286.667C191.082 285.491 190.538 284.239 189.904 283.063C189.042 281.356 187.682 280.635 185.552 281.622C187.365 278.966 189.994 276.728 190.856 273.617C191.173 272.555 191.944 273.389 192.352 273.693C194.301 275.21 195.57 277.107 195.706 279.308C195.933 282.76 195.026 286.06 192.896 289.133Z" fill="#989851"/>
<path d="M279.482 408.105C279.301 408.257 278.938 408.561 278.938 408.523C278.53 408.219 278.802 407.954 279.029 407.65C279.165 407.802 279.301 407.954 279.482 408.105Z" fill="#FAF0EE"/>
<path d="M83.37 357.003C83.642 356.055 83.098 355.258 82.7354 354.462C81.5114 351.389 80.8313 348.24 80.786 344.977C80.786 343.612 80.8767 341.829 82.826 341.601C85.0927 341.335 85.5007 343.194 85.7727 344.598C86.2713 347.329 86.362 350.137 87.45 352.792C87.722 353.399 87.6767 354.196 88.7193 354.689C89.626 351.958 90.714 349.378 92.0287 346.836C92.89 345.167 93.6154 343.422 95.4287 342.208C96.018 341.791 96.698 341.411 97.514 341.677C98.4207 341.942 98.602 342.663 98.6927 343.384C98.8287 344.674 98.2847 345.85 97.6954 347.026C95.9274 350.402 94.2047 353.741 93.5247 357.421C93.434 357.914 93.3434 358.407 93.298 358.938C93.2074 359.545 93.298 360.152 94.0234 360.38C94.9754 360.646 95.1114 359.887 95.3834 359.394C97.1514 356.093 99.282 352.982 101.685 349.985C103.362 347.936 105.039 347.14 106.354 347.785C107.669 348.43 107.669 349.985 106.173 352.223C104.223 355.069 101.957 357.762 100.415 360.797C100.098 361.366 99.1914 362.049 99.962 362.656C100.642 363.149 101.503 362.504 102.229 362.239C107.261 360.342 111.431 357.459 115.375 354.272C116.01 353.741 116.645 353.172 117.325 352.717C118.277 352.072 119.41 351.768 120.453 352.451C121.45 353.134 121.495 354.082 120.997 355.031C120.634 355.79 120.045 356.472 119.365 357.079C114.877 360.987 109.754 364.136 103.861 366.488C99.7807 368.119 96.154 368.119 92.6634 365.388C89.9434 363.263 89.8074 363.415 88.402 366.374C87.994 367.247 87.5407 368.119 87.0874 368.992C86.5434 369.978 85.5914 370.623 84.2767 370.699C78.5194 371.116 72.8074 371.268 67.2767 369.561C65.5994 369.03 63.3327 368.499 64.058 366.564C64.738 364.629 66.8687 365.539 68.546 365.729C70.8127 366.033 73.034 366.678 75.8447 366.412C73.6234 364.895 71.7194 363.643 69.8607 362.277C68.954 361.632 68.002 360.949 67.9114 359.811C67.866 359.128 67.73 358.331 68.6367 357.952C69.634 357.535 70.7674 357.573 71.674 358.142C73.2607 359.128 74.7113 360.228 76.2527 361.215C77.9753 362.315 79.7887 363.415 81.5567 364.439C82.146 364.781 82.962 365.539 83.5967 364.477C84.05 363.718 84.5034 362.96 83.098 362.315C78.8367 360.342 75.754 357.269 72.9887 354.006C71.946 352.792 70.5407 351.161 72.2634 349.947C74.0314 348.695 75.5727 350.251 76.7967 351.313C79.0634 353.172 80.6047 355.562 83.37 357.003C83.4154 357.041 83.4154 357.079 83.4607 357.117C83.4607 357.155 83.5514 357.117 83.5967 357.155C83.506 357.079 83.4154 357.041 83.37 357.003Z" fill="#A2792A"/>
<path d="M60.341 305.143C59.7063 305.143 58.845 305.067 58.573 304.232C58.2557 303.17 59.2077 302.753 60.1597 302.449C63.877 301.311 67.821 301.122 71.6743 300.477C99.917 295.924 127.162 288.944 151.96 276.348C154.589 275.021 157.128 273.465 159.938 272.441C160.8 272.137 161.706 271.758 162.386 272.517C163.066 273.238 162.613 273.958 162.069 274.603C161.162 275.779 159.938 276.728 158.533 277.524C149.013 283.101 138.632 287.274 127.842 290.803C109.936 296.683 91.5757 301.122 72.581 303.701C68.6823 304.27 64.6477 304.65 60.341 305.143Z" fill="#050503"/>
<path d="M83.3701 357.003C83.4608 357.041 83.5061 357.079 83.5968 357.155C83.5515 357.155 83.5061 357.155 83.4608 357.117C83.4155 357.079 83.4155 357.041 83.3701 357.003Z" fill="#F4FA95"/>
<path d="M29.3432 275.89C28.8455 274.259 28.1667 272.627 28.212 270.654C25.678 271.755 23.0535 271.565 20.4742 271.565C19.343 271.565 18.257 271.413 18.1212 270.237C17.9855 268.947 19.2525 269.213 20.1575 269.099C20.5647 269.061 20.972 268.871 21.3792 268.758C21.2887 268.644 21.2435 268.53 21.1982 268.53C17.3972 268.378 17.6235 265.988 17.4425 263.826C17.352 262.308 17.2615 260.791 17.2615 259.273C17.3067 251.496 16.8995 243.719 16.4922 235.98C16.4017 234.462 16.085 232.945 18.438 232.224C19.3882 231.958 18.6642 231.048 18.4832 230.555C16.8542 225.812 15.4062 221.07 14.5465 216.176C12.8722 206.995 11.8315 197.739 10.7002 188.52C9.3427 177.518 7.93996 166.516 8.30196 155.438C9.02596 132.714 13.732 110.52 21.2887 88.7062C28.9812 66.5127 39.2982 45.2298 52.6922 25.0091C55.3167 21.0257 58.2127 17.194 61.878 13.7796C65.0907 10.7446 68.8917 8.43044 73.643 7.33025C78.53 6.19212 82.0142 7.25437 84.7292 10.8205C87.8062 14.8798 89.3447 19.4323 90.6117 24.0607C94.277 37.5285 96.1775 51.186 97.4445 64.9194C98.7567 78.6527 100.069 92.3861 101.336 106.119C102.196 115.49 102.829 124.899 103.825 134.269C104.865 144.133 105.408 154.072 107.716 163.822C107.852 164.316 107.761 164.847 107.897 165.34C108.033 166.023 106.947 167.161 109.074 167.085C110.612 167.009 111.336 166.933 111.472 165.302C112.513 149.52 113.463 133.738 114.911 117.994C116.223 103.843 116.314 89.6926 115.861 75.5419C115.409 62.0741 115.544 48.6062 115.363 35.1384C115.318 29.7134 114.956 24.2883 115.499 18.8253C115.906 14.7281 117.038 10.8584 119.345 7.25437C123.463 0.842933 130.975 -1.28157 138.893 1.67756C143.328 3.30887 146.948 5.81275 150.296 8.696C157.536 14.9177 162.74 22.2776 167.672 29.8272C178.397 46.2162 185.094 63.8951 191.519 81.6498C196.497 95.4591 202.198 109.117 205.773 123.305C209.845 139.504 213.918 155.666 215.909 172.169C217.99 189.165 218.126 206.085 214.732 223.005C214.37 224.712 213.782 226.305 212.832 228.202C214.732 227.823 216.316 227.406 217.945 227.14C227.402 225.623 233.013 230.668 230.706 238.559C229.891 241.291 228.398 243.757 226.362 245.957C225.547 246.83 225.14 247.285 226.769 247.93C230.932 249.561 232.878 253.127 232.063 257.111C230.479 264.85 225.909 271.337 219.755 277.028C201.384 294.1 179.754 307.568 154.731 316.9C139.979 322.401 124.413 325.891 108.214 327.371C100.476 328.054 92.7837 328.889 85.0007 328.395C71.471 327.561 58.5295 324.905 47.2622 318.152C43.6422 315.99 40.3842 313.41 37.7597 310.375C36.9 309.389 35.5425 309.161 34.5017 308.402C30.4745 305.405 26.945 302.067 23.868 298.349C21.7865 295.845 21.4245 293.227 23.2797 290.534C23.7775 289.851 23.6417 289.434 23.144 288.864C22.1032 287.688 21.0625 286.55 20.1575 285.298C18.619 283.098 17.6687 280.67 19.524 278.356C21.334 276.08 24.3657 276.08 27.2617 276.155C27.7595 276.155 28.3025 276.269 28.8002 276.345C29.4337 276.497 29.66 276.383 29.3432 275.89ZM58.439 284.008C57.6245 284.881 58.1675 285.526 58.9367 286.133C60.5205 287.271 62.421 287.878 64.4572 288.106C65.498 288.22 66.6292 287.878 67.2174 287.081C68.2582 285.716 69.3442 284.312 69.4347 282.605C70.6112 280.67 68.6655 280.784 67.489 280.784C65.86 280.822 64.2762 281.163 62.6924 281.467C60.8372 281.808 58.7557 281.884 58.439 284.008ZM99.2092 319.328C96.087 317.356 92.7837 315.648 89.1637 314.358C86.1772 313.258 83.598 313.789 81.3807 315.762C78.9372 317.925 77.1725 320.428 75.3172 323.122C76.4937 323.274 77.444 323.388 78.3942 323.501C88.304 324.905 98.1685 324.298 108.666 322.894C104.956 321.946 102.15 320.504 99.2092 319.328ZM72.0592 102.705C73.6882 101.188 75.5435 99.746 75.634 97.5077C75.7697 94.0554 75.9507 90.5651 76.1317 87.1128C76.6747 75.5798 77.1272 64.0468 76.0865 52.5138C75.7245 48.7201 75.0457 45.0022 73.0547 41.5499C71.109 38.1734 68.756 37.9837 65.7242 40.867C63.0092 42.4983 61.335 44.8125 59.706 47.1646C53.4162 56.2317 48.6197 65.8678 44.4115 75.7316C38.7552 89.0476 35.1352 102.819 31.3795 116.552C28.212 128.085 25.859 139.77 24.7277 151.569C23.8227 161.015 24.0942 170.461 24.954 179.946C25.859 189.81 27.2165 199.598 29.117 209.385C29.4337 211.093 29.7505 212.8 30.4745 214.735C31.9225 212.155 33.2347 209.841 34.547 207.564C40.2485 200.318 46.674 193.603 54.8642 188.178C55.9955 187.457 57.1267 186.737 58.258 186.016C58.6652 185.75 59.0725 185.561 58.8915 184.954C56.991 178.959 58.3937 173.345 62.1042 168.071C62.6472 167.313 62.5567 167.123 61.4707 166.857C57.8507 165.909 56.4932 164.278 56.5837 161.129C56.7194 157.032 58.6652 153.428 61.1992 150.013C63.0545 147.471 63.0545 147.016 60.2942 145.081C57.8055 143.336 56.3122 141.136 55.8145 138.48C55.362 135.9 55.6335 133.321 56.448 130.779C58.982 122.584 63.507 115.111 68.4845 107.827C69.3442 106.537 70.7017 105.437 71.0637 103.919C71.8329 103.692 72.0592 103.236 72.0592 102.705ZM58.0317 298.463C57.1267 297.628 57.2172 295.807 55.181 295.997C49.57 296.604 45.226 294.821 41.5607 291.406C40.882 290.761 40.2032 290.154 39.3435 289.396C38.348 291.937 37.3525 294.176 37.8955 296.642C37.3977 301.574 39.5697 305.747 43.3707 309.351C46.3572 312.196 49.8415 314.624 53.733 316.635C56.1765 317.887 58.8009 318.835 62.0137 319.859C60.2037 317.431 58.5747 315.459 57.172 313.41C52.9637 307.264 53.3257 306.05 60.3395 302.067C61.4255 301.46 61.5612 301.004 60.4752 300.435C59.4797 299.904 58.7557 299.183 58.0317 298.463ZM102.92 287.764C99.1187 284.691 95.9512 281.239 93.5982 277.256C92.1502 274.334 91.1547 271.299 90.476 268.189C90.7022 266.557 90.7475 265.153 88.2135 264.622C86.8107 264.319 86.132 263.067 85.589 261.929C82.9192 256.049 80.2495 250.13 77.5345 244.288C76.9462 243.036 77.0367 242.012 77.8965 240.911C80.4305 237.497 82.874 234.007 85.3627 230.555C86.856 228.961 88.2135 227.292 90.0235 225.926C90.7022 225.433 91.5167 224.826 92.3765 225.471C93.2815 226.154 92.286 226.685 91.8335 227.216C91.6072 227.482 91.3357 227.709 91.1095 227.937C87.8515 231.541 85.2722 235.448 82.6024 239.697C83.2812 239.584 83.4622 239.546 83.6432 239.47C96.4942 233.817 109.707 228.696 122.06 222.208C125.183 220.577 128.441 219.059 131.834 217.921C135.319 216.745 136.359 217.049 138.441 219.591C138.486 219.894 138.531 220.235 138.622 220.539C140.432 227.178 143.418 233.514 145.364 240.077C146.586 244.174 148.396 248.233 147.627 252.634C147.491 253.317 147.717 254.417 148.984 254.759C150.025 254.91 150.93 254.569 151.79 254.19C153.554 253.431 155.093 252.444 156.496 251.306C157.084 250.813 157.853 250.699 158.532 251.155C159.165 251.572 158.984 252.141 158.713 252.71C157.174 256.2 150.975 259.804 146.631 259.728C144.866 258.78 144.957 257.149 144.414 255.745C144.188 255.214 144.323 254.19 143.283 254.379C141.246 254.721 139.12 255.138 137.264 255.859C136.133 256.276 137.129 257.604 136.767 258.476C136.45 259.273 136.088 259.994 135.545 260.715C135.047 261.398 134.097 261.777 133.916 262.688C134.504 262.688 134.957 262.688 135.409 262.688C138.803 262.65 139.527 263.181 139.572 266.064C139.572 270.579 138.034 274.79 135.364 278.659C133.825 280.973 131.653 282.719 128.712 283.857C120.839 286.892 107.173 284.122 102.377 276.724C100.114 273.196 98.1685 269.63 97.5802 265.647C97.3992 264.395 96.5847 264.622 95.7249 264.774C94.9557 264.926 93.915 264.774 94.1865 266.064C95.725 273.803 98.5305 280.973 105.77 286.474C113.463 292.355 125.273 292.886 133.599 287.65C139.21 284.084 142.332 279.266 144.052 273.689C144.323 272.741 144.595 271.831 145.862 271.527C146.541 271.679 147.084 272.058 147.581 272.475C147.581 273.424 147.265 274.334 146.993 275.245C145.998 278.697 143.826 281.732 141.789 284.805C140.975 285.526 140.206 286.285 139.391 287.005C133.78 291.975 127.083 294.745 118.576 294.1C120.25 295.162 121.563 296.452 122.875 297.666C125.409 306.05 124.504 314.017 119.164 321.68C131.427 319.442 143.464 316.445 154.957 312.12C172.062 305.709 187.039 296.414 201.384 286.474C205.909 283.364 209.8 279.608 213.692 275.928C215.909 274.676 217.402 272.855 218.895 271.072C222.787 266.557 226.135 261.777 226.995 256.124C227.493 252.596 224.552 250.699 220.479 251.837C219.167 251.951 218.171 252.672 217.085 253.241C215.683 253.962 214.235 254.607 212.787 253.469C211.248 252.293 212.108 251.079 212.922 249.903C214.28 249.106 215.637 248.347 216.995 247.55C220.841 245.274 223.647 242.315 225.321 238.559C226.135 236.7 226.09 234.841 225.321 233.02C224.914 232.034 224.325 231.162 222.787 231.275C220.117 231.048 217.583 231.503 215.094 232.262C210.705 233.552 206.316 234.766 201.565 234.424C199.981 233.627 200.388 232.755 201.655 232.11C203.42 231.199 205.275 230.289 207.311 229.758C208.035 229.568 208.714 229.454 208.759 228.582C208.805 225.585 209.619 222.701 210.162 219.78C213.149 203.277 212.787 186.775 210.479 170.272C207.764 150.62 203.239 131.196 197.13 112.114C191.248 93.7898 184.234 75.6936 176.949 57.7112C171.609 44.5469 164.233 32.0655 155.048 20.4187C150.523 14.7281 145.364 9.37887 137.943 6.11625C131.518 3.30887 126.676 4.7505 123.418 10.1756C120.974 14.2349 120.115 18.5597 120.296 23.0364C120.884 37.3767 120.567 51.7171 120.929 66.0575C121.291 80.8911 121.879 95.7626 120.748 110.596C119.753 123.76 118.757 136.963 117.762 150.127C117.264 156.5 117.083 162.874 115.499 169.134C115.047 170.879 114.006 171.372 112.286 171.334C109.571 171.296 106.856 171.372 104.187 171.903C87.5347 175.393 71.7877 180.211 58.1222 189.43C41.2892 200.774 31.6057 214.962 30.7007 233.21C30.6555 234.5 31.1079 235.107 32.6012 235.486C35.1804 236.131 37.7145 237.004 40.2485 237.801C47.4885 240.115 55.0905 240.949 63.1902 241.86C61.2445 239.432 60.2037 236.966 57.8507 235.183C57.3077 234.766 56.8552 234.31 57.3982 233.741C57.896 233.21 58.62 233.4 59.2082 233.703C60.5205 234.31 61.335 235.297 62.2852 236.169C63.869 238.142 65.4527 240.115 67.0365 242.125C67.851 243.188 68.4392 244.364 68.3035 245.692C67.8057 250.434 67.3985 255.214 66.8102 259.918C66.584 261.701 66.6292 263.75 65.2717 265.154C63.9142 266.595 64.3667 267.582 65.3622 268.758C65.9957 270.579 66.2672 272.475 66.2672 274.372C66.2672 275.207 66.403 275.662 67.6247 275.435C71.1995 274.828 74.8195 275.207 78.3942 274.979C80.1137 274.865 82.0142 274.903 83.6885 275.586C83.8242 276.611 83.236 277.104 82.0142 277.18C80.2042 277.294 78.3942 277.369 76.6295 277.597C74.2312 277.938 71.7424 277.673 69.2537 278.356C72.6022 279.266 73.1905 280.177 72.557 283.022C72.4212 283.553 72.4212 284.122 72.376 284.691C71.5615 284.919 71.6972 285.602 71.4257 286.095C69.299 290.192 66.0862 291.368 61.1087 289.851C60.2489 289.585 59.4345 289.282 58.3485 288.902C58.9367 291.027 59.3439 292.924 60.4299 294.669C61.0182 295.655 61.516 296.755 62.2852 297.666C64.6382 300.511 64.9097 300.511 68.3035 298.652C69.2537 298.159 70.2492 297.704 71.2899 297.362C75.6792 295.883 80.0232 294.365 84.4124 292.962C90.5664 290.989 96.811 289.585 103.508 290.192C104.911 290.42 106.313 290.648 107.761 290.875C107.807 290.761 107.852 290.685 107.897 290.572C106.087 289.699 104.503 288.713 102.92 287.764ZM63.9595 145.005C66.041 143.602 68.1677 142.122 70.3849 140.643C71.0637 140.187 71.8782 139.467 72.738 140.036C73.5525 140.605 72.738 141.363 72.3307 141.895C71.3352 143.146 70.204 144.36 69.118 145.574C65.317 149.823 61.6517 154.186 60.4299 159.573C59.6607 163.026 60.7467 164.24 64.7287 164.505C65.7242 164.581 66.9912 164.24 67.5342 165.34C68.0772 166.402 67.1722 167.085 66.4482 167.844C62.5567 171.941 61.1992 176.683 61.5612 181.843C61.6969 183.436 62.1494 183.474 63.5974 182.564C69.5252 178.618 76.177 175.659 83.236 173.345C90.0687 171.106 96.9015 168.868 104.277 167.464C103.372 166.326 103.055 165.226 102.784 164.088C101.2 157.525 100.476 150.848 99.6617 144.171C98.3947 133.662 97.716 123.116 96.7657 112.607C95.4082 97.3559 93.8697 82.1051 92.467 66.8921C91.2905 54.0313 89.6162 41.2464 86.494 28.5753C85.2722 23.6434 83.96 18.6736 81.1092 14.159C79.073 10.9343 77.4892 10.4411 73.4167 11.7689C70.023 12.8691 67.3079 14.7281 64.9549 17.0043C61.5612 20.2669 58.8462 23.9089 56.3574 27.6647C41.968 49.365 31.8772 72.5069 24.2299 96.4454C18.2117 115.262 14.456 134.307 13.6415 153.807C13.189 164.202 14.3655 174.521 15.542 184.84C17.3972 200.622 19.162 216.404 23.4607 231.882C23.7322 232.907 24.3657 233.362 25.3612 233.362C26.5377 233.362 26.0852 232.413 26.1305 231.882C26.5377 227.33 27.2617 222.853 28.9812 218.49C29.1622 218.035 29.1622 217.466 28.9812 217.011C26.8092 210.713 25.9494 204.188 24.9087 197.701C23.2797 187.571 22.2842 177.404 21.9222 167.161C21.515 155.704 22.9177 144.361 25.1349 133.093C27.9857 118.411 31.9225 103.919 36.4022 89.5408C41.063 74.4037 47.8957 59.9496 57.0362 46.2921C59.2534 42.9536 61.9685 39.9186 65.7242 37.6803C68.7107 35.8972 71.7877 36.2386 74.1407 38.5528C75.5887 39.9944 76.358 41.7016 77.0367 43.4468C79.3897 49.7444 79.5707 56.2696 79.7065 62.7569C79.9327 73.2656 79.2992 83.7364 78.7562 94.2071C78.6657 95.8764 78.6657 97.5836 78.1227 99.2907C77.3535 101.833 75.3625 103.767 73.824 105.892C68.0772 113.859 62.8735 122.015 60.1132 131.12C59.0272 134.686 58.7105 138.253 61.2445 141.553C62.3305 142.957 63.4165 144.323 63.9595 145.005ZM144.052 250.016C144.007 249.713 143.961 249.371 143.916 249.068C142.016 239.697 137.853 230.858 135.228 221.639C134.911 220.463 134.142 220.577 133.056 220.956C129.255 222.322 125.68 224.105 122.106 225.85C109.119 232.338 95.5892 238.066 81.969 243.605C80.6567 244.136 81.0187 244.553 81.3355 245.312C83.598 250.054 85.8605 254.797 88.123 259.539C89.3447 262.043 89.752 262.232 92.8742 261.739C103.191 260.146 113.146 257.452 123.327 255.404C129.708 254.114 136.043 252.71 142.378 251.344C143.192 251.192 144.414 251.23 144.052 250.016ZM20.0217 235.41C20.3837 245.274 20.7005 254.759 21.0172 264.205C21.0172 264.774 21.2435 265.191 21.877 265.381C25.7232 266.557 29.4789 267.885 33.7324 268.037C42.8729 268.34 51.6967 266.974 60.4752 264.926C62.059 264.546 62.8282 263.902 63.0545 262.498C63.869 257.87 64.412 253.241 64.3215 248.537C64.231 244.971 64.3215 244.933 60.068 244.591C51.199 243.871 42.5109 242.429 34.1849 239.622C29.6599 238.142 24.9992 236.89 20.0217 235.41ZM120.703 304.153C121.291 300.853 119.662 297.704 115.182 295.997C108.169 293.379 100.838 291.748 93.0552 293.303C81.5165 295.655 71.29 300.549 60.973 305.215C60.249 305.557 59.6607 306.088 59.0272 306.505C57.7602 307.264 57.6697 308.137 58.3937 309.313C60.2489 312.348 62.3305 315.269 64.9097 317.925C66.1767 319.214 67.6247 320.277 69.4347 320.998C71.1995 321.718 72.557 321.529 73.5977 320.011C74.91 318.038 76.358 316.104 78.168 314.396C82.2405 310.565 86.3582 309.882 91.9692 311.968C95.2725 313.22 98.259 314.928 101.336 316.483C103.915 317.773 106.54 319.025 109.481 319.67C114.413 320.77 117.309 319.404 118.757 315.307C119.934 311.93 120.431 308.44 120.703 304.153ZM33.1895 302.105C32.6012 298.501 32.1035 295.352 33.1442 292.393C34.185 289.396 33.4157 286.702 32.3297 283.933C32.1035 283.401 31.9677 282.832 31.7867 282.301C30.384 278.242 29.841 278.014 24.954 279.152C24.8635 279.152 24.8182 279.19 24.7277 279.19C22.1485 279.835 21.6055 280.784 22.8272 282.832C23.9585 284.691 25.4517 286.361 27.0807 287.954C28.212 289.054 28.4382 290.116 27.2165 291.33C26.1757 292.355 25.7232 293.569 26.5377 294.821C28.2572 297.362 30.6102 299.449 33.1895 302.105ZM54.5927 292.658C49.7962 292.089 46.9455 289.661 45.226 286.095C43.6422 282.794 41.0177 279.494 45.4522 276.231C39.4792 274.941 39.4792 274.941 40.2937 270.844C39.9317 270.806 39.5697 270.768 39.2077 270.768C33.7777 270.654 33.7325 270.654 35.0447 275.055C36.8547 280.935 39.7055 286.399 45.1807 290.572C47.8052 292.544 50.837 293.417 54.5927 292.658ZM123.644 281.808C126.54 281.732 128.441 280.973 129.934 279.721C133.916 276.307 135.183 271.906 135.816 267.316C135.907 266.519 135.5 266.14 134.504 266.178C133.735 266.216 132.966 266.254 132.242 266.178C130.658 266.026 130.115 266.443 129.843 267.847C128.984 272.665 128.712 277.711 123.644 281.808ZM53.4162 289.775C53.1447 287.954 52.7827 286.398 53.371 284.843C53.5067 284.54 53.4162 284.236 53.0542 284.008C50.7917 282.491 49.4342 280.518 48.3482 278.318C47.8957 277.445 47.4432 277.483 46.7645 278.204C45.8595 279.152 45.407 280.139 45.95 281.353C46.7192 283.136 47.5337 284.881 48.7102 286.55C49.7057 287.992 51.1537 289.092 53.4162 289.775ZM123.689 275.738C123.689 274.6 123.146 273.841 121.879 273.879C120.341 273.955 119.119 274.524 119.029 276.042C118.983 277.218 119.662 278.014 121.155 277.976C122.92 277.938 123.554 276.914 123.689 275.738ZM130.16 260.335C130.975 260.449 132.966 258.477 133.056 257.566C133.101 257.149 133.011 256.693 132.423 256.883C131.337 257.187 129.708 256.997 129.391 258.021C129.165 258.59 129.3 259.728 130.16 260.335ZM45.4522 272.058C45.226 271.451 45.9952 270.427 44.3662 270.427C42.6467 270.465 42.9182 271.603 42.692 272.438C42.4657 273.5 43.3255 273.727 44.2757 273.765C46.0857 273.841 45.1355 272.665 45.4522 272.058ZM56.086 278.318C55.9502 277.787 55.5882 277.369 54.9095 277.369C54.276 277.369 54.0497 277.787 54.0045 278.28C53.9592 278.811 54.3212 279.115 54.9547 279.077C55.543 279.077 55.9502 278.849 56.086 278.318Z" fill="#060604"/>
<path d="M83.4621 275.7C81.7879 275.017 79.9326 274.979 78.1679 275.093C74.5931 275.283 70.9279 274.941 67.3984 275.548C66.1766 275.776 66.0409 275.321 66.0409 274.486C66.0409 272.589 65.7694 270.73 65.1359 268.871C68.3939 267.961 69.7061 266.14 70.1134 263.257C71.0636 256.39 71.6066 249.561 69.9324 242.732C69.2989 240.191 66.9459 238.711 65.2716 236.814C64.4119 235.866 63.3259 235.714 62.1041 236.283C61.1539 235.373 60.3394 234.386 59.0271 233.817C58.3936 233.514 57.7149 233.324 57.2171 233.855C56.6741 234.424 57.1266 234.879 57.6696 235.297C60.0226 237.08 61.0634 239.546 63.0091 241.974C54.9094 241.025 47.3074 240.191 40.0674 237.914C37.5334 237.118 34.9994 236.245 32.4201 235.6C30.9269 235.221 30.4744 234.614 30.5196 233.324C31.3794 215.076 41.1081 200.887 57.9411 189.544C71.6066 180.325 87.3536 175.469 104.006 172.017C106.675 171.448 109.345 171.372 112.105 171.448C113.825 171.486 114.866 170.993 115.318 169.247C116.902 162.95 117.128 156.576 117.581 150.241C118.576 137.076 119.572 123.874 120.567 110.71C121.698 95.8764 121.11 81.0049 120.748 66.1713C120.386 51.8309 120.703 37.4905 120.115 23.1502C119.934 18.6735 120.793 14.3487 123.237 10.2894C126.54 4.86429 131.382 3.42267 137.762 6.23004C145.228 9.49267 150.387 14.8419 154.867 20.5325C164.052 32.1793 171.428 44.6607 176.768 57.825C184.053 75.8074 191.067 93.8657 196.949 112.227C203.058 131.31 207.583 150.734 210.298 170.386C212.606 186.888 213.013 203.391 209.981 219.894C209.438 222.815 208.624 225.736 208.578 228.696C208.578 229.568 207.854 229.682 207.13 229.872C205.094 230.365 203.239 231.275 201.474 232.224C200.207 232.869 199.8 233.741 201.384 234.538C195.456 237.004 190.931 240.798 186.858 245.085C182.243 249.903 177.989 254.986 172.786 259.387C170.749 261.132 168.442 262.574 165.727 263.333C158.803 265.267 152.921 268.568 147.446 272.513C146.948 272.096 146.45 271.717 145.726 271.565C146.36 267.657 146.857 263.75 146.586 259.804C150.975 259.88 157.129 256.314 158.668 252.786C158.894 252.217 159.12 251.648 158.487 251.23C157.808 250.775 157.084 250.889 156.45 251.382C155.048 252.52 153.509 253.507 151.744 254.265C150.885 254.645 149.98 254.948 148.939 254.834C151.835 252.369 152.016 249.485 151.292 246.261C150.568 243.15 149.482 240.153 148.486 237.118C146.857 232.186 145.228 227.254 142.921 222.55C142.106 220.88 141.292 219.173 138.441 219.666C136.359 217.087 135.364 216.821 131.834 217.997C128.395 219.135 125.183 220.653 122.06 222.284C109.707 228.771 96.5394 233.893 83.6431 239.546C83.4621 239.622 83.2359 239.622 82.6024 239.773C85.2721 235.524 87.8514 231.579 91.1094 228.013C91.3356 227.747 91.6071 227.52 91.8334 227.292C92.2859 226.761 93.2814 226.23 92.3764 225.547C91.5166 224.864 90.7021 225.471 90.0234 226.002C88.2134 227.33 86.8559 229.037 85.3626 230.63C84.4576 228.885 83.0096 229.378 81.9689 230.289C78.2584 233.627 74.9099 237.194 73.5524 241.746C73.0546 243.415 73.3261 245.085 75.3171 246.071C76.2221 246.526 76.3126 247.285 76.5389 247.968C78.2131 252.938 79.7969 257.945 81.6069 262.839C83.4169 267.695 84.4124 268.188 90.4759 268.302C91.1094 271.413 92.1501 274.448 93.5529 277.369C90.2949 276.307 86.9464 275.7 83.4621 275.7ZM191.474 203.202C192.922 205.326 194.777 207.223 195.954 209.499C196.632 210.789 197.673 211.168 199.166 210.448C199.483 211.548 198.85 212.724 199.438 213.824C199.709 214.317 199.664 215 200.614 215C201.61 215 201.746 214.393 201.972 213.748C202.696 211.662 202.786 209.499 203.148 207.375C204.913 196.942 205.366 186.471 204.551 176C203.51 162.874 200.886 149.899 197.13 137.152C189.211 110.406 178.94 84.3054 166.541 58.8114C161.745 48.9097 155.591 39.5392 147.943 30.9274C146.133 28.8787 143.961 27.1336 141.111 26.0714C135.952 24.1745 132.151 25.3885 129.934 29.7134C128.079 33.3174 127.536 37.1491 127.309 40.9808C126.902 47.6578 127.128 54.3727 127.671 61.0497C128.124 67.0818 128.35 73.1518 129.391 79.1459C129.979 82.4844 130.386 85.8609 130.884 89.389C130.205 89.0855 129.753 88.8579 129.255 88.7062C128.576 88.5165 127.852 88.4785 127.4 89.0476C126.902 89.6546 127.038 90.2616 127.626 90.7927C128.124 91.248 128.712 91.6653 129.3 92.0826C132.875 94.6244 136.54 97.0524 139.979 99.708C149.029 106.726 156.631 114.693 161.745 124.14C165.093 130.399 164.686 137.228 155.998 142.084C155.093 142.615 154.686 142.539 153.962 141.97C151.88 140.339 149.708 138.746 147.536 137.19C146.722 136.621 145.726 135.938 144.776 136.811C143.78 137.759 144.912 138.404 145.636 139.011C148.713 141.439 151.88 143.791 154.912 146.257C158.26 148.951 160.116 152.403 161.473 156.045C161.835 157.032 161.835 158.056 161.609 159.042C161.247 160.712 159.708 161.66 158.17 162.381C157.039 162.912 156.586 161.508 155.726 161.091C154.55 160.522 153.509 159.763 152.423 159.118C151.744 158.701 150.975 157.828 150.115 158.663C149.346 159.422 149.934 160.218 150.658 160.825C151.473 161.47 152.378 162.039 153.192 162.684C157.446 166.061 159.754 170.158 160.297 175.317C158.351 174.559 156.812 173.914 155.229 173.345C152.423 172.396 149.618 171.486 146.495 171.6C145.5 171.638 144.414 171.713 144.369 172.852C144.323 173.952 145.364 174.179 146.314 174.293C151.473 174.976 156.088 176.835 160.387 179.225C171.247 185.257 180.885 192.313 187.899 201.646C188.804 202.822 189.754 203.657 191.474 203.202Z" fill="#EDCF5D"/>
<path d="M63.9594 145.005C63.4164 144.323 62.2851 142.957 61.2444 141.591C58.7104 138.291 59.0271 134.724 60.1131 131.158C62.8281 122.053 68.0771 113.897 73.8239 105.93C75.3624 103.767 77.3534 101.833 78.1226 99.3287C78.6656 97.6595 78.6656 95.9523 78.7561 94.2451C79.2539 83.7743 79.9326 73.3036 79.7064 62.7949C79.5706 56.3076 79.3896 49.7823 77.0366 43.4847C76.3579 41.7396 75.5886 40.0324 74.1406 38.5908C71.7876 36.2386 68.7106 35.8972 65.7241 37.7182C61.9684 39.9945 59.2534 42.9915 57.0361 46.33C47.8956 59.9875 41.0629 74.4417 36.4021 89.5788C31.9676 103.957 28.0309 118.449 25.1349 133.131C22.9176 144.398 21.5601 155.78 21.9221 167.199C22.2841 177.404 23.2796 187.571 24.9086 197.739C25.9494 204.226 26.8091 210.713 28.9811 217.049C29.1621 217.504 29.1621 218.073 28.9811 218.528C27.2616 222.891 26.5829 227.368 26.1304 231.92C26.0851 232.413 26.5376 233.4 25.3611 233.4C24.3204 233.4 23.7321 232.907 23.4606 231.92C19.1166 216.442 17.3519 200.66 15.5419 184.878C14.3201 174.559 13.1889 164.24 13.6414 153.845C14.4559 134.383 18.2116 115.3 24.2299 96.4834C31.8771 72.5448 41.9679 49.4409 56.3574 27.7027C58.8461 23.9469 61.5611 20.3049 64.9549 17.0423C67.3079 14.766 70.0229 12.9071 73.4166 11.8069C77.4891 10.4791 79.0729 10.9723 81.1091 14.197C83.9599 18.7115 85.2721 23.6434 86.4939 28.6132C89.6161 41.2464 91.2451 54.0693 92.4669 66.9301C93.8696 82.181 95.4081 97.3939 96.7656 112.645C97.7159 123.153 98.3946 133.7 99.6616 144.209C100.476 150.886 101.2 157.525 102.784 164.126C103.055 165.226 103.372 166.326 104.277 167.502C96.9014 168.868 90.0686 171.106 83.2359 173.383C76.1769 175.697 69.5251 178.656 63.5974 182.602C62.1946 183.55 61.6969 183.474 61.5611 181.881C61.1991 176.721 62.5566 171.979 66.4481 167.882C67.1721 167.123 68.0771 166.44 67.5341 165.378C66.9911 164.316 65.7241 164.619 64.7286 164.543C60.7919 164.278 59.6606 163.064 60.4299 159.611C61.6516 154.224 65.2716 149.899 69.1179 145.612C70.2039 144.398 71.3351 143.222 72.3306 141.933C72.7379 141.401 73.5071 140.643 72.7379 140.074C71.8781 139.505 71.0636 140.187 70.3849 140.681C68.2129 142.122 66.0409 143.602 63.9594 145.005Z" fill="#ECCE5D"/>
<path d="M54.9095 188.102C46.7193 193.527 40.2938 200.242 34.5923 207.488C33.4158 207.261 32.5108 207.602 31.5605 208.209C30.8365 208.665 30.203 209.385 29.1623 209.347C27.2618 199.597 25.859 189.772 24.9993 179.908C24.1395 170.461 23.868 160.977 24.773 151.531C25.9043 139.732 28.2573 128.047 31.4248 116.514C35.1805 102.781 38.8005 89.0097 44.4568 75.6936C48.665 65.8299 53.4615 56.1937 59.7513 47.1267C61.3803 44.8125 63.0545 42.4604 65.7695 40.829C66.765 42.2707 68.8013 42.7639 69.8873 44.2055C72.5118 47.5819 73.281 51.3377 73.3715 55.2074C73.824 71.0273 73.3263 86.8472 72.0593 102.667C71.29 102.781 71.0185 103.16 71.1543 103.767C70.7018 103.691 70.4755 103.919 70.204 104.185C62.0138 112.721 56.3123 122.319 53.19 132.941C51.5158 138.632 53.19 143.678 58.077 147.927C58.9368 148.685 58.8915 149.216 58.3033 150.051C57.2173 151.644 56.086 153.238 55.3168 154.907C53.3258 159.346 52.828 163.784 56.81 167.73C57.6698 168.565 56.9458 169.134 56.5386 169.779C54.5023 172.814 53.552 176.038 53.4163 179.529C53.2805 182.526 53.914 185.295 54.9095 188.102Z" fill="#FBF1EE"/>
<path d="M147.491 272.475C152.966 268.53 158.848 265.229 165.772 263.295C168.487 262.536 170.794 261.056 172.831 259.349C178.034 254.948 182.333 249.865 186.903 245.047C190.976 240.76 195.501 236.966 201.429 234.5C206.18 234.841 210.614 233.627 214.958 232.338C217.447 231.617 219.981 231.161 222.651 231.351C221.429 237.156 218.759 242.429 214.189 246.981C213.329 247.854 212.334 248.689 212.786 249.979C211.972 251.155 211.112 252.369 212.651 253.545C214.144 254.683 215.547 254 216.949 253.317C218.035 252.786 219.031 252.065 220.343 251.913C220.298 252.71 220.253 253.545 220.162 254.341C219.71 258.742 217.854 262.877 216.587 267.126C215.682 270.085 214.053 272.893 213.601 275.966C209.709 279.646 205.818 283.363 201.293 286.512C186.949 296.452 171.971 305.747 154.866 312.158C143.373 316.445 131.382 319.48 119.074 321.718C124.413 314.055 125.318 306.05 122.784 297.704C130.612 297.894 136.585 295.086 140.884 289.699C142.015 288.257 143.011 286.626 141.699 284.805C143.69 281.732 145.862 278.735 146.902 275.245C147.174 274.334 147.491 273.424 147.491 272.475Z" fill="#FBF1EE"/>
<path d="M144.052 250.016C144.369 251.23 143.147 251.193 142.378 251.344C136.043 252.748 129.708 254.114 123.327 255.404C113.146 257.49 103.191 260.146 92.8742 261.739C89.7519 262.232 89.3447 262.043 88.1229 259.539C85.8152 254.797 83.5979 250.054 81.3354 245.312C80.9734 244.591 80.6567 244.136 81.9689 243.605C95.5892 238.066 109.074 232.376 122.106 225.85C125.68 224.067 129.21 222.322 133.056 220.956C134.142 220.577 134.911 220.463 135.228 221.639C137.853 230.82 142.061 239.697 143.916 249.068C144.007 249.372 144.007 249.713 144.052 250.016Z" fill="#F4FB95"/>
<path d="M20.0215 235.411C24.999 236.89 29.6597 238.104 34.1847 239.622C42.5107 242.429 51.1987 243.871 60.0677 244.591C64.3212 244.933 64.2307 244.971 64.3212 248.537C64.457 253.241 63.8687 257.87 63.0542 262.498C62.828 263.902 62.0135 264.584 60.475 264.926C51.7417 266.975 42.8727 268.34 33.7322 268.037C29.524 267.885 25.723 266.557 21.8767 265.381C21.198 265.191 21.017 264.774 21.017 264.205C20.7002 254.759 20.3835 245.312 20.0215 235.411Z" fill="#F4FB95"/>
<path d="M120.703 304.153C120.477 308.402 119.934 311.93 118.712 315.307C117.264 319.404 114.368 320.732 109.436 319.67C106.494 319.025 103.87 317.773 101.291 316.483C98.2136 314.928 95.2271 313.182 91.9239 311.968C86.3129 309.844 82.1951 310.565 78.1226 314.396C76.3126 316.104 74.9099 318.038 73.5524 320.011C72.5116 321.567 71.1541 321.756 69.3894 320.998C67.5794 320.239 66.1314 319.214 64.8644 317.925C62.2851 315.269 60.2036 312.348 58.3484 309.313C57.6244 308.175 57.7601 307.302 58.9819 306.505C59.6606 306.088 60.2036 305.557 60.9276 305.216C71.2446 300.511 81.4711 295.617 93.0099 293.303C100.793 291.748 108.078 293.341 115.137 295.997C119.662 297.704 121.291 300.853 120.703 304.153ZM104.594 310.451C106.494 310.299 107.988 309.161 109.571 308.251C111.155 307.34 112.694 306.316 114.458 308.061C114.82 308.44 115.409 308.478 115.906 308.251C116.359 308.061 116.449 307.719 116.314 307.264C115.68 304.988 112.377 303.622 109.933 304.684C108.531 305.291 107.037 305.86 105.861 306.695C104.232 307.795 103.327 307.34 102.241 306.164C101.2 305.064 100.024 304.077 98.8019 303.167C96.3584 301.308 94.8199 301.422 92.7384 303.508C92.1501 304.077 91.5619 304.646 91.1094 305.329C89.9329 306.999 88.4849 307.15 86.5844 306.164C84.9554 305.291 83.2359 304.495 81.5616 303.66C79.5706 302.674 77.8511 302.901 76.3126 304.343C74.4121 306.126 72.3306 307.795 70.8374 309.882C70.0681 310.944 69.4346 310.906 68.3939 310.261C67.3079 309.578 66.1766 308.933 65.0001 308.364C64.0046 307.871 62.9186 307.757 62.2399 308.744C61.6064 309.692 62.1494 310.451 63.1449 310.982C64.7286 311.855 66.2671 312.765 67.8961 313.524C70.4301 314.738 71.9686 314.358 73.2809 312.234C74.4574 310.337 75.8601 308.554 77.4439 306.847C79.3444 304.798 79.3444 304.798 81.9236 306.088C83.6431 306.961 85.3626 307.871 87.2631 308.478C89.1636 309.047 90.7926 308.858 92.1049 307.454C92.8741 306.619 93.7339 305.785 94.5031 304.95C95.2271 304.191 95.9059 304.153 96.7204 304.874C98.4399 306.392 100.159 307.871 101.879 309.389C102.603 309.996 103.372 310.451 104.594 310.451Z" fill="#FAFAFA"/>
<path d="M146.631 259.766C146.903 263.712 146.405 267.619 145.771 271.527C144.459 271.831 144.233 272.741 143.961 273.689C142.242 279.266 139.12 284.122 133.509 287.65C125.228 292.886 113.372 292.355 105.68 286.474C98.4398 280.973 95.6343 273.803 94.0958 266.064C93.8243 264.774 94.8651 264.926 95.6343 264.774C96.4941 264.622 97.3086 264.395 97.4896 265.647C98.0778 269.63 100.024 273.234 102.286 276.724C107.128 284.16 120.748 286.93 128.622 283.857C131.563 282.719 133.735 280.973 135.273 278.659C137.898 274.752 139.482 270.579 139.482 266.064C139.482 263.181 138.758 262.65 135.319 262.688C134.866 262.688 134.414 262.688 133.825 262.688C134.052 261.777 135.002 261.36 135.454 260.715C135.952 259.994 136.359 259.273 136.676 258.477C137.038 257.604 136.043 256.314 137.174 255.859C139.074 255.138 141.156 254.721 143.192 254.379C144.233 254.19 144.097 255.214 144.323 255.745C144.957 257.187 144.866 258.856 146.631 259.766Z" fill="#F9F8F8"/>
<path d="M83.4623 275.7C86.9465 275.7 90.3403 276.307 93.5983 277.256C95.9513 281.239 99.1188 284.691 102.92 287.764C102.694 288.637 103.372 289.396 103.327 290.23C96.63 289.661 90.3855 291.065 84.2315 293C79.8423 294.403 75.453 295.921 71.109 297.4C70.0683 297.742 69.0728 298.197 68.1225 298.69C64.7288 300.549 64.4573 300.549 62.1043 297.704C61.335 296.793 60.8825 295.693 60.249 294.707C60.6563 294.024 61.2445 294.403 61.7875 294.517C68.213 295.617 74.005 290.913 72.8738 285.488C72.8285 285.185 72.6475 284.881 72.2403 284.805C72.2855 284.236 72.2855 283.667 72.4213 283.136C73.0548 280.291 72.4665 279.38 69.118 278.47C71.5615 277.749 74.0503 278.014 76.4938 277.711C78.2585 277.483 80.0685 277.407 81.8785 277.294C83.0098 277.218 83.598 276.724 83.4623 275.7Z" fill="#FAF0EC"/>
<path d="M58.0319 298.463C58.7559 299.221 59.4799 299.904 60.4754 300.435C61.5614 301.004 61.4257 301.46 60.3397 302.067C53.3259 306.05 53.0092 307.264 57.1722 313.41C58.5749 315.459 60.1587 317.431 62.0139 319.859C58.8464 318.835 56.2219 317.887 53.7332 316.635C49.8417 314.624 46.3574 312.234 43.3709 309.351C39.5699 305.709 37.3979 301.573 37.8957 296.642C38.1219 296.49 38.3934 296.338 38.5292 296.148C40.1582 294.024 40.1582 294.024 42.2397 295.655C45.5429 298.197 49.2987 299.677 53.8689 299.183C55.3169 299.032 56.6744 298.69 58.0319 298.463Z" fill="#FAF0EC"/>
<path d="M54.9095 188.102C53.914 185.333 53.3258 182.526 53.4163 179.566C53.552 176.076 54.5023 172.852 56.5385 169.817C56.9458 169.21 57.6245 168.603 56.81 167.768C52.828 163.785 53.3258 159.384 55.3168 154.945C56.086 153.238 57.2173 151.645 58.3033 150.089C58.8915 149.254 58.9368 148.723 58.077 147.965C53.2353 143.716 51.5158 138.67 53.19 132.979C56.3123 122.357 61.9685 112.759 70.204 104.223C70.4303 103.957 70.7018 103.729 71.1543 103.805C70.7923 105.323 69.48 106.423 68.575 107.713C63.5975 114.997 59.0725 122.471 56.5385 130.665C55.7693 133.207 55.4525 135.787 55.905 138.366C56.4028 141.022 57.896 143.184 60.3848 144.968C63.145 146.94 63.145 147.396 61.2898 149.899C58.7558 153.314 56.81 156.918 56.6743 161.015C56.5838 164.202 57.9413 165.833 61.5613 166.744C62.6473 167.009 62.6925 167.237 62.1948 167.958C58.4843 173.231 57.0815 178.808 58.982 184.84C59.163 185.447 58.7558 185.636 58.3485 185.902C57.172 186.661 56.0408 187.382 54.9095 188.102Z" fill="#9F908A"/>
<path d="M72.0593 102.705C73.3263 86.8852 73.824 71.0653 73.3715 55.2453C73.281 51.3757 72.5118 47.6199 69.8873 44.2435C68.756 42.8018 66.7198 42.3086 65.7695 40.867C68.756 37.9838 71.1543 38.1735 73.1 41.5499C75.091 45.0022 75.7698 48.758 76.1318 52.5138C77.1725 64.0468 76.72 75.5798 76.177 87.1128C75.996 90.5651 75.815 94.0554 75.6793 97.5077C75.4983 99.746 73.6883 101.188 72.0593 102.705Z" fill="#9F908A"/>
<path d="M90.5212 268.189C84.503 268.113 83.5075 267.581 81.6522 262.725C79.797 257.794 78.2585 252.786 76.5842 247.854C76.358 247.133 76.2675 246.412 75.3625 245.957C73.3715 244.933 73.1 243.264 73.5977 241.632C74.9552 237.08 78.3037 233.514 82.0142 230.175C83.055 229.265 84.503 228.771 85.408 230.517C82.9192 233.969 80.4757 237.421 77.9417 240.874C77.1272 241.974 77.0367 243.036 77.5797 244.25C80.2947 250.13 82.9645 256.011 85.6342 261.891C86.1772 263.067 86.8107 264.281 88.2587 264.584C90.7927 265.116 90.7475 266.557 90.5212 268.189Z" fill="#937234"/>
<path d="M33.1894 302.105C30.5649 299.487 28.2571 297.362 26.5376 294.821C25.6779 293.569 26.1756 292.317 27.2164 291.33C28.4381 290.116 28.2119 289.092 27.0806 287.954C25.4969 286.361 23.9584 284.691 22.8272 282.832C21.6054 280.784 22.1484 279.835 24.7276 279.19C24.8181 279.19 24.8634 279.152 24.9539 279.152C29.8409 277.976 30.3839 278.242 31.7866 282.301C31.9676 282.832 32.1487 283.401 32.3297 283.933C33.4157 286.702 34.1849 289.396 33.1441 292.393C32.1486 295.352 32.6011 298.463 33.1894 302.105Z" fill="#ECCE5D"/>
<path d="M138.486 219.629C141.337 219.097 142.152 220.842 142.966 222.512C145.274 227.254 146.903 232.186 148.532 237.08C149.527 240.115 150.613 243.112 151.337 246.223C152.107 249.447 151.88 252.331 148.984 254.797C147.763 254.455 147.536 253.355 147.627 252.672C148.396 248.271 146.586 244.212 145.364 240.115C143.419 233.514 140.432 227.178 138.622 220.577C138.577 220.273 138.532 219.932 138.486 219.629Z" fill="#937234"/>
<path d="M213.601 275.966C214.054 272.893 215.683 270.085 216.588 267.126C217.9 262.877 219.71 258.742 220.162 254.341C220.253 253.545 220.298 252.71 220.343 251.913C224.416 250.775 227.402 252.634 226.859 256.2C226.045 261.853 222.696 266.633 218.76 271.148C217.312 272.893 215.818 274.752 213.601 275.966Z" fill="#9F908A"/>
<path d="M54.5926 292.658C50.8821 293.417 47.8051 292.506 45.1806 290.534C39.6601 286.361 36.8546 280.898 35.0446 275.017C33.6871 270.616 33.7776 270.616 39.2076 270.73C39.5696 270.73 39.9316 270.806 40.2936 270.806C39.4791 274.903 39.4791 274.903 45.4521 276.193C41.0629 279.456 43.6874 282.794 45.2259 286.057C46.9001 289.661 49.7961 292.089 54.5926 292.658Z" fill="#F9F8F8"/>
<path d="M62.104 236.283C63.3258 235.676 64.4118 235.828 65.2715 236.814C66.9458 238.711 69.344 240.191 69.9322 242.732C71.6065 249.599 71.0635 256.39 70.1133 263.257C69.706 266.14 68.3938 267.999 65.1358 268.871C64.1855 267.695 63.6878 266.709 65.0453 265.267C66.3575 263.864 66.3123 261.815 66.5838 260.032C67.172 255.29 67.6245 250.548 68.077 245.805C68.2128 244.478 67.6698 243.339 66.81 242.239C65.2715 240.229 63.6878 238.256 62.104 236.283Z" fill="#937234"/>
<path d="M99.2092 319.328C102.15 320.542 104.956 321.946 108.712 322.894C98.2137 324.26 88.3492 324.905 78.4395 323.501C78.5752 322.705 79.3445 322.401 79.978 321.946C83.96 319.366 88.5755 319.214 93.3267 319.556C95.2725 319.67 97.3087 320.239 99.2092 319.328Z" fill="#FAF0EC"/>
<path d="M99.2091 319.328C97.3086 320.239 95.2723 319.67 93.3266 319.556C88.5753 319.214 84.0051 319.366 79.9778 321.946C79.3443 322.363 78.5751 322.705 78.4393 323.501C77.4891 323.388 76.5388 323.274 75.3623 323.122C77.2176 320.428 78.9823 317.925 81.4258 315.762C83.6431 313.789 86.2223 313.296 89.2088 314.358C92.7836 315.648 96.0868 317.355 99.2091 319.328Z" fill="#9F908A"/>
<path d="M141.744 284.805C143.011 286.626 142.061 288.257 140.93 289.699C136.631 295.086 130.658 297.894 122.83 297.704C121.472 296.452 120.205 295.162 118.531 294.138C127.038 294.783 133.735 292.013 139.346 287.043C140.16 286.285 140.93 285.526 141.744 284.805Z" fill="#9F908A"/>
<path d="M123.644 281.808C128.712 277.749 128.984 272.665 129.889 267.847C130.16 266.443 130.703 266.026 132.287 266.178C133.011 266.254 133.78 266.216 134.549 266.178C135.545 266.14 135.952 266.481 135.862 267.316C135.228 271.906 133.961 276.307 129.979 279.721C128.441 280.973 126.54 281.732 123.644 281.808Z" fill="#91573E"/>
<path d="M212.832 249.979C212.379 248.689 213.375 247.854 214.235 246.981C218.805 242.429 221.475 237.156 222.696 231.351C224.235 231.237 224.823 232.11 225.23 233.096C226 234.955 226.045 236.776 225.23 238.635C223.556 242.353 220.751 245.312 216.904 247.626C215.592 248.423 214.189 249.182 212.832 249.979Z" fill="#9F908A"/>
<path d="M58.0315 298.463C56.674 298.728 55.2713 299.07 53.8685 299.221C49.2983 299.715 45.4973 298.273 42.2393 295.693C40.1578 294.062 40.1578 294.062 38.5288 296.186C38.393 296.376 38.1215 296.528 37.8953 296.68C37.3523 294.214 38.3478 291.975 39.3433 289.433C40.203 290.192 40.8818 290.837 41.5605 291.444C45.2258 294.821 49.615 296.642 55.1808 296.035C57.2623 295.769 57.1265 297.59 58.0315 298.463Z" fill="#9F908A"/>
<path d="M72.1499 284.805C72.5572 284.881 72.7381 285.184 72.7834 285.488C73.9146 290.913 68.1679 295.617 61.6971 294.517C61.1541 294.403 60.5659 294.062 60.1587 294.707C59.1179 292.962 58.6654 291.103 58.0771 288.94C59.1631 289.32 59.9777 289.623 60.8374 289.889C65.8149 291.444 69.0729 290.23 71.1544 286.133C71.4711 285.716 71.3807 285.033 72.1499 284.805Z" fill="#9F908A"/>
<path d="M53.4162 289.775C51.1084 289.092 49.7057 287.992 48.7102 286.55C47.5789 284.919 46.7192 283.136 45.9499 281.353C45.4069 280.139 45.8594 279.152 46.7644 278.204C47.4432 277.483 47.8957 277.445 48.3482 278.318C49.4342 280.518 50.8369 282.491 53.0542 284.008C53.4162 284.236 53.5067 284.54 53.3709 284.843C52.7827 286.399 53.1447 287.954 53.4162 289.775Z" fill="#91573E"/>
<path d="M69.4348 282.605C69.3443 284.312 68.2583 285.716 67.2175 287.081C66.6293 287.878 65.498 288.219 64.4573 288.106C62.421 287.878 60.5205 287.271 58.9368 286.133C58.1675 285.564 57.6245 284.881 58.439 284.008C61.335 285.147 64.1405 285.109 66.8103 283.477C67.5343 283.022 68.394 282.491 69.4348 282.605Z" fill="#513123"/>
<path d="M69.4347 282.605C68.394 282.491 67.5342 283.022 66.8102 283.477C64.1405 285.109 61.3802 285.147 58.439 284.008C58.7557 281.884 60.8372 281.808 62.6925 281.467C64.2762 281.163 65.9052 280.822 67.489 280.784C68.6655 280.784 70.6112 280.67 69.4347 282.605Z" fill="#91573E"/>
<path d="M29.1172 209.31C30.2032 209.347 30.7914 208.627 31.5154 208.171C32.4657 207.564 33.3707 207.261 34.5472 207.451C33.2349 209.765 31.9227 212.079 30.4747 214.621C29.7507 212.724 29.4339 211.017 29.1172 209.31Z" fill="#9F908A"/>
<path d="M123.689 275.738C123.553 276.914 122.92 277.938 121.155 277.976C119.662 278.014 118.983 277.218 119.028 276.042C119.074 274.562 120.341 273.955 121.879 273.879C123.146 273.803 123.689 274.562 123.689 275.738Z" fill="#91573E"/>
<path d="M130.16 260.335C129.3 259.728 129.165 258.628 129.391 258.021C129.753 256.997 131.337 257.187 132.423 256.883C133.056 256.693 133.147 257.149 133.056 257.566C132.92 258.476 130.975 260.411 130.16 260.335Z" fill="#91573E"/>
<path d="M45.4523 272.058C45.1355 272.665 46.0858 273.841 44.321 273.765C43.3255 273.727 42.4658 273.5 42.7373 272.437C42.9183 271.603 42.692 270.465 44.4115 270.427C45.95 270.389 45.1808 271.451 45.4523 272.058Z" fill="#91573E"/>
<path d="M103.282 290.268C103.327 289.433 102.648 288.675 102.874 287.802C104.458 288.751 106.042 289.699 107.671 290.647C107.626 290.761 107.58 290.837 107.535 290.951C106.132 290.685 104.73 290.458 103.282 290.268Z" fill="#9F908A"/>
<path d="M56.0859 278.318C55.9954 278.849 55.5429 279.039 54.9999 279.077C54.3664 279.077 54.0044 278.811 54.0497 278.28C54.0497 277.787 54.2759 277.369 54.9547 277.369C55.5429 277.407 55.9502 277.787 56.0859 278.318Z" fill="#513123"/>
<path d="M71.1091 103.805C71.0186 103.198 71.2449 102.781 72.0141 102.705C72.0594 103.236 71.8331 103.692 71.1091 103.805Z" fill="#9F908A"/>
<path d="M29.3431 275.89C29.7051 276.383 29.4789 276.497 28.8906 276.345C29.0264 276.193 29.1621 276.042 29.3431 275.89Z" fill="#FEFEFE"/>
<path d="M199.167 210.486C197.673 211.206 196.587 210.827 195.954 209.537C194.823 207.261 192.967 205.326 191.474 203.24C192.786 201.456 191.474 200.091 190.433 198.725C184.596 191.137 177.085 184.954 168.397 179.68C167.492 179.149 166.406 178.77 165.772 177.935C167.944 176.645 167.537 174.748 167.311 172.965C167.039 170.879 166.089 168.944 164.912 167.085C164.415 166.326 164.369 165.833 165.184 165.112C168.442 162.229 169.256 158.739 168.487 154.907C167.899 151.91 166.089 149.33 163.962 146.94C163.012 145.84 163.012 145.233 164.053 144.057C169.302 137.949 171.881 131.348 169.075 123.76C167.13 118.487 163.736 113.935 159.89 109.534C153.464 102.212 146.36 95.4591 137.31 90.3375C136.495 89.8823 136.269 89.3132 136.224 88.5924C135.952 85.823 135.726 83.0535 135.319 80.322C133.735 69.434 132.604 58.47 132.83 47.5061C132.921 41.474 133.871 35.5558 136.903 29.979C137.446 28.9926 137.989 28.5753 139.165 28.6891C141.563 29.372 143.283 30.7756 144.731 32.407C152.107 40.6773 158.17 49.6306 162.967 59.115C171.564 75.9971 178.216 93.4484 184.822 110.938C192.877 132.296 199.031 153.959 201.158 176.304C202.198 187.761 201.158 199.142 199.167 210.486Z" fill="#FBF1EE"/>
<path d="M165.817 177.897C166.451 178.732 167.537 179.111 168.442 179.642C177.13 184.916 184.641 191.1 190.478 198.687C191.519 200.015 192.831 201.419 191.519 203.202C189.8 203.619 188.804 202.822 187.99 201.76C181.021 192.389 171.338 185.371 160.478 179.339C156.179 176.949 151.609 175.09 146.405 174.407C145.409 174.293 144.369 174.066 144.459 172.965C144.504 171.827 145.59 171.751 146.586 171.713C149.663 171.6 152.514 172.51 155.319 173.459C156.903 173.99 158.441 174.673 160.387 175.431C159.844 170.272 157.536 166.137 153.283 162.798C152.468 162.153 151.563 161.584 150.749 160.939C149.98 160.332 149.391 159.536 150.206 158.777C151.066 157.942 151.79 158.815 152.514 159.232C153.645 159.877 154.686 160.636 155.817 161.205C156.677 161.622 157.129 162.988 158.26 162.495C159.799 161.774 161.337 160.863 161.699 159.156C161.926 158.132 161.926 157.108 161.564 156.159C160.206 152.479 158.351 149.065 155.002 146.371C151.971 143.905 148.803 141.553 145.726 139.125C144.957 138.518 143.871 137.873 144.866 136.925C145.817 136.052 146.812 136.735 147.627 137.304C149.799 138.86 151.925 140.453 154.052 142.084C154.776 142.653 155.183 142.729 156.088 142.198C164.776 137.342 165.184 130.513 161.835 124.254C156.722 114.807 149.12 106.802 140.07 99.8219C136.631 97.1663 132.966 94.7383 129.391 92.1965C128.803 91.7791 128.26 91.3618 127.717 90.9066C127.128 90.4134 126.993 89.7685 127.49 89.1615C127.943 88.5924 128.667 88.6303 129.346 88.82C129.843 88.9718 130.296 89.1994 130.975 89.5029C130.477 85.9747 130.115 82.5983 129.481 79.2598C128.395 73.2656 128.214 67.1956 127.762 61.1636C127.264 54.4866 126.993 47.7716 127.4 41.0946C127.626 37.263 128.214 33.4313 130.024 29.8272C132.242 25.5023 136.043 24.2504 141.201 26.1852C144.052 27.2475 146.179 28.9926 148.034 31.0412C155.681 39.653 161.79 49.0236 166.632 58.9253C179.03 84.4193 189.302 110.558 197.221 137.266C200.976 150.013 203.601 162.988 204.642 176.114C205.456 186.585 205.049 197.094 203.239 207.489C202.877 209.613 202.786 211.775 202.062 213.862C201.836 214.507 201.655 215.114 200.705 215.114C199.755 215.114 199.8 214.431 199.528 213.938C198.94 212.838 199.574 211.662 199.257 210.561C201.248 199.218 202.289 187.837 201.203 176.418C199.076 154.035 192.922 132.372 184.867 111.051C178.261 93.5622 171.609 76.111 163.012 59.2288C158.17 49.7444 152.152 40.7911 144.776 32.5208C143.328 30.8895 141.608 29.4478 139.21 28.8029C136.269 27.7027 134.685 28.0821 133.282 30.3204C132.332 31.8379 131.789 33.5071 131.427 35.1764C130.205 41.1326 129.934 47.0888 130.477 53.0829C131.065 59.7599 131.427 66.4369 131.88 73.1139C132.242 78.5769 133.644 84.0019 133.328 89.5408C133.237 90.7548 133.69 91.4756 134.821 92.2344C141.292 96.4075 147.219 101.074 152.287 106.461C157.446 112 162.559 117.577 165.591 124.178C169.166 131.955 166.903 139.239 159.211 144.361C158.17 145.081 158.17 145.385 158.984 146.219C161.971 149.217 164.052 152.631 165.048 156.463C165.908 159.611 164.822 162.267 161.518 164.012C159.98 164.809 160.206 165.416 160.93 166.516C162.65 169.058 164.324 171.789 163.419 174.748C162.604 176.835 163.781 177.442 165.817 177.897Z" fill="#070704"/>
<path d="M104.594 310.451C103.372 310.413 102.603 309.958 101.879 309.351C100.159 307.833 98.3945 306.354 96.7203 304.836C95.9058 304.115 95.227 304.153 94.503 304.912C93.7338 305.747 92.874 306.581 92.1048 307.416C90.7925 308.82 89.1635 309.009 87.263 308.44C85.3625 307.833 83.643 306.923 81.9235 306.05C79.3443 304.76 79.3443 304.76 77.4438 306.809C75.86 308.516 74.4573 310.299 73.2808 312.196C71.9685 314.321 70.43 314.662 67.896 313.486C66.267 312.727 64.7285 311.817 63.1448 310.944C62.1493 310.413 61.561 309.654 62.2398 308.706C62.9185 307.719 64.0045 307.833 65 308.326C66.1765 308.895 67.3078 309.54 68.3938 310.223C69.4345 310.868 70.068 310.906 70.8373 309.844C72.2853 307.757 74.412 306.088 76.3125 304.305C77.851 302.863 79.5705 302.636 81.5615 303.622C83.2358 304.457 84.9553 305.253 86.5843 306.126C88.4395 307.112 89.9328 306.961 91.1093 305.291C91.5618 304.646 92.1953 304.077 92.7383 303.47C94.8198 301.384 96.3583 301.27 98.8018 303.129C100.024 304.077 101.2 305.064 102.241 306.126C103.327 307.302 104.277 307.757 105.861 306.657C107.083 305.823 108.531 305.253 109.933 304.646C112.377 303.584 115.68 304.95 116.314 307.226C116.449 307.644 116.359 307.985 115.906 308.213C115.409 308.44 114.82 308.402 114.458 308.023C112.694 306.278 111.155 307.302 109.571 308.213C107.988 309.161 106.494 310.299 104.594 310.451Z" fill="#070704"/>
<path d="M165.817 177.897C163.826 177.442 162.65 176.835 163.328 174.635C164.279 171.638 162.604 168.944 160.84 166.402C160.116 165.302 159.889 164.695 161.428 163.898C164.731 162.191 165.817 159.536 164.957 156.349C163.917 152.517 161.88 149.103 158.894 146.106C158.079 145.271 158.079 144.967 159.12 144.247C166.767 139.125 169.075 131.841 165.5 124.064C162.423 117.425 157.355 111.848 152.197 106.347C147.129 100.96 141.201 96.2937 134.73 92.1206C133.599 91.3618 133.192 90.641 133.237 89.427C133.554 83.9261 132.151 78.501 131.789 73.0001C131.337 66.3231 130.975 59.6461 130.386 52.9691C129.843 46.937 130.115 40.9808 131.337 35.0626C131.699 33.3933 132.196 31.7241 133.192 30.2066C134.595 27.9682 136.224 27.5509 139.12 28.6891C137.898 28.5752 137.355 28.9926 136.857 29.9789C133.825 35.5557 132.92 41.474 132.785 47.5061C132.604 58.5079 133.69 69.4339 135.273 80.322C135.681 83.0914 135.907 85.8609 136.178 88.5924C136.269 89.3132 136.495 89.8822 137.264 90.3375C146.314 95.459 153.419 102.212 159.844 109.534C163.69 113.935 167.084 118.525 169.03 123.76C171.881 131.31 169.256 137.949 164.007 144.057C163.012 145.233 162.966 145.878 163.917 146.94C166.043 149.33 167.853 151.91 168.442 154.907C169.211 158.701 168.396 162.229 165.138 165.112C164.324 165.833 164.414 166.364 164.867 167.085C166.043 168.944 166.994 170.879 167.265 172.965C167.582 174.71 167.944 176.607 165.817 177.897Z" fill="#9F908A"/>
<path d="M52.3635 439.732C71.6301 439.694 90.8968 439.807 110.163 439.58C142.803 439.162 175.398 439.428 208.038 439.314C209.353 439.314 210.803 439.087 211.846 440.111C210.713 441.628 211.846 442.577 213.07 443.525C220.505 449.254 227.441 455.4 234.195 461.697C237.459 464.732 240.497 467.995 244.486 470.689C242.763 471.144 241.222 471.523 239.681 471.903C229.027 474.52 218.011 474.71 206.995 475.013C206.723 474.9 206.497 474.672 206.225 474.634C195.934 473.572 186.051 471.068 176.259 468.374C174.219 467.805 172.27 466.895 170.094 466.781C164.835 464.543 159.531 462.304 154.273 460.066C152.958 459.497 151.643 459.042 150.374 460.18C149.83 460.218 149.331 460.218 148.787 460.332C134.507 463.367 120.091 463.822 105.494 462.153C103.862 461.963 102.139 461.014 100.371 461.925C99.5101 461.963 98.6488 462.039 97.7422 462.077C96.5182 461.849 95.5661 462.342 94.6595 462.911C89.8088 465.984 85.0488 469.171 80.4701 472.51C78.1128 474.217 75.3928 475.658 73.6248 477.859C69.0008 478.921 64.2408 479.187 59.5261 479.376C51.5928 479.68 43.7048 479.187 35.8168 478.617C30.3768 478.238 24.8915 477.669 19.6328 476.303C19.6781 476.152 19.6782 476 19.7235 475.924C28.7902 464.277 37.8115 452.592 50.5502 443.336C51.8195 442.425 52.7715 441.325 52.3635 439.732Z" fill="#EDD05E"/>
<path d="M97.7421 462.077C98.6034 462.039 99.4647 461.963 100.371 461.925C103.182 462.911 106.219 462.911 109.166 463.367C122.222 465.453 135.187 465.339 148.107 462.57C149.83 462.191 150.601 461.621 150.329 460.18C151.598 459.042 152.913 459.497 154.227 460.066C159.486 462.304 164.79 464.543 170.049 466.781C170.275 467.312 170.955 467.426 171.454 467.654C176.713 470.347 182.878 471.713 187.457 475.355C187.683 475.545 188.137 475.582 188.499 475.62C194.665 475.772 200.83 475.924 206.95 475.013C217.921 474.672 228.937 474.52 239.635 471.903C241.177 471.523 242.763 471.106 244.441 470.689C240.451 467.995 237.414 464.77 234.15 461.697C227.395 455.4 220.459 449.254 213.025 443.525C211.801 442.615 210.667 441.628 211.801 440.111C213.206 439.656 214.249 440.263 215.291 440.946C225.537 447.736 234.241 455.779 242.627 464.087C243.761 465.188 244.894 466.288 245.891 467.464C246.435 468.109 246.934 468.374 247.886 468.412C250.515 468.45 252.283 469.626 253.19 471.637C254.233 473.951 255.139 476.265 255.049 478.807C254.913 482.222 254.097 483.398 250.334 484.953C252.782 486.774 255.23 488.519 257.633 490.302C258.766 491.137 259.899 492.009 260.851 492.958C263.39 495.386 262.665 497.472 258.902 498.269C256.59 498.762 254.142 499.104 251.739 499.18C234.377 499.862 217.014 499.293 199.697 498.838C195.163 498.724 194.121 497.776 193.305 494.058C193.259 493.755 193.123 493.451 193.123 493.11C193.033 491.327 192.443 490.568 189.905 491.137C186.913 491.82 184.465 490.72 182.923 488.367C181.246 485.826 179.886 483.132 178.889 480.363C178.073 478.086 178.345 477.214 180.249 475.279C172.179 472.092 164.427 468.45 156.63 464.884C155.633 464.429 154.771 464.656 153.819 464.922C146.929 466.629 139.947 467.919 132.739 468.223C124.398 468.564 116.147 467.957 107.987 466.477C107.262 466.364 106.627 466.06 105.902 466.591C100.779 470.385 94.6141 472.889 89.1741 476.265C87.4061 477.366 85.6834 478.466 83.9154 479.528C82.9634 480.097 82.6461 480.666 83.1447 481.728C84.0061 483.587 83.8701 485.56 83.4621 487.533C82.8274 490.757 80.4701 492.541 76.7527 493.11C75.7101 493.261 75.3021 493.489 74.9847 494.399C73.9874 497.283 72.0381 499.142 68.0488 499.407C56.3528 500.242 44.7021 500.356 33.0061 500.128C24.6194 499.976 16.2781 499.483 7.93675 498.876C6.21408 498.762 4.49142 498.611 2.76875 498.307C1.59008 498.117 0.366081 497.776 0.0940807 496.562C-0.223253 495.272 0.774082 494.551 1.81675 493.906C3.90208 492.654 5.98741 491.478 8.29941 490.15C4.94474 488.747 5.26208 486.319 5.67008 483.891C6.07808 481.577 6.66742 479.3 7.71008 477.138C9.07008 474.331 11.1101 473.268 14.6461 473.913C16.4594 474.255 17.0941 473.648 17.8647 472.51C25.3901 461.356 34.0488 450.885 45.2008 442.008C46.2434 441.173 47.3314 440.376 48.4647 439.694C49.7341 438.935 51.0941 438.707 52.3634 439.732C52.7714 441.287 51.8194 442.387 50.5047 443.336C37.8114 452.592 28.7901 464.277 19.6781 475.924C19.5874 476.038 19.6328 476.152 19.5874 476.303C24.8461 477.669 30.3314 478.2 35.7714 478.617C43.6594 479.187 51.5928 479.68 59.4808 479.376C64.1954 479.187 68.9554 478.921 73.5794 477.859C75.6194 477.897 77.6594 477.859 79.6541 477.935C80.3341 477.973 80.7874 477.783 81.2408 477.403C84.1874 475.013 87.5874 473.154 90.8967 471.182C94.1607 469.209 97.4701 467.312 100.87 465.301C97.5607 463.898 97.5608 463.898 97.7421 462.077ZM257.678 495.006C254.142 492.351 250.923 490.226 248.113 487.798C246.027 485.939 243.942 484.725 240.769 485.219C240.089 485.332 239.363 485.143 239.182 484.46C238.955 483.701 239.635 483.322 240.315 483.018C241.539 482.449 242.945 482.487 244.259 482.297C250.198 481.463 250.969 480.476 249.427 475.507C249.337 475.279 249.201 475.013 249.155 474.786C248.929 473.572 248.385 473.23 246.843 473.686C244.531 474.406 242.083 474.938 239.681 475.469C224.675 478.693 209.307 477.935 194.03 478.2C191.083 478.238 188.001 478.2 185.009 477.707C183.241 477.403 182.697 478.086 183.195 479.566C184.057 481.994 185.326 484.27 186.731 486.508C187.321 487.457 188.182 487.836 189.451 487.912C192.171 488.026 194.891 487.988 197.611 487.722C198.563 487.647 199.606 487.419 199.833 488.405C200.059 489.43 198.835 489.468 198.065 489.771C197.385 490.037 196.297 489.847 196.07 490.682C195.39 493.034 197.883 495.727 200.785 495.765C208.174 495.803 215.563 495.651 222.998 495.803C232.337 496.031 241.675 496.372 251.059 495.765C253.054 495.651 255.049 495.424 257.678 495.006ZM5.26208 496.183C10.5208 496.41 15.7794 496.752 21.0381 496.865C34.2301 497.131 47.4674 496.941 60.6594 496.486C63.1527 496.41 65.6008 496.031 68.0941 495.803C69.4541 495.689 70.0434 494.779 70.3154 493.868C70.6328 492.768 69.3181 493.299 68.7741 492.996C68.1394 492.654 67.4594 492.351 67.4594 491.592C67.4594 490.871 68.0034 490.34 68.7288 490.188C70.4061 489.847 72.1287 489.581 73.8061 489.354C77.9314 488.785 79.0647 487.685 79.0647 484.156C79.0647 483.777 79.0194 483.398 79.0647 483.018C79.2914 481.539 78.5207 481.159 76.8434 481.311C72.1741 481.652 67.5501 482.146 62.8354 482.184C56.5794 482.259 50.3234 481.918 44.0674 481.387C37.3128 480.818 30.6034 480.287 23.9394 479.187C21.3554 478.769 18.8167 478.238 16.2327 477.745C12.8327 477.062 12.0168 477.403 11.2008 480.173C10.7021 481.804 10.4754 483.511 9.97675 485.181C9.65942 486.319 10.2034 486.85 11.4274 487.115C12.9688 487.457 14.5101 487.798 15.9608 488.216C16.8221 488.481 17.5474 489.012 17.3661 489.923C17.2301 490.72 16.5501 491.061 15.6434 491.213C11.6994 491.971 8.48075 493.982 5.26208 496.183Z" fill="#060504"/>
<path d="M97.7419 462.077C97.6059 463.898 97.6059 463.898 100.961 465.339C97.5606 467.35 94.2513 469.247 90.9873 471.22C87.6779 473.192 84.2779 475.051 81.3313 477.441C80.8779 477.821 80.3793 477.972 79.7446 477.972C77.7046 477.897 75.6646 477.897 73.6699 477.897C75.4379 475.658 78.1579 474.255 80.5153 472.547C85.0939 469.171 89.8086 465.984 94.7046 462.949C95.5659 462.342 96.5179 461.849 97.7419 462.077Z" fill="#927233"/>
<path d="M150.329 460.18C150.556 461.621 149.785 462.191 148.108 462.57C135.188 465.301 122.177 465.415 109.166 463.367C106.22 462.911 103.182 462.911 100.372 461.925C102.14 461.014 103.817 461.963 105.494 462.153C120.092 463.822 134.508 463.367 148.788 460.332C149.241 460.218 149.785 460.218 150.329 460.18Z" fill="#8F7032"/>
<path d="M206.95 475.013C200.83 475.924 194.665 475.772 188.499 475.62C188.137 475.62 187.684 475.544 187.457 475.355C182.833 471.713 176.668 470.385 171.454 467.653C170.956 467.388 170.275 467.312 170.049 466.781C172.27 466.895 174.174 467.805 176.214 468.374C186.006 471.068 195.889 473.572 206.179 474.634C206.451 474.672 206.678 474.9 206.95 475.013Z" fill="#917133"/>
<path d="M257.678 495.006C255.049 495.424 253.054 495.651 251.014 495.765C241.675 496.334 232.337 495.993 222.953 495.803C215.563 495.613 208.174 495.765 200.739 495.765C197.838 495.765 195.345 493.072 196.025 490.682C196.251 489.847 197.339 490.037 198.019 489.771C198.79 489.468 200.014 489.43 199.787 488.405C199.561 487.419 198.518 487.647 197.566 487.722C194.846 487.95 192.171 488.026 189.406 487.912C188.137 487.836 187.275 487.457 186.686 486.508C185.281 484.27 184.011 481.956 183.15 479.566C182.606 478.086 183.15 477.403 184.963 477.707C187.955 478.2 190.993 478.276 193.985 478.2C209.262 477.935 224.63 478.693 239.635 475.469C242.038 474.937 244.441 474.406 246.798 473.686C248.339 473.23 248.883 473.572 249.11 474.786C249.155 475.051 249.291 475.279 249.382 475.507C250.923 480.476 250.153 481.425 244.214 482.297C242.899 482.487 241.494 482.487 240.27 483.018C239.59 483.322 238.955 483.701 239.137 484.46C239.318 485.143 240.043 485.332 240.723 485.219C243.897 484.725 245.982 485.977 248.067 487.798C250.969 490.264 254.142 492.389 257.678 495.006Z" fill="#945940"/>
<path d="M5.26221 496.182C8.52621 493.982 11.6995 491.971 15.7342 491.289C16.6409 491.137 17.3209 490.795 17.4569 489.999C17.6382 489.088 16.9129 488.557 16.0515 488.291C14.5555 487.836 13.0142 487.533 11.5182 487.191C10.2942 486.926 9.75021 486.395 10.0675 485.256C10.5662 483.587 10.7929 481.88 11.2915 480.249C12.1075 477.517 12.9235 477.176 16.3235 477.821C18.9075 478.314 21.4462 478.845 24.0302 479.262C30.6942 480.363 37.4489 480.894 44.1582 481.463C50.4142 481.994 56.6249 482.335 62.9262 482.259C67.5955 482.221 72.2649 481.728 76.9342 481.387C78.6115 481.273 79.3822 481.652 79.1555 483.094C79.1102 483.473 79.1555 483.853 79.1555 484.232C79.1555 487.76 77.9769 488.861 73.8969 489.43C72.1742 489.657 70.4969 489.923 68.8195 490.264C68.0489 490.416 67.5502 490.947 67.5502 491.668C67.5502 492.427 68.2302 492.692 68.8649 493.072C69.4089 493.375 70.7235 492.844 70.4062 493.944C70.1342 494.855 69.5449 495.727 68.1849 495.879C65.6915 496.107 63.2435 496.486 60.7502 496.562C47.5582 497.017 34.3209 497.207 21.1289 496.941C15.7795 496.752 10.5209 496.41 5.26221 496.182Z" fill="#955A40"/>
<path d="M172.517 373.674C170.472 374.255 168.39 373.919 166.418 373.522C159.735 372.116 153.125 372.177 146.405 373.43C143.958 373.888 141.365 373.552 138.918 374.408C136.508 375.264 135.01 376.7 134.353 378.656C133.257 381.988 132.71 385.349 135.339 388.467C135.704 388.895 135.485 389.2 135.339 389.598C133.915 393.754 135.741 397.177 138.882 400.233C139.356 400.692 139.722 400.967 139.539 401.639C137.895 407.477 143.374 412.092 150.093 412.122C151.883 412.122 152.504 412.245 152.066 413.956C151.591 415.943 151.773 417.99 152.394 420.007C154.476 426.701 163.898 429.971 171.056 426.517C174.453 424.867 175.585 422.544 174.489 419.427C174.088 418.265 173.467 417.135 172.919 416.034C171.933 414.078 172.152 412.153 173.211 410.289C173.649 409.494 174.307 409.127 175.548 409.372C179.493 410.105 183.473 410.35 187.491 410.35C189.938 410.35 190.668 409.83 191.471 407.905C192.677 404.909 194.43 402.801 197.096 400.814C204.217 395.527 207.321 388.803 206.92 380.948C206.335 369.854 199.871 361.266 190.193 354.176C183.218 349.072 175.147 345.618 165.98 344.12C164.848 343.937 163.679 343.876 162.547 343.937C161.817 343.968 161.196 344.151 161.123 344.854C161.05 345.496 161.415 345.954 162.109 346.168C163.022 346.443 163.935 346.657 164.884 346.902C181.428 350.508 193.736 358.424 200.309 371.841C203.998 379.359 204.035 386.939 198.812 394.121C197.351 396.23 195.343 397.88 192.969 399.653C193.188 395.618 192.677 391.92 191.837 388.283C191.398 386.297 190.741 384.371 190.193 382.385C188.586 379.451 187.491 376.303 185.628 373.461C184.496 371.718 183.4 371.321 181.355 372.085C178.507 373.124 175.548 373.522 172.517 373.674ZM156.046 391.309C158.53 393.387 157.836 396.26 154.622 397.208C152.504 397.849 150.276 398.186 148.085 398.461C141.949 399.286 140.16 398.308 138.589 393.235C138.553 392.929 138.48 392.623 138.443 392.348C138.005 390.423 138.297 390.087 140.635 390.178C143.702 390.27 146.624 389.72 149.619 389.353C152.066 389.047 154.184 389.995 156.046 391.309ZM158.238 401.395C160.575 401.945 160.94 402.464 160.064 404.329C158.676 407.232 156.046 408.883 152.394 409.31C146.916 409.983 142.789 407.446 142.424 403.259C141.803 401.914 142.388 401.395 144.067 401.456C146.989 401.578 149.874 401.364 152.65 400.57C154.732 399.989 156.485 400.447 158.238 401.395ZM157.178 375.233C158.457 375.141 159.735 375.355 160.94 375.661C167.879 377.525 174.562 376.486 181.246 374.683C182.305 374.408 182.67 374.714 182.999 375.417C185.592 380.643 187.819 385.961 188.805 391.584C189.609 396.23 190.12 400.875 188.951 405.521C188.44 407.568 188.367 407.538 185.957 407.354C182.378 407.11 178.835 406.804 175.293 406.376C173.905 406.193 172.627 406.56 171.641 407.416C168.646 409.922 168.025 412.947 169.121 416.279C169.522 417.501 170.143 418.663 170.764 419.824C171.86 421.933 170.362 423.95 167.733 423.828C167.55 423.95 167.404 424.164 167.185 424.194C162.839 424.928 157.982 423.278 156.594 419.549C155.718 417.257 156.119 414.934 156.046 412.611C156.01 411.786 156.375 411.328 157.251 410.93C160.319 409.555 162.328 407.416 163.35 404.573C164.373 401.731 163.46 399.989 160.137 398.95C159.26 398.675 158.931 398.461 159.552 397.697C161.89 394.763 160.648 388.497 155.608 387.489C157.763 384.035 158.676 380.582 155.754 377.036C155.279 376.486 154.038 375.967 154.439 375.417C154.951 374.805 156.229 375.233 157.178 375.233ZM142.534 387.336C139.137 387.336 137.895 386.755 137.494 385.227C136.873 382.843 137.129 380.49 138.078 378.198C138.261 377.77 138.48 377.373 138.955 377.067C142.607 374.897 150.495 375.967 153.125 378.962C155.535 381.743 153.965 385.502 149.984 386.297C147.318 386.816 144.652 387.214 142.534 387.336Z" fill="#050404"/>
<path d="M198.775 394.121C203.998 386.908 203.961 379.359 200.273 371.841C193.699 358.424 181.391 350.508 164.848 346.902C164.957 348.124 166.418 348.583 167.075 349.561C169.12 352.77 170.508 356.193 171.385 359.738C172.553 364.353 172.626 369.029 172.517 373.705C175.548 373.522 178.506 373.155 181.318 372.116C183.364 371.352 184.459 371.749 185.591 373.491C187.417 376.364 188.549 379.481 190.156 382.415C192.202 384.402 193.553 386.786 195.306 388.895C196.694 390.576 197.132 392.623 198.775 394.121Z" fill="#ECCE5D"/>
<path d="M167.733 423.858C170.326 423.981 171.86 421.963 170.764 419.855C170.143 418.693 169.522 417.532 169.121 416.309C168.025 413.009 168.646 409.983 171.641 407.446C172.663 406.59 173.905 406.224 175.293 406.407C178.835 406.835 182.414 407.141 185.957 407.385C188.367 407.568 188.44 407.568 188.951 405.551C190.12 400.906 189.609 396.23 188.805 391.615C187.819 385.991 185.628 380.673 182.999 375.447C182.633 374.744 182.268 374.408 181.246 374.714C174.599 376.517 167.879 377.525 160.94 375.692C159.735 375.386 158.457 375.172 157.178 375.264C157.653 376.608 159.224 377.22 160.1 378.289C162.364 380.979 164.446 383.852 167.587 385.899C169.595 387.183 170.91 388.803 172.152 390.576C172.7 391.37 173.284 392.165 173.978 392.837C175.84 394.579 175.621 396.963 173.101 398.461C172.152 399.041 171.129 399.622 170.435 400.508C168.062 403.534 164.811 406.04 162.912 409.341C162.364 410.258 161.524 410.991 160.392 411.48C159.37 411.939 159.26 412.55 159.443 413.498C160.356 417.96 162.693 421.658 167.733 423.858Z" fill="#955A40"/>
<path d="M167.733 423.858C162.693 421.658 160.356 417.96 159.516 413.436C159.333 412.489 159.406 411.878 160.465 411.419C161.561 410.93 162.437 410.197 162.985 409.28C164.884 405.979 168.134 403.473 170.508 400.447C171.202 399.561 172.225 398.98 173.174 398.4C175.694 396.933 175.877 394.518 174.051 392.776C173.32 392.104 172.773 391.309 172.225 390.514C170.983 388.772 169.668 387.153 167.66 385.838C164.519 383.791 162.437 380.918 160.173 378.228C159.26 377.159 157.726 376.547 157.251 375.203C156.302 375.203 155.024 374.805 154.549 375.447C154.111 376.028 155.389 376.517 155.864 377.067C158.749 380.612 157.836 384.066 155.717 387.519C160.757 388.528 162.036 394.793 159.662 397.727C159.041 398.491 159.37 398.705 160.246 398.98C163.569 400.05 164.482 401.792 163.46 404.604C162.437 407.416 160.429 409.555 157.361 410.961C156.484 411.358 156.156 411.817 156.156 412.642C156.229 414.965 155.864 417.287 156.703 419.579C158.091 423.308 162.949 424.958 167.295 424.225C167.368 424.194 167.55 423.981 167.733 423.858Z" fill="#513224"/>
<path d="M142.533 387.336C144.652 387.183 147.318 386.816 149.984 386.297C153.964 385.502 155.535 381.743 153.124 378.962C150.495 375.967 142.606 374.897 138.954 377.067C138.48 377.342 138.261 377.739 138.078 378.198C137.128 380.49 136.836 382.843 137.494 385.227C137.895 386.755 139.137 387.367 142.533 387.336Z" fill="#945940"/>
<path d="M142.424 403.259C142.79 407.446 146.916 409.983 152.395 409.31C156.047 408.883 158.676 407.232 160.064 404.329C160.94 402.464 160.612 401.945 158.238 401.395C157.033 402.587 155.28 402.953 153.6 403.259C149.875 403.931 146.15 403.687 142.424 403.259Z" fill="#93593F"/>
<path d="M138.589 393.235C140.16 398.308 141.913 399.255 148.085 398.461C150.313 398.155 152.504 397.819 154.622 397.208C157.836 396.26 158.493 393.387 156.046 391.309C156.119 392.012 155.426 392.257 154.878 392.532C151.481 394.09 147.866 394.549 144.031 394.304C142.132 394.182 140.415 393.54 138.589 393.235Z" fill="#93583F"/>
<path d="M138.589 393.234C140.415 393.54 142.132 394.182 143.994 394.304C147.829 394.518 151.445 394.06 154.841 392.532C155.389 392.287 156.083 392.043 156.01 391.309C154.147 389.995 152.066 389.047 149.546 389.353C146.551 389.72 143.629 390.27 140.562 390.178C138.224 390.087 137.932 390.423 138.37 392.348C138.516 392.654 138.553 392.929 138.589 393.234Z" fill="#513224"/>
<path d="M198.775 394.121C197.131 392.623 196.693 390.545 195.305 388.895C193.552 386.755 192.201 384.402 190.156 382.415C190.704 384.371 191.325 386.327 191.799 388.314C192.639 391.951 193.151 395.618 192.932 399.683C195.305 397.911 197.314 396.23 198.775 394.121Z" fill="#907033"/>
<path d="M142.424 403.259C146.149 403.687 149.874 403.931 153.599 403.259C155.279 402.953 157.032 402.617 158.237 401.395C156.521 400.447 154.731 399.989 152.65 400.6C149.874 401.395 146.989 401.609 144.067 401.486C142.387 401.395 141.803 401.914 142.424 403.259Z" fill="#503123"/>
</svg>
