<svg width="353" height="477" viewBox="0 0 353 477" fill="none" xmlns="http://www.w3.org/2000/svg">
<path d="M191.165 437.512C187.448 435.615 187.176 434.667 189.669 431.67C190.304 430.911 191.21 430.266 191.936 429.545C193.386 428.103 194.701 426.662 193.568 424.613C192.48 422.602 190.53 421.73 187.992 421.616C183.005 421.351 178.064 421.92 173.122 422.602C162.424 424.044 151.68 424.006 140.89 423.323C133.138 422.83 125.386 422.375 117.725 421.275C111.65 420.402 105.53 419.605 99.501 418.429C96.237 417.784 93.0636 417.974 89.8903 418.353C86.4903 418.771 83.1356 418.733 79.7356 418.543C76.2903 413.422 74.477 407.845 73.2983 402.078C72.3916 397.526 72.6636 393.049 74.205 388.61C75.2476 385.613 76.9703 382.882 78.6023 380.112C83.2716 372.184 87.669 364.141 89.2103 355.263C90.661 355.301 90.8876 356.439 91.4316 357.16C96.6903 364.52 103.717 370.514 111.922 375.56C116.773 378.519 121.714 381.44 127.472 383.185C130.146 384.02 132.05 383.565 132.912 381.63C134.226 378.633 135.133 375.484 135.858 372.335C139.53 372.411 139.984 372.108 141.117 369.186C141.888 367.176 142.432 365.127 143.701 363.268C143.882 363.154 144.154 363.116 144.245 362.965C148.144 357.881 152.088 352.797 155.941 347.638C163.829 337.129 173.349 327.835 184.864 319.982C191.709 315.315 198.645 310.763 205.082 305.717C213.922 298.812 222.309 291.566 227.024 281.968C228.792 285.041 230.378 288.19 231.466 291.453C236 305.072 239.082 318.881 239.082 333.07C239.082 339.254 239.445 345.438 238.765 351.621C238.221 356.515 236.861 361.371 236.589 366.265C236.226 373.094 235.184 379.847 234.821 386.638C234.458 394.491 233.053 402.344 230.288 409.969C229.653 411.752 228.792 413.573 229.2 415.508C228.701 415.47 228.384 415.774 228.066 416.039C225.301 418.733 221.992 420.933 218.728 423.134C211.565 427.914 203.541 431.518 195.336 434.894C193.93 435.615 192.026 435.956 191.165 437.512Z" fill="#EED05E"/>
<path d="M143.837 363.344C142.522 365.165 142.023 367.252 141.253 369.262C140.119 372.184 139.666 372.487 135.994 372.411C135.586 372.259 135.223 372.07 134.77 371.918C127.879 369.869 120.898 368.124 114.325 365.431C106.21 362.092 98.05 358.867 90.4793 354.656C89.346 354.011 89.0286 354.277 89.3006 355.339C87.714 364.217 83.362 372.259 78.6926 380.188C77.0606 382.958 75.338 385.689 74.2953 388.686C72.7086 393.125 72.4366 397.602 73.3886 402.154C74.5673 407.921 76.3353 413.497 79.826 418.619C80.098 419.947 81.0046 421.047 81.6846 422.223C82.0926 422.944 82.5006 423.703 81.6846 424.272C80.8686 424.841 80.098 424.272 79.5086 423.816C76.3353 421.54 74.114 418.657 72.5273 415.546C66.362 403.292 65.7273 391.152 73.57 379.05C78.6926 371.083 82.7726 362.737 84.994 353.822C85.402 352.19 84.994 351.242 83.4526 350.142C72.3006 342.023 65.954 331.628 63.506 319.526C61.6926 310.383 61.4206 301.089 64.8206 292.287C69.218 280.906 77.514 271.725 91.4313 267.286C103.671 263.379 116.002 259.585 128.061 255.298C140.074 251.049 151.997 246.61 164.101 242.589C172.17 239.933 180.602 238.606 189.17 237.809C193.749 237.392 198.191 238.34 202.543 239.364C204.039 239.706 204.629 239.744 205.037 238.188C207.802 227.604 218.138 220.206 231.058 219.485C236.543 219.182 241.485 217.664 246.29 215.578C250.551 213.681 252.591 214.477 252.999 218.461C254.087 228.211 251.503 237.392 245.973 246.003C245.293 247.066 245.247 247.711 246.063 248.659C250.415 253.781 255.855 257.157 263.834 256.778C266.917 256.626 268.367 258.371 267.007 260.761C260.797 271.725 249.826 282.272 232.735 281.437C240.306 297.674 243.933 314.556 244.386 332.084C245.519 331.932 246.335 331.363 247.197 330.907C261.794 323.434 273.581 313.305 285.095 302.91C292.893 295.853 300.373 288.531 309.802 282.917C314.925 279.882 320.365 277.529 326.893 277.529C332.605 277.529 337.183 279.388 340.855 283.106C347.157 289.518 350.013 297.029 351.735 305.034C354.274 316.833 351.191 328.062 347.474 339.368C342.397 354.808 332.786 368.048 320.591 380.15C300.282 400.371 277.117 417.936 249.871 431.442C234.594 439.029 217.911 443.506 200.186 445.175C199.959 445.213 199.733 445.213 199.506 445.213C197.965 445.251 196.287 445.289 195.698 443.772C195.063 442.178 196.514 441.533 197.919 441.002C209.661 439.978 220.903 437.057 231.919 433.794C244.477 430.076 255.221 423.589 265.965 417.253C278.613 409.628 290.127 400.94 301.098 391.645C301.733 391.076 302.141 390.393 302.503 389.711C306.13 383.147 309.303 376.432 311.57 369.414C312.703 365.924 313.61 362.434 312.613 358.792C312.25 357.426 311.525 356.402 309.802 355.87C306.493 354.846 306.13 354.239 307.127 351.318C308.85 346.196 309.893 340.961 309.349 335.612C308.986 332.046 307.853 328.707 304.77 325.976C302.231 323.737 299.239 323.206 295.703 323.813C294.071 324.079 293.482 323.016 293.618 321.765C293.845 319.754 294.162 317.743 294.343 315.733C294.57 313.57 294.389 311.408 293.437 309.397C292.077 306.476 288.767 306.021 286.183 308.259C282.511 311.446 278.93 314.746 275.031 317.819C266.554 324.534 257.533 330.566 247.197 335.194C244.975 335.574 244.25 336.598 244.386 338.533C244.749 344.337 244.295 350.142 243.525 355.946C242.029 367.859 240.669 379.809 239.535 391.759C238.81 399.309 237.133 406.783 234.367 414.029C233.37 416.57 231.919 417.026 229.154 415.66C228.791 413.687 229.607 411.904 230.242 410.121C233.007 402.534 234.413 394.68 234.775 386.789C235.093 379.961 236.135 373.208 236.543 366.417C236.815 361.523 238.175 356.667 238.719 351.773C239.399 345.589 239.037 339.406 239.037 333.222C239.082 319.033 235.954 305.224 231.421 291.604C230.333 288.304 228.746 285.193 226.978 282.12C225.981 279.616 224.349 277.34 222.671 274.988C222.354 275.253 222.127 275.443 221.991 275.633C208.391 292.97 191.89 308.335 174.935 323.358C163.511 333.449 153.357 344.299 146.602 357.16C145.65 359.095 144.245 361.068 143.837 363.344ZM243.026 252.377C241.757 250.67 240.623 248.849 239.218 247.255C236.815 244.562 233.778 242.855 229.517 243.462C226.615 243.841 223.941 244.789 221.13 245.965C227.749 249.304 230.106 254.16 229.29 260.23C228.882 263.303 227.749 266.3 226.162 269.107C225.21 270.815 224.439 272.294 226.933 273.546C227.613 273.887 227.975 274.608 228.474 275.177C230.605 277.795 231.421 278.023 235.41 277.34C240.578 277.454 245.111 275.898 249.146 273.318C254.178 270.094 257.85 265.883 261.295 261.482C261.522 261.216 261.703 260.951 261.431 260.685C260.207 260.571 258.983 260.571 257.805 260.382C251.594 259.282 246.97 256.247 243.026 252.377ZM239.989 242.02C240.759 242.627 241.53 243.196 242.482 243.955C246.879 236.14 248.602 228.059 248.466 219.257C242.346 222.255 236.226 223.241 229.789 223.393C226.162 223.469 222.626 224.151 219.634 226.162C213.877 228.818 210.658 233.105 208.527 238.112C207.575 240.351 207.802 240.654 210.567 241.261C211.202 241.413 211.927 241.413 212.562 241.413C214.194 241.451 215.871 241.641 217.05 242.551C218.501 243.651 219.589 243.272 221.039 242.627C227.205 239.744 233.506 238.492 239.989 242.02ZM308.034 385.537C310.845 383.337 313.247 380.833 315.741 378.367C327.754 366.417 337.637 353.518 342.487 338.192C345.525 328.593 348.834 319.071 347.157 308.942C345.842 300.709 343.575 292.856 337.138 286.141C333.738 282.613 329.567 281.323 324.354 282.006C320.047 282.575 316.421 284.32 312.93 286.407C304.226 291.566 297.381 298.357 290.127 304.769C290.037 304.844 290.082 304.996 289.991 305.186C294.162 305.907 296.021 308.373 296.338 311.673C296.61 314.556 296.61 317.478 296.111 320.361C295.975 321.233 295.703 322.106 297.426 321.727C300.554 321.082 303.183 321.992 305.586 323.624C310.527 326.962 311.887 331.628 312.205 336.598C312.567 341.758 311.525 346.803 309.621 351.659C309.122 352.873 309.213 353.594 310.935 354.011C313.973 354.732 315.106 356.819 315.423 359.171C315.786 362.054 315.695 364.975 314.743 367.821C312.839 373.739 310.346 379.43 307.535 385.044C307.309 385.31 307.037 385.613 307.445 385.917C307.49 385.993 307.807 385.689 308.034 385.537ZM202.543 243.803C198.418 242.817 194.247 241.754 189.895 242.096C180.285 242.817 171.037 244.714 162.106 247.824C140.391 255.374 119.13 263.872 96.7806 270.056C84.5406 273.432 77.0153 280.754 70.714 289.48C70.3513 289.973 70.1246 290.504 69.9886 291.073C67.6766 300.102 66.5886 309.169 68.4926 318.35C71.122 330.907 77.65 341.606 90.298 349.117C103.626 357.008 118.269 362.775 133.773 367.062C135.722 367.593 136.493 367.517 137.218 365.696C141.978 353.594 149.095 342.554 158.615 332.577C167.274 323.472 177.157 315.277 186.405 306.59C197.511 296.157 208.119 285.383 217.322 273.736C219.045 271.535 220.813 269.297 221.447 266.641C223.578 263.606 224.485 260.268 224.213 256.778C224.031 254.577 222.807 252.68 220.858 251.163C220.495 250.859 219.679 250.025 219.362 251.087C218.501 254.198 215.871 256.436 214.058 259.092C212.063 260.875 210.114 262.658 208.119 264.403C207.122 265.276 205.989 265.959 204.447 265.959C203.359 265.314 203.178 264.745 204.266 263.872C208.391 260.496 211.655 256.626 213.514 251.96C214.103 250.518 214.421 249.038 214.466 247.521C214.511 246.648 214.285 245.89 213.061 245.662C209.615 244.941 206.17 243.917 202.543 243.803Z" fill="#060604"/>
<path d="M229.335 415.584C232.101 416.95 233.597 416.532 234.549 413.953C237.314 406.707 238.991 399.271 239.717 391.683C240.85 379.733 242.21 367.783 243.706 355.87C244.431 350.104 244.93 344.299 244.567 338.457C244.431 336.522 245.157 335.46 247.378 335.119C247.65 337.395 247.151 339.671 246.879 341.909C245.746 351.052 244.477 360.195 244.658 369.452C244.885 378.898 247.106 387.928 251.277 396.729C254.858 404.279 260.615 410.652 266.101 417.215C255.357 423.589 244.613 430.076 232.055 433.756C220.994 437.019 209.797 439.94 198.055 440.964C195.97 439.523 193.431 438.764 191.21 437.512C192.026 435.956 193.93 435.615 195.471 434.97C203.677 431.594 211.701 427.99 218.863 423.209C222.173 421.009 225.437 418.809 228.202 416.115C228.474 415.85 228.791 415.584 229.335 415.584Z" fill="#937234"/>
<path d="M143.837 363.344C144.245 361.068 145.65 359.095 146.738 357.046C153.493 344.224 163.648 333.373 175.072 323.244C192.026 308.221 208.528 292.894 222.128 275.519C222.264 275.329 222.536 275.139 222.808 274.874C224.53 277.226 226.117 279.464 227.114 282.006C222.4 291.604 214.058 298.85 205.173 305.755C198.736 310.801 191.8 315.353 184.954 320.019C173.44 327.873 163.92 337.167 156.032 347.676C152.178 352.797 148.234 357.881 144.336 363.003C144.245 363.154 144.018 363.23 143.837 363.344Z" fill="#927233"/>
<path d="M89.3005 355.301C89.0285 354.239 89.3459 354.011 90.4792 354.618C98.0499 358.792 106.21 362.054 114.325 365.393C120.898 368.124 127.879 369.869 134.77 371.88C135.178 371.994 135.586 372.184 135.994 372.373C135.269 375.522 134.362 378.633 133.047 381.668C132.186 383.603 130.282 384.058 127.607 383.223C121.895 381.478 116.954 378.557 112.058 375.598C103.807 370.59 96.8259 364.558 91.5672 357.198C91.0232 356.477 90.7512 355.377 89.3005 355.301Z" fill="#937334"/>
<path d="M204.493 265.921C206.034 265.921 207.168 265.238 208.165 264.365C210.16 262.582 212.109 260.799 214.104 259.054C216.234 258.068 217.594 258.826 218.456 260.496C219.045 261.71 219.634 262.924 220.269 264.1C220.677 264.896 220.314 265.996 221.448 266.566C220.813 269.221 219.045 271.459 217.322 273.66C208.12 285.345 197.466 296.081 186.405 306.514C177.157 315.201 167.274 323.396 158.616 332.501C149.096 342.478 141.978 353.518 137.218 365.62C136.493 367.441 135.768 367.517 133.773 366.986C118.269 362.699 103.626 356.933 90.2983 349.042C77.6503 341.568 71.077 330.87 68.493 318.274C66.589 309.093 67.7223 300.026 69.989 290.997C70.125 290.466 70.3516 289.897 70.7143 289.404C77.0156 280.716 84.541 273.394 96.781 269.98C119.13 263.796 140.437 255.336 162.106 247.749C171.037 244.638 180.285 242.741 189.896 242.02C194.248 241.679 198.418 242.741 202.544 243.727C198.01 244.827 193.84 247.331 188.717 246.003C188.536 245.965 188.264 246.041 188.037 246.041C181.101 246.383 174.573 248.09 168.181 250.252C144.97 258.219 121.669 266.034 97.869 272.673C87.805 275.481 79.8263 280.678 77.5596 290.314C76.0636 296.574 77.741 300.785 83.9063 303.706C88.0316 305.679 92.565 306.4 97.2796 306.779C104.669 307.424 112.013 307.728 119.357 306.931C130.282 305.717 140.936 303.479 151.362 300.52C169.042 295.512 185.453 288.911 196.968 275.86C199.824 272.787 203.088 269.828 204.493 265.921ZM111.968 334.398C109.202 332.994 107.661 330.566 105.394 328.707C104.125 327.645 102.629 326.089 100.861 327.341C99.1383 328.555 100.544 330.187 101.586 331.401C104.352 334.663 107.434 337.736 111.696 339.709C113.146 340.354 112.693 341.113 112.194 341.871C111.56 342.934 110.744 342.175 110.154 341.834C108.341 340.809 106.573 339.709 104.85 338.609C103.309 337.622 101.813 336.522 100.272 335.536C99.365 334.967 98.277 334.929 97.2343 335.346C96.3276 335.726 96.4636 336.484 96.509 337.205C96.5996 338.343 97.5516 339.026 98.4583 339.671C100.317 340.999 102.221 342.289 104.442 343.806C101.632 344.072 99.4103 343.427 97.1436 343.123C95.4663 342.896 93.381 341.985 92.6556 343.958C91.9303 345.931 94.197 346.424 95.8743 346.955C101.405 348.662 107.117 348.548 112.874 348.093C114.189 347.979 115.141 347.372 115.685 346.386C116.138 345.513 116.592 344.641 117 343.768C118.405 340.809 118.541 340.657 121.261 342.782C124.797 345.551 128.378 345.513 132.458 343.882C138.352 341.53 143.429 338.381 147.962 334.474C148.642 333.867 149.232 333.222 149.594 332.425C150.093 331.439 150.048 330.49 149.05 329.845C148.008 329.162 146.874 329.466 145.922 330.111C145.242 330.604 144.608 331.135 143.973 331.666C140.029 334.815 135.858 337.736 130.826 339.633C130.101 339.899 129.24 340.544 128.56 340.05C127.744 339.481 128.696 338.799 129.013 338.192C130.554 335.157 132.821 332.463 134.77 329.618C136.312 327.379 136.312 325.824 134.952 325.179C133.637 324.534 131.914 325.331 130.282 327.379C127.88 330.376 125.749 333.487 123.981 336.788C123.709 337.243 123.573 338.04 122.621 337.774C121.85 337.547 121.805 336.94 121.896 336.333C121.941 335.839 122.032 335.346 122.122 334.815C122.848 331.173 124.57 327.797 126.293 324.42C126.882 323.244 127.472 322.068 127.29 320.778C127.2 320.057 127.018 319.337 126.112 319.071C125.341 318.843 124.661 319.223 124.026 319.602C122.213 320.816 121.488 322.561 120.626 324.231C119.312 326.772 118.224 329.352 117.317 332.084C116.274 331.59 116.274 330.832 116.048 330.187C114.96 327.531 114.869 324.724 114.37 321.992C114.098 320.626 113.69 318.73 111.424 318.995C109.429 319.223 109.338 321.006 109.384 322.372C109.429 325.596 110.109 328.783 111.333 331.856C111.605 332.691 112.194 333.487 111.968 334.398Z" fill="#F4FA95"/>
<path d="M266.101 417.215C260.616 410.652 254.858 404.279 251.277 396.729C247.106 387.965 244.885 378.898 244.658 369.452C244.432 360.195 245.701 351.09 246.88 341.909C247.152 339.671 247.696 337.395 247.378 335.119C257.714 330.528 266.736 324.458 275.213 317.781C279.066 314.708 282.648 311.408 286.365 308.221C288.904 306.021 292.258 306.438 293.618 309.359C294.525 311.37 294.752 313.532 294.525 315.695C294.344 317.705 294.026 319.716 293.8 321.727C293.664 322.979 294.253 324.079 295.885 323.775C299.421 323.168 302.413 323.699 304.952 325.938C308.034 328.669 309.168 332.008 309.53 335.574C310.029 340.923 309.032 346.12 307.309 351.28C306.312 354.239 306.674 354.808 309.984 355.832C311.706 356.364 312.432 357.388 312.794 358.754C313.837 362.396 312.885 365.886 311.752 369.376C309.53 376.395 306.357 383.11 302.685 389.673C302.322 390.356 301.914 391.038 301.28 391.607C290.309 400.864 278.749 409.552 266.101 417.215Z" fill="#EDD05E"/>
<path d="M204.492 265.921C203.087 269.828 199.868 272.787 197.058 275.974C185.588 289.025 169.178 295.626 151.452 300.633C141.026 303.593 130.372 305.831 119.447 307.045C112.103 307.841 104.714 307.538 97.3696 306.893C92.6549 306.476 88.1216 305.793 83.9963 303.82C77.8309 300.861 76.1536 296.688 77.6496 290.428C79.9163 280.792 87.8496 275.595 97.9589 272.787C121.804 266.148 145.06 258.333 168.271 250.366C174.618 248.204 181.191 246.497 188.127 246.155C188.354 246.155 188.58 246.079 188.807 246.117C193.93 247.407 198.1 244.941 202.634 243.841C206.26 243.955 209.706 244.979 213.196 245.662C214.42 245.89 214.647 246.648 214.602 247.521C214.556 249.038 214.194 250.518 213.65 251.96C211.791 256.588 208.572 260.496 204.402 263.872C203.223 264.707 203.359 265.276 204.492 265.921ZM88.8923 282.575C93.1536 282.082 97.1883 281.703 101.223 281.171C120.218 278.554 138.578 274.115 156.484 268.273C167.274 264.744 177.655 260.571 187.175 254.995C188.535 254.198 189.759 253.249 190.711 252.073C191.21 251.391 191.663 250.708 191.028 249.987C190.303 249.228 189.396 249.57 188.58 249.911C185.724 250.935 183.231 252.491 180.602 253.819C155.714 266.414 128.514 273.356 100.271 277.909C96.4176 278.516 92.4736 278.743 88.7563 279.882C87.8043 280.185 86.8976 280.602 87.1696 281.665C87.3963 282.499 88.2576 282.575 88.8923 282.575Z" fill="#9C9C53"/>
<path d="M307.535 385.12C310.346 379.505 312.885 373.777 314.743 367.897C315.65 365.051 315.741 362.13 315.423 359.247C315.151 356.895 314.018 354.77 310.935 354.087C309.213 353.67 309.122 352.949 309.621 351.735C311.57 346.841 312.567 341.833 312.205 336.674C311.842 331.704 310.482 327.038 305.586 323.699C303.183 322.068 300.554 321.158 297.426 321.802C295.703 322.182 295.975 321.309 296.111 320.437C296.61 317.553 296.61 314.632 296.338 311.749C296.021 308.448 294.162 306.02 289.991 305.262C290.037 305.072 290.037 304.92 290.127 304.844C297.426 298.433 304.226 291.642 312.93 286.483C316.421 284.434 320.047 282.651 324.354 282.082C329.567 281.399 333.738 282.651 337.138 286.217C343.575 292.894 345.842 300.785 347.157 309.018C348.789 319.147 345.525 328.631 342.487 338.267C337.637 353.594 327.754 366.493 315.741 378.443C313.247 380.909 310.845 383.413 308.034 385.613C307.853 385.386 307.717 385.234 307.535 385.12Z" fill="#FAF0EE"/>
<path d="M219.634 226.162C222.581 224.189 226.162 223.468 229.789 223.393C236.226 223.241 242.346 222.255 248.466 219.257C248.602 228.059 246.88 236.14 242.482 243.955C241.485 243.196 240.76 242.589 239.989 242.02C239.536 240.351 237.677 240.237 236.272 239.706C232.373 238.264 228.021 237.885 224.213 236.14C221.674 234.964 220.224 233.256 219.77 230.828C219.408 229.273 219.634 227.717 219.634 226.162Z" fill="#F3FA95"/>
<path d="M243.026 252.377C246.97 256.284 251.549 259.282 257.714 260.306C258.893 260.496 260.117 260.533 261.341 260.609C261.613 260.875 261.431 261.14 261.205 261.406C257.805 265.807 254.133 270.018 249.055 273.243C245.021 275.822 240.533 277.378 235.319 277.264C235.183 276.771 235.047 276.278 234.866 275.822C233.053 270.739 233.279 265.769 236.226 261.027C238.221 257.954 240.442 255.07 243.026 252.377Z" fill="#F3FA95"/>
<path d="M243.026 252.377C240.397 255.07 238.176 257.992 236.272 261.027C233.28 265.807 233.053 270.739 234.912 275.822C235.093 276.315 235.229 276.771 235.365 277.264C231.376 277.947 230.56 277.681 228.429 275.101C227.976 274.532 227.568 273.812 226.888 273.47C224.394 272.18 225.165 270.739 226.117 269.031C227.704 266.224 228.837 263.265 229.245 260.154C230.061 254.084 227.704 249.228 221.085 245.89C223.896 244.713 226.57 243.803 229.472 243.386C233.733 242.817 236.77 244.524 239.173 247.179C240.669 248.849 241.802 250.632 243.026 252.377Z" fill="#9A9A52"/>
<path d="M219.633 226.162C219.633 227.717 219.407 229.235 219.724 230.828C220.223 233.256 221.628 234.964 224.167 236.14C227.975 237.923 232.327 238.264 236.226 239.706C237.631 240.237 239.49 240.351 239.943 242.02C233.46 238.454 227.159 239.744 220.993 242.627C219.588 243.272 218.455 243.689 217.004 242.551C215.825 241.641 214.148 241.489 212.516 241.413C211.836 241.375 211.156 241.375 210.522 241.261C207.756 240.654 207.53 240.389 208.482 238.112C210.658 233.105 213.876 228.856 219.633 226.162Z" fill="#9A9A52"/>
<path d="M221.447 266.566C220.269 265.996 220.677 264.934 220.269 264.1C219.634 262.924 219.09 261.672 218.456 260.496C217.594 258.788 216.234 258.068 214.104 259.054C215.917 256.398 218.546 254.16 219.407 251.049C219.725 249.987 220.496 250.821 220.904 251.125C222.853 252.642 224.122 254.539 224.258 256.74C224.485 260.192 223.578 263.493 221.447 266.566Z" fill="#989851"/>
<path d="M308.034 385.538C307.852 385.689 307.49 385.993 307.49 385.955C307.082 385.651 307.354 385.386 307.58 385.082C307.716 385.234 307.852 385.386 308.034 385.538Z" fill="#FAF0EE"/>
<path d="M111.922 334.436C112.194 333.487 111.65 332.691 111.287 331.894C110.063 328.821 109.383 325.672 109.338 322.41C109.338 321.044 109.428 319.261 111.378 319.033C113.644 318.768 114.052 320.626 114.324 322.03C114.823 324.762 114.914 327.569 116.002 330.225C116.274 330.832 116.228 331.628 117.271 332.122C118.178 329.39 119.266 326.81 120.58 324.268C121.442 322.599 122.167 320.854 123.98 319.64C124.57 319.223 125.25 318.843 126.066 319.109C126.972 319.374 127.154 320.095 127.244 320.816C127.38 322.106 126.836 323.282 126.247 324.458C124.479 327.835 122.756 331.173 122.076 334.853C121.986 335.346 121.895 335.839 121.85 336.37C121.759 336.977 121.85 337.585 122.575 337.812C123.527 338.078 123.663 337.319 123.935 336.826C125.703 333.525 127.834 330.414 130.236 327.417C131.914 325.369 133.591 324.572 134.906 325.217C136.22 325.862 136.22 327.417 134.724 329.656C132.775 332.501 130.508 335.194 128.967 338.229C128.65 338.799 127.743 339.481 128.514 340.088C129.194 340.582 130.055 339.937 130.78 339.671C135.812 337.774 139.983 334.891 143.927 331.704C144.562 331.173 145.196 330.604 145.876 330.149C146.828 329.504 147.962 329.2 149.004 329.883C150.002 330.566 150.047 331.515 149.548 332.463C149.186 333.222 148.596 333.905 147.916 334.512C143.428 338.419 138.306 341.568 132.412 343.92C128.332 345.551 124.706 345.551 121.215 342.82C118.495 340.695 118.359 340.847 116.954 343.806C116.546 344.679 116.092 345.551 115.639 346.424C115.095 347.41 114.143 348.055 112.828 348.131C107.071 348.548 101.359 348.7 95.8284 346.993C94.1511 346.462 91.8844 345.931 92.6098 343.996C93.2898 342.061 95.4204 342.972 97.0978 343.161C99.3644 343.465 101.586 344.11 104.396 343.844C102.175 342.327 100.271 341.075 98.4125 339.709C97.5058 339.064 96.5538 338.381 96.4631 337.243C96.4178 336.56 96.2818 335.764 97.1884 335.384C98.1858 334.967 99.3191 335.005 100.226 335.574C101.812 336.56 103.263 337.66 104.804 338.647C106.527 339.747 108.34 340.847 110.108 341.871C110.698 342.213 111.514 342.972 112.148 341.909C112.602 341.151 113.055 340.392 111.65 339.747C107.388 337.774 104.306 334.701 101.54 331.439C100.498 330.225 99.0924 328.593 100.815 327.379C102.583 326.127 104.124 327.683 105.348 328.745C107.615 330.604 109.156 332.994 111.922 334.436C111.967 334.474 111.967 334.512 112.012 334.55C112.012 334.587 112.103 334.55 112.148 334.587C112.058 334.512 111.967 334.474 111.922 334.436Z" fill="#A2792A"/>
<path d="M88.8928 282.575C88.2581 282.575 87.3967 282.499 87.1247 281.665C86.8074 280.602 87.7594 280.185 88.7114 279.882C92.4287 278.743 96.3728 278.554 100.226 277.909C128.469 273.356 155.714 266.376 180.511 253.781C183.141 252.453 185.679 250.897 188.49 249.873C189.351 249.57 190.258 249.19 190.938 249.949C191.618 250.67 191.165 251.391 190.621 252.035C189.714 253.212 188.49 254.16 187.085 254.957C177.565 260.533 167.183 264.707 156.394 268.235C138.487 274.115 120.127 278.554 101.133 281.134C97.2341 281.703 93.1994 282.082 88.8928 282.575Z" fill="#050503"/>
<path d="M111.922 334.436C112.013 334.474 112.058 334.512 112.149 334.587C112.103 334.587 112.058 334.587 112.013 334.55C111.967 334.512 111.967 334.474 111.922 334.436Z" fill="#F4FA95"/>
<path d="M37.8094 264.615C36.6307 263.437 35.4067 262.487 34.4547 261.347C32.0974 258.535 33.1401 255.913 37.0841 254.849C39.7587 254.127 42.4787 253.671 45.2894 253.633C46.5134 253.633 46.7854 253.291 46.6947 252.303C46.0147 245.463 43.7481 238.927 41.3907 232.391C41.3454 232.201 41.3001 231.935 41.1641 231.859C35.6787 228.705 33.1854 223.689 30.2841 219.053C17.0921 198.115 8.07072 175.885 3.12939 152.591C-0.179946 137.011 -0.497285 121.241 0.998715 105.471C2.72138 87.459 8.02539 70.207 17.5001 53.943C25.7054 39.845 36.404 27.305 52.18 18.337C56.4867 15.867 61.0654 13.777 65.9614 12.295C73.8494 9.863 79.4707 11.155 84.5027 16.779C89.0361 21.833 91.0761 27.799 92.6174 33.917C95.0654 43.493 95.4734 53.259 95.7454 62.987C96.3801 84.723 99.3721 106.117 106.625 127.055C108.983 133.819 112.247 140.241 115.375 146.739C115.556 147.119 115.511 147.651 116.327 147.537C118.412 147.271 120.497 147.081 122.583 146.777C123.172 146.701 123.58 146.245 123.807 145.751C126.255 139.937 130.244 134.769 133.871 129.449C144.977 113.299 155.721 96.959 167.417 81.075C186.956 54.513 209.804 30.231 239.044 10.585C245.889 5.987 253.143 2.073 261.892 0.553001C270.324 -0.928999 277.079 1.655 281.249 8.077C284.468 13.093 286.236 18.527 287.097 24.151C289.364 39.199 288.503 54.247 286.78 69.257C284.921 85.179 282.473 101.063 278.892 116.795C272.727 143.927 262.391 169.881 245.844 193.897C242.353 198.951 238.5 203.777 234.012 208.223C232.561 209.667 230.748 210.845 229.932 212.707C229.479 213.695 229.252 214.303 231.02 213.961C232.017 213.771 233.105 213.771 234.193 213.733C238.5 213.695 240.359 215.177 240.404 218.863C240.449 221.485 239.225 223.803 237.503 225.893C237.095 226.387 236.596 226.881 236.143 227.413C236.687 227.945 237.321 227.755 237.865 227.793C245.073 227.869 247.793 232.391 247.068 237.217C246.569 240.599 244.348 243.373 242.172 246.071C236.369 253.215 229.524 259.675 222.044 265.565C205.407 278.599 187.183 289.771 165.831 296.877C151.324 301.703 136.273 304.363 120.724 305.123C106.807 305.807 93.0707 304.857 79.8787 300.905C70.2227 297.979 61.8814 293.039 53.6761 287.947C53.2681 287.681 52.8147 287.377 52.5427 286.997C49.5961 283.007 45.4254 280.195 40.7561 277.725C39.1241 276.851 37.8094 275.559 36.4494 274.381C35.7694 273.811 35.1801 273.127 34.6814 272.405C32.2334 268.985 33.3667 266.173 37.8094 264.615ZM50.4574 102.887C51.1374 102.735 51.4094 102.355 51.4094 101.785C51.5454 101.633 51.6814 101.481 51.772 101.329C52.452 101.177 52.7241 100.797 52.7241 100.227C52.8601 100.075 52.996 99.923 53.132 99.771C53.812 99.619 54.1294 99.277 54.0841 98.707C54.2201 98.555 54.356 98.403 54.492 98.289C55.6707 97.909 56.1241 97.111 56.3507 96.161C57.9374 90.043 58.6174 83.811 59.6147 77.655C61.2921 67.509 62.5161 57.325 62.1081 47.065C61.9721 44.063 61.428 41.023 59.4787 38.363C58.028 36.425 56.1241 35.817 53.6761 36.767C50.1401 38.135 47.2387 40.187 44.972 42.885C43.5667 43.645 42.5694 44.785 41.4814 45.849C35.4974 51.929 31.1907 58.807 27.972 66.217C20.8547 82.405 16.7747 99.125 15.6414 116.377C15.0521 125.231 15.868 134.047 17.772 142.787C20.8547 157.037 25.6147 170.831 32.7774 184.017C33.3667 185.119 34.092 186.183 34.7267 187.247C34.9534 185.347 34.7721 183.599 34.6361 181.813C34.4547 179.495 35.044 178.735 37.6734 178.203C42.3427 177.253 47.0574 176.341 51.7267 175.429C52.8147 175.277 53.948 175.125 55.1267 174.935C53.7667 173.529 54.2654 172.009 54.7187 170.489C55.6707 167.373 57.756 164.675 59.4334 161.825C59.524 161.749 59.5694 161.673 59.66 161.597C59.6147 161.597 59.524 161.597 59.4787 161.597C59.4787 161.673 59.4787 161.749 59.4787 161.825C58.844 161.445 58.1641 161.787 57.5294 161.787C52.8147 161.977 50.3667 160.001 50.3214 156.049C50.2761 153.883 50.6387 151.793 51.1374 149.665C51.9534 146.435 53.4947 143.395 54.9454 140.013C52.8147 140.811 51.0467 141.495 49.1427 141.875C43.7481 142.977 40.0307 141.153 38.8067 136.669C38.308 134.845 38.0361 132.945 38.2174 131.045C39.0334 122.799 42.0707 115.161 46.8761 107.979C47.7374 106.687 49.0067 105.547 49.4147 104.065C50.2307 103.875 50.5027 103.457 50.4574 102.887ZM76.4787 265.489C75.7987 266.553 75.7534 267.693 75.9347 268.833C76.1161 269.783 76.796 270.467 78.0654 270.391C80.74 270.239 84.8654 267.123 85.6361 264.767C84.5481 263.247 81.9187 262.639 79.1081 263.171C77.5214 263.399 76.6147 264.083 76.4787 265.489ZM75.0734 271.873C74.9374 271.797 74.8014 271.759 74.6654 271.683C74.6654 271.835 74.7107 271.987 74.7107 272.139C74.9374 273.013 74.9827 273.925 75.7534 274.609C76.5694 276.053 77.3854 277.535 78.2467 278.979C78.5187 279.397 78.6547 279.815 78.1561 280.157C77.6121 280.499 77.0227 280.385 76.6147 279.929C75.7987 279.131 75.028 278.295 74.212 277.497C73.6227 276.433 72.8974 275.369 72.4441 274.267C72.1267 273.469 71.7187 273.355 70.8574 273.621C66.2334 275.027 62.0627 274.229 58.3 271.683C56.7587 270.201 54.9454 268.909 54.9 266.705C55.2627 266.553 55.6254 266.401 55.9427 266.249C56.4414 266.857 56.9401 267.503 57.4841 268.111C60.1134 271.303 65.0547 273.469 70.3134 271.037C71.356 270.543 71.7641 270.163 71.7641 269.251C71.7641 265.185 74.2574 262.335 78.3374 260.397C79.4707 259.865 79.8787 259.219 80.06 258.193C81.8734 248.807 80.4681 239.649 77.2494 230.681C75.5721 226.007 73.0787 221.561 68.6814 218.141C64.3294 214.721 59.8867 215.139 56.4414 219.243C54.4467 221.675 53.3587 224.411 52.4067 227.223C51.772 229.047 51.8627 231.023 50.5481 232.657C48.8707 233.303 47.1027 233.303 45.1987 233.341C47.3747 239.383 48.7801 245.425 49.5507 251.581C50.0947 256.331 49.4601 261.043 49.3241 265.755C49.1881 266.971 49.0067 268.149 49.0067 269.365C49.0067 273.355 48.9614 277.535 52.3161 280.727C60.6121 288.631 70.8574 294.369 82.8254 297.447C96.1534 300.867 109.935 301.703 123.807 300.867C137.815 300.031 151.46 297.713 164.516 293.305C188.361 285.287 208.127 272.405 225.807 257.053C227.529 255.571 229.343 254.089 230.567 252.265C232.199 251.505 233.105 250.175 234.148 248.997C237.276 245.539 240.721 242.195 242.489 238.053C244.348 233.721 241.855 230.985 236.369 231.099C232.516 231.555 228.663 232.163 225.036 233.341C224.129 233.645 223.177 233.797 222.633 232.961C221.999 232.011 222.407 231.251 223.585 230.833C226.396 230.111 228.935 228.857 231.292 227.451C233.831 225.931 235.689 223.841 236.732 221.333C238.364 217.381 236.868 215.899 232.063 216.621C231.972 216.621 231.927 216.659 231.836 216.659C225.625 217.571 220.231 220.117 214.881 222.663C213.657 223.271 212.433 223.955 210.847 223.499C209.713 222.017 210.665 221.143 212.161 220.497C215.652 218.977 219.143 217.495 222.633 216.013C223.313 215.747 223.948 215.595 224.129 214.797C224.9 211.757 226.169 209.135 228.889 206.665C233.921 202.067 238.001 196.747 241.719 191.313C257.767 167.791 267.921 142.445 273.905 115.959C277.215 101.291 279.527 86.471 281.385 71.613C283.289 56.299 284.241 40.947 282.156 25.557C281.385 19.857 279.708 14.347 276.127 9.369C273.18 5.341 268.828 3.859 263.343 4.847C255.092 6.253 248.337 10.053 241.991 14.423C233.831 20.047 225.897 25.975 218.553 32.321C202.324 46.381 188.135 61.847 175.849 78.415C159.439 100.531 144.569 123.445 128.793 145.903C128.431 146.435 128.113 147.043 128.113 147.689C128.068 149.209 126.98 149.665 125.303 149.779C105.129 151.451 86.8147 156.885 71.4014 168.247C69.2707 169.805 67.1401 171.363 65.4174 173.681C67.2307 173.529 68.7267 173.339 70.2227 173.263C71.7187 173.187 73.2601 173.149 74.7561 173.149C79.6067 173.149 79.924 173.339 81.42 177.025C81.828 180.787 82.3267 184.549 82.6441 188.349C82.9614 191.883 83.2787 195.417 82.4174 198.951C81.9641 200.737 80.74 201.801 78.5187 202.181C69.044 203.701 59.5241 204.955 49.8681 205.449C47.5107 205.563 46.3774 206.171 46.4681 208.147C45.5161 210.161 45.3347 212.289 44.9267 214.417C44.02 218.977 43.5667 223.575 43.9294 228.211C44.0654 229.921 45.5614 230.339 47.012 230.453C48.6894 230.605 48.1001 229.237 48.2814 228.515C49.2334 224.373 50.684 220.421 53.7667 217.001C58.436 211.757 65.1907 211.187 70.9934 215.557C73.9854 217.799 76.0707 220.573 77.7481 223.575C82.4627 232.125 84.4121 241.093 83.8681 250.517C83.7321 253.139 83.2787 255.761 83.0974 258.763C86.1347 257.433 89.1721 257.471 92.0281 256.901C92.1641 256.977 92.3001 257.015 92.4361 257.091C93.1614 257.357 94.5667 256.749 94.5214 257.965C94.4761 259.067 93.2067 258.725 92.3907 258.801C89.0814 258.991 85.9987 259.789 82.5534 261.005C86.4974 261.613 88.9 262.981 88.2654 266.401C86.588 268.719 84.4121 270.657 81.5107 271.949C79.2894 272.747 77.204 273.089 75.0734 271.873ZM59.5241 174.289C60.7027 174.251 62.108 174.479 62.652 173.377C63.5134 171.705 64.9187 170.413 66.3241 169.121C77.1134 159.621 90.532 153.883 105.22 149.931C107.351 149.361 110.887 149.475 111.204 148.145C111.567 146.739 109.209 144.839 108.031 143.167C107.396 141.837 106.671 140.507 106.081 139.139C96.8787 118.353 92.4814 96.845 91.2121 74.767C90.5321 62.873 90.4414 50.979 88.492 39.161C87.4494 32.929 85.6361 26.849 82.0547 21.263C78.3827 15.525 74.0307 14.233 66.8227 16.627C62.4707 18.071 58.3454 19.933 54.492 22.175C39.0334 31.029 28.9241 43.493 21.0814 57.401C12.2867 73.019 7.43605 89.549 6.03072 106.763C4.80672 121.583 5.48671 136.365 7.79871 151.109C9.43071 161.483 13.0574 171.477 16.5934 181.509C21.0814 194.163 26.8841 206.361 34.1374 218.065C35.9054 221.143 37.7187 224.145 40.212 226.881C40.3027 219.623 41.4814 212.631 43.9294 205.563C42.6601 205.563 41.572 205.563 40.4387 205.563C38.3987 205.145 36.4494 204.727 36.3587 202.447C36.268 200.167 36.132 197.887 35.86 195.645C35.6334 194.049 36.132 192.225 34.9987 190.857C32.9134 188.311 31.1 185.613 29.5587 182.801C24.5267 173.681 21.2174 164.067 18.452 154.301C15.5054 143.775 13.3747 133.173 13.2387 122.343C13.148 116.909 13.828 111.513 14.508 106.117C16.2307 92.133 20.2654 78.605 25.9774 65.419C30.1934 55.691 36.3134 46.913 45.1081 39.579C47.3747 37.717 49.7321 35.931 52.7241 34.905C56.2601 33.689 59.2521 34.449 61.4281 37.071C62.7881 38.705 63.5134 40.567 64.012 42.467C65.508 48.433 64.9187 54.437 64.4654 60.441C63.6947 71.613 61.3827 82.633 59.3881 93.691C58.8894 96.389 57.6654 98.745 55.5347 100.949C50.0947 106.573 46.0147 112.919 43.4761 119.873C41.5721 125.079 40.076 130.361 41.3454 135.871C42.1614 139.367 44.428 140.507 48.5987 139.595C50.684 139.139 52.7241 138.303 54.8547 137.961C56.1694 137.771 56.7134 137.239 57.3027 136.365C58.5267 134.427 59.932 132.527 61.292 130.627C61.7 130.057 62.3347 129.601 63.1507 130.095C63.8761 130.513 63.6041 131.083 63.2414 131.615C62.8334 132.223 62.4707 132.831 62.0627 133.439C59.3881 137.315 57.0307 141.343 55.3081 145.599C53.9027 149.133 52.6334 152.743 53.132 156.505C53.4494 158.899 55.036 159.811 57.8467 159.279C60.4307 158.823 62.8787 158.139 64.7374 156.315C65.6894 155.403 66.732 154.377 68.5 154.491C69.2254 154.567 69.8601 154.757 69.9507 155.441C70.0414 156.011 69.7241 156.467 69.1347 156.695C68.3641 156.999 67.5934 157.189 66.9587 157.683C62.1534 161.749 58.6174 166.499 56.6681 171.971C55.8974 174.327 56.7134 174.897 59.5241 174.289ZM79.652 189.641C79.2894 185.803 78.9267 181.965 78.5641 178.127C78.2921 175.619 78.0654 175.467 74.9374 175.391C69.5427 175.277 64.284 176.037 58.98 176.645C52.18 177.405 45.5614 178.849 38.8974 180.103C38.1267 180.255 37.356 180.369 37.4467 181.433C38.0814 187.779 38.6707 194.163 39.2147 200.509C39.3507 201.915 39.8947 202.409 41.7081 202.409C53.4494 202.447 65.0094 201.079 76.5694 199.559C78.7001 199.293 79.3801 198.381 79.4707 196.823C79.5614 194.467 80.0147 192.073 79.652 189.641ZM45.8787 277.687C45.4707 274.989 45.1987 272.367 45.4707 269.707C45.8334 265.755 46.3321 261.803 46.6494 257.813C46.6947 257.129 47.3747 255.951 45.5161 256.141C42.9774 256.445 40.4387 256.749 37.9907 257.357C36.1321 257.851 35.9507 258.763 36.9481 259.903C38.0814 261.233 39.3961 262.449 40.7107 263.703C42.4334 265.337 42.252 265.983 39.7134 266.705C36.4947 267.655 35.996 268.719 37.9 271.189C39.94 273.849 42.8867 275.749 45.8787 277.687Z" fill="#070605"/>
<path d="M91.9374 256.825C89.0361 257.395 86.0441 257.357 83.0067 258.687C83.1881 255.685 83.6414 253.063 83.7774 250.441C84.2761 241.055 82.3267 232.049 77.6574 223.499C75.9801 220.497 73.8947 217.723 70.9027 215.481C65.1001 211.111 58.3454 211.681 53.6761 216.925C50.6387 220.345 49.1881 224.335 48.1907 228.439C48.0094 229.161 48.5987 230.529 46.9214 230.377C45.4707 230.263 43.9747 229.845 43.8387 228.135C43.5214 223.499 43.9747 218.901 44.8361 214.341C45.2441 212.251 45.4254 210.085 46.3774 208.071C46.9214 208.033 47.4201 208.071 47.9641 207.995C53.0867 207.273 58.1641 206.475 63.2867 205.791C69.3161 205.031 75.3001 204.195 81.2841 203.207C85.4547 202.485 86.5427 201.535 86.7694 198.077C86.9054 196.139 86.8147 194.163 86.9054 192.187C87.1321 188.159 87.0414 184.131 85.9081 180.179C85.2734 177.937 84.1401 177.177 81.3294 176.949C79.8334 173.263 79.5161 173.073 74.6654 173.073C73.1694 173.073 71.6281 173.111 70.1321 173.187C68.6361 173.263 67.1401 173.453 65.3267 173.605C67.0494 171.325 69.1801 169.767 71.3107 168.171C86.7241 156.809 105.039 151.337 125.212 149.703C126.889 149.551 127.977 149.133 128.023 147.613C128.023 146.967 128.34 146.359 128.703 145.827C144.479 123.369 159.348 100.455 175.759 78.339C188.044 61.771 202.279 46.305 218.463 32.245C225.807 25.861 233.695 19.971 241.9 14.347C248.247 9.97702 255.001 6.21502 263.252 4.77102C268.737 3.82102 273.135 5.26502 276.036 9.29302C279.617 14.233 281.295 19.781 282.065 25.481C284.151 40.833 283.199 56.185 281.295 71.537C279.436 86.395 277.169 101.215 273.815 115.883C267.785 142.369 257.676 167.715 241.628 191.237C237.911 196.671 233.831 201.991 228.799 206.589C226.124 209.059 224.855 211.719 224.039 214.721C223.812 215.519 223.177 215.671 222.543 215.937C219.052 217.419 215.561 218.901 212.071 220.421C210.529 221.067 209.623 221.941 210.756 223.423C208.943 225.285 207.039 227.071 205.588 229.123C203.321 232.277 201.961 235.811 199.74 238.927C192.713 248.845 181.924 254.773 169.276 258.573C168.007 258.953 166.601 259.105 166.103 260.397C165.649 260.549 165.196 260.739 164.743 260.891C165.831 258.763 167.009 256.673 167.961 254.507C170.908 247.781 171.633 240.827 170.817 233.721C172.721 233.721 174.535 233.379 176.348 232.923C181.425 231.631 184.191 228.439 186.321 224.677C186.684 224.031 187.047 223.043 186.095 222.625C184.961 222.169 184.961 223.309 184.508 223.803C181.924 226.653 178.66 228.667 174.489 229.617C173.039 229.959 172.404 229.731 171.996 228.401C170.455 223.461 167.735 218.977 163.972 214.949C151.641 201.877 131.695 201.459 118.775 214.113C112.065 220.687 108.983 228.515 108.167 237.027C107.351 245.387 109.255 253.367 113.652 260.891C110.615 259.523 107.713 257.927 104.223 257.357C100.097 256.825 96.0627 256.027 91.9374 256.825ZM166.919 169.805C166.103 168.589 164.833 167.905 163.201 167.677C160.572 167.297 157.943 167.373 155.313 167.449C143.028 167.715 130.788 168.513 118.548 169.311C116.417 169.463 115.737 170.299 115.692 171.971C115.511 179.191 116.236 186.373 117.097 193.517C117.551 197.051 118.14 197.545 122.265 198.495C122.492 198.533 122.673 198.609 122.9 198.685C123.127 199.635 123.852 200.015 124.94 200.205C126.345 200.471 127.751 200.585 129.201 200.509C135.367 200.281 141.532 200.015 147.697 199.787C154.407 199.559 161.025 198.761 167.553 197.621C169.956 197.203 170.908 196.025 171.044 194.049C171.361 189.375 171.86 184.739 172.223 180.103C172.359 178.013 172.404 175.923 172.313 173.833C172.177 170.907 169.684 169.083 166.919 169.805ZM221.364 194.999C221.183 195.607 220.367 196.291 221.273 196.899C222.271 197.545 222.951 196.747 223.631 196.329C225.127 195.417 226.169 194.163 227.121 192.871C233.921 183.979 240.268 174.897 245.391 165.207C254.729 147.613 261.529 129.373 266.244 110.525C268.193 102.811 270.188 95.097 271.548 87.307C272.817 79.859 273.86 72.411 274.54 64.925C275.311 56.907 276.399 48.927 276.127 40.909C275.991 36.805 275.492 32.701 272.999 29.015C271.049 26.165 268.284 25.139 264.476 25.709C259.489 26.469 255.545 28.939 251.556 31.333C243.713 36.121 237.004 41.745 232.244 48.927C230.793 51.131 231.247 51.739 234.193 52.043C237.503 52.385 240.721 53.107 243.351 54.969C245.663 56.603 246.615 58.655 245.935 61.201C245.209 64.089 243.396 66.445 241.175 68.611C237.049 72.639 231.972 75.717 226.713 78.567C225.943 78.985 224.673 79.403 225.399 80.391C226.169 81.417 227.167 80.505 227.937 80.125C230.703 78.795 233.241 77.237 235.735 75.603C236.279 75.261 236.687 74.653 237.684 74.919C239.271 75.337 240.948 75.489 242.489 75.945C247.113 77.351 248.881 80.353 247.793 84.381C247.249 86.319 246.297 88.067 245.073 89.739C241.129 95.211 235.644 99.429 229.615 103.191C219.868 109.309 209.124 113.755 197.383 116.605C196.476 116.833 194.889 116.871 195.297 118.087C195.66 119.113 196.975 118.619 197.881 118.467C203.231 117.631 208.353 116.111 213.204 114.059C215.516 113.071 216.921 113.261 218.735 114.781C221.137 116.757 223.177 118.733 222.724 121.811C222.316 124.509 221.183 126.941 219.279 129.107C216.151 132.717 212.524 135.985 208.217 138.569C195.841 146.055 182.559 152.021 167.417 154.567C166.556 154.719 164.879 154.643 165.105 155.859C165.287 156.999 166.737 156.847 167.735 156.733C170.817 156.391 173.764 157.075 176.62 157.835C188.497 160.989 198.471 166.537 206.449 174.593C207.22 175.391 207.809 176.569 209.487 176.075C212.751 179.913 215.516 183.979 217.692 188.349C218.78 190.629 219.369 193.099 221.364 194.999Z" fill="#EDCF5D"/>
<path d="M34.1378 218.065C26.8845 206.361 21.0365 194.163 16.5938 181.509C13.0578 171.515 9.43114 161.521 7.79914 151.109C5.48714 136.365 4.80714 121.583 6.03114 106.763C7.43648 89.549 12.2871 73.019 21.0818 57.401C28.9245 43.493 39.0338 31.029 54.4925 22.175C58.3458 19.971 62.4711 18.071 66.8231 16.627C74.0311 14.233 78.4285 15.525 82.0551 21.263C85.6365 26.849 87.4498 32.929 88.4925 39.161C90.4871 50.979 90.5325 62.873 91.2125 74.767C92.4818 96.845 96.9245 118.353 106.082 139.139C106.671 140.507 107.396 141.837 108.031 143.167C104.404 144.497 100.687 145.751 97.1058 147.233C84.7298 152.363 74.3485 159.697 65.0098 168.133C62.9245 169.995 60.8845 171.971 59.4338 174.289C56.6231 174.897 55.8525 174.327 56.6685 171.971C58.6178 166.499 62.1538 161.749 66.9591 157.683C67.5485 157.189 68.3645 156.961 69.1351 156.695C69.7245 156.467 70.0418 156.049 69.9511 155.441C69.8151 154.757 69.2258 154.567 68.5005 154.491C66.7325 154.339 65.6445 155.365 64.7378 156.315C62.8791 158.139 60.4311 158.785 57.8471 159.279C55.0365 159.773 53.4498 158.899 53.1325 156.505C52.5885 152.705 53.8578 149.133 55.3085 145.599C57.0311 141.343 59.3885 137.315 62.0631 133.439C62.4711 132.831 62.8338 132.223 63.2418 131.615C63.6045 131.083 63.8765 130.513 63.1511 130.095C62.3351 129.601 61.7005 130.057 61.2925 130.627C59.9325 132.527 58.5271 134.389 57.3031 136.365C56.7591 137.239 56.2151 137.771 54.8551 137.961C52.7245 138.303 50.7298 139.101 48.5991 139.595C44.4285 140.507 42.1618 139.367 41.3458 135.871C40.0311 130.361 41.5725 125.079 43.4765 119.873C46.0151 112.919 50.0951 106.573 55.5351 100.949C57.7111 98.707 58.9351 96.351 59.3885 93.691C61.3831 82.633 63.6951 71.613 64.4658 60.441C64.8738 54.437 65.5085 48.433 64.0125 42.467C63.5138 40.529 62.7885 38.705 61.4285 37.071C59.2525 34.449 56.2605 33.689 52.7245 34.905C49.7325 35.931 47.3751 37.717 45.1085 39.579C36.2685 46.913 30.1938 55.691 25.9778 65.419C20.2658 78.605 16.2311 92.133 14.5085 106.117C13.8285 111.513 13.1485 116.909 13.2391 122.343C13.3751 133.173 15.5058 143.813 18.4525 154.301C21.2178 164.067 24.5271 173.681 29.5591 182.801C31.1005 185.613 32.9138 188.273 34.9991 190.857C36.1325 192.225 35.6338 194.049 35.8605 195.645C36.1778 197.887 36.2685 200.167 36.3591 202.447C36.4498 204.727 38.3991 205.145 40.4391 205.563C38.0818 209.591 35.7698 213.733 34.1378 218.065Z" fill="#ECCF5D"/>
<path d="M166.058 260.473C166.556 259.181 167.962 259.029 169.231 258.649C181.924 254.849 192.668 248.921 199.695 239.003C201.916 235.849 203.276 232.353 205.543 229.199C207.039 227.147 208.943 225.361 210.711 223.499C212.252 223.955 213.476 223.271 214.746 222.663C220.14 220.117 225.535 217.571 231.7 216.659C231.519 219.737 229.615 222.283 227.892 224.829C226.532 226.881 224.946 228.819 223.45 230.795C222.271 231.251 221.863 231.973 222.498 232.923C223.042 233.759 223.994 233.607 224.9 233.303C228.572 232.125 232.38 231.517 236.234 231.061C236.823 235.925 235.146 240.409 233.242 244.931C232.199 247.325 230.612 249.605 230.431 252.265C229.207 254.127 227.394 255.571 225.671 257.053C207.991 272.405 188.226 285.287 164.38 293.305C151.324 297.713 137.679 299.993 123.671 300.867C109.754 301.703 96.0178 300.867 82.6898 297.447C70.7218 294.369 60.4765 288.631 52.1805 280.727C48.8258 277.535 48.8711 273.393 48.8711 269.365C48.8711 268.149 49.0978 266.971 49.1885 265.755C51.0471 266.097 53.0418 266.059 54.8551 266.705C54.9005 268.909 56.7138 270.201 58.2551 271.683C58.0738 271.759 57.8471 271.911 57.6658 271.911C56.2151 271.987 54.9005 272.367 54.6285 273.735C54.3111 275.217 55.6711 275.863 56.9858 276.395C59.4791 277.459 62.1991 278.219 64.9645 278.333C68.0471 278.485 71.3111 279.093 74.2125 277.459C75.0285 278.257 75.7991 279.093 76.6151 279.891C77.0685 280.347 77.6125 280.461 78.1565 280.119C78.6551 279.815 78.5191 279.359 78.2471 278.941C77.3858 277.497 76.6151 276.053 75.7538 274.571C79.8791 275.711 83.0978 274.153 85.8631 271.873C87.6311 270.391 89.2631 268.643 88.1751 266.249C88.8098 262.829 86.3618 261.461 82.4631 260.853C85.9085 259.637 88.9911 258.839 92.3005 258.649C93.1165 258.611 94.3858 258.953 94.4311 257.813C94.4765 256.597 93.0711 257.205 92.3458 256.939C92.2098 256.901 92.0738 256.825 91.9378 256.749C96.0631 255.989 100.098 256.749 104.132 257.357C107.623 257.889 110.524 259.523 113.562 260.891C114.468 262.069 115.284 263.247 116.236 264.387C122.356 271.607 130.29 276.243 141.17 276.661C140.58 279.245 141.759 280.385 144.57 280.613C151.143 281.183 157.399 280.081 163.338 277.649C164.562 277.155 165.378 276.319 165.151 275.065C164.924 273.811 163.791 273.393 162.522 273.051C160.3 272.481 158.079 272.861 155.812 273.013C156.402 272.633 156.991 272.253 157.58 271.873C161.388 269.403 164.516 266.477 166.783 262.905C167.418 261.993 168.143 260.891 166.058 260.473ZM103.498 297.865C113.607 297.903 119.591 293.875 121.042 286.693C121.54 284.261 120.407 281.905 118.14 280.727C115.738 279.473 113.607 280.005 111.431 281.259C107.124 283.843 102.364 284.717 97.1058 283.805C94.7485 283.425 92.3005 283.349 90.3511 285.021C86.6338 288.137 87.4045 293.343 91.9831 295.433C95.8365 297.257 100.098 297.675 103.498 297.865Z" fill="#FBF1ED"/>
<path d="M54.4922 98.289C54.3562 98.441 54.2202 98.593 54.0842 98.707C53.2682 98.745 53.0868 99.201 53.1322 99.771C52.9962 99.923 52.8602 100.075 52.7242 100.227C51.9082 100.265 51.6815 100.721 51.7722 101.329C51.6362 101.481 51.5002 101.633 51.4095 101.785C50.5482 101.823 50.3669 102.279 50.4575 102.887C49.5509 102.925 49.4149 103.381 49.5509 104.027C48.7802 103.951 48.5535 104.521 48.2362 104.901C41.8895 112.577 37.4015 120.975 35.1349 130.133C34.5002 132.679 34.2282 135.225 34.5455 137.847C35.3162 143.699 40.3029 147.879 47.0575 148.145C48.3722 148.183 48.8255 148.525 48.5988 149.589C48.1455 151.793 47.9189 153.997 48.1909 156.201C48.5989 159.507 49.3242 162.775 52.5429 165.055C53.7215 165.891 53.8575 166.537 53.3588 167.639C52.2255 170.147 51.4548 172.693 51.7268 175.429C47.0575 176.341 42.3428 177.253 37.6735 178.203C35.0442 178.735 34.4095 179.457 34.6362 181.813C34.7722 183.561 34.9535 185.347 34.7268 187.247C34.0922 186.183 33.3668 185.119 32.7775 184.017C25.6148 170.831 20.8548 157.037 17.7722 142.787C15.8682 134.047 15.0522 125.231 15.6415 116.377C16.7748 99.163 20.9002 82.443 27.9722 66.217C31.2362 58.807 35.4975 51.929 41.4815 45.849C42.5242 44.785 43.5215 43.645 44.9722 42.885C46.8308 42.885 48.3722 42.011 50.1402 41.631C55.8068 40.415 58.1642 41.631 58.6629 46.381C59.5242 54.209 59.1615 62.037 58.4815 69.827C57.6655 79.327 56.2602 88.827 54.4922 98.289Z" fill="#FBF1EE"/>
<path d="M79.6525 189.641C80.0151 192.035 79.5618 194.429 79.4258 196.823C79.3351 198.381 78.6551 199.293 76.5245 199.559C64.9645 201.079 53.4045 202.447 41.6632 202.409C39.8952 202.409 39.3058 201.915 39.1698 200.509C38.6258 194.163 38.0365 187.779 37.4018 181.433C37.3112 180.407 38.0818 180.255 38.8525 180.103C45.5165 178.811 52.1352 177.405 58.9352 176.645C64.2392 176.037 69.4978 175.277 74.8925 175.391C78.0205 175.467 78.2471 175.581 78.5191 178.127C78.9271 181.965 79.2898 185.803 79.6525 189.641Z" fill="#F4FB95"/>
<path d="M50.4121 232.657C51.6814 231.023 51.6361 229.047 52.2708 227.223C53.2228 224.411 54.3108 221.675 56.3054 219.243C59.7054 215.139 64.1934 214.721 68.5454 218.141C72.9428 221.561 75.4361 225.969 77.1134 230.681C80.3774 239.687 81.7374 248.807 79.9241 258.193C79.7428 259.219 79.3348 259.865 78.2015 260.397C74.1215 262.335 71.6281 265.185 71.6281 269.251C71.6281 270.163 71.2201 270.543 70.1774 271.037C64.9641 273.469 59.9775 271.303 57.3481 268.111C56.8495 267.503 56.3508 266.857 55.8068 266.249C52.9961 260.169 51.5908 253.861 50.7748 247.363C50.2308 242.461 50.5481 237.559 50.4121 232.657ZM76.0708 242.879C76.0254 240.865 75.9348 238.851 74.8468 236.951C73.2148 234.139 69.9054 233.113 66.5054 234.405C65.1001 234.937 63.9215 235.735 63.0148 236.761C62.2895 237.635 61.7908 237.825 60.5668 237.141C56.6681 235.013 53.2228 236.153 52.2254 239.991C50.7748 245.577 52.4974 250.707 56.3961 255.229C60.3854 259.903 66.5961 259.865 70.8574 255.343C74.2574 251.695 76.1161 247.553 76.0708 242.879Z" fill="#FBFBFA"/>
<path d="M51.7716 175.391C51.4996 172.693 52.2703 170.109 53.4036 167.601C53.9023 166.537 53.7663 165.853 52.5876 165.017C49.369 162.737 48.5983 159.469 48.2356 156.163C47.9636 153.959 48.1903 151.755 48.6436 149.551C48.8703 148.487 48.417 148.145 47.1023 148.107C40.3023 147.841 35.361 143.661 34.5903 137.809C34.2276 135.187 34.545 132.641 35.1796 130.095C37.4463 120.937 41.9343 112.539 48.281 104.863C48.5983 104.483 48.7796 103.913 49.5956 103.989C49.1876 105.509 47.9183 106.611 47.057 107.903C42.2516 115.085 39.2143 122.723 38.3983 130.969C38.217 132.869 38.489 134.769 38.9876 136.593C40.2116 141.077 43.929 142.901 49.3236 141.799C51.2276 141.419 52.9956 140.773 55.1263 139.937C53.6756 143.319 52.1343 146.359 51.3183 149.589C50.7743 151.717 50.457 153.807 50.5023 155.973C50.593 159.925 52.9956 161.901 57.7103 161.711C58.345 161.673 59.025 161.331 59.6596 161.749L59.5236 161.787C57.801 164.637 55.761 167.335 54.809 170.451C54.3556 171.971 53.857 173.491 55.217 174.897C53.993 175.087 52.905 175.239 51.7716 175.391Z" fill="#A0908A"/>
<path d="M59.5244 174.289C60.9297 171.971 63.0151 170.033 65.1004 168.133C74.4391 159.697 84.8204 152.363 97.1964 147.233C100.778 145.751 104.495 144.535 108.122 143.167C109.3 144.839 111.658 146.739 111.295 148.145C110.978 149.513 107.396 149.361 105.311 149.931C90.6231 153.883 77.1591 159.621 66.4151 169.121C64.9644 170.413 63.5591 171.705 62.7431 173.377C62.1084 174.479 60.6577 174.251 59.5244 174.289Z" fill="#927234"/>
<path d="M54.4917 98.289C56.2597 88.827 57.665 79.327 58.481 69.789C59.161 61.999 59.5237 54.171 58.6624 46.343C58.1184 41.593 55.8063 40.377 50.1397 41.593C48.417 41.973 46.8303 42.847 44.9717 42.847C47.2383 40.187 50.1397 38.135 53.6757 36.729C56.1237 35.779 58.0277 36.349 59.4783 38.325C61.4277 40.985 61.9717 44.025 62.1077 47.027C62.5157 57.287 61.337 67.471 59.6144 77.617C58.5717 83.811 57.8917 90.005 56.3503 96.123C56.1237 97.149 55.6703 97.909 54.4917 98.289Z" fill="#A0908A"/>
<path d="M81.2842 176.987C84.0495 177.215 85.1829 177.975 85.8629 180.217C86.9962 184.169 87.0868 188.197 86.8602 192.225C86.7695 194.163 86.8149 196.139 86.7242 198.115C86.4975 201.573 85.4095 202.561 81.2389 203.245C75.2549 204.271 69.2709 205.069 63.2415 205.829C58.1189 206.475 53.0415 207.273 47.9189 208.033C47.4202 208.109 46.8762 208.071 46.3322 208.109C46.2415 206.133 47.3749 205.563 49.7322 205.411C59.3429 204.879 68.9082 203.625 78.3829 202.143C80.6042 201.801 81.8735 200.737 82.2815 198.913C83.1429 195.417 82.8255 191.845 82.5082 188.311C82.1909 184.549 81.6922 180.787 81.2842 176.987Z" fill="#927234"/>
<path d="M45.8788 277.687C42.8414 275.749 39.9401 273.849 37.9001 271.227C35.9961 268.757 36.4948 267.693 39.7134 266.743C42.2521 265.983 42.4334 265.375 40.7108 263.741C39.3961 262.525 38.1268 261.271 36.9481 259.941C35.9508 258.801 36.1321 257.889 37.9908 257.395C40.4388 256.749 42.9774 256.445 45.5161 256.179C47.3294 255.951 46.6948 257.167 46.6494 257.851C46.2868 261.803 45.8334 265.755 45.4708 269.745C45.2441 272.367 45.5161 275.027 45.8788 277.687Z" fill="#ECCF5D"/>
<path d="M50.4122 232.657C50.5482 237.559 50.2309 242.461 50.8202 247.363C51.6362 253.823 53.0416 260.169 55.8522 266.249C55.4896 266.401 55.1269 266.553 54.8096 266.705C52.9962 266.059 51.0469 266.097 49.1429 265.755C49.2789 261.043 49.9589 256.331 49.3696 251.581C48.6442 245.425 47.2389 239.383 45.0176 233.341C46.9669 233.303 48.7802 233.303 50.4122 232.657Z" fill="#ECCF5D"/>
<path d="M230.431 252.227C230.612 249.567 232.199 247.287 233.241 244.893C235.191 240.409 236.868 235.887 236.233 231.023C241.719 230.909 244.167 233.645 242.353 237.977C240.585 242.157 237.185 245.463 234.012 248.921C232.969 250.137 232.063 251.505 230.431 252.227Z" fill="#A0908A"/>
<path d="M34.1377 218.065C35.7697 213.733 38.0817 209.629 40.439 205.563C41.527 205.563 42.6604 205.563 43.9297 205.563C41.4817 212.631 40.2577 219.661 40.2124 226.881C37.719 224.145 35.9057 221.105 34.1377 218.065Z" fill="#927234"/>
<path d="M74.1667 277.497C71.2654 279.131 68.0014 278.523 64.9187 278.371C62.1534 278.257 59.4334 277.497 56.9401 276.433C55.6254 275.863 54.2654 275.255 54.5827 273.773C54.8547 272.405 56.1694 272.025 57.6201 271.949C57.8467 271.949 58.0281 271.797 58.2094 271.721C61.9721 274.267 66.1427 275.065 70.7667 273.659C71.6734 273.393 72.0361 273.507 72.3534 274.305C72.8521 275.407 73.5774 276.433 74.1667 277.497Z" fill="#F69376"/>
<path d="M223.495 230.757C224.991 228.781 226.578 226.843 227.938 224.791C229.66 222.207 231.564 219.699 231.746 216.621C231.836 216.621 231.882 216.583 231.972 216.583C236.778 215.823 238.274 217.343 236.642 221.295C235.599 223.803 233.74 225.893 231.202 227.413C228.844 228.781 226.306 230.035 223.495 230.757Z" fill="#A0908A"/>
<path d="M88.1749 266.287C89.2629 268.681 87.6309 270.429 85.8629 271.911C83.0976 274.191 79.9243 275.749 75.7536 274.609C75.0283 273.887 74.9376 272.975 74.7109 272.139C74.8469 272.063 74.9376 271.949 75.0736 271.873C77.2043 273.089 79.2896 272.747 81.3749 271.835C84.3216 270.543 86.4523 268.605 88.1749 266.287Z" fill="#A0908A"/>
<path d="M85.681 264.729C84.9103 267.123 80.785 270.201 78.1103 270.353C76.7957 270.429 76.1156 269.745 75.9796 268.795C75.7983 267.655 75.7983 266.515 76.5237 265.451C79.1077 267.123 81.601 266.591 84.0943 265.299C84.593 265.071 85.137 264.919 85.681 264.729Z" fill="#7B2D2D"/>
<path d="M85.6812 264.729C85.1372 264.919 84.5479 265.071 84.0492 265.337C81.5559 266.629 79.0625 267.161 76.4785 265.489C76.6145 264.083 77.5212 263.399 79.1532 263.133C82.0092 262.601 84.6385 263.209 85.6812 264.729Z" fill="#927234"/>
<path d="M53.1324 99.809C53.0871 99.239 53.2684 98.783 54.0844 98.745C54.1298 99.277 53.8124 99.657 53.1324 99.809Z" fill="#A0908A"/>
<path d="M51.7721 101.329C51.7267 100.721 51.9081 100.303 52.7241 100.227C52.7241 100.797 52.4521 101.177 51.7721 101.329Z" fill="#A0908A"/>
<path d="M50.4575 102.887C50.3215 102.241 50.5482 101.823 51.4095 101.785C51.4095 102.355 51.1375 102.735 50.4575 102.887Z" fill="#A0908A"/>
<path d="M49.5504 104.027C49.4144 103.419 49.5958 102.925 50.4571 102.887C50.5024 103.457 50.2304 103.875 49.5504 104.027Z" fill="#A0908A"/>
<path d="M59.5698 161.825C59.5698 161.749 59.5698 161.673 59.5698 161.597C59.6151 161.597 59.7057 161.597 59.7511 161.597C59.6604 161.673 59.6151 161.749 59.5244 161.825C59.5244 161.787 59.5698 161.825 59.5698 161.825Z" fill="#A0908A"/>
<path d="M74.7104 272.177C74.7104 272.025 74.665 271.873 74.665 271.721C74.801 271.797 74.937 271.835 75.073 271.911C74.937 271.987 74.8464 272.063 74.7104 272.177Z" fill="#A0908A"/>
<path d="M221.364 194.999C219.369 193.099 218.78 190.629 217.692 188.425C215.47 184.055 212.75 179.989 209.486 176.151C209.894 175.315 209.305 174.745 208.897 174.061C206.494 170.375 202.958 167.525 199.196 164.827C197.972 162.129 195.388 160.381 192.985 158.519C191.67 157.493 190.265 156.619 188.724 155.555C193.302 154.225 197.609 153.009 201.508 151.071C211.934 145.827 221.273 139.633 226.124 129.829C228.662 124.661 229.388 119.417 225.988 114.287C225.398 113.413 225.67 113.109 226.577 112.691C232.198 110.069 237.004 106.649 241.265 102.697C246.932 97.453 250.876 91.335 252.825 84.457C254.049 80.049 250.377 75.071 245.844 74.425C245.436 74.273 244.982 74.083 244.574 73.931C243.441 73.171 243.713 72.525 244.529 71.651C246.796 69.257 248.609 66.635 249.289 63.595C249.516 62.607 250.15 61.505 248.79 60.707C248.564 55.881 246.388 53.259 240.948 51.625C239.316 51.131 237.638 50.675 235.961 50.561C233.876 50.409 233.966 49.915 234.918 48.661C238.953 43.303 244.076 38.781 250.06 34.943C254.049 32.359 258.038 29.699 262.889 28.293C267.694 26.887 269.961 27.875 271.865 31.865C273.633 35.589 273.95 39.541 273.905 43.417C273.814 50.941 272.908 58.427 272.364 65.913C271.82 73.361 270.777 80.733 269.372 88.067C267.105 99.695 263.977 111.171 260.396 122.571C254.14 142.369 246.116 161.597 233.694 179.381C229.796 184.701 226.35 190.249 221.364 194.999Z" fill="#FBF1EE"/>
<path d="M170.726 233.797C171.542 240.903 170.817 247.857 167.87 254.583C166.918 256.749 165.74 258.839 164.652 260.967H164.697C164.334 261.005 164.244 261.233 164.198 261.461C162.294 264.121 159.937 266.515 157.081 268.529C149.737 273.773 141.441 275.483 132.238 272.633C126.164 270.771 121.585 267.161 118.14 262.639C111.249 253.595 109.39 243.677 111.385 233.189C112.7 226.387 115.918 220.269 121.449 215.101C131.83 205.373 147.334 204.993 158.396 214.189C164.017 218.863 167.281 224.601 169.23 230.985C169.548 231.973 169.502 233.113 170.726 233.797ZM119.318 239.801C119.092 242.195 119.817 244.361 121.268 246.337C125.892 252.645 132.284 257.129 140.852 259.371C143.118 259.941 145.204 259.789 147.108 258.649C156.265 253.177 162.158 246.033 161.388 236.305C160.844 229.503 157.217 226.121 150.689 226.159C146.836 226.159 143.39 227.337 140.716 229.655C139.537 230.681 138.993 230.833 137.361 229.959C131.196 226.729 123.217 227.071 120.27 234.557C119.59 236.305 119.137 238.015 119.318 239.801Z" fill="#FCFCFC"/>
<path d="M244.575 73.893C244.983 74.045 245.436 74.235 245.844 74.387C249.471 76.743 251.601 79.669 250.831 83.659C250.468 85.483 249.788 87.231 248.791 88.865C245.436 94.375 240.404 98.707 234.828 102.659C229.932 106.155 224.583 109.081 218.871 111.817C219.641 112.387 220.231 112.843 220.865 113.299C225.399 116.415 226.441 120.291 224.764 124.889C223.903 127.283 222.452 129.411 220.729 131.425C215.516 137.391 208.852 142.027 201.281 145.713C193.439 149.513 185.279 152.705 176.439 155.137C176.983 155.365 177.255 155.555 177.617 155.631C184.735 157.303 191.172 160.153 197.156 163.801C197.791 164.181 198.289 164.865 199.241 164.789C202.959 167.487 206.495 170.375 208.943 174.023C209.396 174.669 209.94 175.277 209.532 176.113C207.855 176.607 207.265 175.429 206.495 174.631C198.516 166.613 188.497 161.065 176.665 157.873C173.809 157.113 170.908 156.429 167.78 156.771C166.783 156.885 165.332 157.037 165.151 155.897C164.969 154.643 166.601 154.719 167.463 154.605C182.649 152.059 195.887 146.131 208.263 138.607C212.569 135.985 216.196 132.755 219.324 129.145C221.228 126.941 222.316 124.509 222.769 121.849C223.268 118.771 221.228 116.795 218.78 114.819C216.967 113.337 215.561 113.147 213.249 114.097C208.399 116.149 203.276 117.669 197.927 118.505C197.02 118.657 195.66 119.113 195.343 118.125C194.935 116.909 196.567 116.833 197.428 116.643C209.124 113.831 219.868 109.347 229.66 103.229C235.689 99.467 241.175 95.211 245.119 89.777C246.343 88.105 247.295 86.357 247.839 84.419C248.972 80.391 247.159 77.389 242.535 75.983C240.993 75.527 239.316 75.375 237.729 74.957C236.732 74.691 236.324 75.299 235.78 75.641C233.287 77.275 230.703 78.833 227.983 80.163C227.212 80.543 226.26 81.455 225.444 80.429C224.719 79.441 225.988 79.023 226.759 78.605C232.063 75.755 237.095 72.677 241.22 68.649C243.441 66.483 245.255 64.127 245.98 61.239C246.66 58.655 245.708 56.641 243.396 55.007C240.767 53.145 237.593 52.423 234.239 52.081C231.247 51.777 230.793 51.169 232.289 48.965C237.049 41.821 243.759 36.159 251.601 31.371C255.545 28.977 259.489 26.507 264.521 25.747C268.375 25.139 271.14 26.203 273.044 29.053C275.537 32.739 276.036 36.843 276.172 40.947C276.444 49.003 275.356 56.983 274.585 64.963C273.86 72.449 272.863 79.897 271.593 87.345C270.279 95.135 268.239 102.849 266.289 110.563C261.575 129.373 254.729 147.651 245.436 165.245C240.313 174.897 233.921 184.017 227.167 192.909C226.215 194.201 225.127 195.455 223.676 196.367C222.996 196.785 222.316 197.583 221.319 196.937C220.412 196.329 221.228 195.683 221.409 195.037C226.396 190.325 229.841 184.739 233.604 179.343C246.025 161.597 254.049 142.331 260.305 122.533C263.887 111.171 267.015 99.657 269.281 88.029C270.732 80.695 271.729 73.285 272.273 65.875C272.817 58.389 273.724 50.865 273.815 43.379C273.86 39.503 273.588 35.551 271.775 31.827C269.871 27.875 267.604 26.849 262.799 28.255C257.948 29.661 254.004 32.321 249.969 34.905C243.985 38.743 238.908 43.303 234.828 48.623C233.876 49.877 233.785 50.409 235.871 50.523C237.548 50.637 239.271 51.093 240.857 51.587C246.252 53.221 248.473 55.843 248.7 60.669C247.431 65.571 243.759 69.257 239.497 72.943C241.537 73.323 243.033 73.627 244.575 73.893Z" fill="#090805"/>
<path d="M170.727 233.797C169.457 233.113 169.503 231.973 169.231 230.947C167.281 224.601 164.017 218.825 158.396 214.151C147.38 204.955 131.876 205.373 121.449 215.063C115.919 220.231 112.655 226.387 111.385 233.151C109.391 243.601 111.295 253.557 118.14 262.601C121.585 267.123 126.119 270.733 132.239 272.595C141.441 275.445 149.737 273.735 157.081 268.491C159.892 266.477 162.249 264.083 164.199 261.423C164.516 261.347 164.697 261.195 164.697 260.929H164.652C165.105 260.777 165.559 260.587 166.012 260.435C168.097 260.853 167.372 261.993 166.783 262.905C164.516 266.439 161.343 269.403 157.58 271.873C156.991 272.253 156.401 272.633 155.812 273.013C151.279 275.179 146.473 276.623 141.169 276.661C130.289 276.281 122.356 271.645 116.236 264.387C115.284 263.247 114.423 262.069 113.561 260.891C109.164 253.367 107.26 245.387 108.076 237.027C108.892 228.515 111.975 220.687 118.684 214.113C131.604 201.459 151.551 201.877 163.881 214.949C167.689 218.977 170.364 223.461 171.905 228.401C172.313 229.731 172.948 229.959 174.399 229.617C178.569 228.667 181.833 226.653 184.417 223.803C184.871 223.309 184.871 222.169 186.004 222.625C187.001 223.043 186.593 224.031 186.231 224.677C184.1 228.401 181.289 231.631 176.257 232.923C174.444 233.455 172.631 233.797 170.727 233.797Z" fill="#090805"/>
<path d="M122.945 198.685C122.719 198.609 122.537 198.533 122.311 198.495C118.14 197.545 117.596 197.051 117.143 193.517C116.236 186.373 115.511 179.191 115.737 171.971C115.783 170.299 116.417 169.425 118.593 169.311C130.833 168.513 143.073 167.715 155.359 167.449C157.988 167.411 160.617 167.335 163.247 167.677C164.879 167.905 166.148 168.551 166.964 169.805C167.145 170.527 167.417 171.287 167.463 172.009C167.916 175.885 168.46 179.799 168.687 183.713C168.868 187.095 169.185 190.515 168.369 193.935C167.961 195.607 166.783 196.519 164.879 196.709C158.668 197.279 152.457 197.811 146.247 198.305C138.495 198.875 130.743 198.685 122.945 198.685ZM117.959 175.999C118.185 182.269 118.82 188.007 119.409 193.745C119.591 195.531 120.724 196.215 122.719 196.367C127.343 196.747 131.921 196.291 136.5 196.101C145.249 195.797 153.999 195.493 162.657 194.277C165.967 193.821 165.921 193.821 166.239 191.009C166.828 185.689 166.148 180.407 165.559 175.125C164.924 169.615 165.377 169.387 158.396 169.425C145.34 169.539 132.375 170.641 119.364 171.401C118.185 171.477 117.687 171.819 117.868 172.921C118.14 174.099 117.959 175.315 117.959 175.999Z" fill="#090805"/>
<path d="M122.945 198.685C130.697 198.685 138.495 198.875 146.247 198.267C152.457 197.773 158.668 197.241 164.879 196.671C166.783 196.481 167.961 195.569 168.369 193.897C169.185 190.515 168.868 187.095 168.687 183.675C168.46 179.761 167.916 175.885 167.463 171.971C167.372 171.211 167.1 170.489 166.964 169.767C169.684 169.045 172.177 170.869 172.359 173.833C172.495 175.923 172.449 178.013 172.268 180.103C171.951 184.777 171.452 189.413 171.089 194.049C170.953 196.025 170.001 197.203 167.599 197.621C161.025 198.761 154.407 199.559 147.743 199.787C141.577 200.015 135.412 200.281 129.247 200.509C127.796 200.547 126.391 200.471 124.985 200.205C123.943 200.015 123.172 199.635 122.945 198.685Z" fill="#927234"/>
<path d="M103.498 297.865C100.098 297.675 95.8365 297.257 91.9832 295.471C87.4045 293.381 86.6339 288.175 90.3512 285.059C92.3005 283.387 94.7485 283.425 97.1059 283.843C102.365 284.717 107.125 283.843 111.431 281.297C113.562 280.005 115.738 279.511 118.141 280.765C120.362 281.943 121.541 284.299 121.042 286.731C119.591 293.875 113.607 297.903 103.498 297.865ZM103.906 295.851C111.975 295.851 116.69 293.115 118.231 287.909C118.73 286.199 119.093 284.337 117.189 282.969C115.285 281.563 113.471 282.703 111.749 283.387C109.391 284.375 106.989 285.135 104.45 285.743C101.413 286.465 98.4659 285.667 95.4739 285.629C92.7539 285.591 91.3485 286.465 90.5779 288.745C89.8072 290.987 90.3965 292.355 92.8899 293.495C96.6072 295.205 100.733 295.661 103.906 295.851Z" fill="#090805"/>
<path d="M141.169 276.699C146.473 276.661 151.279 275.217 155.812 273.051C158.033 272.899 160.255 272.519 162.521 273.089C163.791 273.431 164.924 273.849 165.151 275.103C165.377 276.357 164.516 277.193 163.337 277.687C157.399 280.119 151.143 281.221 144.569 280.651C141.804 280.385 140.58 279.245 141.169 276.699Z" fill="#F69376"/>
<path d="M76.0706 242.879C76.0706 247.553 74.2572 251.695 70.8119 255.343C66.5959 259.865 60.3399 259.903 56.3506 255.229C52.4519 250.669 50.7292 245.539 52.1799 239.991C53.1772 236.153 56.6226 235.013 60.5212 237.141C61.7452 237.825 62.2439 237.635 62.9692 236.761C63.8759 235.735 65.0546 234.937 66.4599 234.405C69.8599 233.113 73.1692 234.139 74.8012 236.951C75.9346 238.851 76.0252 240.865 76.0706 242.879ZM72.7159 242.423C72.8066 240.941 72.6252 239.497 71.7639 238.167C70.8572 236.799 69.5879 236.343 67.7746 237.141C66.1426 237.863 65.3266 239.155 64.3292 240.333C62.8786 242.005 61.8359 242.005 60.4306 240.333C59.5239 239.269 58.2999 238.623 56.7586 238.927C55.3079 239.231 55.2172 240.485 55.1719 241.435C54.8092 246.071 56.3052 250.327 59.7506 253.975C61.8359 256.217 64.6466 256.255 66.9586 254.203C70.6759 250.935 72.5346 246.945 72.7159 242.423Z" fill="#7B2D2D"/>
<path d="M199.196 164.827C198.244 164.903 197.746 164.219 197.111 163.839C191.127 160.191 184.735 157.341 177.572 155.669C177.255 155.593 176.938 155.403 176.394 155.175C185.234 152.705 193.439 149.551 201.236 145.751C208.807 142.065 215.426 137.429 220.684 131.463C222.452 129.449 223.858 127.359 224.719 124.927C226.396 120.329 225.354 116.453 220.82 113.337C220.186 112.919 219.596 112.425 218.826 111.855C224.583 109.119 229.887 106.193 234.783 102.697C240.359 98.745 245.391 94.413 248.746 88.903C249.743 87.269 250.423 85.521 250.786 83.697C251.556 79.669 249.471 76.781 245.799 74.425C250.378 75.071 254.05 80.049 252.78 84.457C250.831 91.373 246.887 97.453 241.22 102.697C236.959 106.649 232.108 110.107 226.532 112.691C225.626 113.109 225.354 113.413 225.943 114.287C229.343 119.417 228.663 124.623 226.079 129.829C221.228 139.633 211.89 145.827 201.463 151.071C197.564 153.009 193.258 154.225 188.679 155.555C190.22 156.619 191.626 157.531 192.94 158.519C195.388 160.381 197.972 162.129 199.196 164.827Z" fill="#A0908A"/>
<path d="M244.575 73.893C243.079 73.589 241.538 73.323 239.543 72.943C243.804 69.257 247.431 65.533 248.746 60.669C250.151 61.467 249.471 62.607 249.244 63.557C248.564 66.597 246.751 69.219 244.484 71.613C243.714 72.487 243.442 73.171 244.575 73.893Z" fill="#A0908A"/>
<path d="M119.319 239.801C119.138 238.015 119.591 236.305 120.271 234.595C123.218 227.109 131.197 226.767 137.362 229.997C138.994 230.833 139.538 230.681 140.717 229.693C143.391 227.375 146.837 226.235 150.69 226.197C157.218 226.159 160.845 229.541 161.389 236.343C162.159 246.033 156.266 253.215 147.109 258.687C145.205 259.827 143.119 259.979 140.853 259.409C132.33 257.167 125.893 252.721 121.269 246.375C119.818 244.399 119.093 242.195 119.319 239.801ZM158.442 237.065C158.714 235.583 157.49 233.607 156.266 231.631C155.223 229.921 153.546 229.123 151.37 229.085C147.789 229.009 144.978 230.377 142.53 232.353C140.218 234.177 139.175 234.215 136.818 232.429C133.146 229.655 126.754 229.921 124.442 233.151C121.541 237.255 121.178 241.511 124.397 245.653C127.117 249.187 130.607 252.113 134.914 254.089C143.482 258.003 143.527 258.459 150.509 252.379C155.133 248.389 158.125 243.639 158.442 237.065Z" fill="#7B2D2D"/>
<path d="M164.697 260.929C164.697 261.195 164.516 261.347 164.198 261.423C164.198 261.195 164.334 260.967 164.697 260.929Z" fill="#EDCF5D"/>
<path d="M117.959 175.999C117.959 175.315 118.14 174.099 117.913 172.921C117.732 171.781 118.185 171.477 119.409 171.401C132.42 170.641 145.385 169.539 158.441 169.425C165.377 169.349 164.969 169.615 165.604 175.125C166.193 180.407 166.873 185.689 166.284 191.009C165.967 193.821 165.967 193.821 162.703 194.277C154.044 195.531 145.295 195.797 136.545 196.101C131.967 196.253 127.343 196.747 122.764 196.367C120.769 196.215 119.636 195.531 119.455 193.745C118.82 188.007 118.185 182.269 117.959 175.999Z" fill="#F4FB95"/>
<path d="M103.906 295.851C100.733 295.661 96.6072 295.205 92.8899 293.495C90.3965 292.355 89.7619 290.987 90.5779 288.745C91.3485 286.503 92.7539 285.629 95.4739 285.629C98.4659 285.667 101.413 286.427 104.45 285.743C106.989 285.135 109.391 284.375 111.749 283.387C113.426 282.703 115.239 281.563 117.189 282.969C119.093 284.337 118.73 286.199 118.231 287.909C116.69 293.115 111.975 295.851 103.906 295.851Z" fill="#FBFBFA"/>
<path d="M72.7161 242.423C72.5348 246.945 70.6761 250.935 66.9588 254.203C64.6468 256.255 61.8361 256.217 59.7508 253.975C56.3055 250.327 54.8095 246.071 55.1721 241.435C55.2628 240.523 55.3081 239.231 56.7588 238.927C58.3001 238.623 59.5241 239.269 60.4308 240.333C61.8815 242.005 62.8788 242.005 64.3295 240.333C65.3268 239.155 66.1428 237.863 67.7748 237.141C69.5428 236.343 70.8121 236.799 71.7641 238.167C72.6255 239.497 72.8068 240.941 72.7161 242.423ZM61.3828 244.665C59.4788 244.475 58.4361 245.387 58.7988 246.907C59.0708 248.009 59.5695 249.073 60.6121 249.909C62.0175 251.011 63.3321 251.049 64.8281 249.985C66.1881 248.997 66.8681 247.667 67.6388 246.375C68.3188 245.235 68.2735 244.057 67.0495 243.297C65.6441 242.423 64.3295 242.955 63.2868 243.981C62.7428 244.513 62.3801 245.311 61.3828 244.665Z" fill="#EF5A2D"/>
<path d="M158.441 237.065C158.124 243.639 155.132 248.427 150.508 252.417C143.572 258.497 143.481 258.041 134.913 254.127C130.607 252.151 127.071 249.187 124.396 245.691C121.177 241.511 121.54 237.293 124.441 233.189C126.753 229.959 133.1 229.655 136.817 232.467C139.175 234.253 140.217 234.215 142.529 232.391C145.023 230.415 147.833 229.047 151.369 229.123C153.591 229.161 155.268 229.997 156.265 231.669C157.489 233.569 158.759 235.545 158.441 237.065ZM132.511 241.777C132.873 243.981 133.825 246.261 136.228 247.933C137.86 249.073 139.991 249.187 141.623 248.123C144.887 245.995 146.564 243.069 146.972 239.687C147.108 238.471 146.7 237.331 145.295 236.837C143.889 236.343 142.62 236.799 141.577 237.635C141.124 237.977 140.625 238.319 140.399 238.775C139.719 240.067 139.039 240.181 137.543 239.421C134.732 237.939 132.511 238.965 132.511 241.777Z" fill="#EF5A2D"/>
<path d="M61.383 244.665C62.4256 245.311 62.743 244.513 63.2416 243.981C64.2843 242.955 65.599 242.423 67.0043 243.297C68.2283 244.057 68.319 245.197 67.5936 246.375C66.823 247.667 66.143 248.997 64.783 249.985C63.3323 251.049 61.9723 250.973 60.567 249.909C59.5243 249.073 59.0256 248.047 58.7536 246.907C58.4363 245.387 59.479 244.475 61.383 244.665Z" fill="#F0CC2D"/>
<path d="M132.51 241.777C132.465 238.965 134.732 237.977 137.542 239.421C139.038 240.181 139.718 240.067 140.398 238.775C140.625 238.319 141.124 237.977 141.577 237.635C142.62 236.799 143.889 236.305 145.294 236.837C146.7 237.369 147.108 238.509 146.972 239.687C146.564 243.107 144.886 245.995 141.622 248.123C139.945 249.225 137.86 249.111 136.228 247.933C133.87 246.261 132.918 243.943 132.51 241.777Z" fill="#F0CC2D"/>
<path d="M78.1602 417.241C84.4047 416.52 90.6492 417.051 96.8937 416.786C102.595 416.52 108.342 416.52 114.043 416.482C127.799 416.406 141.555 417.203 155.357 417.393C175.312 417.658 195.267 417.506 215.222 417.696C220.652 417.734 226.037 417.81 231.467 417.886C229.159 426.194 224.68 433.706 219.928 441.179C217.892 444.366 214.906 445.77 211.15 446.528C206.399 447.477 201.512 447.742 196.625 447.856C196.217 447.477 195.629 447.629 195.131 447.591C190.335 447.401 185.538 447.705 180.742 447.211C174.316 446.566 168.208 445.352 163.094 441.824C163.637 441.179 164.045 440.459 163.366 439.776C162.551 439.017 161.42 439.055 160.425 439.32C157.076 440.155 153.637 440.534 150.153 440.345C148.75 440.269 147.302 440.041 145.899 439.927C144.497 439.814 143.773 440.231 144.632 441.445C142.234 448.274 136.714 452.143 128.569 453.623C126.216 454.04 123.772 454.344 121.555 455.216C117.709 455.482 113.908 455.254 110.152 454.685C104.677 453.888 99.3372 452.75 95.9434 448.615C93.9524 446.187 92.0972 443.683 90.3324 441.103C85.0834 433.63 81.1014 425.625 78.1602 417.241Z" fill="#EED05E"/>
<path d="M196.624 447.856C201.511 447.743 206.398 447.477 211.15 446.529C214.905 445.77 217.937 444.366 219.928 441.179C224.634 433.706 229.159 426.194 231.467 417.886C232.372 417.468 233.277 416.899 234.363 417.544C235.449 418.227 235.223 419.214 235.042 420.162C233.775 426.763 229.747 432.454 226.399 438.372C225.313 440.307 223.865 442.09 222.643 443.987C222.417 444.366 221.603 444.783 222.372 445.239C225.223 446.946 225.222 449.564 225.403 452.067C225.63 455.33 225.132 458.327 220.652 459.503C219.521 459.807 219.702 460.224 220.426 460.831C224.001 463.714 227.575 466.635 231.15 469.519C232.1 470.277 233.187 470.96 232.779 472.212C232.372 473.54 231.06 473.768 229.612 473.882C225.177 474.261 220.743 474.526 216.308 474.602C209.656 474.678 203.05 474.564 196.398 474.83C190.063 475.096 183.773 474.451 177.438 474.033C173.456 473.768 169.474 473.692 165.538 473.123C160.153 472.326 159.158 471.567 158.479 466.977C158.388 466.408 158.117 465.801 158.298 465.308C158.886 463.221 156.85 463.107 155.447 462.462C154.859 462.197 154.678 462.538 154.451 462.918C153.682 464.321 152.234 464.928 150.515 465.118C149.293 465.27 149.067 465.725 149.067 466.749C149.067 469.025 148.886 471.302 148.298 473.502C147.936 474.83 147.03 475.475 145.401 475.399C134.768 474.754 124.225 476.082 113.636 476.575C105.039 476.954 96.4862 477.182 87.934 476.537C87.4815 476.499 87.029 476.461 86.5765 476.385C82.5492 475.589 81.8705 473.73 84.7213 471.188C87.3458 468.912 90.287 466.939 93.3188 465.042C93.5903 464.852 93.9522 464.739 94.3142 464.587C93.4092 463.752 92.5043 463.866 91.735 463.638C89.2915 462.842 87.4362 461.552 86.5765 459.427C85.4452 456.658 84.676 453.85 83.952 451.005C83.3637 448.729 84.6307 447.211 87.029 446.301C88.477 445.732 88.477 445.239 87.6625 444.063C82.2778 436.361 77.5265 428.432 75.445 419.593C75.3545 419.214 75.264 418.834 75.1735 418.493C75.0378 417.81 74.902 417.013 75.7617 416.634C76.7572 416.179 77.4812 416.672 78.0695 417.317C81.0107 425.663 84.9927 433.668 90.1965 441.217C91.9612 443.759 93.8165 446.301 95.8075 448.729C99.2013 452.864 104.541 454.04 110.016 454.799C113.817 455.33 117.618 455.596 121.419 455.33C123.229 455.899 124.994 455.292 126.713 455.14C133.546 454.533 140.107 453.054 146.261 450.436C147.121 450.095 148.117 449.791 148.388 448.881C148.886 447.439 149.338 445.959 149.791 444.518C150.108 443.569 149.745 443.19 148.569 443C147.121 442.773 145.673 442.355 144.451 441.559C143.592 440.307 144.316 439.927 145.718 440.041C147.121 440.155 148.569 440.383 149.972 440.459C153.456 440.61 156.895 440.269 160.243 439.434C161.239 439.169 162.415 439.131 163.185 439.889C163.909 440.572 163.502 441.293 162.913 441.938C161.782 442.469 159.972 442.811 159.655 443.607C159.248 444.556 160.017 445.884 160.334 447.06C160.424 447.477 160.696 447.932 160.696 448.35C160.696 449.791 161.691 450.057 163.185 450.057C171.375 450.095 179.565 449.905 187.665 449.07C190.742 448.653 193.774 448.691 196.624 447.856ZM142.325 465.004C141.103 462.766 143.501 463.487 144.542 463.069C148.207 463.107 150.062 462.197 150.334 460.034C150.56 457.986 150.424 455.861 150.424 453.813C150.424 453.092 149.972 452.599 149.157 452.94C146.08 454.268 142.641 454.685 139.564 456.013C138.162 456.203 136.714 456.278 135.356 456.544C130.65 457.455 125.808 457.606 121.012 457.682C111.102 457.872 101.781 455.368 92.5495 452.826C91.4635 452.523 90.468 451.916 89.02 451.878C89.8345 454.344 90.6037 456.696 91.4182 459.048C91.8255 460.186 92.821 460.793 94.088 461.172C96.8482 462.007 99.3823 463.259 102.324 463.714C103.048 463.828 104.405 463.942 104.134 465.004C103.907 465.801 102.821 465.649 102.007 465.687C100.378 465.801 98.4773 465.156 97.1198 465.99C93.6808 468.191 90.3322 470.543 87.3457 473.426C91.4635 473.768 95.5813 474.071 99.6538 473.957C105.491 473.806 111.373 473.388 117.211 472.933C123.41 472.478 129.7 472.478 135.854 471.643C137.166 472.023 138.524 471.833 139.836 471.833C144.949 471.871 144.813 471.871 145.085 467.66C145.221 465.763 144.451 465.004 142.325 465.004ZM165.764 461.286C166.262 461.4 166.759 461.514 167.257 461.59C167.891 461.666 168.524 461.666 168.524 462.348C168.524 463.031 167.891 463.107 167.257 463.145C166.94 463.145 166.669 463.183 166.352 463.221C161.103 463.107 162.28 462.88 162.235 466.635C162.235 467.129 162.37 467.622 162.461 468.115C162.642 469.101 163.321 469.708 164.497 469.898C168.705 470.543 172.913 471.34 177.212 470.998C179.61 471.757 182.144 471.643 184.543 471.719C197.801 471.985 211.059 471.909 224.272 471.416C224.77 471.378 225.313 471.378 225.72 470.998C223.458 468.039 220.154 465.915 217.349 463.373C216.082 462.235 214.951 461.097 212.779 461.628C212.1 461.779 211.421 461.514 211.195 460.831C211.014 460.262 211.421 459.845 211.919 459.541C212.869 459.048 213.819 458.517 214.86 458.175C218.887 456.772 220.878 454.571 220.064 450.702C219.611 448.577 219.747 448.539 217.213 448.843C210.652 449.639 204.091 450.398 197.529 450.967C188.66 451.764 179.746 452.333 170.832 453.016C169.248 452.485 167.71 453.357 166.171 453.13C163.185 452.636 160.198 452.978 157.212 452.826C156.081 452.788 155.764 453.243 155.854 454.078C155.99 455.216 156.126 456.316 156.352 457.417C156.578 458.479 157.031 459.617 158.433 459.92C160.967 460.49 163.23 461.476 165.764 461.286ZM158.117 448.881C157.664 447.249 157.212 445.808 156.895 444.328C156.759 443.569 156.307 443.418 155.538 443.456C154.859 443.494 154.044 443.228 153.728 444.176C153.23 445.694 152.596 447.174 151.963 448.653C151.691 449.26 151.827 449.867 152.596 449.526C154.361 448.729 156.171 449.222 158.117 448.881Z" fill="#050504"/>
<path d="M196.625 447.856C193.774 448.691 190.788 448.653 187.846 448.957C179.701 449.829 171.556 449.981 163.366 449.943C161.873 449.943 160.877 449.715 160.877 448.236C160.877 447.818 160.651 447.401 160.515 446.946C160.244 445.77 159.429 444.442 159.837 443.493C160.153 442.697 161.963 442.355 163.095 441.824C168.253 445.352 174.362 446.566 180.742 447.211C185.539 447.705 190.335 447.401 195.132 447.591C195.629 447.629 196.172 447.477 196.625 447.856Z" fill="#917133"/>
<path d="M144.632 441.483C145.854 442.28 147.256 442.735 148.75 442.924C149.926 443.114 150.288 443.494 149.971 444.442C149.474 445.884 149.021 447.363 148.569 448.805C148.252 449.715 147.256 450.019 146.442 450.36C140.288 452.94 133.727 454.457 126.894 455.064C125.174 455.216 123.364 455.823 121.6 455.254C123.817 454.382 126.26 454.078 128.613 453.661C136.713 452.181 142.234 448.312 144.632 441.483Z" fill="#917133"/>
<path d="M170.968 453.054C179.882 452.371 188.797 451.802 197.666 451.005C204.227 450.436 210.788 449.639 217.349 448.881C219.883 448.577 219.748 448.615 220.2 450.74C221.015 454.609 219.024 456.81 214.996 458.213C213.956 458.555 213.005 459.086 212.055 459.579C211.557 459.845 211.15 460.262 211.331 460.869C211.557 461.514 212.236 461.817 212.915 461.666C215.087 461.134 216.218 462.273 217.485 463.411C220.291 465.952 223.594 468.077 225.856 471.036C225.449 471.415 224.906 471.453 224.408 471.453C211.15 471.985 197.892 472.022 184.679 471.757C182.235 471.719 179.701 471.795 177.348 471.036C177.258 470.088 176.308 469.898 175.448 469.67C173.728 469.215 172.054 468.57 170.742 467.584C169.113 466.332 166.85 465.421 166.488 463.259C166.805 463.221 167.077 463.221 167.393 463.183C168.027 463.145 168.66 463.107 168.66 462.386C168.66 461.666 168.027 461.666 167.393 461.628C166.896 461.59 166.398 461.438 165.9 461.324C165.674 461.021 165.448 460.679 165.176 460.414C162.914 458.403 163.095 457.682 165.855 456.127C167.484 455.102 169.746 454.723 170.968 453.054Z" fill="#955A40"/>
<path d="M135.854 471.643C129.7 472.478 123.41 472.478 117.211 472.933C111.373 473.388 105.536 473.768 99.6537 473.957C95.5812 474.071 91.4635 473.768 87.3457 473.426C90.3322 470.581 93.6807 468.191 97.1197 465.99C98.432 465.156 100.332 465.801 102.007 465.687C102.821 465.611 103.907 465.801 104.133 465.004C104.405 463.942 103.047 463.828 102.323 463.714C99.3822 463.259 96.8482 462.007 94.088 461.172C92.821 460.793 91.8255 460.186 91.4182 459.048C90.6037 456.696 89.8345 454.344 89.02 451.878C90.468 451.954 91.4635 452.523 92.5495 452.826C101.826 455.368 111.102 457.872 121.012 457.682C125.808 457.606 130.605 457.455 135.356 456.544C136.759 456.278 138.161 456.203 139.564 456.013C139.609 456.354 139.79 456.62 140.198 456.696C144.134 457.644 144.723 460.186 144.542 463.069C143.501 463.487 141.103 462.766 142.324 465.004C142.234 465.308 142.143 465.611 142.008 465.877C141.012 468.57 138.252 469.974 135.854 471.643Z" fill="#945940"/>
<path d="M170.968 453.054C169.791 454.723 167.484 455.102 165.719 456.089C162.959 457.644 162.778 458.365 165.04 460.376C165.312 460.641 165.538 460.983 165.764 461.286C163.185 461.476 160.922 460.49 158.569 459.958C157.167 459.655 156.714 458.517 156.488 457.455C156.216 456.354 156.126 455.216 155.99 454.116C155.854 453.281 156.171 452.788 157.348 452.864C160.334 453.016 163.366 452.674 166.307 453.168C167.846 453.395 169.384 452.523 170.968 453.054Z" fill="#503123"/>
<path d="M144.587 463.107C144.768 460.224 144.225 457.644 140.243 456.734C139.836 456.658 139.609 456.392 139.609 456.051C142.686 454.723 146.125 454.306 149.202 452.978C149.972 452.636 150.469 453.13 150.469 453.85C150.469 455.937 150.605 458.024 150.379 460.072C150.107 462.235 148.207 463.107 144.587 463.107Z" fill="#503123"/>
<path d="M166.398 463.221C166.76 465.383 169.022 466.294 170.651 467.546C171.963 468.532 173.638 469.177 175.357 469.632C176.172 469.86 177.122 470.05 177.258 470.998C172.914 471.34 168.751 470.505 164.542 469.898C163.366 469.708 162.687 469.101 162.506 468.115C162.416 467.622 162.28 467.129 162.28 466.635C162.325 462.88 161.149 463.069 166.398 463.221Z" fill="#503123"/>
<path d="M135.854 471.643C138.207 469.974 140.967 468.608 142.008 465.915C142.143 465.611 142.189 465.308 142.324 465.042C144.451 465.042 145.22 465.801 145.085 467.698C144.813 471.871 144.949 471.909 139.836 471.871C138.523 471.795 137.166 471.985 135.854 471.643Z" fill="#4F3023"/>
<path d="M158.117 448.881C156.216 449.222 154.361 448.729 152.642 449.488C151.872 449.829 151.737 449.222 152.008 448.615C152.642 447.136 153.275 445.656 153.773 444.138C154.09 443.228 154.859 443.494 155.583 443.418C156.352 443.38 156.805 443.531 156.94 444.29C157.167 445.808 157.664 447.287 158.117 448.881Z" fill="#EEEEEE"/>
<path d="M99.169 389.789C99.4902 388.272 100.411 387.222 101.225 386.115C103.389 383.131 105.913 380.621 108.434 378.091C109.088 377.435 109.86 377.257 110.711 377.602C111.299 377.823 111.868 378.123 112.446 378.383C112.704 378.74 112.989 379.072 113.339 379.316C122.474 385.766 131.608 392.216 140.739 398.647C140.84 398.936 140.787 399.176 140.64 399.433C138.311 403.464 136 407.511 133.69 411.557C129.167 408.708 124.624 405.843 120.101 402.994C113.12 398.574 106.146 394.191 99.169 389.789Z" fill="#ECCF5D"/>
<path d="M140.74 398.647C131.605 392.197 122.471 385.747 113.34 379.316C112.99 379.072 112.704 378.739 112.447 378.383C112.619 377.2 113.023 377.031 114.004 377.736C119.368 381.585 124.729 385.415 130.078 389.267C133.909 392.03 137.748 394.83 141.555 397.636C142.151 398.084 142.518 398.153 142.877 397.377C143.324 396.471 143.785 396.349 144.691 396.819C146.874 397.941 149.076 399.078 151.141 400.529C151.658 400.896 151.92 400.83 152.244 400.31C152.838 399.32 153.526 398.408 154.316 397.612C156.481 395.435 159.038 395.241 161.757 396.305C163.18 396.873 163.738 398.27 163.366 399.95C163.091 401.19 162.581 402.28 162.051 403.355C161.923 403.628 161.567 403.885 161.79 404.228C161.994 404.556 162.338 404.321 162.606 404.292C164.057 404.125 165.5 404.095 166.965 404.271C167.606 404.347 168.23 404.503 168.846 404.795C169.925 405.329 170.553 406.31 170.664 407.634C170.814 409.354 170.613 411.003 170.005 412.534C169.429 413.982 168.48 414.96 167.116 415.341C166.901 415.399 166.604 415.357 166.574 415.727C166.544 416.097 166.845 416.158 167.05 416.313C168.801 417.628 169.252 419.14 168.384 421.198C167.629 422.986 166.742 424.663 164.956 425.293C164.381 425.493 163.805 425.425 163.229 425.356C162.75 425.289 162.587 425.453 162.869 426.036C163.659 427.736 163.57 428.577 162.503 429.884C162.013 430.472 161.483 431.009 160.923 431.475C159.561 432.663 158.07 432.875 156.38 431.99C151.829 429.607 147.897 426.113 144.308 422.02C143.905 421.575 143.519 421.222 142.982 421.012C140.436 420.013 138.054 418.505 135.667 417.055C134.962 416.626 134.65 415.972 134.926 415.096C135.092 414.587 134.877 414.376 134.518 414.172C122.634 407.029 110.964 399.463 99.2057 392.125C99.0798 392.051 98.9695 391.975 98.8558 391.881C98.4144 391.576 98.0254 391.205 98.0825 390.542C98.1573 389.799 98.7142 389.852 99.1696 389.789C106.144 394.172 113.121 398.574 120.11 402.954C124.649 405.8 129.176 408.668 133.699 411.517C133.977 411.716 134.255 411.916 134.516 412.118C135.781 413.06 135.8 413.076 136.378 411.551C137.848 407.752 139.5 404.074 141.282 400.488C141.889 399.303 141.892 399.322 140.74 398.647ZM161.402 406.621C161.09 406.678 160.778 406.734 160.467 406.791C160.015 406.872 159.565 406.877 159.214 406.364C158.845 405.836 158.957 405.297 159.119 404.769C159.353 404.016 159.808 403.415 160.133 402.723C160.651 401.669 161.207 400.647 161.523 399.457C161.683 398.833 161.54 398.398 160.975 398.212C159.224 397.608 157.541 397.643 156.031 398.819C154.902 399.695 154.083 400.957 153.186 402.136C152.366 403.206 151.789 403.311 150.682 402.532C148.784 401.205 146.774 400.147 144.818 398.946C144.384 398.679 144.182 398.812 143.963 399.293C143.133 401.017 142.26 402.692 141.395 404.404C139.676 407.806 138.414 411.509 136.803 414.968C136.617 415.367 136.702 415.658 137.08 415.878C138.908 416.91 140.668 418.186 142.564 419.052C143.513 419.495 144.337 420.133 145.109 420.934C148.447 424.439 151.92 427.709 155.943 430.015C158.134 431.269 158.742 431.428 160.914 429.019C161.049 428.88 161.144 428.69 161.28 428.55C161.765 427.944 161.736 427.335 161.166 426.766C160.492 426.062 159.777 425.404 159.001 424.854C158.188 424.271 157.395 423.627 156.618 422.981C156.277 422.697 156.013 422.303 156.256 421.779C156.475 421.298 156.83 421.214 157.267 421.404C157.578 421.521 157.876 421.659 158.175 421.797C159.624 422.514 161.074 423.231 162.619 423.585C163.559 423.799 164.463 423.904 165.215 423.077C165.951 422.252 166.517 421.286 166.893 420.162C167.176 419.324 166.965 418.69 166.291 418.255C165.743 417.894 165.185 417.572 164.604 417.293C163.016 416.524 161.352 416.134 159.735 415.563C159.374 415.436 159.013 415.309 158.817 414.846C158.439 413.915 158.986 413.202 159.967 413.37C161.51 413.629 163.041 413.813 164.582 413.88C167.417 413.981 168.788 412.485 168.889 409.126C168.893 408.972 168.913 408.815 168.902 408.663C168.899 407.224 168.54 406.751 167.309 406.532C165.336 406.121 163.36 406.325 161.402 406.621Z" fill="#0E0C0A"/>
<path d="M140.74 398.647C141.892 399.322 141.876 399.325 141.273 400.528C139.491 404.114 137.854 407.79 136.368 411.591C135.772 413.1 135.772 413.1 134.507 412.158C134.23 411.959 133.968 411.756 133.69 411.557C136.001 407.51 138.314 403.482 140.64 399.433C140.787 399.176 140.84 398.936 140.74 398.647Z" fill="#907133"/>
<path d="M161.401 406.622C163.363 406.344 165.319 406.124 167.329 406.471C168.545 406.693 168.919 407.163 168.922 408.602C168.918 408.756 168.914 408.911 168.909 409.065C168.809 412.424 167.437 413.92 164.602 413.819C163.064 413.77 161.53 413.568 159.987 413.309C158.991 413.144 158.463 413.873 158.837 414.784C159.034 415.248 159.394 415.375 159.755 415.502C161.372 416.073 163.052 416.46 164.624 417.232C165.19 417.514 165.763 417.833 166.311 418.194C166.985 418.629 167.196 419.263 166.913 420.101C166.537 421.225 165.987 422.189 165.235 423.016C164.483 423.843 163.579 423.738 162.639 423.524C161.094 423.17 159.648 422.471 158.195 421.736C157.893 421.579 157.582 421.462 157.287 421.343C156.853 421.172 156.495 421.237 156.276 421.718C156.033 422.242 156.282 422.638 156.638 422.92C157.415 423.566 158.208 424.21 159.021 424.792C159.797 425.343 160.496 426.004 161.186 426.705C161.74 427.277 161.786 427.883 161.3 428.489C161.183 428.645 161.07 428.819 160.934 428.958C158.777 431.364 158.154 431.208 155.963 429.953C151.94 427.648 148.467 424.378 145.129 420.873C144.372 420.069 143.549 419.431 142.584 418.991C140.688 418.125 138.944 416.847 137.1 415.817C136.722 415.597 136.637 415.305 136.823 414.907C138.45 411.445 139.696 407.744 141.415 404.342C142.268 402.652 143.153 400.956 143.984 399.232C144.202 398.75 144.404 398.618 144.838 398.885C146.791 400.068 148.801 401.125 150.702 402.471C151.809 403.25 152.386 403.145 153.206 402.075C154.104 400.895 154.925 399.653 156.051 398.758C157.561 397.582 159.232 397.568 160.996 398.151C161.545 398.34 161.703 398.772 161.543 399.396C161.227 400.586 160.671 401.608 160.153 402.662C159.809 403.339 159.373 403.955 159.139 404.708C158.977 405.236 158.865 405.775 159.235 406.303C159.581 406.797 160.019 406.814 160.487 406.73C160.777 406.735 161.089 406.678 161.401 406.622ZM148.319 409.583C148.17 409.207 147.983 409.241 147.757 409.416C147.306 409.766 146.946 410.273 146.418 410.465C146.01 410.615 145.796 410.942 145.693 411.44C145.402 412.856 145.019 414.212 144.479 415.5C144.309 415.895 144.305 416.318 144.659 416.581C144.996 416.846 145.252 416.57 145.436 416.248C145.919 415.451 146.277 414.58 146.489 413.62C146.75 412.478 147.036 411.39 147.806 410.578C148.05 410.323 148.246 409.98 148.319 409.583Z" fill="#945940"/>
<path d="M148.319 409.583C148.25 409.999 148.054 410.341 147.807 410.578C147.036 411.389 146.735 412.481 146.49 413.619C146.277 414.579 145.92 415.45 145.436 416.248C145.237 416.572 144.994 416.827 144.659 416.581C144.306 416.318 144.31 415.895 144.48 415.5C145.02 414.212 145.418 412.853 145.693 411.44C145.796 410.942 146.011 410.615 146.418 410.464C146.944 410.254 147.322 409.763 147.758 409.416C147.98 409.222 148.167 409.188 148.319 409.583Z" fill="#583627"/>
<path d="M193.353 364.723C193.857 364.5 194.203 364.044 194.619 363.676C195.345 363.024 196.131 362.781 197.043 363.225C201.019 365.169 204.995 367.112 208.542 370.12C208.877 370.416 209.241 370.673 209.433 371.168C209.011 371.667 208.59 372.167 208.183 372.666C199.99 382.753 191.814 392.859 183.621 402.947C182.8 402.684 182.244 401.933 181.605 401.356C178.868 398.894 176.035 396.627 173.411 393.987C173.209 393.795 172.977 393.623 172.966 393.247C179.564 384.211 186.144 375.157 192.742 366.12C193.029 365.724 193.348 365.326 193.353 364.723Z" fill="#ECCF5D"/>
<path d="M183.605 402.948C191.799 392.86 199.975 382.755 208.168 372.667C208.574 372.168 208.996 371.669 209.418 371.169C209.864 371.025 210.326 370.88 210.604 371.482C210.916 372.118 210.621 372.628 210.258 373.067C207.62 376.335 204.982 379.604 202.327 382.855C196.641 389.834 190.97 396.793 185.283 403.753C184.848 404.291 184.429 404.828 183.942 405.295C183.397 405.841 182.922 406.25 183.647 407.178C183.993 407.624 183.803 408.277 183.438 408.697C181.564 410.953 179.709 413.245 177.538 415.089C177.226 415.355 177.01 415.634 176.848 416.021C174.892 420.954 172.233 425.277 169.007 429.151C166.451 432.225 163.733 431.173 161.147 429.076C160.33 428.418 160.256 427.351 160.495 426.262C160.545 426.071 160.703 425.853 160.486 425.68C160.302 425.523 160.139 425.666 159.971 425.753C157.465 426.83 154.27 425.265 153.014 422.362C152.412 420.955 152.77 419.764 153.528 418.658C153.684 418.421 154.064 418.225 153.895 417.823C153.725 417.421 153.379 417.652 153.113 417.671C151.764 417.746 150.651 417.127 149.691 416.009C148.646 414.783 147.96 413.289 147.562 411.642C147.186 410.088 147.679 408.793 148.953 407.877C150.348 406.877 151.921 406.411 153.48 405.964C153.943 405.837 154.693 405.973 154.817 405.494C154.951 404.94 154.209 404.671 153.867 404.281C153.201 403.538 152.552 402.811 152.034 401.926C151.246 400.551 151.333 399.078 152.431 398.117C154.567 396.238 156.943 395.546 159.589 396.698C160.661 397.169 161.653 397.852 162.574 398.654C163.11 399.105 163.401 398.991 163.804 398.455C165.271 396.453 166.961 394.718 168.633 392.965C169.41 392.14 169.867 392.146 170.697 392.991C171.105 393.414 171.342 393.435 171.7 392.922C178.236 383.457 185.046 374.293 191.668 364.935C192.414 363.886 192.805 363.859 193.36 364.817C193.339 365.421 193.037 365.837 192.736 366.253C186.138 375.289 179.54 384.325 172.96 393.379C172.692 393.831 171.877 394.113 172.638 394.869C175.768 398 178.77 401.328 181.626 404.816C181.917 405.153 182.109 405.197 182.365 404.803C182.757 404.098 183.19 403.541 183.605 402.948ZM165.877 429.406C166.349 429.411 166.729 429.215 167.1 428.888C168.345 427.767 169.466 426.466 170.404 425.009C172.38 421.956 174.289 418.851 175.748 415.383C176.113 414.511 176.631 413.816 177.266 413.208C178.816 411.727 180.14 409.942 181.568 408.282C181.844 407.961 181.953 407.709 181.577 407.284C177.862 402.99 174.12 398.754 170.09 394.896C169.685 394.51 169.496 394.504 169.132 394.925C167.618 396.704 166.051 398.393 164.656 400.296C163.966 401.228 163.358 401.327 162.42 400.734C161.843 400.36 161.279 399.948 160.701 399.555C158.765 398.204 156.796 397.738 154.702 398.862C153.033 399.768 152.928 400.283 154.292 401.788C155.281 402.885 156.342 403.884 157.36 404.941C157.75 405.347 158.052 405.834 157.925 406.501C157.797 407.15 157.354 407.35 156.873 407.44C155.972 407.615 155.068 407.753 154.169 407.947C152.727 408.273 151.345 408.764 150.047 409.569C149.534 409.887 149.045 410.335 149.24 411.093C150.149 414.66 151.665 416.549 154.698 415.567C156.315 415.04 157.817 414.24 159.335 413.42C159.759 413.183 160.177 413.079 160.585 413.521C160.857 413.803 160.944 414.154 160.845 414.537C160.734 414.978 160.437 415.243 160.123 415.472C159.405 416.011 158.671 416.551 157.953 417.09C156.907 417.896 155.895 418.738 155.026 419.833C154.215 420.849 154.243 421.467 155.114 422.46C155.729 423.151 156.388 423.801 157.158 424.237C157.897 424.675 158.623 424.699 159.349 424.273C160.302 423.717 161.236 423.107 162.044 422.28C162.781 421.551 163.517 420.823 164.255 420.113C164.624 419.768 165.046 419.719 165.391 420.147C165.734 420.556 165.61 421.035 165.385 421.427C165.204 421.759 164.955 422.04 164.758 422.373C163.92 423.673 162.98 424.867 162.324 426.304C162.091 426.81 161.864 427.39 162.367 427.825C163.423 428.749 164.569 429.384 165.877 429.406ZM160.684 425.591C160.67 425.611 160.64 425.631 160.641 425.65C160.644 425.688 160.678 425.723 160.696 425.759C160.71 425.739 160.74 425.719 160.739 425.7C160.721 425.663 160.703 425.627 160.684 425.591Z" fill="#0A0907"/>
<path d="M183.606 402.948C183.189 403.522 182.756 404.079 182.357 404.69C182.101 405.084 181.895 405.061 181.618 404.704C178.747 401.216 175.761 397.887 172.631 394.756C171.87 394 172.685 393.718 172.952 393.267C172.977 393.623 173.194 393.796 173.396 393.988C176.018 396.609 178.869 398.894 181.59 401.357C182.229 401.934 182.786 402.704 183.606 402.948Z" fill="#907133"/>
<path d="M165.877 429.406C164.569 429.384 163.423 428.749 162.384 427.843C161.881 427.407 162.109 426.827 162.341 426.322C162.996 424.866 163.951 423.67 164.776 422.39C164.974 422.076 165.221 421.776 165.402 421.444C165.626 421.033 165.751 420.573 165.408 420.164C165.063 419.737 164.642 419.785 164.272 420.13C163.519 420.841 162.782 421.57 162.061 422.297C161.237 423.125 160.318 423.716 159.366 424.29C158.64 424.717 157.929 424.672 157.176 424.254C156.404 423.8 155.746 423.168 155.132 422.478C154.261 421.503 154.234 420.885 155.044 419.85C155.898 418.775 156.908 417.915 157.97 417.107C158.688 416.568 159.422 416.028 160.14 415.489C160.455 415.26 160.734 414.978 160.862 414.555C160.961 414.172 160.874 413.82 160.603 413.538C160.195 413.115 159.793 413.218 159.352 413.437C157.85 414.256 156.332 415.058 154.716 415.584C151.683 416.566 150.166 414.677 149.257 411.11C149.063 410.352 149.551 409.905 150.064 409.587C151.362 408.782 152.76 408.29 154.186 407.965C155.085 407.771 155.989 407.632 156.89 407.457C157.372 407.367 157.814 407.167 157.942 406.519C158.069 405.851 157.783 405.363 157.377 404.959C156.359 403.901 155.298 402.902 154.309 401.805C152.945 400.301 153.051 399.786 154.719 398.88C156.814 397.756 158.782 398.221 160.718 399.572C161.296 399.965 161.845 400.378 162.437 400.751C163.376 401.344 163.983 401.245 164.674 400.313C166.084 398.409 167.651 396.72 169.149 394.942C169.513 394.522 169.718 394.526 170.107 394.913C174.138 398.771 177.881 403.026 181.594 407.301C181.954 407.728 181.86 407.96 181.585 408.299C180.157 409.959 178.849 411.743 177.283 413.225C176.649 413.834 176.13 414.528 175.766 415.4C174.307 418.869 172.382 421.975 170.421 425.027C169.484 426.484 168.362 427.784 167.117 428.906C166.73 429.215 166.35 429.41 165.877 429.406ZM169.56 405.617C169.237 405.715 169.092 405.894 169.283 406.163C169.46 406.433 169.698 406.698 169.958 406.812C170.658 407.14 171.168 407.687 171.579 408.392C172.221 409.476 172.951 410.46 173.842 411.282C174.128 411.545 174.447 411.824 174.737 411.465C175.041 411.086 174.9 410.645 174.578 410.31C173.762 409.445 173.001 408.463 172.499 407.35C171.793 405.8 170.392 406.481 169.56 405.617Z" fill="#955A40"/>
<path d="M160.685 425.591C160.703 425.627 160.721 425.663 160.74 425.7C160.741 425.718 160.711 425.739 160.696 425.759C160.678 425.723 160.66 425.686 160.642 425.65C160.64 425.631 160.655 425.612 160.685 425.591Z" fill="#FEFEFE"/>
<path d="M169.559 405.617C170.391 406.481 171.792 405.8 172.499 407.369C173.001 408.482 173.747 409.464 174.578 410.328C174.9 410.663 175.026 411.106 174.737 411.484C174.448 411.861 174.13 411.582 173.843 411.301C172.951 410.479 172.222 409.495 171.58 408.411C171.153 407.707 170.641 407.141 169.959 406.831C169.699 406.717 169.474 406.432 169.284 406.182C169.091 405.894 169.236 405.715 169.559 405.617Z" fill="#573526"/>
</svg>
