<svg width="2528" height="498" viewBox="0 0 2528 498" fill="none" xmlns="http://www.w3.org/2000/svg">
<path fill-rule="evenodd" clip-rule="evenodd" d="M339.677 208.326C339.677 279.914 339.49 292.441 338.439 291.26C337.758 290.495 324.047 266.77 307.97 238.539C258.777 152.155 255.681 146.813 254.822 146.813C253.778 146.813 227.285 161.904 226.763 162.796C226.552 163.157 234.79 178.208 245.068 196.243C255.347 214.278 273.969 246.943 286.45 268.833C298.932 290.722 308.948 308.837 308.711 309.089C308.472 309.34 275.829 290.516 236.171 267.259L164.065 224.972L155.964 239.178C151.509 246.991 147.865 253.679 147.867 254.041C147.869 254.403 151.211 256.655 155.296 259.046C159.381 261.438 191.9 280.472 227.561 301.345L292.399 339.296L208.2 339.771L124 340.247V356.881V373.515L209.633 373.758L295.267 374L325.546 343.578C342.199 326.846 356.061 313.156 356.35 313.156C356.836 313.156 381.73 337.907 401.814 358.358C406.519 363.149 412.032 368.62 414.065 370.515L417.761 373.962L503.218 373.739L588.674 373.515V356.881V340.247L504.474 339.771L420.275 339.296L492.547 296.997C532.296 273.733 564.715 254.235 564.589 253.667C564.463 253.101 560.915 246.557 556.705 239.127C551.26 229.518 548.645 225.728 547.647 226.001C546.233 226.388 415.848 302.474 407.892 307.555C405.539 309.058 403.615 309.876 403.615 309.373C403.615 308.87 422.067 276.108 444.62 236.569C467.172 197.03 485.712 164.225 485.819 163.67C486.006 162.697 460.833 146.912 458.997 146.85C458.259 146.826 394.045 256.807 378.699 284.379C376.305 288.679 374.044 292.208 373.672 292.221C373.3 292.234 372.997 254.39 372.997 208.122V124H356.337H339.677V208.326Z" fill="white"/>
<path d="M826.589 227.365C890.771 234.577 933.111 248.313 933.111 299.137C933.111 338.286 895.811 374 822.892 374C745.605 374 712.674 330.731 712.674 286.088H751.654C752.326 307.379 767.111 341.033 822.892 341.033C877.666 341.033 892.787 318.025 892.787 301.198C892.787 279.907 877.33 269.261 822.556 263.766C755.35 256.898 722.083 235.951 722.083 194.742C722.083 156.967 759.046 126.747 823.228 126.747C892.787 126.747 921.35 164.522 922.358 203.67H884.722C884.722 185.126 868.257 159.714 822.556 159.714C775.848 159.714 762.407 178.258 762.407 192.681C762.407 207.448 769.799 220.841 826.589 227.365Z" fill="white"/>
<path d="M957.885 322.146C957.885 281.967 990.817 269.604 1028.45 267.201C1063.74 264.797 1108.76 267.887 1108.43 250.374C1108.09 235.951 1099.69 221.527 1053.99 221.527C1016.36 221.527 1003.25 233.203 1000.23 250.374H963.262C970.655 210.195 1007.28 192.681 1055.33 192.681C1102.38 192.681 1146.06 206.418 1146.06 270.978V371.253H1108.43V354.426C1108.43 347.901 1110.11 343.093 1112.12 333.821C1112.8 330.731 1114.14 327.64 1111.79 326.953C1109.77 326.266 1108.76 328.67 1107.42 330.387C1090.28 355.799 1063.74 374 1025.43 374C988.128 374 957.885 352.022 957.885 322.146ZM1108.43 276.473C1097 289.522 1061.72 291.239 1032.82 295.016C1009.97 298.107 995.521 304.288 995.521 320.429C995.521 334.508 1011.31 345.841 1041.89 342.407C1073.82 338.973 1108.09 312.53 1108.43 276.473Z" fill="white"/>
<path d="M1301.46 192.681C1346.15 192.681 1378.07 215.346 1378.07 266.857V371.253H1340.44V276.473C1340.44 235.607 1319.27 224.275 1291.38 224.275C1260.8 224.275 1227.53 252.777 1227.53 294.673V371.253H1189.89V124H1227.53V209.852C1227.53 217.063 1226.86 224.275 1223.83 233.203C1222.83 236.294 1221.48 239.385 1224.17 240.415C1226.19 241.102 1226.86 238.698 1227.87 237.324C1239.96 219.124 1263.82 192.681 1301.46 192.681Z" fill="white"/>
<path d="M1408.27 322.146C1408.27 281.967 1441.2 269.604 1478.84 267.201C1514.12 264.797 1559.15 267.887 1558.82 250.374C1558.48 235.951 1550.08 221.527 1504.38 221.527C1466.74 221.527 1453.64 233.203 1450.61 250.374H1413.65C1421.04 210.195 1457.67 192.681 1505.72 192.681C1552.77 192.681 1596.45 206.418 1596.45 270.978V371.253H1558.82V354.426C1558.82 347.901 1560.5 343.093 1562.51 333.821C1563.18 330.731 1564.53 327.64 1562.18 326.953C1560.16 326.266 1559.15 328.67 1557.81 330.387C1540.67 355.799 1514.12 374 1475.82 374C1438.52 374 1408.27 352.022 1408.27 322.146ZM1558.82 276.473C1547.39 289.522 1512.11 291.239 1483.21 295.016C1460.36 298.107 1445.91 304.288 1445.91 320.429C1445.91 334.508 1461.7 345.841 1492.28 342.407C1524.2 338.973 1558.48 312.53 1558.82 276.473Z" fill="white"/>
<path d="M1675.97 238.698C1687.73 210.195 1712.59 192.681 1755.94 192.681V229.082C1705.87 225.648 1675.29 249.343 1675.29 295.36V371.253H1637.66V195.429H1675.29V212.599C1675.29 219.81 1674.29 225.305 1671.6 235.607C1670.92 238.354 1669.92 241.102 1672.6 241.788C1674.29 242.132 1675.29 240.415 1675.97 238.698Z" fill="white"/>
<path d="M1767.43 322.146C1767.43 281.967 1800.37 269.604 1838 267.201C1873.28 264.797 1918.31 267.887 1917.98 250.374C1917.64 235.951 1909.24 221.527 1863.54 221.527C1825.9 221.527 1812.8 233.203 1809.77 250.374H1772.81C1780.2 210.195 1816.83 192.681 1864.88 192.681C1911.93 192.681 1955.61 206.418 1955.61 270.978V371.253H1917.98V354.426C1917.98 347.901 1919.66 343.093 1921.67 333.821C1922.35 330.731 1923.69 327.64 1921.34 326.953C1919.32 326.266 1918.31 328.67 1916.97 330.387C1899.83 355.799 1873.28 374 1834.98 374C1797.68 374 1767.43 352.022 1767.43 322.146ZM1917.98 276.473C1906.55 289.522 1871.27 291.239 1842.37 295.016C1819.52 298.107 1805.07 304.288 1805.07 320.429C1805.07 334.508 1820.86 345.841 1851.44 342.407C1883.37 338.973 1917.64 312.53 1917.98 276.473Z" fill="white"/>
<path d="M2338.8 371.253H2294.45L2273.61 314.934H2145.92L2125.09 371.253H2080.73L2176.16 129.494H2243.37L2338.8 371.253ZM2203.72 159.714L2158.35 281.967H2261.18L2215.81 159.714C2214.13 155.25 2213.46 151.129 2212.45 145.291C2212.12 143.231 2212.12 141.17 2209.77 141.17C2207.41 141.17 2207.41 143.231 2207.08 145.291C2206.07 151.129 2205.4 155.25 2203.72 159.714Z" fill="white"/>
<path d="M2403.85 129.494V371.253H2363.53V129.494H2403.85Z" fill="white"/>
</svg>
