<svg width="306" height="405" viewBox="0 0 306 405" fill="none" xmlns="http://www.w3.org/2000/svg">
<path d="M183.453 346.935C163.687 347.162 143.922 346.214 124.157 346.404C113.458 346.48 102.759 345.986 92.0152 345.721C87.0286 345.607 82.0419 345.683 77.1006 346.138C73.6552 341.851 69.9832 337.678 67.7619 332.822C65.7672 328.421 63.0019 324.248 61.5512 319.62C56.8819 305.09 57.9246 290.446 60.4632 275.802C62.3672 264.8 66.7192 254.216 68.7139 243.214C73.9272 248.715 79.2765 254.102 84.9885 259.223C99.5859 272.198 115.77 283.39 135.309 290.939C137.077 291.622 138.845 291.963 140.794 291.925C143.741 291.888 146.007 290.484 148.546 289.573C155.573 286.994 161.965 283.541 168.13 279.785C179.826 272.691 190.434 264.535 199.909 255.354C204.351 251.067 208.522 246.552 213.871 243.024C216.501 252.584 220.853 261.651 225.749 270.529C229.693 277.623 231.687 285.211 232.911 292.912C234.589 303.269 234.271 313.702 234.09 324.134C233.954 331.229 232.141 338.133 230.735 345.076C228.877 344.924 227.018 345.076 225.114 345.19C222.439 345.379 219.765 345.873 217.045 345.683C207.661 345.076 198.277 345.152 188.893 345.835C187.034 345.986 185.039 345.911 183.453 346.935Z" fill="#EED05E"/>
<path d="M68.6685 243.214C66.6739 254.216 62.3219 264.8 60.4179 275.802C57.8792 290.446 56.8365 305.09 61.5059 319.62C63.0019 324.21 65.7219 328.383 67.7165 332.822C69.9379 337.678 73.6099 341.851 77.0552 346.138C77.4179 346.669 77.8259 347.2 78.2792 347.845C76.0579 347.694 73.9725 347.504 71.9325 347.39C71.1619 347.352 70.9352 346.859 70.6179 346.442C62.0952 334.681 55.3405 322.389 53.7085 308.466C51.4872 289.497 55.1139 271.098 61.1885 252.888C62.6845 248.373 64.2259 243.897 65.0872 239.268C65.3139 237.978 64.9059 237.068 63.8179 236.081C58.7859 231.415 54.1165 226.483 52.3032 220.224C50.8979 215.443 51.8045 210.891 56.2925 207.325C56.9725 206.794 57.0179 206.301 56.8819 205.656C55.1592 197.499 58.4232 190.898 65.9485 185.663C78.4152 176.975 92.7859 171.739 108.562 168.97C114.319 167.946 120.122 167.073 125.97 166.618C126.877 166.542 127.239 166.314 127.33 165.48C127.919 158.651 132.589 153.909 138.935 150.229C145.01 146.701 151.583 143.78 157.205 139.72C159.154 138.317 161.149 138.924 162.554 141.086C165.274 145.221 165.773 149.736 165.093 154.326C164.866 155.73 164.911 156.033 166.77 155.692C171.485 154.895 175.746 153.15 180.189 151.708C183.725 150.57 185.583 151.291 186.354 154.326C187.759 159.865 186.898 165.176 182.909 169.881C181.866 171.095 182.41 171.208 183.634 171.55C194.061 174.395 203.717 178.454 212.375 184.107C213.327 184.714 214.234 185.397 215.141 186.042C222.394 191.163 225.205 197.689 223.754 205.504C223.663 206.111 223.391 206.604 224.117 207.211C229.466 211.612 229.919 216.847 227.471 222.424C225.341 227.28 221.669 231.415 217.634 235.285C216.773 236.119 216.501 236.802 216.818 237.94C218.949 246.78 222.893 255.126 227.381 263.283C230.01 268.025 232.73 272.729 234.453 277.775C235.495 277.661 235.903 276.978 236.447 276.523C241.207 272.274 245.922 267.987 250.682 263.776C255.578 259.413 260.882 255.505 267.183 252.622C272.351 250.27 277.882 249.17 283.775 249.853C291.21 250.725 296.469 254.216 300.095 259.603C303.767 265.028 304.991 270.984 305.399 277.092C306.714 295.719 301.727 313.246 290.938 329.522C284.183 339.727 274.482 347.883 264.146 355.509C250.501 365.562 235.359 373.681 218.677 379.675C215.413 380.851 212.149 381.989 208.522 382.217C206.482 382.368 205.485 381.686 205.847 379.903C207.525 378.916 209.293 378.119 211.197 377.512C225.431 373.112 238.306 366.586 250.501 359.151C250.909 358.885 251.679 358.771 251.453 358.088C252.405 358.354 252.813 357.671 253.357 357.292C256.349 355.243 259.159 353.081 262.242 351.108C266.05 348.68 268.045 345.531 269.133 341.662C270.583 336.426 272.487 331.305 271.898 325.842C271.581 322.845 270.583 320.189 266.957 318.709C265.053 317.913 264.509 316.471 264.826 314.726C265.325 311.919 266.095 309.149 266.594 306.342C267.727 299.854 259.386 292.798 252.087 294.809C251.589 294.96 251.045 294.923 250.501 294.923C248.869 294.96 248.098 294.202 248.325 292.874C248.461 292.077 248.823 291.281 249.095 290.522C250.093 287.866 251.09 285.211 251.181 282.403C251.317 279.406 249.413 276.675 246.466 275.65C245.333 275.233 244.381 275.271 243.429 276.106C241.434 277.813 239.349 279.52 237.127 280.999C235.949 281.796 235.994 282.479 236.583 283.39C236.266 283.883 236.447 284.376 236.583 284.869C239.122 293.595 239.077 302.472 239.53 311.387C240.074 322.351 238.759 333.164 236.266 343.9C235.858 345.645 235.677 347.39 235.178 349.097C234.906 350.122 233.999 351.032 232.639 350.918C231.098 350.804 230.645 349.704 230.599 348.566C230.554 347.39 230.645 346.176 230.69 344.962C232.095 338.02 233.954 331.077 234.045 324.021C234.226 313.626 234.543 303.193 232.866 292.798C231.597 285.097 229.602 277.509 225.703 270.415C220.807 261.538 216.455 252.47 213.826 242.91C213.645 241.848 213.463 240.748 213.282 239.534C212.829 239.837 212.647 239.913 212.511 240.065C202.266 249.17 190.479 256.757 178.375 264.003C167.45 270.567 156.207 276.675 143.559 280.772C141.383 281.493 139.434 281.531 137.258 280.772C128.962 277.851 120.938 274.55 113.458 270.301C98.1352 261.613 82.9485 252.774 70.1192 241.469C69.8925 241.241 69.6205 240.937 68.9859 241.165C68.8499 241.886 68.7592 242.531 68.6685 243.214ZM210.063 218.668C209.338 217.492 210.199 216.733 211.061 216.013C214.37 213.319 216.773 210.094 218.042 206.414C219.538 202.089 219.402 197.803 216.365 193.857C213.735 190.405 209.973 188.015 206.074 185.7C189.663 176.102 170.941 171.739 151.447 169.994C135.127 168.553 118.943 170.222 103.167 174.395C90.5192 177.734 78.5965 182.172 68.5779 189.608C61.4152 194.919 59.8285 200.989 63.3645 208.425C64.8152 211.422 66.9912 213.964 69.6659 216.202C70.5272 216.961 70.9805 217.72 70.5272 218.744C69.7112 218.706 68.9405 218.744 68.2152 218.213C66.0845 216.657 63.8632 215.14 62.1405 213.243C61.1432 212.181 60.2819 211.005 58.8312 210.094C57.3805 211.801 56.6552 213.698 56.4739 215.709C56.1112 217.834 56.7005 219.882 57.6979 221.779C60.1912 226.521 63.8632 230.543 68.1699 234.26C77.1912 242 86.8019 249.208 97.2285 255.619C110.285 263.624 123.295 271.591 138.301 276.902C139.661 277.395 140.794 277.433 142.109 276.902C149.453 274.057 156.615 271.022 163.37 267.266C181.186 257.402 198.141 246.742 212.919 233.729C216.365 230.694 219.402 227.394 221.714 223.676C223.255 221.21 224.389 218.63 224.026 215.747C223.89 214.305 223.301 212.94 222.711 211.574C222.077 210.208 221.351 209.905 220.173 211.232C218.042 213.66 215.685 215.937 212.783 217.834C212.013 218.403 211.197 218.82 210.063 218.668ZM271.671 342.724C271.853 342.838 271.989 342.913 272.17 343.027C272.986 342.306 273.802 341.624 274.573 340.865C293.522 322.92 301.047 301.713 300.186 278.154C300.005 272.615 298.871 267.114 295.653 262.069C291.437 255.505 284.002 252.622 275.479 254.709C263.149 257.668 255.623 265.862 247.146 273.146C253.266 275.726 255.351 279.216 254.399 284.717C253.991 287.145 253.13 289.497 252.405 292.001C252.903 292.001 253.266 292.001 253.629 292.001C262.242 291.698 269.631 297.654 269.722 304.9C269.767 308.239 268.589 311.387 267.682 314.574C267.274 315.94 267.682 316.737 269.087 317.344C271.671 318.444 273.167 320.227 273.983 322.541C275.207 326.145 275.071 329.787 274.437 333.429C273.847 336.578 272.623 339.613 271.671 342.724ZM142.426 166.39C142.426 166.428 142.426 166.428 142.426 166.466C145.962 166.466 149.498 166.428 153.079 166.504C154.031 166.504 154.621 166.314 155.119 165.632C159.698 159.334 161.466 152.619 159.335 145.335C158.882 143.817 158.157 143.931 156.933 144.766C153.578 147.118 149.77 148.977 145.917 150.684C142.789 152.088 139.797 153.681 137.167 155.654C133.767 158.196 131.365 161.231 130.277 164.987C129.914 166.163 130.322 166.352 131.637 166.352C135.173 166.352 138.799 166.39 142.426 166.39ZM159.335 167.073C165.637 167.984 171.711 168.818 177.695 170.108C178.466 170.26 178.693 169.843 178.965 169.349C181.231 165.328 182.41 161.155 182.002 156.678C181.911 155.654 181.685 155.085 180.279 155.692C175.61 157.589 170.714 158.689 165.591 159.296C164.775 159.41 163.823 159.524 163.461 160.434C162.509 162.71 161.149 164.911 159.335 167.073ZM271.762 343.293C271.717 343.255 271.671 343.217 271.626 343.141C271.581 343.179 271.49 343.217 271.49 343.255C271.49 343.293 271.581 343.331 271.626 343.407C271.671 343.369 271.717 343.331 271.762 343.293Z" fill="#060605"/>
<path d="M230.69 345.076C230.644 346.29 230.554 347.466 230.599 348.68C230.644 349.818 231.143 350.918 232.639 351.032C233.999 351.146 234.906 350.235 235.178 349.211C235.676 347.504 235.858 345.721 236.266 344.014C238.759 333.277 240.074 322.465 239.53 311.501C239.122 302.624 239.122 293.709 236.583 284.983C236.447 284.49 236.311 283.997 236.583 283.503C238.578 285.211 239.258 287.525 240.028 289.687C244.154 300.917 245.74 312.601 248.234 324.134C249.956 332.063 251.316 340.068 251.724 348.111C251.906 351.449 252.178 354.788 251.407 358.126C251.588 358.809 250.863 358.961 250.455 359.189C238.215 366.624 225.386 373.15 211.151 377.55C209.247 378.157 207.434 378.916 205.802 379.94C200.77 377.361 197.052 373.681 193.879 369.546C189.754 364.158 186.671 358.392 184.767 352.17C184.223 350.425 182.772 348.87 183.407 346.935C184.994 345.911 186.988 345.986 188.802 345.873C198.186 345.152 207.57 345.076 216.954 345.721C219.674 345.911 222.348 345.417 225.023 345.228C226.927 345.076 228.786 344.924 230.69 345.076Z" fill="#937234"/>
<path d="M68.6685 243.214C68.7591 242.531 68.8498 241.886 68.9405 241.279C69.5751 241.089 69.8018 241.393 70.0738 241.582C82.9485 252.85 98.0898 261.727 113.412 270.415C120.892 274.664 128.916 277.964 137.212 280.886C139.388 281.644 141.338 281.569 143.514 280.886C156.162 276.788 167.404 270.68 178.33 264.117C190.434 256.871 202.22 249.284 212.466 240.179C212.602 240.065 212.828 239.951 213.236 239.648C213.418 240.862 213.599 241.962 213.78 243.024C208.431 246.59 204.215 251.067 199.818 255.354C190.343 264.535 179.78 272.653 168.039 279.785C161.874 283.541 155.482 286.994 148.455 289.573C145.916 290.484 143.65 291.888 140.703 291.925C138.754 291.963 136.986 291.584 135.218 290.939C115.724 283.39 99.4951 272.198 84.8978 259.223C79.1858 254.102 73.8818 248.715 68.6685 243.214Z" fill="#937234"/>
<path d="M224.162 215.709C224.524 218.592 223.391 221.172 221.85 223.638C219.492 227.356 216.5 230.656 213.055 233.691C198.276 246.704 181.322 257.364 163.506 267.228C156.751 270.984 149.588 274.019 142.244 276.864C140.884 277.395 139.751 277.357 138.436 276.864C123.431 271.515 110.375 263.586 97.3643 255.581C86.9377 249.17 77.327 241.962 68.3057 234.223C63.999 230.543 60.327 226.483 57.8337 221.741C56.8363 219.806 56.247 217.796 56.6097 215.671C57.3803 215.633 57.743 216.202 58.287 216.506C61.959 218.668 66.039 219.996 70.527 220.262C71.1163 220.299 71.8417 220.337 71.9323 219.655C71.9777 218.972 71.479 218.63 70.663 218.706C71.1617 217.682 70.7083 216.923 69.8017 216.164C67.127 213.888 64.9057 211.384 63.5003 208.387C59.9643 200.951 61.5057 194.881 68.7137 189.57C78.7323 182.134 90.655 177.696 103.303 174.357C119.079 170.184 135.263 168.515 151.583 169.956C171.076 171.702 189.799 176.064 206.21 185.663C210.108 187.939 213.871 190.367 216.5 193.819C219.538 197.803 219.674 202.052 218.178 206.376C216.908 210.056 214.46 213.281 211.196 215.975C210.335 216.695 209.474 217.454 210.199 218.63C209.383 218.63 208.884 218.896 209.02 219.655C209.111 220.224 209.7 220.224 210.244 220.262C211.604 220.337 212.919 219.996 214.234 219.73C217.77 218.972 220.988 217.34 224.162 215.709ZM140.204 238.168C146.642 238.054 152.898 237.333 158.836 235.702C173.207 231.795 186.626 226.445 197.914 217.644C204.85 212.219 207.298 205.959 205.348 198.372C202.356 186.687 192.338 180.275 179.871 176.861C169.58 174.016 158.61 173.56 147.73 173.181C135.263 172.726 122.887 173.371 110.556 175.116C105.162 175.875 99.767 176.558 94.8257 178.872C88.343 181.869 82.5857 185.321 78.7777 190.746C72.975 198.941 72.431 210.132 82.7217 217.796C91.471 224.321 101.399 229.063 112.098 232.819C121.164 236.006 130.548 237.827 140.204 238.168ZM142.335 258.123C141.474 254.898 142.38 251.939 142.108 248.98C142.018 247.842 142.063 246.704 140.204 246.704C138.436 246.742 138.572 247.88 138.572 248.904C138.572 251.901 138.572 254.898 138.572 258.313C136.034 255.657 134.311 253.191 132.996 250.498C132.634 249.739 131.954 248.942 130.82 249.132C129.46 249.36 129.914 250.46 129.959 251.181C130.004 251.901 130.322 252.66 130.639 253.381C131.772 255.733 133.268 257.933 135.127 259.944C135.898 260.779 136.124 261.31 135.082 262.145C133.042 263.738 133.132 263.776 131.546 261.841C131.047 261.196 130.594 260.551 130.095 259.944C128.916 258.389 128.146 256.682 126.65 255.278C126.151 254.823 125.743 254.14 124.836 254.481C123.975 254.823 124.428 255.43 124.519 255.999C124.882 258.503 126.423 260.627 127.919 262.752C128.418 263.434 129.279 264.003 129.551 265.293C127.466 264.269 125.743 263.51 124.111 262.6C121.663 261.234 119.306 259.754 116.903 258.313C116.268 257.933 115.543 257.63 114.863 258.275C114.319 258.806 114.455 259.451 114.908 260.02C115.18 260.324 115.452 260.627 115.77 260.893C119.623 264.269 124.156 266.849 129.143 268.859C130.82 269.542 132.316 269.353 133.631 268.177C135.444 266.583 137.394 265.066 139.207 263.472C140.023 262.752 140.612 262.789 141.383 263.472C143.196 265.066 145.191 266.545 147.004 268.177C148.183 269.239 149.634 269.58 151.084 269.011C156.388 266.925 161.194 264.193 165.183 260.589C165.863 259.982 166.77 259.185 165.727 258.275C164.82 257.478 163.914 258.161 163.143 258.616C160.559 260.134 158.02 261.727 155.346 263.169C154.122 263.852 152.852 264.648 150.994 264.876C153.215 262.069 155.346 259.527 156.071 256.416C156.207 255.771 156.66 254.936 155.799 254.519C154.802 254.064 154.303 254.936 153.895 255.468C152.172 257.668 150.586 259.982 148.818 262.182C148.41 262.676 148.092 264.193 146.823 262.979C146.007 262.22 143.559 261.955 145.463 260.02C147.775 257.668 149.588 255.012 150.54 252.053C150.858 251.067 151.538 249.701 149.951 249.246C148.591 248.828 147.956 250.08 147.412 250.953C147.186 251.294 147.004 251.636 146.823 251.977C145.735 254.102 144.194 256.037 142.335 258.123Z" fill="#F4FB95"/>
<path d="M271.671 342.724C272.623 339.613 273.893 336.578 274.391 333.391C275.026 329.749 275.162 326.107 273.938 322.503C273.122 320.189 271.626 318.406 269.042 317.306C267.591 316.699 267.229 315.902 267.637 314.536C268.543 311.349 269.722 308.201 269.677 304.862C269.586 297.578 262.242 291.622 253.583 291.963C253.221 291.963 252.858 291.963 252.359 291.963C253.085 289.46 253.946 287.145 254.354 284.679C255.306 279.178 253.221 275.688 247.101 273.108C255.578 265.824 263.149 257.63 275.434 254.671C283.957 252.622 291.391 255.505 295.607 262.031C298.826 267.076 299.959 272.577 300.141 278.116C301.002 301.675 293.477 322.92 274.527 340.827C273.757 341.548 272.895 342.269 272.125 342.989C271.989 342.913 271.853 342.838 271.671 342.724Z" fill="#FAF0EE"/>
<path d="M251.453 358.126C252.223 354.788 251.951 351.449 251.77 348.111C251.317 340.03 249.957 332.063 248.279 324.134C245.786 312.601 244.199 300.955 240.074 289.687C239.258 287.525 238.623 285.211 236.629 283.503C236.039 282.593 235.994 281.91 237.173 281.113C239.394 279.596 241.434 277.927 243.474 276.219C244.426 275.385 245.378 275.385 246.511 275.764C249.458 276.788 251.362 279.52 251.226 282.517C251.09 285.324 250.138 287.98 249.141 290.636C248.869 291.432 248.506 292.191 248.37 292.988C248.143 294.316 248.914 295.036 250.546 295.036C251.09 295.036 251.634 295.036 252.133 294.923C259.431 292.874 267.773 299.968 266.639 306.456C266.141 309.263 265.37 312.032 264.871 314.84C264.554 316.585 265.098 318.064 267.002 318.823C270.629 320.303 271.626 322.958 271.943 325.955C272.533 331.418 270.629 336.54 269.178 341.775C268.09 345.607 266.095 348.794 262.287 351.222C259.25 353.157 256.394 355.357 253.402 357.406C252.813 357.709 252.359 358.392 251.453 358.126Z" fill="#ECCF5D"/>
<path d="M142.426 166.39C138.799 166.39 135.173 166.352 131.546 166.428C130.231 166.466 129.869 166.239 130.186 165.062C131.274 161.307 133.677 158.272 137.077 155.73C139.751 153.757 142.698 152.164 145.826 150.76C149.679 149.015 153.487 147.194 156.842 144.842C158.066 143.969 158.791 143.893 159.245 145.411C161.421 152.695 159.607 159.41 155.029 165.707C154.53 166.39 153.941 166.58 152.989 166.58C149.453 166.504 145.917 166.542 142.335 166.542C142.426 166.428 142.426 166.428 142.426 166.39Z" fill="#F3FA95"/>
<path d="M159.335 167.073C161.103 164.911 162.463 162.71 163.415 160.396C163.778 159.486 164.73 159.372 165.546 159.258C170.668 158.651 175.61 157.551 180.234 155.654C181.684 155.085 181.866 155.654 181.956 156.64C182.364 161.117 181.186 165.29 178.919 169.311C178.647 169.805 178.42 170.26 177.65 170.07C171.756 168.78 165.636 167.984 159.335 167.073Z" fill="#F1F893"/>
<path d="M70.5724 218.706C71.3884 218.63 71.9324 218.972 71.8417 219.655C71.7964 220.375 71.0257 220.299 70.4364 220.262C65.9484 219.996 61.8684 218.668 58.1964 216.506C57.6524 216.202 57.2897 215.633 56.519 215.671C56.7457 213.66 57.4257 211.764 58.8764 210.056C60.327 210.967 61.1884 212.143 62.1857 213.205C63.9084 215.14 66.1297 216.62 68.2604 218.175C68.9857 218.706 69.7564 218.668 70.5724 218.706Z" fill="#9A9A52"/>
<path d="M224.162 215.709C220.989 217.34 217.77 218.972 214.098 219.73C212.783 219.996 211.469 220.337 210.109 220.262C209.565 220.224 208.975 220.224 208.885 219.655C208.749 218.934 209.247 218.63 210.063 218.63C211.197 218.82 212.013 218.365 212.874 217.796C215.775 215.899 218.133 213.622 220.263 211.194C221.442 209.829 222.167 210.17 222.802 211.536C223.437 212.902 224.026 214.229 224.162 215.709Z" fill="#9A9A52"/>
<path d="M271.762 343.293C271.716 343.331 271.671 343.369 271.626 343.407C271.58 343.369 271.49 343.331 271.49 343.255C271.49 343.217 271.58 343.179 271.626 343.141C271.671 343.217 271.716 343.255 271.762 343.293Z" fill="#FAF0EE"/>
<path d="M140.204 238.168C130.548 237.827 121.164 236.006 112.098 232.819C101.399 229.063 91.5163 224.283 82.7217 217.796C72.431 210.132 72.975 198.941 78.7777 190.746C82.5857 185.321 88.343 181.869 94.8257 178.872C99.8123 176.558 105.162 175.875 110.556 175.116C122.842 173.409 135.263 172.726 147.73 173.181C158.564 173.56 169.58 174.016 179.871 176.861C192.383 180.313 202.356 186.687 205.348 198.372C207.252 205.921 204.85 212.219 197.914 217.644C186.671 226.445 173.207 231.795 158.836 235.702C152.898 237.295 146.687 238.016 140.204 238.168ZM140.34 184.221C143.65 184.486 146.914 184.676 150.223 184.98C159.607 185.89 168.9 187.256 177.514 190.822C180.687 192.15 183.815 193.591 186.308 195.754C188.892 197.992 189.255 199.965 187.623 202.393C187.17 203.076 186.535 203.835 187.351 204.442C188.122 205.049 189.21 204.821 190.116 204.442C192.292 203.569 193.607 201.293 193.244 198.979C192.7 195.185 189.844 192.757 186.354 190.708C180.868 187.559 174.794 185.511 168.402 184.145C158.927 182.096 149.362 181.034 139.524 181.11C128.508 181.186 117.855 182.552 107.474 185.397C101.444 187.066 95.6417 189.229 91.0177 193.06C88.751 194.957 87.3457 197.233 87.391 199.965C87.4363 202.241 89.3403 204.29 91.5163 204.669C92.287 204.821 93.0577 204.821 93.5563 204.214C94.0097 203.683 93.647 203.152 93.2843 202.621C91.4257 199.737 91.743 197.84 94.5083 195.526C97.4097 193.136 100.9 191.543 104.572 190.139C115.951 185.966 128.146 185.131 140.34 184.221Z" fill="#9C9C53"/>
<path d="M142.335 258.123C144.239 256.037 145.735 254.102 146.869 251.977C147.05 251.636 147.231 251.294 147.458 250.953C148.047 250.08 148.637 248.828 149.997 249.246C151.538 249.739 150.903 251.067 150.586 252.053C149.589 255.012 147.775 257.668 145.509 260.02C143.605 261.955 146.053 262.22 146.869 262.979C148.138 264.193 148.455 262.676 148.863 262.182C150.631 259.982 152.218 257.706 153.941 255.468C154.349 254.936 154.893 254.064 155.845 254.519C156.706 254.936 156.298 255.771 156.117 256.416C155.391 259.527 153.261 262.069 151.039 264.876C152.898 264.648 154.167 263.852 155.391 263.169C158.021 261.727 160.605 260.134 163.189 258.616C164.005 258.161 164.866 257.478 165.773 258.275C166.815 259.147 165.909 259.944 165.229 260.589C161.239 264.193 156.434 266.963 151.13 269.011C149.634 269.58 148.229 269.239 147.05 268.177C145.237 266.583 143.287 265.066 141.429 263.472C140.613 262.752 140.069 262.752 139.253 263.472C137.439 265.066 135.49 266.583 133.677 268.177C132.317 269.353 130.821 269.542 129.189 268.859C124.202 266.849 119.669 264.231 115.815 260.893C115.498 260.627 115.181 260.324 114.954 260.02C114.501 259.451 114.365 258.806 114.909 258.275C115.543 257.668 116.269 257.933 116.949 258.313C119.351 259.717 121.709 261.196 124.157 262.6C125.789 263.51 127.511 264.269 129.597 265.293C129.325 264.003 128.463 263.472 127.965 262.752C126.469 260.627 124.927 258.54 124.565 255.999C124.474 255.468 124.021 254.823 124.882 254.481C125.789 254.102 126.197 254.823 126.695 255.278C128.191 256.644 128.962 258.389 130.141 259.944C130.639 260.589 131.093 261.234 131.591 261.841C133.133 263.776 133.087 263.738 135.127 262.145C136.17 261.31 135.989 260.817 135.173 259.944C133.314 257.933 131.773 255.771 130.685 253.381C130.367 252.698 130.095 251.939 130.005 251.181C129.959 250.422 129.506 249.36 130.866 249.132C131.999 248.942 132.679 249.739 133.042 250.498C134.402 253.153 136.079 255.657 138.618 258.313C138.618 254.861 138.618 251.863 138.618 248.904C138.618 247.88 138.482 246.704 140.25 246.704C142.063 246.666 142.063 247.842 142.154 248.98C142.335 251.939 141.474 254.898 142.335 258.123Z" fill="#A17729"/>
<path d="M140.341 184.221C128.146 185.131 115.951 185.928 104.573 190.253C100.901 191.657 97.41 193.25 94.5087 195.64C91.698 197.954 91.426 199.851 93.2847 202.734C93.602 203.266 94.01 203.759 93.5567 204.328C93.058 204.897 92.2873 204.897 91.5167 204.783C89.3407 204.404 87.4367 202.355 87.3913 200.079C87.3007 197.309 88.706 195.071 91.018 193.174C95.642 189.342 101.445 187.142 107.474 185.511C117.855 182.665 128.509 181.3 139.525 181.224C149.362 181.148 158.927 182.21 168.402 184.259C174.794 185.625 180.869 187.673 186.354 190.822C189.845 192.871 192.701 195.299 193.245 199.092C193.562 201.407 192.293 203.645 190.117 204.555C189.21 204.935 188.122 205.2 187.351 204.555C186.581 203.91 187.17 203.19 187.623 202.507C189.255 200.079 188.893 198.106 186.309 195.868C183.815 193.705 180.687 192.264 177.514 190.936C168.901 187.37 159.653 186.042 150.223 185.093C146.914 184.676 143.605 184.486 140.341 184.221Z" fill="#050502"/>
<path d="M47.514 113.443C44.794 118.526 41.666 123.041 37.042 126.721C32.69 130.211 27.522 131.235 21.7647 129.983C17.2767 128.997 14.1033 126.569 11.746 123.306C7.07667 116.857 4.31134 109.801 2.81534 102.403C0.458007 90.6423 -0.720666 78.8437 0.458001 66.9313C1.22867 59.1541 3.042 51.5666 6.034 44.1688C7.71134 39.9957 10.522 36.3158 13.5593 32.7876C20.314 24.9345 28.202 17.9919 37.586 12.3013C50.3247 4.56207 64.4687 2.47551 79.882 4.14476C91.5327 5.43463 99.2393 10.5562 104.181 19.1301C105.042 20.6096 105.858 22.0892 106.629 23.6067C111.162 32.2944 114.018 41.4753 117.463 50.5044C120.047 57.1814 122.631 63.8204 125.17 70.4974C126.258 73.3807 128.026 75.9225 130.565 78.0849C132.65 79.8301 134.962 79.5266 136.231 77.3641C143.439 65.1483 150.239 52.7427 158.263 40.8683C165.925 29.5249 175.49 19.4336 187.458 11.1632C198.837 3.31013 211.938 -0.938876 227.034 0.199249C237.869 0.995937 246.437 4.71382 251.65 13.1739C256.138 20.4579 258.314 28.3109 260.671 36.1261C263.754 46.2554 264.661 56.6882 266.111 67.0072C267.335 75.9225 268.559 84.8378 269.511 93.7531C270.463 102.555 271.506 111.356 272.005 120.196C272.639 131.311 261.714 138.747 253.645 141.289C251.151 142.086 248.567 141.706 246.029 141.213C244.17 140.871 242.357 140.416 240.271 139.961C240.951 143.186 241.858 146.297 241.631 149.559C244.487 148.952 247.162 148.307 249.973 148.383C253.735 148.497 255.957 150.242 256.229 153.391C256.455 156.084 255.503 158.512 254.007 160.827C253.463 161.699 253.509 162.116 254.597 162.761C256.999 164.127 258.133 166.1 258.087 168.604C258.042 171.373 257.362 173.953 255.549 176.343C246.391 188.217 235.194 198.612 222.365 207.755C206.815 218.833 190.087 228.355 170.866 234.425C158.626 238.295 145.978 240.306 132.877 240.875C120.682 241.406 108.941 240.002 97.426 236.891C85.1407 233.553 73.8527 228.545 65.1033 220.464C61.7487 217.353 58.3033 215.343 53.4073 214.925C51.866 214.812 50.3247 214.281 48.9647 213.598C46.154 212.194 45.6553 209.728 48.058 207.945C49.5087 206.883 48.8287 206.579 47.6953 205.972C46.154 205.176 44.4767 204.569 43.162 203.506C40.442 201.344 40.3967 198.992 43.298 197.095C46.0633 195.236 48.9647 193.491 51.9567 191.973C54.178 190.873 53.4073 188.938 54.178 187.497C54.4953 186.928 53.4527 187.155 52.9993 187.155C50.0073 187.193 47.4233 186.169 44.93 184.993C44.4767 184.765 44.0687 184.462 43.7513 184.12C43.3433 183.665 42.89 183.172 43.434 182.603C43.978 182.072 44.658 182.185 45.2927 182.451C46.97 183.21 48.874 183.437 50.7327 183.703C52.1833 183.893 53.5887 183.741 54.9487 183.324C57.7593 182.413 58.0767 181.616 56.626 179.454C53.906 175.357 53.0447 170.918 53.0447 166.252C52.546 166.328 52.138 166.403 51.6847 166.517C49.01 167.2 48.1033 166.972 46.9247 164.924C42.618 157.64 38.538 150.242 35.2287 142.579C34.2313 140.302 34.7753 139.43 37.314 138.368C42.618 136.167 47.922 133.891 53.2713 131.691C54.2687 131.273 54.722 130.856 54.314 129.983C52.0473 124.634 50.5967 118.982 47.514 113.443ZM83.01 210.828C82.9647 210.752 82.9647 210.714 82.9193 210.639C82.9193 210.676 82.9193 210.714 82.9193 210.714C82.9193 210.79 83.01 210.79 83.01 210.828C83.4633 211.777 84.0527 212.649 84.778 213.446C85.186 214.736 85.9567 215.912 86.7727 217.012C87.362 217.809 88.3593 218.719 86.9993 219.478C85.7753 220.161 84.9593 219.212 84.1887 218.492C83.9167 218.264 83.6447 218.036 83.5087 217.733C81.514 214.546 78.8847 211.663 77.4793 208.211C77.3433 207.831 77.298 207.072 76.6633 207.224C74.3513 207.755 71.994 206.921 69.6367 207.945C66.1007 209.538 63.0633 209.387 60.2527 206.731C59.9807 206.503 59.8447 205.972 59.21 206.276C59.8447 208.704 60.7967 211.056 62.2473 213.256C66.146 219.326 72.2207 223.575 79.1113 226.914C99.5567 236.777 121.589 239.623 144.799 236.664C166.922 233.818 186.189 225.662 203.959 214.698C220.007 204.796 234.605 193.68 246.119 179.947C248.023 178.733 248.975 176.95 250.245 175.357C251.877 173.308 253.463 171.259 253.917 168.718C254.325 166.479 252.738 164.469 249.791 165.265C247.253 165.455 245.077 166.517 242.765 167.238C240.951 167.807 240.181 167.352 240.045 165.759C242.901 164.924 245.031 162.989 247.933 162.192C248.114 162.154 248.25 161.927 248.341 161.775C249.383 159.954 250.562 158.209 251.378 156.312C253.282 152.139 251.877 150.735 246.527 151.266C245.394 151.19 244.306 151.532 243.263 151.798C238.367 153.012 233.834 154.908 229.437 157.071C228.349 157.602 227.17 158.323 226.263 156.843C226.626 156.047 227.397 155.515 228.213 155.06C230.751 153.581 233.471 152.329 236.327 151.342C237.597 150.887 237.959 150.394 237.642 149.218C237.143 147.435 236.826 145.614 236.645 143.793C236.327 140.758 235.421 138.557 231.522 136.888C223.045 133.208 216.789 127.29 211.711 120.613C205.229 112.039 201.103 102.631 198.293 92.8426C197.567 90.3767 196.071 89.0489 193.442 88.1763C185.146 85.4448 176.714 83.6997 167.647 84.6102C164.882 84.8757 161.935 85.4069 159.261 83.9273C158.943 83.0548 159.17 82.2201 159.714 81.4614C160.757 81.2717 161.754 81.0441 162.797 80.9302C167.874 80.3612 172.589 79.0713 176.397 76.0363C178.981 74.9361 180.794 73.0013 182.698 71.2562C188.546 65.9829 193.306 60.1784 194.303 52.7427C194.53 51.1493 195.029 49.5559 195.437 47.9626C195.799 47.4314 196.343 47.0521 197.069 47.3176C197.567 47.5073 197.658 47.9246 197.567 48.4178C196.706 53.5014 196.343 58.623 196.978 63.7066C198.927 79.8301 202.282 95.7638 210.397 110.635C218.013 124.634 229.255 135.105 248.567 137.571C250.381 137.799 252.058 137.799 253.599 137.04C261.533 133.208 266.882 128.049 266.655 119.816C266.383 111.773 265.295 103.807 264.434 95.8017C263.074 83.5479 261.215 71.2941 259.765 59.0403C258.269 46.6348 255.367 34.4568 250.834 22.5824C249.293 18.5989 247.026 14.8811 244.125 11.4667C242.266 9.26632 239.863 7.74881 237.007 6.64862C229.527 3.80331 221.685 3.76537 213.887 4.94144C204.685 6.30719 196.751 10.1389 189.725 15.1466C181.565 20.9511 174.583 27.666 168.599 35.1017C157.311 49.2145 149.695 64.9965 139.631 79.6783C138.634 81.1199 137.909 81.4614 136.322 81.3855C126.757 80.8923 117.554 82.1063 108.669 85.1034C88.042 92.0839 72.13 103.351 62.9727 120.651C61.6127 123.193 60.5247 125.848 59.9807 129.035C63.3353 127.745 66.282 126.607 69.2287 125.431C73.5807 123.686 77.9327 121.903 82.5113 120.613C84.7327 119.968 85.73 120.385 86.5007 122.206C86.8633 123.079 87.1807 123.989 87.5433 124.9C88.2233 127.555 88.858 130.211 89.5833 132.829C90.898 137.571 92.258 142.275 93.074 147.093C93.5273 149.787 92.394 151.38 89.4473 152.632C79.61 156.805 69.682 160.713 59.3913 163.938C56.0367 165 55.9913 165.114 56.49 168.035C56.5807 168.452 56.7167 168.907 56.8527 169.325C56.898 172.36 58.122 175.129 59.4367 177.899C60.4793 180.099 60.4793 180.099 62.746 178.809C68.186 175.66 74.2153 174.37 80.7887 174.977C86.5913 175.508 91.442 177.595 94.9327 181.654C98.0607 185.258 98.378 189.28 97.018 193.491C98.0607 193.491 99.0127 193.567 100.01 193.491C102.186 193.263 104.317 192.922 106.493 193.605C107.218 195.122 105.949 195.122 104.77 195.16C100.645 195.312 96.5193 195.843 92.3487 196.488C95.8393 197.588 98.6953 199.03 98.2873 202.634C94.9327 207.869 90.1727 210.942 83.01 210.828ZM68.458 201.761C66.4633 201.382 64.4687 201.04 62.5647 201.989C61.9753 202.254 61.3407 202.482 61.25 203.165C60.978 204.948 62.1567 206.579 64.1513 207.186C66.1007 207.793 69.4553 207.262 70.1807 206.048C71.1327 204.379 70.2713 203.013 68.594 201.951C68.5033 201.913 68.5033 201.837 68.458 201.761C69.002 201.761 69.5007 201.723 69.9993 201.723C71.2687 201.723 71.7673 201.154 71.722 200.168C71.6767 199.257 71.042 198.764 69.9993 198.764C68.7753 198.726 68.3673 199.485 68.186 200.357C68.1407 200.851 68.866 201.23 68.458 201.761ZM95.386 200.889C93.2553 198.612 90.1273 198.195 87.2713 198.802C84.642 199.371 81.9673 200.585 81.0607 203.203C79.8367 204.834 80.834 206.086 82.1487 207.186C83.2367 208.097 84.234 209.273 86.1833 208.704C88.9033 207.907 91.4873 206.807 93.5273 205.1C94.842 204.075 96.474 202.823 95.386 200.889ZM75.5753 190.759C82.5113 189.28 89.1753 188.787 94.5247 194.098C95.3407 192.315 93.9353 191.594 92.7567 190.835C83.554 184.955 69.5007 188.369 63.97 193.491C63.426 194.022 62.9727 194.363 63.8793 195.008C64.65 195.577 65.194 195.691 65.9193 194.97C67.5513 193.339 69.682 192.277 72.0393 191.518C72.3113 192.732 73.218 193.263 74.578 192.998C76.0287 192.694 75.9833 191.746 75.5753 190.759ZM55.266 117.995C55.946 120.006 56.626 122.054 57.3967 124.369C58.8473 121.485 59.9353 118.792 61.7033 116.402C62.9727 114.695 63.154 113.367 61.0233 112.191C58.1673 108.587 55.9913 104.717 54.858 100.468C54.586 99.5196 54.4953 98.4953 53.6793 97.4331C52.818 99.5576 51.9567 101.454 51.2767 103.427C50.778 104.831 49.69 106.159 50.098 107.714C52.002 111.091 53.906 114.429 55.266 117.995ZM195.21 80.8164C194.847 74.9361 193.487 69.1317 193.533 62.9479C188.093 70.156 181.882 76.3778 174.13 81.6131C177.077 81.6511 179.706 82.5995 182.562 82.6754C187.141 84.1929 191.674 85.7104 196.479 87.3038C195.981 84.9896 195.935 82.8651 195.21 80.8164ZM55.7647 95.4983C57.17 101.568 59.21 107.411 64.2873 112.418C68.866 106.424 74.3513 101.379 80.426 96.7123C81.8313 95.7638 83.2367 94.8154 84.6873 93.829C82.2393 92.3494 81.6047 90.2629 81.6047 87.9487C81.6047 86.2415 81.9673 84.5722 82.33 82.903C82.9193 80.1336 84.234 77.5159 85.5033 74.6706C84.506 74.8223 83.8713 74.9361 83.1913 75.012C79.5193 75.3914 76.754 74.0256 75.258 71.1424C74.5327 69.7387 74.2607 68.2591 74.306 66.7037C74.3513 64.8068 74.306 62.9099 74.306 60.9372C66.418 70.9906 60.7967 81.8028 55.7647 92.8426C55.402 93.7152 54.994 94.6257 55.7647 95.4983ZM108.714 80.2474C108.578 78.1229 108.578 75.9984 108.215 73.9118C107.082 66.4381 105.087 59.1162 102.911 51.7942C101.687 47.7349 100.599 43.6377 98.1513 39.9198C97.5167 38.3264 96.1113 37.1504 94.9327 35.8605C94.162 35.0638 93.6633 35.1397 92.8927 35.9743C88.722 40.6027 84.5967 45.2311 81.1967 50.3147C77.978 55.0948 77.4793 60.2923 77.3433 65.6035C77.026 66.9313 77.434 68.2591 77.7967 69.5111C78.522 71.9011 80.154 72.9634 83.146 73.0772C83.826 73.1151 84.5513 73.0013 85.186 73.191C86.138 73.4566 86.5007 73.1151 86.8633 72.4323C87.9967 70.5354 89.1753 68.6385 90.4447 66.7796C90.8073 66.2484 90.9887 65.1483 92.0313 65.5276C93.1647 65.9829 92.3033 66.8934 91.986 67.5004C91.442 68.7144 90.7167 69.9284 90.082 71.1424C88.042 75.0499 86.0473 78.9954 85.0047 83.2065C84.37 85.8621 83.4633 88.6316 85.186 91.2872C85.9113 92.5012 86.7727 92.5012 88.042 91.7045C93.7087 88.2901 99.7833 85.5207 106.311 83.5859C108.623 83.0168 109.394 82.0684 108.714 80.2474ZM111.207 78.7678C111.207 79.3369 111.253 79.9059 111.207 80.475C111.026 81.8408 111.525 82.2201 113.157 81.7649C115.423 81.1579 117.781 80.7406 120.138 80.3612C123.311 79.8301 123.357 79.868 122.813 77.2124C122.722 74.8602 120.999 72.9634 120.138 70.8389C115.786 59.9508 111.525 49.0248 107.445 38.0609C104.725 30.7769 101.642 23.5687 96.6553 17.0814C93.7087 13.2497 89.7193 10.5562 84.4153 9.45601C69.0927 6.34513 54.6313 7.71088 41.394 15.4881C34.6393 19.4336 28.7913 24.1758 23.4873 29.3732C18.3193 34.4189 13.4687 39.6922 10.8393 46.1036C7.89267 53.2359 6.35134 60.6337 5.53534 68.1453C4.40201 78.5402 5.62601 88.8592 7.43934 99.1023C8.75401 106.538 11.1113 113.67 15.6447 120.234C20.586 127.442 28.7007 128.276 35.5913 122.282C39.9433 118.488 43.0713 114.012 44.8847 108.966C50.778 92.6529 57.85 76.7951 68.9113 62.3409C69.41 61.6959 69.7727 61.0131 70.1807 60.3302C76.1193 51.2252 81.8767 42.0443 90.898 34.6844C91.034 34.5706 90.9887 34.343 91.034 34.0774C89.9007 34.0016 88.858 33.9636 87.8153 33.8878C86.818 33.8119 85.6847 33.8119 85.6847 32.6737C85.6847 31.6115 86.682 31.3839 87.7247 31.308C92.5753 30.8527 95.2047 31.9909 97.6073 35.557C100.418 39.7681 102.231 44.2826 103.818 48.8731C107.173 58.6989 110.119 68.5626 111.207 78.7678ZM89.8553 148.8C89.7193 148.08 89.674 147.776 89.6287 147.473C88.178 139.923 85.6847 132.601 83.8713 125.127C83.554 123.875 83.01 123.724 81.65 124.255C74.17 127.138 66.69 129.908 59.21 132.753C52.6367 135.257 46.1087 137.837 39.5807 140.416C38.7647 140.72 37.994 140.909 38.538 142.048C41.8927 149.066 45.61 155.933 49.418 162.799C50.0527 163.938 50.778 164.051 52.0473 163.672C64.6953 159.916 76.7993 155.06 88.6767 149.901C89.402 149.521 89.946 149.18 89.8553 148.8ZM95.114 188.976C94.978 184.651 91.8953 180.896 87.1807 179.037C76.9807 175.015 62.9727 179.226 58.258 187.8C55.9913 191.935 55.9913 195.995 59.346 199.788C61.2047 201.913 61.2953 201.837 63.5167 200.092C64.514 199.333 64.922 198.726 63.6073 197.929C62.9273 197.512 62.4287 196.943 61.8393 196.488C59.8447 194.97 59.754 194.25 61.5673 192.542C66.554 187.838 73.082 185.865 80.3807 185.448C85.6847 185.107 90.5807 186.359 95.114 188.976ZM53.09 194.401C50.4153 195.957 47.922 197.398 45.5193 198.878C43.5247 200.092 43.434 201.116 45.338 202.52C46.834 203.582 48.5113 204.455 50.098 205.403C52.9087 207.034 52.9087 207.072 50.778 209.235C50.1887 209.804 49.3727 210.487 50.642 211.056C53.1807 212.194 55.8553 213.067 58.8473 213.522C57.17 209.842 54.9487 206.503 54.9487 202.861C54.9487 199.94 53.9967 197.36 53.09 194.401ZM75.5753 204.569C75.53 203.734 75.0767 203.089 73.9887 203.089C72.9007 203.089 72.3113 203.658 72.3567 204.493C72.402 205.327 72.946 205.896 74.034 205.896C75.0313 205.858 75.4393 205.289 75.5753 204.569Z" fill="#060605"/>
<path d="M106.357 193.756C104.226 193.074 102.05 193.415 99.8741 193.643C98.9221 193.756 97.9248 193.643 96.8821 193.643C98.2875 189.432 97.9248 185.448 94.7968 181.806C91.3061 177.785 86.4555 175.66 80.6528 175.129C74.1248 174.522 68.0955 175.812 62.6101 178.961C60.3435 180.251 60.3435 180.251 59.3008 178.05C57.9861 175.281 56.8075 172.511 56.7168 169.476C62.2021 168.187 67.2341 166.024 72.1755 163.786C78.9755 160.675 85.9568 157.792 92.7115 154.643C94.6608 153.732 95.2501 152.898 95.2501 151.191C95.2501 147.7 95.0235 144.248 94.6608 140.796C94.2075 136.66 93.3008 132.563 92.1675 128.504C91.4421 125.924 90.1275 125.052 87.4528 125.052C87.1355 124.141 86.8181 123.269 86.4101 122.358C85.6395 120.499 84.6421 120.12 82.4208 120.765C77.8421 122.054 73.4901 123.838 69.1381 125.583C66.2368 126.759 63.2901 127.859 59.8901 129.187C60.4341 126 61.5221 123.344 62.8821 120.803C72.0395 103.503 87.9515 92.2356 108.578 85.2551C117.463 82.2581 126.666 81.0061 136.231 81.5373C137.773 81.6131 138.543 81.2717 139.541 79.8301C149.65 65.1483 157.221 49.3663 168.509 35.2535C174.493 27.8178 181.474 21.1028 189.634 15.2984C196.661 10.2906 204.639 6.45895 213.797 5.0932C221.594 3.91714 229.437 3.95507 236.917 6.80039C239.818 7.90057 242.175 9.41807 244.034 11.6184C246.935 15.0328 249.202 18.7507 250.743 22.7341C255.322 34.6086 258.223 46.7865 259.674 59.1921C261.125 71.4459 262.983 83.6618 264.343 95.9535C265.205 103.92 266.293 111.925 266.565 119.968C266.837 128.2 261.487 133.398 253.509 137.192C251.967 137.95 250.245 137.95 248.477 137.723C229.165 135.257 217.922 124.786 210.306 110.787C202.191 95.8776 198.837 79.9818 196.887 63.8584C196.298 58.7748 196.615 53.6532 197.477 48.5696C197.567 48.0384 197.477 47.6591 196.978 47.4694C196.207 47.2038 195.709 47.5832 195.346 48.1143C192.445 47.5073 191.266 47.8108 190.903 49.518C190.087 53.6911 188.319 57.6366 186.642 61.6201C184.693 66.2485 182.245 70.7251 177.938 74.2533C177.258 74.7844 176.351 75.2396 176.261 76.1881C172.453 79.2231 167.738 80.5129 162.661 81.082C161.618 81.1958 160.621 81.4235 159.578 81.6131C158.263 81.4614 156.858 81.3096 156.767 82.8651C156.722 84.155 157.855 84.3067 159.125 84.0791C161.754 85.5586 164.746 85.0275 167.511 84.762C176.578 83.8515 185.01 85.5966 193.306 88.3281C195.935 89.2006 197.431 90.4905 198.157 92.9944C200.967 102.782 205.093 112.191 211.575 120.765C216.653 127.48 222.909 133.398 231.386 137.04C235.239 138.709 236.146 140.909 236.509 143.944C236.69 145.765 237.007 147.586 237.506 149.37C237.823 150.546 237.461 151.039 236.191 151.494C233.335 152.48 230.615 153.732 228.077 155.212C227.261 155.667 226.49 156.198 226.127 156.995C221.775 159.119 218.511 162.192 216.063 165.759C209.717 174.939 200.786 181.92 190.359 187.762C186.415 189.963 182.29 192.239 179.434 195.35C176.669 198.423 173.359 200.927 170.141 203.582C169.189 204.379 168.282 205.479 166.559 205.176C167.149 204.758 167.738 204.303 168.373 203.886C169.279 203.241 170.322 202.71 169.869 201.496C175.717 197.323 179.026 192.201 178.391 185.6C184.647 185.486 192.581 179.606 193.442 174.446C193.533 173.915 193.805 173.194 192.898 173.005C191.946 172.815 191.901 173.65 191.674 174.105C189.861 177.671 186.869 180.099 182.335 181.237C180.839 181.616 180.159 181.578 179.615 180.137C178.074 175.888 174.946 172.549 170.685 169.932C158.263 162.306 138.543 163.406 126.666 172.473C120.682 177.026 117.463 182.641 117.599 189.583C117.69 193.681 119.594 197.171 121.906 200.585C119.911 200.32 118.823 198.992 117.463 198.005C114.381 195.539 111.117 193.263 106.357 193.756ZM179.026 130.401C179.253 129.414 179.479 128.428 179.751 127.442C180.114 126.076 179.615 125.241 177.893 125.014C177.303 124.938 176.714 124.824 176.125 124.71C164.293 123.079 152.461 121.41 140.629 119.854C136.413 119.285 132.242 118.413 127.89 118.223C125.714 118.147 125.034 118.944 124.671 120.537C122.586 129.566 120.954 138.709 119.05 147.776C118.687 149.483 119.095 150.47 121.135 150.887C120.999 153.125 122.949 153.732 124.943 154.263C137.863 157.792 151.055 160.144 164.429 161.965C171.183 162.875 171.727 162.799 173.677 157.374C176.215 150.318 178.255 143.148 181.338 136.243C181.701 135.446 181.837 134.536 181.973 133.663C182.245 131.729 181.383 130.78 179.026 130.401Z" fill="#EDCF5D"/>
<path d="M111.207 78.7678C110.165 68.5626 107.218 58.6609 103.773 48.8731C102.186 44.2826 100.373 39.7681 97.562 35.557C95.1594 31.9909 92.53 30.8527 87.6794 31.308C86.6367 31.4218 85.6394 31.6115 85.6394 32.6737C85.6394 33.8119 86.818 33.8119 87.77 33.8878C88.8127 33.9636 89.8554 34.0016 90.9887 34.0774C90.9434 34.343 90.9887 34.6086 90.8527 34.6844C81.8314 42.0443 76.074 51.2252 70.1354 60.3302C69.682 61.0131 69.3194 61.6959 68.866 62.3409C57.8047 76.7951 50.778 92.6529 44.8394 108.966C43.026 114.012 39.898 118.45 35.546 122.282C28.6554 128.276 20.5407 127.404 15.5994 120.234C11.066 113.67 8.7087 106.538 7.39403 99.1023C5.5807 88.8213 4.3567 78.5402 5.49003 68.1453C6.30603 60.6337 7.84736 53.2359 10.794 46.1036C13.4234 39.6922 18.274 34.4568 23.442 29.3732C28.746 24.1758 34.594 19.4336 41.3487 15.4881C54.586 7.74882 69.0474 6.38307 84.37 9.45601C89.674 10.5183 93.6634 13.2497 96.61 17.0814C101.642 23.5687 104.725 30.7769 107.399 38.0609C111.479 49.0248 115.741 59.9508 120.093 70.8389C120.954 72.9634 122.677 74.8602 122.767 77.2124C121.589 77.2503 120.41 77.44 119.231 77.5538C116.511 77.8194 114.018 79.0334 111.207 78.7678Z" fill="#EDCF5D"/>
<path d="M106.356 193.756C111.116 193.263 114.38 195.539 117.69 197.892C119.05 198.878 120.183 200.206 122.132 200.471L122.087 200.509C122.087 200.851 122.314 200.964 122.631 201.002C123.674 201.913 124.671 202.861 125.804 203.658C127.436 204.796 128.751 205.934 129.567 207.679C130.564 209.728 132.74 210.828 135.46 210.866C137.636 210.904 139.767 210.942 141.898 210.221C143.303 209.766 144.708 209.88 146.023 210.942C149.015 213.294 152.234 212.953 154.682 210.183C155.044 209.728 155.226 209.159 156.042 209.007C159.895 208.286 163.295 206.731 166.695 205.1C168.418 205.403 169.324 204.303 170.276 203.506C173.45 200.851 176.759 198.347 179.57 195.274C182.38 192.163 186.506 189.887 190.495 187.686C200.876 181.844 209.852 174.863 216.199 165.683C218.692 162.116 221.956 159.044 226.263 156.919C227.17 158.399 228.348 157.678 229.436 157.147C233.834 155.022 238.367 153.125 243.263 151.873C244.351 151.608 245.394 151.228 246.527 151.342C246.844 156.122 244.986 160.22 241.132 163.672C240.452 164.279 239.727 164.848 239.999 165.796C240.135 167.39 240.906 167.845 242.719 167.276C245.031 166.555 247.207 165.493 249.746 165.303C250.924 169.438 249.791 173.232 247.615 176.95C247.026 177.936 246.028 178.809 246.028 180.023C234.514 193.756 219.871 204.91 203.868 214.774C186.098 225.738 166.831 233.894 144.708 236.74C121.498 239.737 99.4658 236.891 79.0205 226.99C72.1298 223.651 66.0551 219.402 62.1565 213.332C60.7058 211.094 59.7991 208.78 59.1191 206.352C59.7538 206.048 59.8898 206.579 60.1618 206.807C62.9725 209.463 66.0098 209.614 69.5458 208.021C71.9031 206.959 74.2605 207.793 76.5725 207.3C77.2071 207.148 77.2525 207.907 77.3885 208.286C78.7938 211.739 81.4685 214.622 83.4178 217.809C83.5991 218.074 83.8711 218.302 84.0978 218.568C84.8685 219.288 85.7298 220.237 86.9085 219.554C88.2231 218.795 87.2711 217.923 86.6818 217.088C85.8658 215.95 85.0952 214.812 84.6872 213.522C90.8525 213.56 97.1538 209.538 98.6045 204.606C98.7858 203.962 99.1485 203.203 98.0605 202.823C98.4685 199.219 95.6125 197.778 92.1218 196.678C96.2925 196.033 100.418 195.539 104.543 195.35C105.812 195.274 107.082 195.274 106.356 193.756ZM115.196 231.277C118.687 230.518 122.268 230.442 125.895 230.556C126.711 230.594 127.708 230.897 128.388 230.138C129.295 230.063 130.519 230.556 130.972 229.531C131.426 228.507 130.61 227.71 129.748 227.065C129.159 226.61 128.434 226.193 127.663 225.965C123.356 224.524 119.276 225.169 115.423 227.179C114.426 227.71 113.564 228.469 113.066 229.418C112.748 229.987 112.612 230.67 113.156 231.201C113.746 231.884 114.471 231.618 115.196 231.277ZM155.407 225.093C157.311 222.247 157.13 219.326 155.86 216.405C154.999 214.47 153.14 213.446 151.01 213.901C148.788 214.356 149.332 215.988 149.196 217.278C147.61 218.719 147.428 221.906 148.834 224.296C150.375 226.952 152.914 227.255 155.407 225.093Z" fill="#FBF1EE"/>
<path d="M89.8555 148.8C89.9462 149.18 89.4022 149.521 88.6768 149.863C76.7995 155.022 64.6955 159.878 52.0475 163.634C50.7782 164.013 50.0528 163.9 49.4182 162.761C45.6102 155.895 41.8475 149.028 38.5382 142.01C37.9942 140.871 38.7648 140.72 39.5808 140.378C46.1088 137.836 52.6368 135.219 59.2102 132.715C66.6902 129.87 74.1702 127.1 81.6502 124.217C83.0102 123.686 83.5995 123.838 83.8715 125.09C85.6848 132.563 88.1782 139.923 89.6288 147.435C89.6742 147.776 89.7195 148.08 89.8555 148.8Z" fill="#F4FB95"/>
<path d="M85.2765 91.363C83.5085 88.7074 84.4605 85.9759 85.0952 83.2824C86.0925 79.0713 88.1325 75.1258 90.1725 71.2182C90.8072 70.0042 91.4872 68.8282 92.0765 67.5763C92.3485 66.9313 93.2552 66.0587 92.1218 65.6035C91.0792 65.1862 90.8978 66.3243 90.5352 66.8554C89.2658 68.7144 88.0872 70.6113 86.9538 72.5081C86.5458 73.1531 86.2285 73.4945 85.2765 73.2669C84.6418 73.1151 83.9165 73.191 83.2365 73.153C80.2445 73.0392 78.6125 71.977 77.8872 69.5869C77.5245 68.2971 77.1618 67.0072 77.4338 65.6794C79.2472 65.1483 79.2925 63.6307 79.8365 62.4547C83.6898 54.7154 88.4952 47.5073 95.3858 41.3235C96.2018 40.6027 97.0178 40.0716 98.2418 39.9577C100.735 43.6756 101.778 47.7729 103.002 51.8322C105.223 59.1162 107.172 66.4761 108.306 73.9497C108.623 76.0363 108.623 78.1608 108.804 80.2853C108.034 80.2474 107.308 80.5129 106.628 80.7785C99.0125 83.6238 91.8045 87.0002 85.2765 91.363Z" fill="#EDCF5D"/>
<path d="M80.426 96.7123C74.3513 101.341 68.866 106.424 64.2873 112.418C59.21 107.411 57.2153 101.568 55.7646 95.4983C56.5806 95.043 56.762 94.2463 57.1246 93.6014C60.7966 87.3038 63.562 80.6267 68.3673 74.8602C69.6367 73.3427 70.77 71.7114 72.674 70.4595C72.81 70.763 72.946 70.9147 72.9913 71.0665C73.5353 75.3155 75.1673 77.0227 80.0633 78.047C81.2873 78.3126 81.0607 78.692 80.7887 79.3369C79.5647 82.0684 78.658 84.8757 78.2953 87.759C77.842 90.8699 76.89 94.2084 80.426 96.7123Z" fill="#FAF0ED"/>
<path d="M95.1142 188.976C90.6262 186.359 85.6849 185.145 80.3809 185.448C73.0822 185.865 66.5542 187.838 61.5675 192.542C59.7542 194.25 59.8448 194.97 61.8395 196.488C62.4288 196.943 62.9729 197.512 63.6075 197.929C64.9222 198.726 64.5142 199.295 63.5168 200.092C61.2955 201.837 61.2048 201.875 59.3462 199.788C56.0368 195.995 55.9915 191.935 58.2582 187.8C62.9728 179.226 76.9809 175.015 87.1809 179.037C91.8955 180.896 94.9782 184.651 95.1142 188.976Z" fill="#F9F9F9"/>
<path d="M87.5435 125.09C90.2182 125.09 91.5329 125.962 92.2582 128.542C93.3915 132.601 94.2982 136.66 94.7515 140.834C95.1142 144.286 95.3409 147.738 95.3409 151.228C95.3409 152.936 94.7515 153.77 92.8022 154.681C86.0022 157.83 79.0662 160.713 72.2662 163.824C67.3249 166.1 62.2929 168.262 56.8076 169.514C56.6716 169.097 56.5355 168.68 56.4449 168.224C55.9462 165.303 55.9915 165.189 59.3462 164.127C69.6369 160.865 79.6102 156.957 89.4022 152.822C92.3489 151.57 93.4822 149.977 93.0289 147.283C92.2129 142.465 90.8529 137.761 89.5382 133.018C88.8582 130.401 88.2235 127.745 87.5435 125.09Z" fill="#917133"/>
<path d="M80.4258 96.7123C76.8898 94.2084 77.8872 90.8699 78.2952 87.759C78.7032 84.8757 79.5645 82.0684 80.7885 79.3369C81.0605 78.6919 81.2872 78.2746 80.0632 78.047C75.1672 77.0227 73.5352 75.3155 72.9912 71.0665C72.9912 70.9147 72.8552 70.763 72.6739 70.4595C70.7699 71.7114 69.6365 73.3427 68.3672 74.8602C63.5619 80.6647 60.7965 87.3417 57.1245 93.6014C56.7165 94.2463 56.5805 95.043 55.7645 95.4983C54.9938 94.5878 55.3565 93.7152 55.7645 92.8426C60.7965 81.8028 66.4178 71.0286 74.3058 60.9372C74.3058 62.9099 74.3512 64.8068 74.3058 66.7037C74.2605 68.2591 74.5778 69.7387 75.2578 71.1424C76.7085 74.0256 79.4738 75.3534 83.1912 75.012C83.8258 74.9361 84.5058 74.8223 85.5032 74.6706C84.2338 77.5159 82.9192 80.1336 82.3298 82.903C81.9672 84.5722 81.6498 86.2415 81.6045 87.9487C81.5592 90.2629 82.1939 92.3115 84.6872 93.829C83.2365 94.8154 81.8312 95.7638 80.4258 96.7123Z" fill="#9E8F89"/>
<path d="M98.1513 39.9578C96.9726 40.0716 96.1113 40.6027 95.2953 41.3235C88.4046 47.4694 83.5993 54.7154 79.7459 62.4547C79.1566 63.6307 79.1566 65.1483 77.3433 65.6794C77.4793 60.3681 77.9779 55.1707 81.1966 50.3906C84.5966 45.3069 88.7219 40.6786 92.8926 36.0502C93.6633 35.2156 94.1619 35.1018 94.9326 35.9364C96.1113 37.1883 97.5166 38.3644 98.1513 39.9578Z" fill="#917133"/>
<path d="M182.562 82.6374C179.706 82.5616 177.077 81.6131 174.13 81.5752C181.882 76.3398 188.138 70.156 193.533 62.9099C193.487 69.1317 194.847 74.9361 195.21 80.7785C193.215 78.4643 192.581 75.6569 191.493 72.8875C190.087 74.6706 188.909 76.3777 187.503 77.8952C185.962 79.5645 184.919 81.6131 182.562 82.6374Z" fill="#9E8F89"/>
<path d="M53.09 194.401C53.9966 197.36 54.9033 199.94 54.9486 202.861C54.9486 206.541 57.17 209.88 58.8473 213.522C55.8553 213.067 53.1806 212.194 50.642 211.056C49.3726 210.487 50.1886 209.804 50.778 209.235C52.9086 207.072 52.9086 207.035 50.098 205.403C48.5113 204.455 46.834 203.582 45.338 202.52C43.434 201.154 43.5246 200.13 45.5193 198.878C47.9673 197.398 50.4606 195.995 53.09 194.401Z" fill="#E7CA5B"/>
<path d="M176.396 76.188C176.442 75.2396 177.394 74.8223 178.074 74.2532C182.38 70.6871 184.783 66.2484 186.778 61.6201C188.455 57.6746 190.223 53.7291 191.039 49.518C191.356 47.8108 192.58 47.5073 195.482 48.1143C195.119 49.7077 194.575 51.3011 194.348 52.8944C193.351 60.3681 188.591 66.1346 182.743 71.4079C180.794 73.1151 179.026 75.0499 176.396 76.188Z" fill="#917133"/>
<path d="M182.562 82.6374C184.965 81.6131 186.007 79.5645 187.549 77.9332C188.954 76.4157 190.133 74.7085 191.538 72.9254C192.626 75.6949 193.261 78.5022 195.255 80.8164C195.981 82.8651 196.026 85.0275 196.525 87.2658C191.674 85.6345 187.095 84.117 182.562 82.6374Z" fill="#FAF0ED"/>
<path d="M54.8581 100.468C55.9915 104.717 58.1675 108.587 61.0235 112.191C59.7541 112.38 59.2555 113.253 58.5755 114.012C57.3968 115.302 56.8075 116.933 55.2661 117.995C53.9061 114.467 52.0021 111.091 50.0981 107.752C50.9595 107.562 51.0048 106.842 51.3675 106.31C52.7728 104.452 53.3621 102.251 54.8581 100.468Z" fill="#E7CA5B"/>
<path d="M240.09 165.834C239.818 164.886 240.543 164.317 241.223 163.71C245.077 160.22 246.935 156.122 246.618 151.38C251.967 150.849 253.373 152.291 251.469 156.426C250.607 158.285 249.429 160.068 248.431 161.889C248.341 162.041 248.205 162.268 248.023 162.306C245.077 163.065 242.946 165 240.09 165.834Z" fill="#9E8F89"/>
<path d="M71.994 191.518C69.6366 192.277 67.5513 193.377 65.874 194.97C65.1486 195.691 64.65 195.577 63.834 195.008C62.9726 194.363 63.3806 194.022 63.9246 193.491C69.4553 188.369 83.5086 184.955 92.7113 190.835C93.89 191.556 95.2953 192.315 94.4793 194.098C89.1753 188.787 82.466 189.28 75.53 190.759C73.762 189.356 72.8553 189.545 71.994 191.518Z" fill="#92583F"/>
<path d="M85.2769 91.3631C91.7595 87.0002 99.0129 83.6238 106.538 80.7406C107.218 80.475 107.944 80.2474 108.714 80.2474C109.394 82.0684 108.624 83.0168 106.402 83.6618C99.8289 85.5966 93.7542 88.366 88.1328 91.7804C86.8635 92.5391 86.0022 92.5391 85.2769 91.3631Z" fill="#917133"/>
<path d="M95.3861 200.889C96.4288 202.823 94.7968 204.037 93.4822 205.138C91.4422 206.845 88.8582 207.945 86.1382 208.742C84.2342 209.311 83.1915 208.135 82.1035 207.224C80.7888 206.124 79.7915 204.872 81.0155 203.241C81.6048 203.355 82.2395 203.317 82.7382 203.582C84.8688 204.682 86.9088 204.417 89.1755 203.772C91.4875 203.089 93.3008 201.799 95.3861 200.889Z" fill="#513124"/>
<path d="M95.3858 200.889C93.2551 201.761 91.4418 203.089 89.1751 203.734C86.9538 204.379 84.8685 204.644 82.7378 203.544C82.2845 203.317 81.6045 203.317 81.0151 203.203C81.9218 200.585 84.5965 199.371 87.2258 198.802C90.1725 198.195 93.2551 198.612 95.3858 200.889Z" fill="#92583F"/>
<path d="M68.4581 201.761C68.4581 201.837 68.4581 201.913 68.5034 201.951C70.1807 203.013 71.0421 204.379 70.0901 206.048C69.3647 207.3 66.0101 207.793 64.0607 207.186C62.0661 206.579 60.8874 204.91 61.1594 203.165C61.2501 202.482 61.9301 202.292 62.4741 201.989C64.4687 201.04 66.4634 201.382 68.4581 201.761Z" fill="#F9F9F9"/>
<path d="M98.1511 202.786C99.2844 203.165 98.9218 203.924 98.6951 204.569C97.2898 209.5 90.9431 213.522 84.7778 213.484C84.0071 212.687 83.4178 211.815 83.0098 210.828C90.1724 210.942 94.9324 207.869 98.1511 202.786Z" fill="#9E8F89"/>
<path d="M55.2661 117.995C56.8074 116.933 57.3968 115.302 58.5755 114.012C59.2555 113.253 59.7995 112.38 61.0235 112.191C63.1541 113.367 63.0181 114.695 61.7035 116.402C59.8901 118.792 58.8475 121.485 57.3968 124.369C56.6261 122.017 55.9461 120.006 55.2661 117.995Z" fill="#917133"/>
<path d="M246.119 180.023C246.119 178.809 247.116 177.974 247.706 176.95C249.882 173.232 251.015 169.438 249.836 165.303C252.738 164.507 254.37 166.517 253.962 168.756C253.508 171.259 251.922 173.346 250.29 175.395C248.975 177.026 248.023 178.809 246.119 180.023Z" fill="#9E8F89"/>
<path d="M111.207 78.7678C114.018 79.0334 116.511 77.7814 119.277 77.5538C120.455 77.44 121.634 77.2503 122.813 77.2124C123.357 79.868 123.357 79.7921 120.138 80.3612C117.781 80.7406 115.469 81.1958 113.157 81.7649C111.479 82.1822 111.026 81.8028 111.207 80.475C111.253 79.9059 111.207 79.3369 111.207 78.7678Z" fill="#917133"/>
<path d="M54.8581 100.468C53.3621 102.251 52.7727 104.452 51.4127 106.31C51.0501 106.804 51.0047 107.524 50.1434 107.752C49.7354 106.159 50.8234 104.869 51.3221 103.465C52.0021 101.492 52.8634 99.5955 53.7247 97.471C54.4954 98.5333 54.5861 99.5196 54.8581 100.468Z" fill="#917133"/>
<path d="M71.9941 191.518C72.8101 189.545 73.7621 189.356 75.5755 190.759C75.9381 191.746 76.0288 192.694 74.5328 192.998C73.1728 193.263 72.2661 192.732 71.9941 191.518Z" fill="#F9F9F9"/>
<path d="M68.4582 201.761C68.8662 201.23 68.1409 200.813 68.2316 200.32C68.3676 199.447 68.7756 198.688 70.0449 198.726C71.0876 198.764 71.7222 199.219 71.7676 200.13C71.8129 201.116 71.3142 201.685 70.0449 201.685C69.5009 201.723 69.0022 201.761 68.4582 201.761Z" fill="#92583F"/>
<path d="M75.5751 204.569C75.4391 205.327 75.0764 205.896 74.0338 205.896C72.9458 205.896 72.3564 205.365 72.3564 204.493C72.3111 203.62 72.9004 203.051 73.9884 203.089C75.0764 203.089 75.4844 203.696 75.5751 204.569Z" fill="#FAF0ED"/>
<path d="M159.261 84.0411C157.991 84.2687 156.858 84.1549 156.903 82.8271C156.949 81.2717 158.399 81.4234 159.714 81.5752C159.215 82.3339 158.989 83.1686 159.261 84.0411Z" fill="#917133"/>
<path d="M83.0554 210.828C83.0101 210.79 82.9648 210.79 82.9194 210.752V210.676C82.9194 210.714 82.9648 210.79 83.0554 210.828Z" fill="#9E8F89"/>
<path d="M166.741 205.1C163.386 206.731 159.941 208.324 156.087 209.007C155.271 209.159 155.135 209.728 154.727 210.183C152.325 212.953 149.061 213.294 146.069 210.942C144.754 209.918 143.349 209.766 141.943 210.221C139.813 210.942 137.682 210.904 135.506 210.866C132.786 210.828 130.565 209.728 129.613 207.679C128.797 205.934 127.437 204.796 125.85 203.658C124.717 202.861 123.719 201.875 122.677 201.002C122.586 200.737 122.495 200.547 122.133 200.509L122.178 200.471C119.866 197.057 117.962 193.567 117.871 189.469C117.735 182.565 120.954 176.95 126.938 172.36C138.815 163.293 158.581 162.192 170.957 169.818C175.218 172.436 178.346 175.774 179.887 180.023C180.431 181.503 181.111 181.503 182.607 181.123C187.141 179.985 190.133 177.557 191.946 173.991C192.173 173.536 192.218 172.701 193.17 172.891C194.077 173.08 193.759 173.839 193.714 174.332C192.853 179.53 184.919 185.41 178.663 185.486C177.983 185.069 177.439 184.575 177.394 183.779C177.258 178.809 173.994 175.205 169.551 172.398C155.679 163.596 133.375 167.428 124.626 180.061C123.085 182.299 122.042 184.689 121.997 187.61C124.127 186.093 126.167 184.993 128.479 184.234C135.506 181.92 142.759 181.085 150.194 182.034C156.269 182.792 162.117 184.12 167.149 187.345C169.279 188.711 169.37 189.204 167.421 190.683C165.607 192.049 163.658 193.339 162.071 195.008C168.962 196.981 168.962 196.981 167.557 201.799C168.463 201.458 169.279 201.116 170.141 201.382C170.549 202.596 169.506 203.165 168.645 203.772C167.919 204.227 167.33 204.644 166.741 205.1ZM149.559 187.307C149.65 188.255 149.741 189.28 151.282 189.318C152.506 189.356 152.914 188.635 152.914 187.686C156.405 188.18 159.397 189.469 161.89 191.859C162.253 191.48 162.525 191.139 162.842 190.873C165.562 188.635 165.653 188.521 162.162 187.193C151.871 183.361 141.354 182.299 130.61 185.789C127.709 186.738 124.989 187.952 123.13 190.19C122.359 191.063 122.042 191.897 122.858 192.884C130.61 186.966 139.813 186.207 149.559 187.307ZM136.775 202.368C136.458 202.368 135.687 202.368 134.962 202.482C133.239 202.785 131.471 203.089 131.109 204.872C130.701 206.807 131.925 208.059 133.874 208.742C136.73 209.766 139.45 209.728 142.215 208.211C144.482 206.997 144.935 205.327 142.941 203.772C141.309 202.558 139.269 202.406 136.775 202.368ZM149.242 206.314C147.882 206.352 146.341 206.731 145.797 208.211C145.479 209.159 148.199 210.79 150.058 210.676C151.554 210.601 153.141 210.221 153.277 208.628C153.458 207.3 151.826 206.352 149.242 206.314ZM157.629 205.024C161.573 204.91 165.063 201.837 165.109 198.916C165.109 198.309 164.701 198.157 164.202 198.005C163.477 197.816 162.887 197.93 162.661 198.65C161.845 201.154 160.349 203.279 157.629 205.024ZM156.087 198.536C156.087 197.209 155.226 196.526 153.775 196.45C152.325 196.374 151.554 197.057 151.509 198.271C151.463 199.561 152.234 200.244 153.821 200.282C155.181 200.32 155.997 199.713 156.087 198.536ZM154.501 202.254C154.501 201.609 154.047 201.344 153.367 201.344C152.506 201.344 151.917 201.685 151.871 202.444C151.826 203.089 152.234 203.544 153.05 203.544C154.002 203.506 154.274 202.861 154.501 202.254Z" fill="#050503"/>
<path d="M170.05 201.382C169.143 201.154 168.327 201.458 167.466 201.799C168.826 196.981 168.826 196.981 161.98 195.008C163.612 193.339 165.516 192.049 167.33 190.683C169.279 189.204 169.188 188.711 167.058 187.345C162.071 184.12 156.178 182.83 150.103 182.034C142.668 181.085 135.415 181.92 128.388 184.234C126.076 184.993 124.036 186.093 121.906 187.611C121.906 184.689 122.948 182.299 124.535 180.061C133.284 167.428 155.588 163.596 169.46 172.398C173.903 175.243 177.167 178.809 177.303 183.779C177.303 184.576 177.847 185.031 178.572 185.486C179.207 192.087 175.898 197.209 170.05 201.382Z" fill="#FCFBFB"/>
<path d="M121.136 150.887C119.096 150.508 118.688 149.521 119.05 147.776C120.954 138.709 122.586 129.604 124.672 120.537C125.034 118.944 125.669 118.109 127.89 118.223C132.197 118.413 136.368 119.285 140.629 119.854C152.461 121.41 164.293 123.079 176.125 124.71C176.714 124.786 177.304 124.938 177.893 125.014C179.616 125.241 180.16 126.076 179.752 127.442C179.48 128.428 179.253 129.414 179.026 130.401C178.89 130.628 178.754 130.856 178.709 131.084C176.488 138.975 174.266 146.904 172 154.795C170.413 160.333 170.413 160.296 163.84 159.006C149.605 156.274 135.37 153.581 121.136 150.887ZM167.104 156.654C168.509 157.223 168.373 156.198 168.509 155.743C171.048 146.79 173.496 137.837 176.034 128.883C176.306 127.897 176.17 127.555 174.901 127.404C159.624 125.203 144.346 122.965 129.069 120.689C128.026 120.537 127.664 120.727 127.482 121.637C125.85 129.983 124.173 138.33 122.405 146.638C122.088 148.042 122.541 148.421 124.173 148.687C129.296 149.521 134.328 150.508 139.405 151.456C148.698 153.201 157.946 154.946 167.104 156.654Z" fill="#080704"/>
<path d="M121.135 150.887C135.37 153.618 149.604 156.312 163.839 159.044C170.458 160.295 170.458 160.333 171.999 154.833C174.22 146.942 176.442 139.013 178.708 131.122C178.754 130.894 178.935 130.666 179.026 130.439C181.383 130.78 182.29 131.766 181.972 133.663C181.836 134.536 181.7 135.446 181.338 136.243C178.255 143.148 176.215 150.318 173.676 157.374C171.727 162.799 171.183 162.875 164.428 161.965C151.055 160.144 137.818 157.792 124.943 154.263C122.948 153.694 120.999 153.087 121.135 150.887Z" fill="#917133"/>
<path d="M149.197 217.278C149.378 215.988 148.834 214.318 151.01 213.901C153.141 213.484 155.045 214.47 155.861 216.405C157.13 219.326 157.266 222.247 155.407 225.093C152.37 225.7 151.055 225.169 150.103 222.892C149.65 221.868 149.65 220.844 149.605 219.781C149.605 218.947 150.058 218.036 149.197 217.278Z" fill="#FCFBFB"/>
<path d="M115.197 231.277C114.517 231.618 113.791 231.846 113.157 231.239C112.613 230.707 112.749 230.025 113.066 229.456C113.565 228.507 114.426 227.748 115.423 227.217C119.231 225.207 123.311 224.562 127.663 226.003C128.434 226.269 129.114 226.648 129.749 227.103C130.61 227.748 131.426 228.545 130.973 229.569C130.519 230.594 129.295 230.1 128.389 230.176C123.493 227.71 118.733 228.09 115.197 231.277Z" fill="#080704"/>
<path d="M149.197 217.278C150.058 218.036 149.605 218.947 149.605 219.781C149.65 220.844 149.696 221.906 150.104 222.892C151.056 225.131 152.325 225.662 155.408 225.093C152.869 227.255 150.376 226.952 148.834 224.296C147.429 221.906 147.61 218.719 149.197 217.278Z" fill="#080704"/>
<path d="M115.197 231.277C118.778 228.09 123.493 227.673 128.389 230.138C127.709 230.897 126.711 230.556 125.895 230.556C122.269 230.442 118.687 230.518 115.197 231.277Z" fill="#9E8F89"/>
<path d="M122.087 200.471C122.45 200.471 122.586 200.699 122.631 200.965C122.314 200.927 122.087 200.813 122.087 200.471Z" fill="#EDCF5D"/>
<path d="M149.559 187.307C139.813 186.207 130.61 186.966 122.858 192.922C122.042 191.973 122.359 191.139 123.13 190.228C125.034 188.028 127.709 186.776 130.61 185.827C141.354 182.337 151.917 183.361 162.162 187.231C165.653 188.521 165.562 188.673 162.842 190.911C162.525 191.177 162.253 191.48 161.89 191.897C159.351 189.507 156.405 188.217 152.914 187.724C151.599 186.017 151.146 185.979 149.559 187.307Z" fill="#92583F"/>
<path d="M136.775 202.368C139.269 202.406 141.309 202.558 142.941 203.81C144.935 205.365 144.482 207.035 142.215 208.249C139.45 209.728 136.73 209.804 133.874 208.78C131.925 208.059 130.701 206.845 131.109 204.91C131.471 203.089 133.285 202.823 134.962 202.52C135.687 202.33 136.458 202.368 136.775 202.368Z" fill="#F9F9F9"/>
<path d="M149.242 206.314C151.826 206.352 153.458 207.338 153.322 208.628C153.141 210.259 151.554 210.601 150.103 210.676C148.199 210.79 145.479 209.121 145.842 208.211C146.341 206.731 147.882 206.352 149.242 206.314Z" fill="#F9F9F9"/>
<path d="M157.629 205.024C160.349 203.279 161.845 201.154 162.616 198.65C162.842 197.93 163.432 197.816 164.157 198.005C164.656 198.157 165.064 198.309 165.064 198.916C165.064 201.837 161.573 204.91 157.629 205.024Z" fill="#92583F"/>
<path d="M156.087 198.537C155.997 199.713 155.181 200.32 153.775 200.282C152.234 200.244 151.418 199.523 151.463 198.271C151.509 197.095 152.325 196.412 153.73 196.45C155.226 196.488 156.087 197.209 156.087 198.537Z" fill="#92583F"/>
<path d="M149.56 187.307C151.146 185.941 151.6 186.017 152.96 187.686C152.96 188.597 152.552 189.318 151.328 189.318C149.741 189.318 149.65 188.293 149.56 187.307Z" fill="#F9F9F9"/>
<path d="M154.5 202.254C154.228 202.861 153.956 203.506 153.095 203.506C152.279 203.544 151.871 203.089 151.916 202.406C151.962 201.647 152.506 201.306 153.412 201.306C154.047 201.344 154.546 201.609 154.5 202.254Z" fill="#513124"/>
<path d="M167.103 156.653C157.946 154.946 148.698 153.201 139.45 151.456C134.372 150.508 129.295 149.521 124.218 148.687C122.586 148.421 122.178 148.042 122.45 146.638C124.218 138.33 125.895 129.983 127.527 121.637C127.708 120.689 128.071 120.499 129.114 120.689C144.391 122.965 159.668 125.203 174.946 127.404C176.17 127.593 176.351 127.935 176.079 128.883C173.54 137.836 171.047 146.79 168.554 155.743C168.372 156.198 168.508 157.223 167.103 156.653Z" fill="#F4FB95"/>
<path d="M111.784 330.51C115.631 332.52 120.065 332.672 124.319 333.279C136.446 335.062 148.754 335.252 160.971 334.759C171.333 334.303 181.605 332.938 191.379 329.751C192.963 330.472 194.366 330.13 195.768 329.296C199.886 326.83 204.321 324.857 209.117 323.453C209.343 323.377 209.615 323.264 209.841 323.188C209.977 323.15 210.113 323.112 210.248 323.074C216.719 322.391 223.145 321.329 229.706 322.315C232.783 322.808 235.498 324.022 238.032 325.578C248.801 332.255 253.688 346.254 249.028 357.332C245 366.968 236.448 373.303 226.403 378.425C223.688 379.791 223.552 379.715 222.24 377.363C216.9 368.068 210.203 359.76 199.977 353.69C195.18 350.844 190.293 348.568 184.23 348.758C184.592 347.354 185.451 346.216 186.492 345.116C187.804 343.712 189.117 342.384 190.384 340.943C190.972 340.26 191.334 339.387 190.565 338.666C189.705 337.87 188.755 338.363 187.94 338.818C183.144 341.512 180.338 345.343 179.252 350.048C176.22 352.476 174.546 355.7 172.057 358.432C171.243 358.204 170.79 358.735 170.247 359.001C163.731 362.112 156.944 364.388 149.251 363.895C142.826 363.477 136.4 362.908 130.789 359.76C128.165 356.497 125.586 353.234 122.961 350.01C122.192 345.95 119.703 342.839 115.766 340.487C114.907 339.956 113.685 339.653 112.87 340.411C112.101 341.132 112.78 341.967 113.323 342.65C113.549 342.915 113.821 343.105 114.047 343.371C115.585 345.305 117.124 347.24 117.622 349.554C113.278 351.148 108.979 352.893 105.178 355.245C94.8157 361.694 86.4445 369.661 80.019 379.032C79.476 379.828 79.114 380.549 77.666 379.942C63.0955 373.834 54.0002 364.388 52.8237 350.503C51.6472 336.845 62.3262 325.919 78.39 323.947C87.3042 322.846 95.585 324.781 103.323 328.537C105.268 329.485 107.169 330.548 109.115 331.458C110.427 332.179 111.558 332.103 111.784 330.51Z" fill="#EDCF5D"/>
<path d="M122.961 350.048C125.586 353.31 128.165 356.573 130.79 359.797C132.238 363.515 135.043 366.702 136.853 370.306C137.125 370.837 137.849 370.761 138.392 370.951C142.917 372.431 147.668 372.431 152.374 372.658C156.22 372.848 160.021 372.658 163.777 371.824C164.546 371.634 165.406 371.52 165.813 370.799C167.895 366.702 169.976 362.605 172.058 358.47C174.501 355.7 176.221 352.476 179.252 350.085C180.836 349.441 182.465 348.909 184.275 348.796C190.339 348.606 195.226 350.882 200.022 353.727C210.249 359.797 216.991 368.106 222.285 377.4C223.643 379.753 223.778 379.828 226.448 378.463C236.494 373.341 245.046 367.044 249.073 357.369C253.689 346.292 248.847 332.293 238.077 325.616C235.589 324.06 232.874 322.846 229.751 322.353C223.145 320.418 216.629 320.608 210.294 323.112C210.158 323.15 210.022 323.188 209.887 323.226C209.57 323.188 209.298 323.226 209.163 323.491C204.366 324.895 199.932 326.868 195.814 329.334C194.411 330.168 193.008 330.51 191.425 329.789C190.565 328.423 190.655 327.095 192.149 326.223C201.606 320.798 211.516 316.207 223.507 316.928C241.652 318.028 254.005 329.03 255.68 344.736C256.947 356.459 252.15 366.057 242.105 373.986C237.489 377.628 232.693 381.118 226.584 382.939C225.498 383.281 225.815 383.774 225.996 384.419C227.036 387.757 226.358 389.389 223.1 391.475C220.928 392.879 218.529 393.941 215.995 394.738C214.819 395.117 214.547 395.459 215.271 396.483C218.439 401.149 215.995 404.791 209.525 404.905C202.918 405.019 196.628 403.653 190.701 401.339C180.248 397.28 170.61 392.158 162.781 384.874C161.379 383.584 161.333 382.408 161.831 380.929C162.284 379.563 163.777 377.894 162.872 376.907C162.057 376.073 159.795 376.983 158.166 377.021C152.6 377.135 147.034 376.945 141.469 376.3C141.197 376.149 140.88 376.073 140.654 376.262C140.564 376.338 140.699 376.566 140.745 376.756C141.197 378.083 141.695 379.411 142.147 380.739C142.781 382.598 142.283 384.191 140.745 385.633C139.251 386.999 137.713 388.289 135.903 389.313C124.681 395.535 112.78 400.391 99.4767 402.591C97.0332 403.008 94.5444 403.008 92.0557 402.553C87.0329 401.605 85.4039 398.532 88.1642 394.928C89.2049 393.6 89.0692 393.145 87.3044 392.651C84.0464 391.665 80.9694 390.261 78.2544 388.402C76.9422 387.53 75.9919 386.505 76.8064 384.95C77.4852 383.698 76.1277 383.736 75.4489 383.508C64.5889 379.411 56.6701 372.772 51.8736 363.705C46.4889 353.5 46.3532 343.295 53.2764 333.507C61.1047 322.467 77.0779 317.459 92.8702 320.949C100.291 322.581 107.033 325.274 111.875 330.548C111.649 332.141 110.518 332.217 109.16 331.572C107.214 330.624 105.314 329.599 103.368 328.651C95.6304 324.895 87.3949 322.96 78.4354 324.06C62.3717 326.033 51.6927 336.959 52.8692 350.617C54.0457 364.502 63.0957 373.986 77.7114 380.056C79.1594 380.663 79.5214 379.942 80.0644 379.146C86.4899 369.775 94.8612 361.808 105.223 355.359C109.07 352.969 113.323 351.262 117.667 349.668C119.477 349.023 121.242 349.099 122.961 350.048ZM98.2097 398.987C103.821 398.304 109.024 396.483 114.273 394.738C121.106 392.424 127.532 389.465 133.459 385.747C137.668 383.167 137.758 382.939 135.858 378.918C133.414 373.758 130.02 368.94 127.124 363.971C125.36 360.974 123.142 358.204 120.925 355.397C119.794 354.031 118.844 354.031 117.215 354.638C107.938 358.052 100.834 363.743 94.2729 369.965C89.8837 374.138 85.9921 378.614 82.8699 383.584C82.1459 384.76 82.2364 385.481 83.6844 386.202C86.6709 387.719 89.9742 388.668 93.1417 389.806C93.6847 389.996 94.1824 389.882 94.6349 389.616C98.2549 387.302 102.554 385.974 106.445 384.077C107.441 383.584 108.798 382.219 109.748 383.357C110.834 384.684 108.798 385.405 107.757 386.05C104.409 388.099 100.97 389.996 97.5309 391.968C95.4042 393.182 93.4132 394.51 91.7842 396.217C90.2457 397.849 90.7887 398.949 93.1869 399.214C94.7707 399.404 96.5354 399.48 98.2097 398.987ZM203.054 399.708C204.411 400.315 205.95 400.466 207.443 400.466C208.665 400.466 210.384 400.998 211.018 399.935C211.697 398.797 210.203 397.925 209.389 397.09C206.267 393.827 202.375 391.172 199.072 388.061C198.257 387.302 197.171 386.468 198.076 385.443C199.027 384.343 200.248 385.102 201.334 385.557C204.547 386.923 207.172 388.896 209.66 391.02C210.384 391.627 211.063 392.12 212.24 391.589C214.774 390.489 217.398 389.503 219.751 388.099C221.109 387.302 221.38 386.43 220.792 385.178C219.48 382.408 217.896 379.753 216.222 377.135C212.24 370.875 208.167 364.691 201.244 360.253C197.669 357.939 194.411 355.283 190.067 353.917C185.135 352.4 182.329 353.12 179.66 356.838C176.221 361.618 173.506 366.664 171.017 371.824C169.569 374.821 168.392 377.894 166.582 380.739C165.406 382.56 166.085 383.205 167.895 383.774C168.166 384.077 168.392 384.419 168.754 384.647C176.673 390.11 185.135 394.814 194.683 398.001C197.307 398.873 200.022 399.859 203.054 399.708Z" fill="#090807"/>
<path d="M172.013 358.47C169.931 362.567 167.85 366.664 165.768 370.799C165.406 371.558 164.546 371.672 163.732 371.824C159.976 372.658 156.175 372.848 152.329 372.658C147.623 372.431 142.872 372.393 138.347 370.951C137.804 370.761 137.08 370.837 136.808 370.306C134.998 366.74 132.238 363.515 130.745 359.797C136.31 362.984 142.736 363.515 149.207 363.933C156.899 364.426 163.687 362.15 170.203 359.039C170.746 358.773 171.198 358.204 172.013 358.47Z" fill="#917133"/>
<path d="M184.23 348.758C182.42 348.871 180.791 349.403 179.207 350.048C180.293 345.305 183.099 341.512 187.895 338.818C188.71 338.363 189.66 337.87 190.52 338.666C191.289 339.387 190.972 340.26 190.339 340.943C189.117 342.346 187.759 343.712 186.447 345.116C185.452 346.216 184.547 347.354 184.23 348.758Z" fill="#987836"/>
<path d="M122.962 350.048C121.287 349.099 119.477 349.023 117.577 349.592C117.079 347.24 115.541 345.343 114.002 343.408C113.776 343.143 113.504 342.953 113.278 342.688C112.735 342.005 112.056 341.17 112.826 340.449C113.64 339.691 114.817 339.994 115.722 340.525C119.704 342.877 122.192 345.988 122.962 350.048Z" fill="#977636"/>
<path d="M210.249 323.036C216.629 320.57 223.1 320.342 229.706 322.277C223.19 321.329 216.719 322.391 210.249 323.036Z" fill="#CCC4A4"/>
<path d="M209.117 323.453C209.253 323.188 209.524 323.112 209.841 323.188C209.615 323.264 209.343 323.34 209.117 323.453Z" fill="#CCC4A4"/>
<path d="M167.804 383.812C165.949 383.243 165.316 382.598 166.492 380.777C168.302 377.97 169.479 374.859 170.927 371.862C173.415 366.702 176.13 361.618 179.569 356.876C182.284 353.158 185.09 352.438 189.977 353.955C194.321 355.321 197.579 357.976 201.154 360.291C208.077 364.729 212.149 370.913 216.131 377.173C217.806 379.791 219.344 382.446 220.702 385.216C221.29 386.468 221.018 387.34 219.661 388.137C217.308 389.54 214.683 390.527 212.149 391.627C211.018 392.12 210.339 391.665 209.57 391.058C207.081 388.933 204.457 386.961 201.244 385.595C200.203 385.14 198.936 384.381 197.986 385.481C197.081 386.505 198.212 387.378 198.982 388.099C202.285 391.21 206.176 393.865 209.299 397.128C210.113 397.963 211.652 398.835 210.928 399.973C210.294 401.035 208.575 400.466 207.353 400.504C205.86 400.504 204.366 400.353 202.964 399.746C203.009 398.987 202.466 398.456 201.968 397.887C199.072 394.7 195.588 392.082 191.606 389.92C186.221 386.999 180.836 384.191 174.547 382.901C172.375 382.408 169.75 381.763 167.804 383.812Z" fill="#945940"/>
<path d="M98.2098 398.987C96.5355 399.48 94.7708 399.442 93.0513 399.252C90.653 398.987 90.11 397.887 91.6485 396.255C93.2323 394.548 95.2685 393.22 97.3953 392.006C100.789 390.034 104.273 388.137 107.622 386.088C108.663 385.443 110.699 384.722 109.613 383.395C108.663 382.256 107.305 383.622 106.31 384.115C102.418 386.012 98.1193 387.34 94.4993 389.654C94.0468 389.92 93.549 390.034 93.006 389.844C89.8385 388.668 86.5805 387.719 83.5488 386.24C82.1008 385.519 82.0103 384.76 82.7343 383.622C85.8565 378.69 89.748 374.176 94.1373 370.003C100.699 363.781 107.803 358.09 117.079 354.676C118.708 354.069 119.704 354.069 120.79 355.435C123.007 358.204 125.269 360.974 126.989 364.009C129.885 369.016 133.279 373.796 135.722 378.956C137.623 382.977 137.577 383.205 133.324 385.785C132.871 384.95 132.193 384.229 131.016 384.191C128.98 384.115 126.944 383.926 124.953 384.305C115.857 386.05 107.893 389.692 100.563 394.434C98.9338 395.497 97.8478 396.976 98.2098 398.987Z" fill="#945940"/>
<path d="M167.804 383.812C169.75 381.763 172.374 382.408 174.637 382.863C180.927 384.153 186.311 386.961 191.696 389.882C195.723 392.044 199.208 394.662 202.058 397.849C202.556 398.418 203.054 398.949 203.054 399.708C200.022 399.859 197.307 398.873 194.592 398C185.044 394.814 176.583 390.11 168.664 384.646C168.347 384.419 168.076 384.077 167.804 383.812Z" fill="#513224"/>
<path d="M98.2096 398.987C97.8476 397.014 98.9789 395.535 100.698 394.396C108.029 389.654 115.993 386.012 125.088 384.267C127.079 383.888 129.115 384.077 131.152 384.153C132.328 384.191 133.007 384.912 133.459 385.747C127.532 389.465 121.106 392.424 114.273 394.738C109.024 396.483 103.821 398.304 98.2096 398.987Z" fill="#523224"/>
<path d="M140.654 376.718C140.609 376.566 140.473 376.3 140.564 376.224C140.79 376.035 141.107 376.111 141.378 376.262C141.107 376.414 140.88 376.566 140.654 376.718Z" fill="#FEFEFE"/>
<path d="M75.3677 297.212C75.9377 295.426 77.1723 294.275 78.2852 293.042C81.2501 289.716 84.5896 287.001 87.9274 284.264C88.7934 283.555 89.7443 283.434 90.7263 283.952C91.4058 284.288 92.0543 284.718 92.7183 285.101C92.985 285.561 93.2881 285.996 93.6795 286.331C103.885 295.195 114.091 304.059 124.295 312.9C124.381 313.26 124.288 313.542 124.08 313.834C120.791 318.4 117.522 322.987 114.253 327.575C109.157 323.6 104.041 319.605 98.945 315.63C91.0841 309.468 83.2268 303.352 75.3677 297.212Z" fill="#ECCF5D"/>
<path d="M124.295 312.9C114.089 304.036 103.884 295.172 93.6798 286.331C93.2885 285.995 92.9853 285.561 92.7186 285.101C93.0692 283.699 93.5756 283.544 94.6698 284.512C100.656 289.791 106.64 295.047 112.607 300.327C116.881 304.114 121.158 307.947 125.398 311.782C126.061 312.395 126.493 312.521 127.019 311.632C127.667 310.596 128.236 310.505 129.269 311.18C131.758 312.793 134.269 314.429 136.577 316.423C137.155 316.927 137.477 316.879 137.931 316.294C138.764 315.174 139.703 314.161 140.749 313.3C143.617 310.943 146.716 311.02 149.858 312.628C151.5 313.484 152.003 315.231 151.352 317.207C150.871 318.665 150.124 319.915 149.357 321.144C149.17 321.456 148.711 321.722 148.938 322.162C149.144 322.581 149.586 322.34 149.912 322.337C151.677 322.313 153.416 322.451 155.157 322.841C155.919 323.01 156.65 323.273 157.356 323.698C158.589 324.472 159.225 325.727 159.198 327.333C159.171 329.42 158.729 331.379 157.812 333.147C156.945 334.819 155.684 335.88 153.998 336.174C153.732 336.217 153.38 336.131 153.299 336.572C153.219 337.014 153.573 337.123 153.801 337.334C155.748 339.128 156.107 341.002 154.815 343.371C153.69 345.43 152.419 347.34 150.195 347.882C149.479 348.053 148.794 347.901 148.11 347.748C147.542 347.61 147.326 347.787 147.595 348.522C148.34 350.663 148.131 351.664 146.688 353.107C146.029 353.754 145.325 354.336 144.596 354.829C142.813 356.092 140.994 356.167 139.07 354.898C133.884 351.481 129.578 346.803 125.756 341.445C125.326 340.86 124.905 340.389 124.284 340.072C121.342 338.562 118.66 336.46 115.965 334.427C115.168 333.825 114.873 333.001 115.311 331.981C115.571 331.388 115.338 331.108 114.931 330.82C101.503 320.789 88.3823 310.276 75.1287 300.026C74.9861 299.923 74.8626 299.818 74.7373 299.69C74.2433 299.271 73.8203 298.777 73.9693 297.987C74.1493 297.102 74.8126 297.233 75.368 297.212C83.2253 303.329 91.0845 309.468 98.9609 315.583C104.076 319.556 109.173 323.553 114.269 327.527C114.578 327.801 114.888 328.074 115.178 328.349C116.586 329.636 116.607 329.657 117.486 327.892C119.714 323.502 122.147 319.278 124.724 315.18C125.598 313.829 125.599 313.851 124.295 312.9ZM148.181 324.994C147.799 325.024 147.418 325.054 147.036 325.084C146.482 325.127 145.941 325.078 145.581 324.42C145.201 323.739 145.401 323.105 145.66 322.489C146.032 321.612 146.652 320.945 147.127 320.151C147.878 318.947 148.67 317.785 149.194 316.392C149.463 315.66 149.343 315.12 148.687 314.828C146.653 313.888 144.624 313.727 142.666 314.958C141.201 315.876 140.065 317.294 138.843 318.604C137.726 319.792 137.02 319.848 135.783 318.777C133.661 316.951 131.371 315.436 129.164 313.754C128.674 313.38 128.416 313.515 128.094 314.067C126.886 316.041 125.634 317.949 124.386 319.903C121.907 323.787 119.941 328.088 117.583 332.054C117.312 332.511 117.379 332.872 117.806 333.182C119.881 334.645 121.843 336.392 124.018 337.664C125.106 338.312 126.019 339.179 126.852 340.236C130.442 344.856 134.223 349.209 138.782 352.469C141.265 354.244 141.978 354.509 144.882 351.874C145.062 351.723 145.199 351.506 145.379 351.354C146.037 350.684 146.075 349.948 145.458 349.194C144.732 348.266 143.952 347.389 143.086 346.632C142.178 345.833 141.303 344.963 140.447 344.091C140.071 343.708 139.8 343.202 140.156 342.602C140.478 342.049 140.915 341.992 141.417 342.273C141.777 342.451 142.12 342.653 142.462 342.855C144.119 343.893 145.776 344.931 147.591 345.544C148.696 345.915 149.771 346.151 150.775 345.247C151.76 344.345 152.558 343.251 153.146 341.945C153.588 340.971 153.411 340.183 152.653 339.578C152.037 339.077 151.406 338.623 150.74 338.217C148.923 337.1 146.969 336.429 145.094 335.546C144.675 335.35 144.256 335.154 144.076 334.572C143.735 333.408 144.479 332.616 145.638 332.937C147.463 333.435 149.281 333.842 151.127 334.109C154.525 334.574 156.356 332.941 156.883 328.913C156.907 328.728 156.95 328.541 156.955 328.358C157.126 326.626 156.751 326.014 155.297 325.602C152.973 324.868 150.573 324.874 148.181 324.994Z" fill="#0E0C0A"/>
<path d="M124.295 312.9C125.599 313.851 125.58 313.853 124.709 315.227C122.131 319.325 119.717 323.547 117.47 327.94C116.57 329.683 116.57 329.683 115.163 328.396C114.853 328.123 114.562 327.848 114.253 327.574C117.522 322.987 120.792 318.422 124.08 313.834C124.288 313.542 124.381 313.26 124.295 312.9Z" fill="#907133"/>
<path d="M148.181 324.994C150.574 324.897 152.954 324.87 155.33 325.531C156.764 325.944 157.158 326.555 156.987 328.287C156.963 328.472 156.94 328.657 156.916 328.842C156.388 332.87 154.557 334.503 151.159 334.038C149.316 333.793 147.495 333.364 145.67 332.866C144.492 332.547 143.769 333.36 144.109 334.501C144.289 335.083 144.708 335.279 145.126 335.475C147.001 336.358 148.975 337.028 150.772 338.146C151.419 338.553 152.069 339.006 152.685 339.507C153.443 340.112 153.621 340.9 153.179 341.874C152.59 343.18 151.812 344.273 150.808 345.176C149.803 346.08 148.728 345.844 147.623 345.473C145.808 344.86 144.153 343.845 142.494 342.784C142.15 342.559 141.79 342.382 141.45 342.202C140.949 341.944 140.51 341.978 140.189 342.531C139.833 343.131 140.084 343.639 140.479 344.02C141.335 344.892 142.21 345.762 143.118 346.561C143.985 347.318 144.745 348.197 145.491 349.123C146.088 349.878 146.069 350.613 145.411 351.283C145.252 351.456 145.094 351.652 144.914 351.803C142.029 354.436 141.298 354.173 138.815 352.398C134.256 349.138 130.475 344.785 126.884 340.165C126.071 339.107 125.157 338.239 124.05 337.593C121.875 336.321 119.932 334.573 117.839 333.111C117.411 332.801 117.344 332.44 117.615 331.983C119.992 328.016 121.939 323.716 124.418 319.832C125.649 317.903 126.918 315.97 128.126 313.996C128.448 313.444 128.706 313.309 129.197 313.683C131.402 315.342 133.691 316.857 135.815 318.706C137.052 319.777 137.758 319.721 138.875 318.533C140.097 317.223 141.236 315.827 142.698 314.887C144.656 313.656 146.668 313.842 148.719 314.757C149.357 315.05 149.495 315.589 149.226 316.321C148.702 317.714 147.91 318.876 147.16 320.08C146.664 320.852 146.065 321.541 145.692 322.418C145.433 323.034 145.234 323.668 145.614 324.349C145.971 324.985 146.496 325.058 147.068 325.013C147.417 325.054 147.799 325.024 148.181 324.994ZM132.087 326.972C131.954 326.501 131.725 326.519 131.432 326.703C130.846 327.069 130.353 327.635 129.694 327.802C129.186 327.933 128.888 328.3 128.704 328.888C128.182 330.555 127.558 332.139 126.753 333.623C126.501 334.078 126.445 334.587 126.838 334.945C127.212 335.305 127.553 335.004 127.812 334.639C128.491 333.738 129.026 332.734 129.398 331.605C129.849 330.264 130.325 328.989 131.351 328.106C131.675 327.829 131.951 327.441 132.087 326.972Z" fill="#945940"/>
<path d="M132.088 326.971C131.953 327.463 131.677 327.851 131.351 328.106C130.326 328.989 129.831 330.265 129.399 331.605C129.026 332.734 128.491 333.738 127.813 334.639C127.534 335.005 127.21 335.282 126.838 334.945C126.445 334.587 126.501 334.078 126.753 333.623C127.558 332.139 128.202 330.554 128.704 328.887C128.889 328.3 129.186 327.933 129.694 327.801C130.352 327.612 130.866 327.068 131.433 326.702C131.724 326.496 131.953 326.478 132.088 326.971Z" fill="#583627"/>
<path d="M191.685 278.469C192.318 278.261 192.79 277.754 193.334 277.362C194.286 276.666 195.261 276.469 196.304 277.114C200.851 279.933 205.398 282.752 209.3 286.799C209.667 287.196 210.074 287.549 210.245 288.167C209.677 288.717 209.109 289.267 208.56 289.817C197.484 300.959 186.427 312.123 175.351 323.264C174.395 322.849 173.817 321.878 173.119 321.107C170.125 317.814 166.991 314.744 164.155 311.252C163.935 310.996 163.677 310.761 163.71 310.308C172.739 300.238 181.751 290.145 190.78 280.075C191.174 279.633 191.605 279.193 191.685 278.469Z" fill="#ECCF5D"/>
<path d="M175.332 323.264C186.408 312.123 197.466 300.958 208.542 289.817C209.09 289.266 209.658 288.717 210.226 288.167C210.781 288.048 211.354 287.929 211.616 288.686C211.914 289.49 211.497 290.067 211.007 290.551C207.438 294.163 203.87 297.775 200.283 301.363C192.599 309.069 184.935 316.752 177.252 324.436C176.663 325.03 176.094 325.625 175.452 326.127C174.731 326.718 174.11 327.153 174.87 328.356C175.232 328.935 174.924 329.697 174.434 330.159C171.907 332.645 169.398 335.177 166.564 337.132C166.157 337.415 165.862 337.723 165.621 338.17C162.671 343.866 158.949 348.744 154.601 353.012C151.153 356.401 148.012 354.805 145.155 351.971C144.252 351.08 144.292 349.788 144.712 348.507C144.795 348.283 145.011 348.04 144.772 347.806C144.569 347.595 144.355 347.747 144.144 347.832C140.998 348.824 137.346 346.554 136.186 342.91C135.633 341.145 136.208 339.756 137.253 338.517C137.47 338.252 137.951 338.062 137.795 337.558C137.64 337.054 137.196 337.29 136.873 337.28C135.242 337.207 133.978 336.328 132.959 334.866C131.85 333.266 131.206 331.385 130.927 329.356C130.663 327.442 131.412 325.944 133.056 324.997C134.854 323.963 136.803 323.592 138.732 323.243C139.305 323.147 140.19 323.402 140.397 322.841C140.626 322.19 139.765 321.777 139.401 321.267C138.691 320.291 137.998 319.339 137.483 318.211C136.701 316.462 136.983 314.701 138.421 313.679C141.218 311.677 144.159 311.133 147.202 312.838C148.434 313.535 149.545 314.477 150.556 315.552C151.145 316.16 151.509 316.058 152.059 315.462C154.066 313.232 156.308 311.35 158.533 309.444C159.567 308.546 160.116 308.608 161.012 309.725C161.451 310.283 161.734 310.338 162.226 309.763C171.234 299.17 180.534 288.973 189.632 278.519C190.656 277.348 191.13 277.363 191.681 278.582C191.583 279.306 191.17 279.77 190.757 280.233C181.727 290.303 172.697 300.373 163.686 310.466C163.309 310.976 162.295 311.217 163.119 312.219C166.504 316.364 169.712 320.73 172.724 325.271C173.034 325.712 173.259 325.787 173.615 325.344C174.171 324.544 174.76 323.927 175.332 323.264ZM150.804 352.94C151.372 353.003 151.853 352.814 152.339 352.466C153.971 351.268 155.478 349.839 156.782 348.2C159.528 344.767 162.201 341.264 164.376 337.269C164.92 336.264 165.627 335.492 166.464 334.837C168.508 333.243 170.317 331.257 172.235 329.432C172.606 329.081 172.767 328.791 172.367 328.233C168.419 322.619 164.431 317.071 160.051 311.942C159.611 311.429 159.384 311.4 158.895 311.861C156.859 313.818 154.769 315.66 152.861 317.78C151.918 318.817 151.176 318.862 150.118 318.035C149.47 317.516 148.841 316.952 148.194 316.41C146.029 314.55 143.717 313.752 141.062 314.85C138.946 315.737 138.756 316.344 140.214 318.319C141.271 319.759 142.427 321.088 143.523 322.484C143.943 323.019 144.247 323.641 144.014 324.428C143.781 325.192 143.225 325.379 142.634 325.429C141.529 325.531 140.426 325.588 139.321 325.713C137.547 325.93 135.825 326.353 134.166 327.164C133.511 327.485 132.869 327.964 133.011 328.899C133.673 333.3 135.268 335.755 139.035 334.941C141.043 334.504 142.947 333.723 144.871 332.92C145.41 332.687 145.926 332.612 146.363 333.193C146.656 333.565 146.718 333.999 146.553 334.447C146.366 334.964 145.977 335.247 145.571 335.484C144.642 336.045 143.694 336.606 142.765 337.167C141.409 338.01 140.09 338.9 138.913 340.112C137.814 341.235 137.772 341.983 138.701 343.283C139.356 344.188 140.071 345.05 140.944 345.667C141.78 346.283 142.65 346.401 143.575 345.976C144.788 345.423 145.985 344.802 147.057 343.905C148.032 343.118 149.006 342.331 149.979 341.567C150.465 341.196 150.978 341.189 151.341 341.745C151.704 342.278 151.497 342.839 151.179 343.283C150.921 343.661 150.588 343.968 150.311 344.346C149.145 345.808 147.869 347.13 146.907 348.78C146.566 349.359 146.222 350.029 146.774 350.614C147.932 351.853 149.234 352.755 150.804 352.94ZM145.021 347.723C145.001 347.745 144.963 347.766 144.962 347.789C144.961 347.834 144.997 347.881 145.015 347.927C145.034 347.905 145.073 347.883 145.074 347.86C145.056 347.814 145.039 347.768 145.021 347.723Z" fill="#0A0907"/>
<path d="M175.331 323.264C174.761 323.904 174.172 324.521 173.619 325.208C173.263 325.651 173.018 325.598 172.728 325.135C169.697 320.593 166.508 316.227 163.123 312.082C162.299 311.081 163.313 310.84 163.69 310.33C163.677 310.761 163.916 310.995 164.136 311.251C166.973 314.721 170.125 317.814 173.1 321.107C173.798 321.877 174.375 322.871 175.331 323.264Z" fill="#907133"/>
<path d="M150.804 352.94C149.234 352.755 147.932 351.852 146.792 350.637C146.24 350.052 146.584 349.382 146.925 348.802C147.888 347.13 149.183 345.808 150.329 344.369C150.606 344.014 150.939 343.684 151.197 343.306C151.516 342.839 151.722 342.301 151.359 341.768C150.996 341.212 150.483 341.219 149.997 341.589C149.005 342.353 148.031 343.14 147.076 343.928C145.984 344.824 144.807 345.423 143.593 345.999C142.668 346.424 141.818 346.284 140.962 345.69C140.089 345.05 139.375 344.211 138.719 343.306C137.79 342.029 137.832 341.281 138.931 340.135C140.088 338.945 141.408 338.033 142.783 337.19C143.712 336.629 144.66 336.068 145.589 335.507C145.995 335.27 146.366 334.963 146.571 334.47C146.737 334.022 146.674 333.588 146.382 333.216C145.943 332.658 145.447 332.733 144.89 332.943C142.984 333.747 141.061 334.527 139.053 334.964C135.286 335.778 133.691 333.323 133.029 328.922C132.887 327.987 133.529 327.508 134.185 327.187C135.843 326.376 137.585 325.954 139.339 325.736C140.444 325.611 141.548 325.554 142.652 325.452C143.243 325.402 143.799 325.215 144.032 324.451C144.265 323.664 143.981 323.042 143.541 322.507C142.445 321.111 141.289 319.781 140.232 318.342C138.774 316.367 138.964 315.76 141.081 314.873C143.736 313.775 146.047 314.572 148.212 316.432C148.86 316.975 149.469 317.538 150.137 318.058C151.194 318.885 151.936 318.84 152.88 317.803C154.807 315.683 156.896 313.842 158.913 311.884C159.402 311.423 159.648 311.453 160.069 311.965C164.449 317.094 168.437 322.664 172.385 328.256C172.767 328.813 172.625 329.081 172.253 329.455C170.335 331.28 168.545 333.267 166.483 334.86C165.646 335.515 164.938 336.287 164.394 337.292C162.219 341.287 159.528 344.79 156.8 348.223C155.496 349.862 153.989 351.291 152.357 352.489C151.853 352.813 151.372 353.003 150.804 352.94ZM158.115 324.773C157.714 324.852 157.518 325.05 157.716 325.397C157.895 325.743 158.15 326.091 158.449 326.259C159.251 326.738 159.798 327.458 160.207 328.356C160.848 329.738 161.607 331.009 162.579 332.106C162.891 332.456 163.241 332.83 163.633 332.434C164.045 332.015 163.929 331.467 163.581 331.025C162.705 329.886 161.909 328.613 161.439 327.214C160.778 325.264 159.01 325.913 158.115 324.773Z" fill="#955A40"/>
<path d="M145.021 347.722C145.039 347.768 145.056 347.814 145.074 347.86C145.073 347.883 145.035 347.904 145.015 347.927C144.997 347.881 144.98 347.835 144.962 347.789C144.963 347.766 144.983 347.744 145.021 347.722Z" fill="#FEFEFE"/>
<path d="M158.115 324.773C159.01 325.913 160.778 325.264 161.438 327.237C161.908 328.636 162.685 329.908 163.581 331.048C163.928 331.49 164.025 332.037 163.632 332.456C163.239 332.875 162.89 332.502 162.578 332.129C161.606 331.032 160.847 329.76 160.206 328.379C159.778 327.48 159.232 326.737 158.448 326.282C158.149 326.113 157.914 325.743 157.715 325.419C157.517 325.05 157.714 324.852 158.115 324.773Z" fill="#573526"/>
</svg>
