<svg width="286" height="476" viewBox="0 0 286 476" fill="none" xmlns="http://www.w3.org/2000/svg">
<path d="M163.652 422.075C143.887 422.303 124.122 421.354 104.356 421.544C93.6576 421.62 82.9589 421.127 72.2149 420.861C67.2283 420.747 62.2416 420.823 57.3003 421.279C53.8549 416.992 50.1829 412.819 47.9616 407.963C45.9669 403.562 43.2016 399.389 41.7509 394.76C37.0816 380.23 38.1243 365.586 40.6629 350.942C42.5669 339.941 46.9189 329.356 48.9136 318.354C54.1269 323.855 59.4763 329.242 65.1883 334.364C79.7856 347.338 95.9696 358.53 115.508 366.08C117.276 366.762 119.044 367.104 120.994 367.066C123.94 367.028 126.207 365.624 128.746 364.714C135.772 362.134 142.164 358.682 148.33 354.926C160.026 347.832 170.634 339.675 180.108 330.494C184.551 326.207 188.722 321.693 194.071 318.164C196.7 327.725 201.052 336.792 205.948 345.669C209.892 352.763 211.887 360.351 213.111 368.052C214.788 378.409 214.471 388.842 214.29 399.275C214.154 406.369 212.34 413.274 210.935 420.216C209.076 420.065 207.218 420.216 205.314 420.33C202.639 420.52 199.964 421.013 197.244 420.823C187.86 420.216 178.476 420.292 169.092 420.975C167.234 421.127 165.239 421.051 163.652 422.075Z" fill="#EED05E"/>
<path d="M48.8687 318.354C46.8741 329.356 42.5221 339.941 40.6181 350.942C38.0794 365.586 37.0367 380.23 41.7061 394.76C43.2021 399.351 45.9221 403.524 47.9167 407.963C50.1381 412.819 53.8101 416.992 57.2554 421.279C57.6181 421.81 58.0261 422.341 58.4794 422.986C56.2581 422.834 54.1727 422.644 52.1327 422.531C51.3621 422.493 51.1354 421.999 50.8181 421.582C42.2954 409.821 35.5407 397.53 33.9087 383.607C31.6874 364.638 35.3141 346.238 41.3887 328.028C42.8847 323.514 44.4261 319.037 45.2874 314.409C45.5141 313.119 45.1061 312.208 44.0181 311.222C38.9861 306.556 34.3167 301.624 32.5034 295.364C31.0981 290.584 32.0047 286.031 36.4927 282.465C37.1727 281.934 37.2181 281.441 37.0821 280.796C35.3594 272.639 38.6234 266.038 46.1487 260.803C58.6154 252.115 72.9861 246.88 88.7621 244.11C94.5194 243.086 100.322 242.214 106.17 241.758C107.077 241.682 107.439 241.455 107.53 240.62C108.119 233.791 112.789 229.049 119.135 225.369C125.21 221.841 131.783 218.92 137.405 214.861C139.354 213.457 141.349 214.064 142.754 216.226C145.474 220.362 145.973 224.876 145.293 229.467C145.066 230.87 145.111 231.174 146.97 230.832C151.685 230.036 155.946 228.291 160.389 226.849C163.925 225.711 165.783 226.432 166.554 229.467C167.959 235.005 167.098 240.317 163.109 245.021C162.066 246.235 162.61 246.349 163.834 246.69C174.261 249.536 183.917 253.595 192.575 259.248C193.527 259.855 194.434 260.537 195.341 261.182C202.594 266.304 205.405 272.829 203.954 280.644C203.863 281.251 203.591 281.744 204.317 282.351C209.666 286.752 210.119 291.988 207.671 297.564C205.541 302.42 201.869 306.556 197.834 310.425C196.973 311.26 196.701 311.943 197.018 313.081C199.149 321.92 203.093 330.267 207.581 338.423C210.21 343.165 212.93 347.87 214.653 352.915C215.695 352.801 216.103 352.119 216.647 351.663C221.407 347.414 226.122 343.127 230.882 338.916C235.778 334.553 241.082 330.646 247.383 327.763C252.551 325.411 258.082 324.31 263.975 324.993C271.41 325.866 276.669 329.356 280.295 334.743C283.967 340.168 285.191 346.124 285.599 352.232C286.914 370.86 281.927 388.387 271.138 404.662C264.383 414.867 254.682 423.024 244.346 430.649C230.701 440.703 215.559 448.821 198.877 454.815C195.613 455.991 192.349 457.13 188.722 457.357C186.682 457.509 185.685 456.826 186.047 455.043C187.725 454.057 189.493 453.26 191.397 452.653C205.631 448.252 218.506 441.727 230.701 434.291C231.109 434.026 231.879 433.912 231.653 433.229C232.605 433.494 233.013 432.812 233.557 432.432C236.549 430.384 239.359 428.221 242.442 426.248C246.25 423.82 248.245 420.672 249.333 416.802C250.783 411.567 252.687 406.445 252.098 400.982C251.781 397.985 250.783 395.329 247.157 393.85C245.253 393.053 244.709 391.611 245.026 389.866C245.525 387.059 246.295 384.29 246.794 381.482C247.927 374.995 239.586 367.938 232.287 369.949C231.789 370.101 231.245 370.063 230.701 370.063C229.069 370.101 228.298 369.342 228.525 368.014C228.661 367.218 229.023 366.421 229.295 365.662C230.293 363.007 231.29 360.351 231.381 357.544C231.517 354.547 229.613 351.815 226.666 350.791C225.533 350.373 224.581 350.411 223.629 351.246C221.634 352.953 219.549 354.66 217.327 356.14C216.149 356.937 216.194 357.619 216.783 358.53C216.466 359.023 216.647 359.516 216.783 360.01C219.322 368.735 219.277 377.613 219.73 386.528C220.274 397.492 218.959 408.304 216.466 419.04C216.058 420.785 215.877 422.531 215.378 424.238C215.106 425.262 214.199 426.173 212.839 426.059C211.298 425.945 210.845 424.845 210.799 423.707C210.754 422.531 210.845 421.317 210.89 420.103C212.295 413.16 214.154 406.217 214.245 399.161C214.426 388.766 214.743 378.333 213.066 367.938C211.797 360.237 209.802 352.65 205.903 345.555C201.007 336.678 196.655 327.611 194.026 318.051C193.845 316.988 193.663 315.888 193.482 314.674C193.029 314.978 192.847 315.054 192.711 315.205C182.466 324.31 170.679 331.898 158.575 339.144C147.65 345.707 136.407 351.815 123.759 355.912C121.583 356.633 119.634 356.671 117.458 355.912C109.162 352.991 101.138 349.691 93.6581 345.442C78.3354 336.754 63.1487 327.914 50.3194 316.609C50.0927 316.381 49.8207 316.078 49.1861 316.306C49.0501 317.026 48.9594 317.671 48.8687 318.354ZM190.263 293.809C189.538 292.633 190.399 291.874 191.261 291.153C194.57 288.459 196.973 285.235 198.242 281.555C199.738 277.23 199.602 272.943 196.565 268.997C193.935 265.545 190.173 263.155 186.274 260.841C169.863 251.243 151.141 246.88 131.647 245.135C115.327 243.693 99.1434 245.362 83.3674 249.536C70.7194 252.874 58.7967 257.313 48.7781 264.748C41.6154 270.06 40.0287 276.13 43.5647 283.565C45.0154 286.563 47.1914 289.104 49.8661 291.343C50.7274 292.101 51.1807 292.86 50.7274 293.884C49.9114 293.847 49.1407 293.884 48.4154 293.353C46.2847 291.798 44.0634 290.28 42.3407 288.384C41.3434 287.321 40.4821 286.145 39.0314 285.235C37.5807 286.942 36.8554 288.839 36.6741 290.849C36.3114 292.974 36.9007 295.023 37.8981 296.919C40.3914 301.662 44.0634 305.683 48.3701 309.401C57.3914 317.14 67.0021 324.348 77.4287 330.76C90.4847 338.765 103.495 346.731 118.501 352.043C119.861 352.536 120.994 352.574 122.309 352.043C129.653 349.197 136.815 346.162 143.57 342.407C161.386 332.543 178.341 321.882 193.119 308.87C196.565 305.835 199.602 302.534 201.914 298.816C203.455 296.35 204.589 293.771 204.226 290.887C204.09 289.446 203.501 288.08 202.911 286.714C202.277 285.349 201.551 285.045 200.373 286.373C198.242 288.801 195.885 291.077 192.983 292.974C192.213 293.543 191.397 293.96 190.263 293.809ZM251.871 417.864C252.053 417.978 252.189 418.054 252.37 418.168C253.186 417.447 254.002 416.764 254.773 416.005C273.722 398.061 281.247 376.854 280.386 353.295C280.205 347.756 279.071 342.255 275.853 337.209C271.637 330.646 264.202 327.763 255.679 329.849C243.349 332.808 235.823 341.003 227.346 348.287C233.466 350.867 235.551 354.357 234.599 359.858C234.191 362.286 233.33 364.638 232.605 367.142C233.103 367.142 233.466 367.142 233.829 367.142C242.442 366.838 249.831 372.794 249.922 380.041C249.967 383.379 248.789 386.528 247.882 389.715C247.474 391.08 247.882 391.877 249.287 392.484C251.871 393.584 253.367 395.367 254.183 397.681C255.407 401.286 255.271 404.928 254.637 408.57C254.047 411.718 252.823 414.753 251.871 417.864ZM122.626 241.531C122.626 241.569 122.626 241.569 122.626 241.607C126.162 241.607 129.698 241.569 133.279 241.645C134.231 241.645 134.821 241.455 135.319 240.772C139.898 234.474 141.666 227.759 139.535 220.475C139.082 218.958 138.357 219.072 137.133 219.906C133.778 222.258 129.97 224.117 126.117 225.825C122.989 227.228 119.997 228.822 117.367 230.794C113.967 233.336 111.565 236.371 110.477 240.127C110.114 241.303 110.522 241.493 111.837 241.493C115.373 241.493 118.999 241.531 122.626 241.531ZM139.535 242.214C145.837 243.124 151.911 243.959 157.895 245.249C158.666 245.4 158.893 244.983 159.165 244.49C161.431 240.468 162.61 236.295 162.202 231.819C162.111 230.794 161.885 230.225 160.479 230.832C155.81 232.729 150.914 233.829 145.791 234.436C144.975 234.55 144.023 234.664 143.661 235.575C142.709 237.851 141.349 240.051 139.535 242.214ZM251.962 418.433C251.917 418.395 251.871 418.357 251.826 418.282C251.781 418.319 251.69 418.357 251.69 418.395C251.69 418.433 251.781 418.471 251.826 418.547C251.871 418.509 251.917 418.471 251.962 418.433Z" fill="#060605"/>
<path d="M210.89 420.216C210.845 421.43 210.754 422.606 210.799 423.82C210.845 424.959 211.343 426.059 212.839 426.173C214.199 426.286 215.106 425.376 215.378 424.352C215.877 422.644 216.058 420.861 216.466 419.154C218.959 408.418 220.274 397.606 219.73 386.642C219.322 377.764 219.322 368.849 216.783 360.123C216.647 359.63 216.511 359.137 216.783 358.644C218.778 360.351 219.458 362.665 220.229 364.828C224.354 376.057 225.941 387.742 228.434 399.275C230.157 407.204 231.517 415.209 231.925 423.251C232.106 426.59 232.378 429.928 231.607 433.267C231.789 433.95 231.063 434.101 230.655 434.329C218.415 441.765 205.586 448.29 191.351 452.691C189.447 453.298 187.634 454.057 186.002 455.081C180.97 452.501 177.253 448.821 174.079 444.686C169.954 439.299 166.871 433.532 164.967 427.311C164.423 425.566 162.973 424.01 163.607 422.075C165.194 421.051 167.189 421.127 169.002 421.013C178.386 420.292 187.77 420.216 197.154 420.861C199.874 421.051 202.549 420.558 205.223 420.368C207.127 420.216 208.986 420.065 210.89 420.216Z" fill="#937234"/>
<path d="M48.8691 318.354C48.9598 317.671 49.0505 317.026 49.1411 316.419C49.7758 316.23 50.0025 316.533 50.2745 316.723C63.1491 327.99 78.2905 336.868 93.6131 345.555C101.093 349.804 109.117 353.105 117.413 356.026C119.589 356.785 121.538 356.709 123.714 356.026C136.362 351.929 147.605 345.821 158.53 339.258C170.634 332.012 182.421 324.424 192.666 315.319C192.802 315.205 193.029 315.092 193.437 314.788C193.618 316.002 193.8 317.102 193.981 318.164C188.632 321.731 184.416 326.207 180.018 330.494C170.544 339.675 159.981 347.794 148.24 354.926C142.074 358.682 135.682 362.134 128.656 364.714C126.117 365.624 123.85 367.028 120.904 367.066C118.954 367.104 117.186 366.724 115.418 366.08C95.9251 358.53 79.6958 347.338 65.0985 334.364C59.3865 329.242 54.0825 323.855 48.8691 318.354Z" fill="#937234"/>
<path d="M204.362 290.849C204.725 293.733 203.591 296.312 202.05 298.778C199.693 302.496 196.701 305.797 193.255 308.832C178.477 321.844 161.522 332.505 143.706 342.369C136.951 346.124 129.789 349.159 122.445 352.005C121.085 352.536 119.951 352.498 118.637 352.005C103.631 346.656 90.5752 338.727 77.5645 330.722C67.1379 324.31 57.5272 317.102 48.5059 309.363C44.1992 305.683 40.5272 301.624 38.0339 296.882C37.0365 294.947 36.4472 292.936 36.8099 290.812C37.5805 290.774 37.9432 291.343 38.4872 291.646C42.1592 293.809 46.2392 295.136 50.7272 295.402C51.3165 295.44 52.0419 295.478 52.1325 294.795C52.1779 294.112 51.6792 293.771 50.8632 293.847C51.3619 292.822 50.9085 292.063 50.0019 291.305C47.3272 289.028 45.1059 286.525 43.7005 283.528C40.1645 276.092 41.7059 270.022 48.9139 264.711C58.9325 257.275 70.8552 252.836 83.5032 249.498C99.2792 245.324 115.463 243.655 131.783 245.097C151.277 246.842 169.999 251.205 186.41 260.803C190.309 263.079 194.071 265.507 196.701 268.96C199.738 272.943 199.874 277.192 198.378 281.517C197.109 285.197 194.661 288.421 191.397 291.115C190.535 291.836 189.674 292.595 190.399 293.771C189.583 293.771 189.085 294.036 189.221 294.795C189.311 295.364 189.901 295.364 190.445 295.402C191.805 295.478 193.119 295.136 194.434 294.871C197.97 294.112 201.189 292.481 204.362 290.849ZM120.405 313.308C126.842 313.195 133.098 312.474 139.037 310.843C153.407 306.935 166.826 301.586 178.114 292.784C185.05 287.359 187.498 281.1 185.549 273.512C182.557 261.827 172.538 255.416 160.071 252.001C149.781 249.156 138.81 248.701 127.93 248.322C115.463 247.866 103.087 248.511 90.7565 250.256C85.3619 251.015 79.9672 251.698 75.0259 254.012C68.5432 257.009 62.7859 260.462 58.9779 265.887C53.1752 274.081 52.6312 285.273 62.9219 292.936C71.6712 299.461 81.5992 304.203 92.2979 307.959C101.365 311.146 110.749 312.967 120.405 313.308ZM122.535 333.264C121.674 330.039 122.581 327.08 122.309 324.121C122.218 322.983 122.263 321.844 120.405 321.844C118.637 321.882 118.773 323.02 118.773 324.045C118.773 327.042 118.773 330.039 118.773 333.453C116.234 330.798 114.511 328.332 113.197 325.638C112.834 324.879 112.154 324.083 111.021 324.272C109.661 324.5 110.114 325.6 110.159 326.321C110.205 327.042 110.522 327.801 110.839 328.521C111.973 330.874 113.469 333.074 115.327 335.085C116.098 335.919 116.325 336.45 115.282 337.285C113.242 338.878 113.333 338.916 111.746 336.981C111.247 336.336 110.794 335.692 110.295 335.085C109.117 333.529 108.346 331.822 106.85 330.418C106.351 329.963 105.943 329.28 105.037 329.622C104.175 329.963 104.629 330.57 104.719 331.139C105.082 333.643 106.623 335.767 108.119 337.892C108.618 338.575 109.479 339.144 109.751 340.434C107.666 339.409 105.943 338.651 104.311 337.74C101.863 336.374 99.5059 334.895 97.1032 333.453C96.4685 333.074 95.7432 332.77 95.0632 333.415C94.5192 333.946 94.6552 334.591 95.1085 335.16C95.3805 335.464 95.6525 335.767 95.9699 336.033C99.8232 339.409 104.357 341.989 109.343 344C111.021 344.683 112.517 344.493 113.831 343.317C115.645 341.724 117.594 340.206 119.407 338.613C120.223 337.892 120.813 337.93 121.583 338.613C123.397 340.206 125.391 341.686 127.205 343.317C128.383 344.379 129.834 344.721 131.285 344.152C136.589 342.065 141.394 339.334 145.383 335.73C146.063 335.123 146.97 334.326 145.927 333.415C145.021 332.619 144.114 333.301 143.343 333.757C140.759 335.274 138.221 336.868 135.546 338.309C134.322 338.992 133.053 339.789 131.194 340.016C133.415 337.209 135.546 334.667 136.271 331.556C136.407 330.911 136.861 330.077 135.999 329.66C135.002 329.204 134.503 330.077 134.095 330.608C132.373 332.808 130.786 335.122 129.018 337.323C128.61 337.816 128.293 339.334 127.023 338.12C126.207 337.361 123.759 337.095 125.663 335.16C127.975 332.808 129.789 330.153 130.741 327.194C131.058 326.207 131.738 324.841 130.151 324.386C128.791 323.969 128.157 325.221 127.613 326.093C127.386 326.435 127.205 326.776 127.023 327.118C125.935 329.242 124.394 331.177 122.535 333.264Z" fill="#F4FB95"/>
<path d="M251.871 417.864C252.823 414.753 254.093 411.718 254.591 408.532C255.226 404.89 255.362 401.248 254.138 397.644C253.322 395.329 251.826 393.546 249.242 392.446C247.791 391.839 247.429 391.042 247.837 389.677C248.743 386.49 249.922 383.341 249.877 380.003C249.786 372.719 242.442 366.762 233.783 367.104C233.421 367.104 233.058 367.104 232.559 367.104C233.285 364.6 234.146 362.286 234.554 359.82C235.506 354.319 233.421 350.829 227.301 348.249C235.778 340.965 243.349 332.77 255.634 329.811C264.157 327.763 271.591 330.646 275.807 337.171C279.026 342.217 280.159 347.718 280.341 353.257C281.202 376.816 273.677 398.061 254.727 415.967C253.957 416.688 253.095 417.409 252.325 418.13C252.189 418.054 252.053 417.978 251.871 417.864Z" fill="#FAF0EE"/>
<path d="M231.653 433.267C232.423 429.928 232.151 426.59 231.97 423.251C231.517 415.171 230.157 407.204 228.479 399.275C225.986 387.742 224.399 376.095 220.274 364.828C219.458 362.665 218.823 360.351 216.829 358.644C216.239 357.733 216.194 357.05 217.373 356.254C219.594 354.736 221.634 353.067 223.674 351.36C224.626 350.525 225.578 350.525 226.711 350.905C229.658 351.929 231.562 354.66 231.426 357.657C231.29 360.465 230.338 363.12 229.341 365.776C229.069 366.573 228.706 367.332 228.57 368.128C228.343 369.456 229.114 370.177 230.746 370.177C231.29 370.177 231.834 370.177 232.333 370.063C239.631 368.014 247.973 375.109 246.839 381.596C246.341 384.403 245.57 387.173 245.071 389.98C244.754 391.725 245.298 393.205 247.202 393.964C250.829 395.443 251.826 398.099 252.143 401.096C252.733 406.559 250.829 411.68 249.378 416.916C248.29 420.747 246.295 423.934 242.487 426.362C239.45 428.297 236.594 430.497 233.602 432.546C233.013 432.85 232.559 433.532 231.653 433.267Z" fill="#ECCF5D"/>
<path d="M122.626 241.531C118.999 241.531 115.373 241.493 111.746 241.569C110.431 241.607 110.069 241.379 110.386 240.203C111.474 236.447 113.877 233.412 117.277 230.87C119.951 228.898 122.898 227.304 126.026 225.9C129.879 224.155 133.687 222.334 137.042 219.982C138.266 219.11 138.991 219.034 139.445 220.551C141.621 227.835 139.807 234.55 135.229 240.848C134.73 241.531 134.141 241.72 133.189 241.72C129.653 241.645 126.117 241.682 122.535 241.682C122.626 241.569 122.626 241.569 122.626 241.531Z" fill="#F3FA95"/>
<path d="M139.535 242.214C141.303 240.051 142.663 237.851 143.615 235.537C143.978 234.626 144.93 234.512 145.746 234.398C150.868 233.791 155.81 232.691 160.434 230.794C161.885 230.225 162.066 230.794 162.157 231.781C162.565 236.257 161.386 240.431 159.119 244.452C158.847 244.945 158.621 245.4 157.85 245.211C151.957 243.921 145.836 243.124 139.535 242.214Z" fill="#F1F893"/>
<path d="M50.7731 293.847C51.5891 293.771 52.1331 294.112 52.0424 294.795C51.9971 295.516 51.2264 295.44 50.6371 295.402C46.1491 295.136 42.0691 293.809 38.3971 291.646C37.8531 291.343 37.4904 290.774 36.7197 290.812C36.9464 288.801 37.6264 286.904 39.0771 285.197C40.5277 286.107 41.3891 287.283 42.3864 288.346C44.1091 290.28 46.3304 291.76 48.4611 293.315C49.1864 293.847 49.9571 293.809 50.7731 293.847Z" fill="#9A9A52"/>
<path d="M204.362 290.849C201.189 292.481 197.97 294.112 194.298 294.871C192.983 295.136 191.669 295.478 190.309 295.402C189.765 295.364 189.175 295.364 189.085 294.795C188.949 294.074 189.447 293.771 190.263 293.771C191.397 293.96 192.213 293.505 193.074 292.936C195.975 291.039 198.333 288.763 200.463 286.335C201.642 284.969 202.367 285.311 203.002 286.676C203.637 288.042 204.226 289.37 204.362 290.849Z" fill="#9A9A52"/>
<path d="M251.962 418.433C251.917 418.471 251.871 418.509 251.826 418.547C251.781 418.509 251.69 418.471 251.69 418.395C251.69 418.357 251.781 418.319 251.826 418.282C251.871 418.357 251.917 418.395 251.962 418.433Z" fill="#FAF0EE"/>
<path d="M120.405 313.308C110.749 312.967 101.365 311.146 92.2979 307.959C81.5992 304.203 71.7165 299.423 62.9219 292.936C52.6312 285.273 53.1752 274.081 58.9779 265.887C62.7859 260.462 68.5432 257.009 75.0259 254.012C80.0125 251.698 85.3619 251.015 90.7565 250.256C103.042 248.549 115.463 247.866 127.93 248.322C138.765 248.701 149.781 249.156 160.071 252.001C172.583 255.454 182.557 261.827 185.549 273.512C187.453 281.062 185.05 287.359 178.114 292.784C166.871 301.586 153.407 306.935 139.037 310.843C133.098 312.436 126.887 313.157 120.405 313.308ZM120.541 259.361C123.85 259.627 127.114 259.817 130.423 260.12C139.807 261.031 149.101 262.396 157.714 265.962C160.887 267.29 164.015 268.732 166.509 270.894C169.093 273.133 169.455 275.105 167.823 277.533C167.37 278.216 166.735 278.975 167.551 279.582C168.322 280.189 169.41 279.961 170.317 279.582C172.493 278.709 173.807 276.433 173.445 274.119C172.901 270.325 170.045 267.897 166.554 265.849C161.069 262.7 154.994 260.651 148.602 259.285C139.127 257.237 129.562 256.175 119.725 256.25C108.709 256.326 98.0552 257.692 87.6739 260.537C81.6445 262.207 75.8419 264.369 71.2179 268.201C68.9512 270.098 67.5459 272.374 67.5912 275.105C67.6365 277.382 69.5405 279.43 71.7165 279.81C72.4872 279.961 73.2579 279.961 73.7565 279.354C74.2099 278.823 73.8472 278.292 73.4845 277.761C71.6259 274.878 71.9432 272.981 74.7085 270.667C77.6099 268.277 81.1005 266.683 84.7725 265.28C96.1512 261.106 108.346 260.272 120.541 259.361Z" fill="#9C9C53"/>
<path d="M122.535 333.264C124.439 331.177 125.935 329.242 127.069 327.118C127.25 326.776 127.431 326.435 127.658 326.093C128.247 325.221 128.837 323.969 130.197 324.386C131.738 324.879 131.103 326.207 130.786 327.194C129.789 330.153 127.975 332.808 125.709 335.16C123.805 337.095 126.253 337.361 127.069 338.12C128.338 339.334 128.655 337.816 129.063 337.323C130.831 335.123 132.418 332.846 134.141 330.608C134.549 330.077 135.093 329.204 136.045 329.66C136.906 330.077 136.498 330.911 136.317 331.556C135.591 334.667 133.461 337.209 131.239 340.016C133.098 339.789 134.367 338.992 135.591 338.309C138.221 336.868 140.805 335.274 143.389 333.757C144.205 333.302 145.066 332.619 145.973 333.415C147.015 334.288 146.109 335.085 145.429 335.73C141.439 339.334 136.634 342.103 131.33 344.152C129.834 344.721 128.429 344.379 127.25 343.317C125.437 341.724 123.487 340.206 121.629 338.613C120.813 337.892 120.269 337.892 119.453 338.613C117.639 340.206 115.69 341.724 113.877 343.317C112.517 344.493 111.021 344.683 109.389 344C104.402 341.989 99.8688 339.372 96.0155 336.033C95.6981 335.767 95.3808 335.464 95.1541 335.16C94.7008 334.591 94.5648 333.946 95.1088 333.415C95.7435 332.808 96.4688 333.074 97.1488 333.453C99.5515 334.857 101.909 336.337 104.357 337.74C105.989 338.651 107.711 339.409 109.797 340.434C109.525 339.144 108.663 338.613 108.165 337.892C106.669 335.767 105.127 333.681 104.765 331.139C104.674 330.608 104.221 329.963 105.082 329.622C105.989 329.242 106.397 329.963 106.895 330.418C108.391 331.784 109.162 333.529 110.341 335.085C110.839 335.73 111.293 336.374 111.791 336.981C113.333 338.916 113.287 338.878 115.327 337.285C116.37 336.45 116.189 335.957 115.373 335.085C113.514 333.074 111.973 330.911 110.885 328.521C110.567 327.839 110.295 327.08 110.205 326.321C110.159 325.562 109.706 324.5 111.066 324.272C112.199 324.083 112.879 324.879 113.242 325.638C114.602 328.294 116.279 330.798 118.818 333.453C118.818 330.001 118.818 327.004 118.818 324.045C118.818 323.02 118.682 321.844 120.45 321.844C122.263 321.806 122.263 322.983 122.354 324.121C122.535 327.08 121.674 330.039 122.535 333.264Z" fill="#A17729"/>
<path d="M120.54 259.361C108.346 260.272 96.1511 261.069 84.7724 265.393C81.1004 266.797 77.6097 268.39 74.7084 270.781C71.8977 273.095 71.6257 274.992 73.4844 277.875C73.8017 278.406 74.2097 278.899 73.7564 279.468C73.2577 280.037 72.4871 280.037 71.7164 279.923C69.5404 279.544 67.6364 277.495 67.5911 275.219C67.5004 272.45 68.9057 270.211 71.2177 268.315C75.8417 264.483 81.6444 262.283 87.6737 260.651C98.055 257.806 108.708 256.44 119.724 256.364C129.562 256.288 139.127 257.351 148.602 259.399C154.994 260.765 161.068 262.814 166.554 265.962C170.044 268.011 172.9 270.439 173.444 274.233C173.762 276.547 172.492 278.785 170.316 279.696C169.41 280.075 168.322 280.341 167.551 279.696C166.78 279.051 167.37 278.33 167.823 277.647C169.455 275.219 169.092 273.246 166.508 271.008C164.015 268.846 160.887 267.404 157.714 266.076C149.1 262.51 139.852 261.182 130.423 260.234C127.114 259.817 123.804 259.627 120.54 259.361Z" fill="#050502"/>
<path d="M34.2869 234.509C33.3349 232.499 31.9296 230.716 30.4789 228.971C20.8229 217.286 15.1563 204.159 10.3963 190.654C4.82026 174.758 1.96426 158.483 0.830922 141.98C-0.121078 128.057 0.150922 114.172 1.96426 100.324C3.91359 85.4529 8.58292 71.1126 14.2043 56.9239C18.6469 45.7324 24.5856 35.1478 31.6576 24.9806C37.0069 17.2413 43.7162 10.4505 52.6469 5.36688C55.0042 4.00113 57.4976 2.82507 60.2629 2.06632C66.5189 0.359128 72.0042 1.3455 76.6736 5.25306C79.4842 7.60519 81.4336 10.4505 83.1109 13.4476C87.9163 22.1353 90.4096 31.3541 91.6336 40.8005C93.8549 58.0241 96.5749 75.1719 99.6122 92.2817C101.924 105.37 104.644 118.307 109.359 130.94C111.807 137.465 114.572 143.839 117.972 150.061C119.015 151.995 119.06 152.033 120.783 150.364C131.663 139.893 141.183 128.664 149.298 116.524C159.815 100.704 169.562 84.5424 179.626 68.4949C192.274 48.3501 206.191 28.8123 224.687 11.8921C227.951 8.89506 231.442 6.08769 235.431 3.81144C244.18 -1.19631 253.156 0.283253 259.186 7.56725C264.444 13.9408 266.938 21.2248 269.295 28.5088C272.559 38.4863 273.692 48.7674 274.282 59.0484C275.914 87.9948 270.111 115.993 259.186 143.421C250.028 166.412 235.794 186.974 218.386 206.17C217.388 207.27 217.162 208.029 217.932 209.319C219.61 212.24 220.199 215.465 220.698 218.652C220.879 219.676 221.242 219.752 222.239 219.372C225.503 218.082 228.767 216.793 232.258 215.92C235.114 215.237 238.015 214.934 241.007 215.275C244.679 215.692 246.764 217.551 247.172 220.624C247.671 224.608 245.858 228.06 243.682 231.398C243.183 232.157 242.639 232.916 242.095 233.675C247.218 235.344 248.124 237.81 246.9 243.538C246.266 246.422 244.407 248.926 242.458 251.354C236.927 258.182 230.127 263.987 222.148 268.805C215.394 272.864 209.047 277.303 202.519 281.59C183.252 294.375 162.172 304.201 138.01 308.829C111.444 313.913 85.9669 311.864 62.2123 299.952C53.5989 295.627 45.9829 290.278 39.5909 283.79C38.7749 282.956 37.8683 282.462 36.6896 282.121C33.9696 281.362 31.3403 280.414 28.9829 279.086C24.9029 276.772 23.8603 273.888 26.1723 270.284C27.3963 268.388 27.4869 267.06 25.6283 265.315C22.5003 262.356 22.9083 258.22 26.5349 254.806C29.2096 252.302 32.1563 250.064 35.0576 247.75C36.1003 246.953 36.5989 246.156 36.3269 244.942C35.9189 242.969 35.6469 240.959 35.3296 238.948C35.2389 238.189 34.6043 237.924 33.8789 237.658C32.4283 237.089 31.2496 236.217 30.2069 235.192C29.7082 234.661 29.4363 234.054 30.1163 233.485C30.7509 232.954 31.3403 233.333 31.9296 233.637C32.6096 233.978 33.0629 234.661 33.9696 234.775C34.1056 234.851 34.2416 234.927 34.3323 234.965C34.2869 234.813 34.2869 234.661 34.2869 234.509ZM35.3749 209.281C35.9189 210.154 36.3723 211.102 37.3696 211.709C38.0043 210.191 38.5482 208.788 39.2736 207.422C39.7722 206.436 39.2283 206.208 38.2309 206.132C36.5989 205.601 34.9216 205.146 33.0176 204.88C33.6523 206.512 34.3776 207.953 35.3749 209.281ZM68.1509 242.666C67.7883 243.273 67.8336 243.918 67.9696 244.525C68.5136 246.839 69.9643 247.446 72.2763 246.118C74.9056 244.601 77.0363 242.704 78.3509 240.2C78.6683 239.555 79.1216 238.872 77.8522 238.531C74.0442 237.393 69.1029 239.479 68.1509 242.666ZM60.0363 225.328C61.3056 224.684 61.8496 223.318 63.3909 222.863C63.8443 222.749 63.7083 222.407 63.5723 222.066C62.7109 220.207 61.3963 219.903 59.7643 221.345C54.1429 226.315 52.4202 232.499 52.1936 239.062C52.1482 239.897 52.8283 240.238 53.5989 240.238C54.7323 240.276 54.2336 239.441 54.3243 238.948C54.9589 235.648 55.7749 232.385 57.5429 229.35C58.5403 229.767 59.5376 230.033 60.4443 229.236C61.2603 228.477 61.4869 227.567 60.9429 226.618C60.6709 226.163 60.3083 225.746 60.0363 225.328ZM36.2363 279.427C36.3269 279.503 36.3723 279.617 36.4629 279.693C36.5083 279.617 36.5536 279.579 36.5536 279.541C36.5082 279.352 36.3723 279.352 36.2363 279.465C36.2816 279.352 36.3722 279.2 36.3269 279.124C33.2442 273.964 33.6523 268.691 35.2389 263.266C36.4629 259.131 36.9163 254.92 36.5989 250.595C34.1056 252.606 31.5669 254.427 29.3456 256.475C26.4443 259.207 26.3989 261.824 29.0283 264.67C30.6603 266.377 30.6603 268.008 29.6629 269.943C27.3963 274.268 27.8496 275.482 32.7002 277.872C33.8336 278.441 34.8763 279.238 36.2363 279.427ZM55.6843 139.097C56.1829 138.869 56.1376 138.565 55.8656 138.224C55.9563 137.617 56.0469 137.048 56.1376 136.441C56.6363 136.251 56.5456 135.948 56.4096 135.606C56.4549 135.379 56.4549 135.151 56.5002 134.923C57.7242 132.192 58.9483 129.422 60.2629 126.729C60.9883 125.173 61.9402 123.694 62.8469 122.063C61.0789 122.063 59.5376 122.101 58.0416 122.063C53.9616 121.949 51.4229 120.166 50.6069 116.827C49.7456 113.223 50.4256 109.657 51.4683 106.167C54.1883 97.0618 59.1296 88.7914 65.2949 81.0522C67.1536 78.7001 67.9696 76.3859 68.1056 73.5026C68.5589 62.2731 68.6496 51.0436 66.5643 39.89C65.9296 36.3998 65.3856 32.9095 63.8443 29.571C62.4843 26.6498 59.9456 25.8531 56.6363 27.2568C55.7749 27.6362 54.8683 27.9776 54.2789 28.6605C53.3269 29.0019 52.6923 29.6469 52.0123 30.2159C46.1189 35.1858 41.2683 40.8005 37.5509 47.0602C23.0896 71.1126 16.6069 96.8342 15.0656 123.542C14.5669 131.813 15.4283 140.083 16.4709 148.315C17.9669 159.697 20.8683 170.926 23.6789 182.118C24.8576 186.708 26.3083 191.299 28.8016 195.661C29.3456 195.244 29.3003 194.789 29.4363 194.334C31.5216 186.518 33.6069 178.703 35.7376 170.888C36.4176 168.422 37.4149 168.119 40.0443 169.295C45.4389 171.685 50.7883 174.113 56.1829 176.503C56.6816 176.768 57.1803 177.072 57.7243 177.262C58.2229 177.413 58.6763 178.096 59.2656 177.565C59.7643 177.148 59.1749 176.768 58.9936 176.389C57.4522 173.544 57.5883 170.585 58.2683 167.663C59.4469 162.428 62.5296 157.876 65.8843 153.437C66.2923 152.906 67.1083 152.489 66.8816 151.692C59.5829 151.161 56.8629 149.036 55.7749 143.004C55.6843 142.587 55.5936 142.132 55.5483 141.714C55.5936 140.842 55.6389 139.969 55.6843 139.097ZM29.8896 220.662C31.3856 222.749 32.8816 224.835 34.3776 226.96C34.9669 223.09 35.6016 219.448 36.3723 215.882C36.6443 214.554 36.5989 213.568 35.3749 212.695C33.7429 210.495 32.2469 208.257 31.2043 205.791C30.7963 204.88 30.3883 204.121 29.0283 203.894C27.8496 203.704 27.4416 202.945 27.8043 201.845C28.3029 200.366 28.0762 198.924 27.2602 197.482C25.3109 194.03 23.8603 190.388 22.5003 186.708C19.9616 179.69 19.1003 172.406 17.3323 165.273C14.6576 154.765 13.2069 144.142 12.6629 133.444C12.1189 123.087 13.1163 112.768 14.7936 102.487C17.6043 85.6047 22.8176 69.2916 30.7963 53.6234C35.4656 44.4425 41.5403 35.9824 50.0176 28.8502C51.8763 27.2948 53.9163 25.8531 56.4096 25.0564C60.4443 23.7666 63.9349 24.9806 65.7029 28.2811C66.7909 30.2918 67.3349 32.4543 67.8336 34.6167C70.8709 47.781 71.1429 61.0591 70.9616 74.4131C70.9616 75.703 70.9162 77.0688 70.1002 78.2828C68.0602 81.166 65.9749 84.0113 63.9802 86.8946C58.4042 95.0511 53.7349 103.435 52.6923 112.996C52.1936 117.472 53.9162 119.786 58.3136 120.166C59.7189 120.28 61.1696 120.204 62.6202 120.128C63.7989 120.09 64.6149 119.635 65.2496 118.686C68.2416 114.437 71.5963 110.378 75.4949 106.698C76.2203 106.015 77.0363 104.536 78.1243 105.218C78.9856 105.75 77.5349 106.812 76.9002 107.533C70.8256 114.323 65.4309 121.456 61.6683 129.347C59.7189 133.406 58.1776 137.579 58.3136 142.018C58.4496 147.367 61.1696 149.264 67.5616 149.15C70.2816 149.112 70.8709 147.291 72.3216 146.191C73.2283 145.508 73.9083 143.763 75.4496 144.901C76.8549 145.925 75.0869 146.836 74.3616 147.557C69.7376 152.261 65.5216 157.155 62.6656 162.77C60.8069 166.374 59.1749 170.016 60.2629 174.075C60.1723 174.682 60.3989 175.403 60.9429 175.554C61.6683 175.782 62.0309 175.023 62.4843 174.644C70.3723 167.588 79.6656 162.201 90.2283 158.331C97.1189 155.789 104.327 154.347 111.852 153.968C113.258 153.892 113.983 153.665 113.122 152.261C111.898 150.25 110.855 148.126 109.767 146.077C107.364 140.235 104.78 134.43 102.74 128.474C98.9322 117.396 96.4389 106.129 94.6256 94.7097C92.7669 83.3284 90.4549 71.9851 88.9136 60.5659C87.6442 51.0816 86.7376 41.5593 84.6069 32.1887C82.9749 24.9047 80.3003 17.8483 75.6763 11.4748C71.0523 5.13925 65.4762 4.11494 57.8602 7.79487C52.5562 10.3367 48.1136 13.7511 44.2149 17.6207C35.0576 26.7257 28.8469 37.3103 23.6336 48.1983C13.2976 69.7089 6.72425 92.0541 5.68159 115.424C4.50292 142.359 7.40425 168.802 17.2416 194.561C20.6869 203.514 24.0869 212.506 29.8896 220.662ZM70.6443 251.771C71.8683 253.744 73.5456 255.413 75.4496 256.968C76.1749 257.575 77.5802 258.22 76.6736 259.283C75.7216 260.383 74.6789 259.396 73.7269 258.979C73.4096 258.827 73.1829 258.524 72.7296 258.789C71.3243 263.114 69.6016 267.363 65.7029 270.626C61.3056 274.344 55.6389 274.496 50.9243 271.043C47.8416 268.805 45.8469 265.922 44.2602 262.811C43.7162 261.786 43.9883 261.255 45.3029 261.066C46.1189 261.483 46.3456 262.242 46.7536 262.925C48.7029 265.96 50.8336 268.843 54.5509 270.588C58.1323 272.257 61.9856 271.347 64.2069 268.35C59.4016 267.97 56.5456 265.504 54.5963 262.052C53.1456 259.548 52.1029 256.892 51.6949 254.161C51.2869 251.392 50.8336 248.66 53.5989 246.194C56.7269 243.425 56.5003 243.235 52.1029 242.249C50.6069 241.907 49.3829 241.376 49.3829 239.897C49.5189 234.244 50.2896 228.705 54.0523 223.773C55.5483 221.8 57.2256 220.017 59.6283 218.652C55.6843 216.565 52.6469 216.793 49.5643 219.258C48.2496 220.321 47.2069 221.573 46.3909 222.901C43.6256 227.339 42.4922 232.157 42.2202 237.089C42.1749 238.075 42.2203 238.91 40.7243 238.948C39.8176 238.948 39.7723 239.365 39.8629 239.934C39.9989 240.617 40.1349 241.3 40.3163 241.983C41.1776 245.587 40.8149 249.267 41.5856 252.871C41.2229 257.841 40.6789 262.811 39.3189 267.667C38.3669 271.157 39.0016 274.533 40.4523 277.872C42.6736 283.031 46.9803 286.673 52.0576 289.936C73.9536 304.011 98.5696 309.815 125.996 306.97C143.45 305.149 159.588 299.952 174.866 292.857C188.284 286.636 200.162 278.669 211.903 270.512C219.292 265.391 227.09 260.648 233.3 254.502C234.842 252.985 236.564 251.505 237.562 249.608C240.463 246.953 242.231 243.842 242.684 240.276C242.866 238.986 242.73 237.734 240.962 237.127C239.194 236.52 238.151 237.317 237.244 238.379C235.703 239.479 234.252 240.655 232.666 241.642C231.351 242.438 230.127 242.438 229.628 240.807C231.578 238.986 233.572 237.165 235.431 235.306C238.74 231.93 241.46 228.212 242.458 223.849C243.274 220.359 242.004 219.145 237.834 219.145C236.7 219.145 235.567 219.221 234.524 219.562C231.442 219.941 228.676 221.042 225.82 221.914C221.876 223.128 218.114 224.646 214.079 225.594C212.855 225.898 211.858 225.973 211.404 224.722C211.676 223.508 212.946 223.052 213.988 222.483C214.668 222.142 215.122 221.8 215.122 221.042C214.986 217.703 214.26 214.478 213.127 211.178C211.722 211.861 210.951 212.999 209.455 213.226C208.548 213.34 207.778 213.226 207.234 212.582C206.78 212.05 207.007 211.519 207.46 211.026C209.999 208.181 212.447 205.335 214.986 202.49C231.804 183.597 245.676 163.414 254.471 140.842C263.084 118.724 268.66 96.1893 269.114 72.8956C269.386 58.8208 268.434 44.8219 264.444 31.1264C262.359 23.8804 259.956 16.7102 254.924 10.3746C250.255 4.57019 244.634 3.62175 237.788 7.64313C233.618 10.0711 230.127 13.1441 226.772 16.3308C208.095 33.8959 194.268 54.1166 181.394 74.8304C174.05 86.6669 166.887 98.5414 159.18 110.226C149.615 124.68 139.143 138.603 126.132 151.123C124.092 153.096 121.826 154.841 119.514 156.548C118.97 156.965 118.38 157.117 117.655 157.003C114.028 156.586 110.402 157.003 106.866 157.534C89.1856 160.076 74.9056 167.664 62.6656 178.324C61.8949 179.007 61.8949 179.348 62.8923 179.841C66.1109 181.473 69.1936 183.294 72.4576 184.887C74.5883 185.911 75.1322 187.277 74.6789 189.174C74.5429 189.667 74.4976 190.16 74.4069 190.654C74.1802 191.071 73.9536 191.45 73.8176 191.868C71.8683 197.141 69.9643 202.452 68.0149 207.726C67.0629 210.305 66.2469 210.798 63.1643 210.305C57.1803 209.395 51.1963 208.484 45.2576 207.422C43.3083 207.081 42.1296 207.232 41.8576 209.053C38.3216 216.641 36.8709 228.97 38.8202 234.168C38.8656 234.13 39.0016 234.13 39.0016 234.092C39.0923 233.713 39.2282 233.371 39.2736 232.992C40.2709 228.098 41.7669 223.356 45.2123 219.221C47.0709 216.982 49.3376 215.161 52.6469 214.554C57.9509 213.606 61.6683 215.92 64.7509 219.069C68.8309 223.204 70.8709 228.174 72.2763 233.295C72.8203 235.192 73.4096 235.116 75.0869 234.244C77.8976 232.764 80.8896 231.588 84.2443 231.247C86.1483 232.233 85.1963 232.764 83.7909 233.182C81.4336 233.827 79.1216 234.509 76.8549 235.989C79.1669 236.368 80.7536 237.013 81.2522 238.834C80.3002 244.07 74.7696 248.584 68.6949 248.926C69.0123 250.026 69.8283 250.898 70.6443 251.771ZM63.2549 207.763C64.5696 207.991 64.9323 207.346 65.2949 206.474C67.7429 200.783 69.4656 194.903 71.5963 189.136C71.9589 188.112 71.6416 187.581 70.5989 186.974C60.8976 181.397 50.4709 176.844 39.9989 172.368C38.9109 171.913 38.6843 172.102 38.4123 173.051C36.0096 182.307 33.5616 191.526 31.0683 200.745C30.8416 201.58 30.9776 201.883 31.9296 202.035C36.6443 202.87 41.1776 204.273 45.9376 204.994C51.7403 205.829 57.4976 206.815 63.2549 207.763ZM54.6869 248.47C53.5536 248.888 53.4176 249.609 53.5083 250.405C54.0069 254.313 55.0949 258.069 57.2256 261.597C58.9483 264.48 61.8042 265.77 65.3402 266.415C66.2469 266.567 66.3376 266.111 66.6549 265.694C67.0629 265.125 66.6549 264.897 66.1109 264.708C62.9376 263.645 61.3509 261.331 59.6283 259.131C57.1349 255.868 55.8656 252.226 54.6869 248.47ZM65.1136 258.562C64.7509 257.651 64.7056 256.437 62.9829 256.361C62.0309 256.323 61.3056 256.855 61.3509 257.613C61.3963 258.789 62.1669 259.624 63.6629 259.776C64.5243 259.814 65.1136 259.434 65.1136 258.562Z" fill="#060605"/>
<path d="M74.4524 190.616C74.5431 190.122 74.5884 189.629 74.7244 189.136C75.1778 187.277 74.6338 185.873 72.5031 184.849C69.2391 183.256 66.1564 181.473 62.9378 179.803C61.9404 179.272 61.9404 178.931 62.7111 178.286C74.9511 167.626 89.2311 160.038 106.911 157.496C110.447 157.003 114.074 156.586 117.7 156.965C118.426 157.041 119.015 156.927 119.559 156.51C121.871 154.803 124.138 153.058 126.178 151.085C139.188 138.565 149.66 124.642 159.226 110.188C166.932 98.5414 174.095 86.629 181.439 74.7925C194.314 54.0786 208.14 33.8579 226.818 16.2929C230.172 13.1061 233.663 10.0711 237.834 7.60518C244.679 3.5838 250.346 4.57018 254.97 10.3367C260.047 16.6722 262.404 23.8424 264.49 31.0885C268.479 44.7839 269.431 58.7829 269.159 72.8577C268.706 96.1892 263.13 118.686 254.516 140.804C245.722 163.377 231.85 183.559 215.031 202.452C212.492 205.297 210.044 208.143 207.506 210.988C207.052 211.481 206.871 212.012 207.279 212.544C207.823 213.188 208.594 213.302 209.5 213.188C211.042 212.999 211.812 211.823 213.172 211.14C214.306 214.44 214.986 217.665 215.167 221.004C215.212 221.8 214.714 222.104 214.034 222.445C212.991 223.014 211.722 223.47 211.45 224.684C210.724 224.987 209.954 225.291 209.274 225.67C203.97 228.363 199.119 231.512 194.404 234.889C186.788 240.39 178.175 244.677 169.29 248.66C163.306 251.354 157.004 252.757 150.34 253.137C143.54 253.516 136.786 252.871 130.167 251.581C122.234 250.026 115.343 247.029 110.674 241.148C108.634 238.569 106.095 236.292 103.42 234.168C97.9351 229.805 90.8178 228.667 84.2898 231.171C80.9351 231.512 77.8978 232.688 75.1324 234.168C73.4551 235.04 72.8658 235.154 72.3218 233.219C70.9164 228.098 68.8764 223.128 64.7964 218.993C61.6684 215.844 57.9964 213.53 52.6924 214.478C49.3831 215.047 47.1164 216.906 45.2578 219.145C41.8124 223.28 40.3164 228.022 39.3191 232.916C39.2284 233.295 39.1378 233.637 39.0471 234.016C39.0471 234.054 38.9111 234.054 38.8658 234.092C36.8711 228.857 38.3671 216.565 41.9031 208.977C49.1564 210.419 56.3644 211.899 63.7537 212.809C66.6097 213.151 67.8791 212.771 68.9671 210.533C71.5511 205.222 74.0444 199.872 76.4018 194.485C77.3084 192.55 76.5378 191.299 74.4524 190.616ZM114.572 215.844C115.479 218.082 117.61 217.362 119.332 217.096C127.039 215.958 134.7 214.706 142.362 213.416C150.703 212.012 159.09 210.874 167.25 208.902C169.834 208.257 170.922 207.156 170.287 205.222C168.338 199.227 168.383 193.006 167.612 186.898C167.204 183.408 166.706 179.879 166.026 176.427C165.482 173.544 163.986 172.975 160.812 174.075C160.087 174.34 159.452 174.606 158.636 174.378C157.82 171.154 157.322 170.888 153.65 171.988C151.02 172.785 148.436 173.62 145.807 174.416C132.932 178.476 120.33 183.142 107.818 187.998C106.594 188.453 105.415 188.795 105.596 190.388C106.458 197.9 108.226 205.335 109.767 212.771C110.538 216.11 110.628 216.072 114.572 215.844ZM198.394 180.486C200.298 184.166 201.748 187.96 203.063 191.792C202.428 192.209 200.887 192.095 201.34 193.157C201.748 194.144 202.972 193.764 203.924 193.537C205.556 193.195 207.007 192.55 208.367 191.754C211.359 190.009 213.852 187.808 216.119 185.418C223.055 178.02 228.223 169.788 232.666 161.214C246.447 134.544 254.97 106.66 258.823 77.7895C260.274 66.9774 260.954 56.1652 259.186 45.315C258.506 40.9902 257.372 36.7412 254.38 33.0612C251.116 29.0399 246.492 28.0914 241.415 30.2918C240.418 30.7091 239.466 31.2402 238.559 31.8472C232.575 35.9066 228.404 41.1419 224.732 46.6808C223.871 47.9707 224.642 48.388 226.092 48.4259C227.543 48.4259 228.948 48.388 230.399 48.4639C235.114 48.7294 237.244 51.1954 236.111 55.065C235.567 56.9998 234.524 58.707 233.255 60.3762C230.444 64.17 226.727 67.3188 222.692 70.202C217.343 74.0337 211.404 77.1446 205.058 79.6864C204.423 79.952 203.426 80.1796 203.924 81.0142C204.378 81.773 205.194 81.2039 205.738 81.0142C208.73 80.1037 211.586 78.9656 214.17 77.4481C215.62 76.6135 216.572 76.879 217.706 77.7516C220.743 80.1796 221.06 83.1767 220.29 86.3255C219.02 91.5988 215.439 95.9237 211.314 99.9071C202.383 108.405 191.503 114.551 178.9 118.648C178.084 118.914 176.452 118.99 176.815 119.938C177.268 121.114 178.674 120.242 179.535 120.014C184.431 118.724 189.055 116.903 193.452 114.741C196.898 113.071 197.532 113.223 199.708 116.068C200.343 116.865 200.706 117.738 201.068 118.648C202.247 121.797 201.839 124.87 200.751 127.943C197.804 136.137 191.775 142.625 184.068 148.012C175.455 154.044 166.026 158.521 154.284 158.331C153.695 158.331 152.97 158.293 152.924 159.014C152.879 159.772 153.559 159.924 154.33 159.924C158.138 160.076 161.855 159.81 165.482 158.824C166.388 158.558 167.25 158.445 168.292 158.786C176.135 161.328 183.071 165.084 188.602 170.433C192.047 173.733 195.175 177.148 198.394 180.486ZM119.604 238.607C120.103 238.607 120.738 238.265 121.372 237.886C125.906 235.154 130.53 232.499 134.564 229.236C135.471 228.477 136.106 228.401 137.239 229.008C142.452 231.74 147.983 233.864 153.74 235.572C155.418 236.065 156.959 235.951 158.5 235.23C162.716 233.219 164.711 229.843 166.343 226.277C166.615 225.708 166.978 224.949 166.071 224.608C165.074 224.228 164.847 225.063 164.484 225.594C162.988 227.832 161.266 229.843 158.682 231.285C157.82 231.778 157.05 231.968 156.007 231.626C149.751 229.577 143.495 227.529 138.055 224.114C136.332 223.052 134.7 223.052 133.159 224.342C129.124 227.794 124.5 230.64 119.922 233.485C118.97 234.092 117.972 234.699 117.338 235.572C116.839 236.254 116.748 237.013 117.247 237.734C117.655 238.417 118.426 238.645 119.604 238.607Z" fill="#EDCF5D"/>
<path d="M84.3352 231.247C90.8632 228.781 97.9805 229.881 103.466 234.244C106.141 236.368 108.679 238.645 110.719 241.224C115.389 247.143 122.279 250.102 130.213 251.657C136.831 252.947 143.586 253.63 150.386 253.213C157.05 252.833 163.351 251.43 169.335 248.736C178.221 244.753 186.789 240.428 194.45 234.965C199.165 231.588 204.015 228.439 209.319 225.746C210.045 225.404 210.77 225.101 211.495 224.759C211.949 226.011 212.946 225.936 214.17 225.632C218.205 224.684 222.013 223.166 225.911 221.952C228.767 221.08 231.578 219.979 234.615 219.6C235.295 226.505 234.253 233.068 229.991 239.176C229.674 239.669 228.949 240.2 229.719 240.845C230.173 242.476 231.442 242.476 232.757 241.68C234.389 240.693 235.839 239.517 237.335 238.417C238.197 238.72 238.197 239.403 238.242 240.01C238.287 241.566 238.333 243.121 238.151 244.677C237.97 246.308 237.018 247.939 237.653 249.646C236.655 251.543 234.933 252.985 233.391 254.54C227.135 260.724 219.338 265.428 211.994 270.55C200.253 278.707 188.33 286.673 174.957 292.895C159.634 300.027 143.541 305.187 126.087 307.008C98.6605 309.853 74.0446 304.049 52.1486 289.974C47.0712 286.711 42.7646 283.069 40.5432 277.91C39.0926 274.533 38.4579 271.195 39.4099 267.705C40.7699 262.811 41.3139 257.879 41.6766 252.909C42.9912 255.603 44.3512 258.296 45.3032 261.104C43.9886 261.255 43.7165 261.824 44.2605 262.849C45.8925 265.96 47.8872 268.805 50.9246 271.081C55.6392 274.533 61.2606 274.382 65.7032 270.664C69.6019 267.363 71.3699 263.152 72.7299 258.827C73.1832 258.562 73.4099 258.865 73.7272 259.017C74.6792 259.434 75.7219 260.421 76.6739 259.321C77.5805 258.258 76.2206 257.613 75.4499 257.006C73.5912 255.451 71.9139 253.782 70.6446 251.809C76.1752 250.974 81.7966 246.194 82.6126 241.566C82.7939 240.504 82.8392 239.403 81.3886 238.796C80.8899 237.013 79.2579 236.33 76.9912 235.951C79.2126 234.471 81.5699 233.789 83.9272 233.144C85.2872 232.764 86.2392 232.233 84.3352 231.247ZM109.269 281.666C109.269 274.533 108.815 267.401 108.226 260.307C107.999 257.537 107.41 254.806 106.866 252.074C106.503 250.216 105.551 249.798 103.557 250.595C93.9006 254.502 84.3806 258.751 75.1326 263.304C73.5912 264.063 73.6366 264.746 74.2259 265.846C78.7139 274.533 84.2445 282.728 90.7272 290.505C93.4925 293.806 96.2579 297.144 100.293 299.496C103.33 301.279 105.823 300.71 107.41 297.903C107.773 297.22 108.09 296.499 108.271 295.778C109.541 291.15 109.269 286.408 109.269 281.666Z" fill="#FBF1EE"/>
<path d="M60.3531 173.923C59.2651 169.864 60.9425 166.184 62.7558 162.618C65.6118 157.003 69.8278 152.071 74.4518 147.405C75.1771 146.684 76.9451 145.774 75.5398 144.749C73.9984 143.649 73.3638 145.356 72.4118 146.039C70.9611 147.139 70.3718 148.96 67.6518 148.998C61.2598 149.112 58.5851 147.215 58.4038 141.866C58.2678 137.427 59.8091 133.254 61.7584 129.195C65.5211 121.304 70.9158 114.172 76.9904 107.381C77.6251 106.66 79.0758 105.598 78.2145 105.067C77.1265 104.384 76.3104 105.863 75.5851 106.546C71.6864 110.226 68.3318 114.285 65.3398 118.534C64.6598 119.483 63.8891 119.938 62.7104 119.976C61.2598 120.014 59.8091 120.128 58.4038 120.014C54.0064 119.635 52.2838 117.32 52.7825 112.844C53.7798 103.322 58.4944 94.8994 64.0704 86.7428C66.0651 83.8596 68.1504 81.0143 70.1904 78.131C71.0518 76.955 71.0518 75.5513 71.0518 74.2614C71.2784 60.9453 71.0064 47.6293 67.9238 34.465C67.4251 32.3025 66.8811 30.1401 65.7931 28.1294C63.9798 24.8288 60.4891 23.6148 56.4998 24.9047C53.9611 25.7014 51.9665 27.143 50.1078 28.6985C41.6305 35.8307 35.5558 44.2908 30.8864 53.4716C22.9078 69.1398 17.6944 85.453 14.8838 102.335C13.1611 112.616 12.2091 122.897 12.7531 133.292C13.2971 143.991 14.7478 154.613 17.4225 165.122C19.2358 172.254 20.0518 179.538 22.5904 186.556C23.9051 190.236 25.3558 193.878 27.3504 197.331C28.1664 198.81 28.3931 200.214 27.8945 201.693C27.5318 202.794 27.9398 203.552 29.1184 203.742C30.4784 203.97 30.8865 204.728 31.2945 205.639C32.3371 208.067 33.8331 210.343 35.4651 212.544C34.0598 213.606 33.2891 215.01 32.5184 216.451C31.7478 217.855 31.5211 219.486 29.9798 220.548C24.1771 212.392 20.7771 203.401 17.3318 194.447C7.49444 168.688 4.59311 142.245 5.77178 115.31C6.81444 91.9023 13.3878 69.5951 23.7238 48.0086C28.9371 37.1206 35.1478 26.536 44.3051 17.431C48.2038 13.5235 52.6464 10.147 57.9504 7.60521C65.5664 3.92527 71.1424 4.98752 75.7664 11.2851C80.4358 17.6586 83.0651 24.715 84.6971 31.999C86.8278 41.3696 87.6891 50.8919 89.0038 60.3763C90.5451 71.7955 92.9025 83.1388 94.7158 94.52C96.5745 105.901 99.0678 117.207 102.83 128.284C104.87 134.241 107.409 140.045 109.857 145.887C109.494 145.963 109.132 145.963 108.769 146.115C97.0278 150.44 85.7398 155.486 75.2678 161.707C69.5558 165.16 64.1158 168.84 60.3531 173.923Z" fill="#ECCE5D"/>
<path d="M56.5006 134.923C56.4553 135.151 56.4553 135.379 56.4099 135.606C55.8206 135.758 55.6393 136.024 56.1379 136.441C56.0473 137.048 55.9566 137.617 55.8659 138.224C55.3219 138.452 55.1406 138.717 55.6846 139.097C55.6393 139.969 55.5939 140.804 55.5486 141.676C54.1433 142.776 54.8233 144.18 54.9139 145.394C55.0499 149.036 55.5486 152.716 59.4019 155.068C61.1699 156.13 61.1699 157.003 60.5353 158.483C58.0873 164.287 55.5486 170.129 56.1833 176.465C50.7886 174.075 45.3939 171.685 40.0446 169.257C37.4153 168.081 36.4179 168.384 35.7379 170.85C33.6073 178.665 31.5219 186.48 29.4366 194.296C29.3006 194.713 29.3459 195.168 28.8019 195.623C26.3086 191.299 24.8579 186.708 23.6793 182.08C20.8686 170.888 17.9673 159.659 16.4713 148.277C15.3833 140.083 14.5673 131.813 15.0659 123.504C16.6073 96.7962 23.0899 71.0746 37.5513 47.0222C41.3139 40.8005 46.1193 35.1478 52.0126 30.178C52.6926 29.6089 53.3273 28.964 54.2793 28.6225C57.5886 28.319 59.1753 29.9883 60.3086 32.2266C61.2153 34.0476 62.0766 35.8307 62.5299 37.7655C65.2046 49.4502 65.5673 61.2867 65.7486 73.1612C65.7939 76.7652 64.9326 79.7623 62.3486 82.8732C57.5886 88.5258 53.9619 94.8235 51.3326 101.463C48.9299 107.533 47.0259 113.64 47.9779 120.166C48.6579 124.87 52.2846 128.171 56.8633 127.488C59.4926 127.108 58.7673 127.981 58.2686 129.157C57.4526 131.092 56.1379 132.837 56.5006 134.923Z" fill="#FBF1EE"/>
<path d="M63.2547 207.763C57.4974 206.815 51.74 205.829 45.9374 204.994C41.1774 204.311 36.644 202.907 31.9294 202.035C30.9774 201.883 30.8414 201.58 31.068 200.745C33.5614 191.526 36.0094 182.269 38.412 173.051C38.6387 172.102 38.8654 171.913 39.9987 172.368C50.4707 176.844 60.852 181.397 70.5987 186.974C71.6414 187.581 71.9587 188.112 71.596 189.136C69.4654 194.903 67.7427 200.783 65.2947 206.474C64.932 207.346 64.5694 207.991 63.2547 207.763Z" fill="#F4FB95"/>
<path d="M45.3034 261.104C44.3514 258.296 42.9914 255.603 41.6767 252.909C40.906 249.305 41.2687 245.625 40.4074 242.021C40.226 241.338 40.1354 240.655 39.954 239.972C39.818 239.403 39.9087 238.986 40.8154 238.986C42.3114 238.948 42.266 238.113 42.3114 237.127C42.6287 232.157 43.762 227.377 46.482 222.938C47.298 221.573 48.3407 220.359 49.6554 219.296C52.738 216.793 55.7754 216.565 59.7194 218.689C57.3167 220.055 55.6394 221.838 54.1434 223.811C50.3807 228.743 49.61 234.244 49.474 239.934C49.4287 241.414 50.698 241.945 52.194 242.287C56.5914 243.273 56.818 243.463 53.69 246.232C50.8794 248.698 51.378 251.429 51.786 254.199C52.194 256.93 53.2367 259.586 54.6874 262.09C56.6367 265.542 59.4927 268.008 64.298 268.388C62.0767 271.423 58.2234 272.333 54.642 270.626C50.9247 268.881 48.794 265.997 46.8447 262.962C46.346 262.28 46.1194 261.521 45.3034 261.104Z" fill="#FAFAFA"/>
<path d="M56.4999 134.923C56.1372 132.837 57.4519 131.092 58.2225 129.233C58.7212 128.019 59.4465 127.184 56.8172 127.564C52.2385 128.208 48.6119 124.946 47.9319 120.242C46.9799 113.716 48.8839 107.608 51.2865 101.538C53.9159 94.9373 57.5425 88.6397 62.3025 82.9491C64.9319 79.8382 65.7479 76.8411 65.7025 73.2371C65.5212 61.3626 65.1585 49.5261 62.4839 37.8414C62.0305 35.9066 61.1692 34.0856 60.2625 32.3025C59.1292 30.0262 57.4972 28.3949 54.2332 28.6984C54.8225 27.9776 55.7292 27.6362 56.5905 27.2947C59.9452 25.8911 62.4385 26.6877 63.7985 29.6089C65.3399 32.9095 65.8385 36.4377 66.5185 39.9279C68.6039 51.0816 68.5132 62.3111 68.0599 73.5406C67.9239 76.3859 67.1079 78.738 65.2492 81.0901C59.0839 88.8673 54.1425 97.1377 51.4225 106.205C50.3799 109.695 49.6545 113.261 50.5612 116.865C51.3772 120.204 53.9159 121.949 57.9959 122.101C59.4919 122.138 60.9879 122.101 62.8012 122.101C61.8945 123.77 60.9879 125.249 60.2172 126.767C58.9479 129.46 57.7692 132.192 56.4999 134.923Z" fill="#A0908A"/>
<path d="M60.3534 173.923C64.1161 168.84 69.5561 165.122 75.2681 161.745C85.7401 155.523 97.0281 150.478 108.769 146.153C109.087 146.039 109.495 146.001 109.857 145.925C110.945 147.974 111.988 150.098 113.212 152.109C114.073 153.475 113.348 153.74 111.943 153.816C104.417 154.196 97.2094 155.637 90.3187 158.179C79.7561 162.049 70.4628 167.436 62.5748 174.492C62.1214 174.872 61.7587 175.63 61.0334 175.403C60.4894 175.251 60.2627 174.53 60.3534 173.923Z" fill="#937234"/>
<path d="M36.2359 279.427C34.8759 279.2 33.8332 278.441 32.6999 277.872C27.8492 275.444 27.3506 274.23 29.6626 269.943C30.6599 268.046 30.6599 266.415 29.0279 264.67C26.3532 261.862 26.4439 259.207 29.3452 256.475C31.5212 254.427 34.0599 252.606 36.5986 250.595C36.9159 254.882 36.4626 259.131 35.2386 263.266C33.6519 268.691 33.2439 273.964 36.3266 279.124C36.3719 279.2 36.2812 279.351 36.2359 279.465C36.1906 279.503 36.2359 279.427 36.2359 279.427Z" fill="#E6C95B"/>
<path d="M74.4526 190.616C76.538 191.299 77.3087 192.55 76.402 194.523C73.9993 199.91 71.5513 205.26 68.9673 210.571C67.8793 212.809 66.61 213.188 63.754 212.847C56.3646 211.937 49.1567 210.457 41.9033 209.015C42.13 207.156 43.354 207.043 45.3033 207.384C51.242 208.446 57.226 209.357 63.21 210.267C66.2927 210.76 67.154 210.267 68.0606 207.688C70.01 202.414 71.914 197.103 73.8633 191.83C73.9993 191.412 74.2713 191.033 74.4526 190.616Z" fill="#937234"/>
<path d="M229.81 240.845C229.039 240.2 229.764 239.631 230.082 239.176C234.343 233.106 235.386 226.505 234.706 219.6C235.794 219.259 236.882 219.183 238.015 219.183C242.186 219.183 243.455 220.397 242.639 223.887C241.642 228.25 238.922 231.968 235.612 235.344C233.708 237.241 231.714 239.024 229.81 240.845Z" fill="#A0908A"/>
<path d="M56.183 176.503C55.5484 170.167 58.087 164.325 60.5351 158.521C61.1697 157.041 61.1697 156.168 59.4017 155.106C55.5484 152.754 55.0497 149.074 54.9137 145.432C54.8684 144.218 54.143 142.814 55.5484 141.714C55.639 142.132 55.7297 142.587 55.775 143.004C56.863 149.036 59.583 151.161 66.8817 151.692C67.1084 152.488 66.2924 152.906 65.8844 153.437C62.5297 157.876 59.447 162.428 58.2684 167.663C57.5884 170.585 57.4524 173.544 58.9937 176.389C59.2204 176.768 59.7644 177.148 59.2657 177.565C58.6764 178.096 58.1777 177.413 57.7244 177.262C57.1804 177.072 56.6817 176.731 56.183 176.503Z" fill="#A0908A"/>
<path d="M57.498 229.388C55.73 232.423 54.914 235.685 54.2793 238.986C54.1886 239.479 54.6873 240.276 53.554 240.276C52.7833 240.276 52.1033 239.897 52.1486 239.1C52.3753 232.499 54.0526 226.353 59.7193 221.383C61.3513 219.941 62.666 220.245 63.5273 222.104C63.6633 222.445 63.7993 222.749 63.346 222.901C61.8046 223.356 61.2606 224.684 59.9913 225.366C56.8633 225.177 55.9566 226.618 57.498 229.388Z" fill="#864E37"/>
<path d="M54.6872 248.47C55.8206 252.226 57.1352 255.868 59.6739 259.131C61.3966 261.331 62.9832 263.683 66.1566 264.708C66.7006 264.897 67.1086 265.163 66.7006 265.694C66.3832 266.111 66.2926 266.567 65.3859 266.415C61.8499 265.77 58.9939 264.442 57.2712 261.597C55.1406 258.069 54.0979 254.313 53.5539 250.405C53.4179 249.608 53.5539 248.888 54.6872 248.47Z" fill="#864E37"/>
<path d="M29.8896 220.662C31.4763 219.6 31.6577 217.969 32.4283 216.565C33.199 215.123 33.9697 213.72 35.375 212.657C36.5537 213.53 36.6443 214.554 36.3723 215.844C35.5563 219.448 34.967 223.052 34.3776 226.922C32.8816 224.835 31.3856 222.749 29.8896 220.662Z" fill="#937234"/>
<path d="M81.3429 238.758C82.7936 239.365 82.7482 240.428 82.5669 241.528C81.7509 246.156 76.1749 250.936 70.5989 251.771C69.7829 250.898 68.9669 250.064 68.7402 248.888C74.8602 248.546 80.4362 244.032 81.3429 238.758Z" fill="#A0908A"/>
<path d="M237.698 249.646C237.063 247.939 237.97 246.346 238.196 244.677C238.378 243.121 238.378 241.566 238.287 240.01C238.287 239.403 238.242 238.72 237.38 238.417C238.287 237.317 239.33 236.52 241.098 237.165C242.866 237.772 242.956 239.024 242.82 240.314C242.367 243.88 240.599 246.991 237.698 249.646Z" fill="#A0908A"/>
<path d="M77.8527 238.531C79.122 238.834 78.6687 239.555 78.3514 240.2C77.082 242.704 74.906 244.601 72.2767 246.118C69.9647 247.446 68.514 246.839 67.97 244.525C67.834 243.918 67.7887 243.273 68.1514 242.666C72.2767 242.742 75.0874 240.655 77.8527 238.531Z" fill="#513124"/>
<path d="M77.8527 238.531C75.0874 240.655 72.2767 242.742 68.1514 242.666C69.1034 239.479 74.0447 237.393 77.8527 238.531Z" fill="#864E37"/>
<path d="M57.4975 229.388C55.9562 226.618 56.8175 225.177 59.9909 225.328C60.3082 225.746 60.6255 226.163 60.8975 226.618C61.3962 227.567 61.2149 228.477 60.3989 229.236C59.5375 230.071 58.4949 229.843 57.4975 229.388Z" fill="#FBF1EE"/>
<path d="M35.3745 209.281C34.3772 207.953 33.6518 206.549 33.0625 204.918C34.9665 205.184 36.6438 205.601 38.2758 206.17C37.1878 207.118 36.7798 208.522 35.3745 209.281Z" fill="#FBF1EE"/>
<path d="M35.375 209.281C36.7803 208.522 37.2337 207.156 38.2763 206.132C39.2737 206.208 39.8177 206.436 39.319 207.422C38.639 208.788 38.095 210.229 37.415 211.709C36.327 211.102 35.919 210.154 35.375 209.281Z" fill="#A0908A"/>
<path d="M65.1133 258.562C65.068 259.434 64.524 259.814 63.6626 259.738C62.1666 259.586 61.396 258.751 61.3506 257.575C61.3053 256.817 62.0306 256.286 62.9826 256.323C64.7053 256.437 64.7506 257.651 65.1133 258.562Z" fill="#864E37"/>
<path d="M55.6839 139.097C55.1399 138.717 55.3213 138.452 55.8653 138.224C56.1373 138.603 56.1826 138.907 55.6839 139.097Z" fill="#A0908A"/>
<path d="M56.183 136.441C55.6843 136.024 55.8656 135.758 56.455 135.606C56.591 135.948 56.6816 136.289 56.183 136.441Z" fill="#A0908A"/>
<path d="M34.2865 234.509C34.2865 234.661 34.2865 234.813 34.2865 234.965C34.1505 234.889 34.0145 234.813 33.9238 234.775C34.0145 234.661 34.1505 234.585 34.2865 234.509Z" fill="#FEFEFE"/>
<path d="M36.1914 279.503C36.3274 279.389 36.4634 279.389 36.5087 279.579C36.5087 279.617 36.4634 279.693 36.4181 279.731C36.3274 279.655 36.2821 279.541 36.1914 279.465C36.2367 279.427 36.1914 279.503 36.1914 279.503Z" fill="#E6C95B"/>
<path d="M203.063 191.792C201.748 187.96 200.298 184.166 198.394 180.486C199.663 179.917 198.711 179.272 198.394 178.779C193.226 171.761 187.287 165.349 178.583 161.1C178.9 160.266 179.852 160.076 180.578 159.697C190.098 154.423 197.94 147.86 202.746 139.135C206.644 132.04 209.092 124.642 205.375 116.827C204.876 115.765 205.466 115.196 206.327 114.589C213.58 109.202 219.066 102.752 222.42 95.165C224.37 90.8401 226.002 86.4014 224.959 81.6971C224.642 80.2176 225.004 79.2691 226.228 78.2069C232.575 72.5921 237.879 66.4083 239.511 58.5553C239.828 57.0378 240.372 55.4823 239.148 54.0407C239.33 50.816 237.97 48.3501 234.298 46.9464C234.252 45.96 234.66 45.0875 235.159 44.2528C236.791 41.5593 239.058 39.2071 241.143 36.7412C242.684 34.9202 245.223 33.7441 246.084 31.4679C248.079 30.8988 249.575 31.6955 250.98 32.7198C252.839 34.0856 253.836 35.9445 254.698 37.8414C257.372 43.7596 257.916 49.9814 258.188 56.2031C258.596 64.8529 257.644 73.4647 256.375 82.0386C254.788 92.8508 252.34 103.511 249.212 114.058C243.636 132.647 236.882 150.933 226.591 168.119C222.148 175.517 217.298 182.725 209.999 188.453C208.004 190.009 205.874 191.412 203.063 191.792Z" fill="#FBF1EE"/>
<path d="M203.063 191.792C205.873 191.45 208.004 190.047 209.953 188.491C217.252 182.725 222.103 175.555 226.545 168.157C236.836 150.933 243.591 132.685 249.167 114.096C252.34 103.549 254.743 92.8508 256.329 82.0765C257.599 73.5027 258.551 64.8908 258.143 56.2411C257.871 50.0193 257.281 43.7976 254.652 37.8793C253.791 35.9825 252.793 34.1235 250.935 32.7578C249.575 31.7335 248.033 30.9368 246.039 31.5058C243.636 31.5058 241.777 32.606 240.009 33.7442C234.751 37.1585 231.124 41.6731 227.316 46.4912C229.855 46.2635 232.076 46.567 234.207 47.0223C237.833 48.426 239.193 50.8919 239.057 54.1166C238.377 57.6448 236.383 60.6418 233.844 63.4492C229.9 67.7362 225.185 71.3782 219.927 74.489C218.793 75.1719 218.385 75.5133 219.7 76.4997C222.647 78.738 223.463 81.6971 223.145 84.9598C222.692 89.4364 220.289 93.306 217.388 96.948C212.764 102.677 206.78 107.305 200.116 111.288C199.073 111.895 198.801 112.199 199.889 113.034C202.247 114.855 203.425 117.169 204.015 119.824C204.831 123.656 203.969 127.26 202.337 130.75C197.305 141.487 188.103 149.188 176.497 155.03C174.548 156.017 172.463 156.813 170.06 157.838C173.369 158.672 175.999 159.848 178.583 161.138C187.287 165.387 193.225 171.799 198.393 178.817C198.756 179.31 199.663 179.955 198.393 180.524C195.175 177.186 192.047 173.771 188.737 170.547C183.207 165.198 176.316 161.442 168.428 158.9C167.385 158.559 166.524 158.71 165.617 158.938C161.991 159.924 158.273 160.228 154.465 160.038C153.74 160 153.015 159.886 153.06 159.128C153.105 158.445 153.831 158.445 154.42 158.445C166.161 158.634 175.591 154.12 184.204 148.126C191.911 142.739 197.94 136.289 200.887 128.057C201.975 124.984 202.383 121.873 201.204 118.762C200.887 117.852 200.479 116.979 199.844 116.182C197.668 113.337 196.988 113.185 193.588 114.855C189.145 117.017 184.567 118.838 179.671 120.128C178.809 120.355 177.404 121.266 176.951 120.052C176.588 119.104 178.22 119.028 179.036 118.762C191.639 114.665 202.519 108.519 211.449 100.021C215.62 96.0375 219.156 91.7506 220.425 86.4393C221.196 83.2905 220.833 80.2555 217.841 77.8655C216.753 76.9929 215.756 76.7273 214.305 77.562C211.676 79.0415 208.82 80.2176 205.873 81.1281C205.329 81.2798 204.513 81.8489 204.06 81.1281C203.561 80.2935 204.559 80.0279 205.193 79.8003C211.54 77.2585 217.479 74.1476 222.828 70.3159C226.863 67.4327 230.535 64.2459 233.391 60.4901C234.615 58.8208 235.703 57.1136 236.247 55.1788C237.335 51.3092 235.249 48.8433 230.535 48.5777C229.084 48.5018 227.679 48.5398 226.228 48.5398C224.777 48.5398 224.007 48.0845 224.868 46.7947C228.54 41.2178 232.711 36.0204 238.695 31.9611C239.556 31.3541 240.553 30.8609 241.551 30.4057C246.673 28.1673 251.297 29.1537 254.516 33.1751C257.508 36.855 258.641 41.104 259.321 45.4289C261.044 56.279 260.409 67.0912 258.959 77.9034C255.105 106.774 246.583 134.62 232.801 161.328C228.359 169.902 223.191 178.134 216.255 185.532C214.033 187.922 211.54 190.123 208.503 191.868C207.143 192.664 205.692 193.271 204.06 193.651C203.108 193.878 201.884 194.258 201.476 193.271C200.887 192.095 202.428 192.209 203.063 191.792Z" fill="#090805"/>
<path d="M114.572 215.844C110.628 216.072 110.538 216.11 109.812 212.771C108.226 205.335 106.503 197.938 105.642 190.388C105.46 188.795 106.639 188.453 107.863 187.998C120.375 183.18 132.978 178.476 145.852 174.416C148.436 173.582 151.066 172.747 153.695 171.988C157.367 170.888 157.911 171.154 158.682 174.378C158.954 175.858 159.316 177.338 159.543 178.855C160.767 187.429 162.716 195.889 164.756 204.311C165.436 207.156 165.391 207.422 162.036 208.181C161.447 208.295 160.858 208.446 160.268 208.56C145.127 211.519 129.94 214.099 114.572 215.844ZM108.18 191.64C109.268 198.848 110.719 205.525 112.034 212.24C112.306 213.682 113.258 213.568 114.572 213.416C128.399 211.519 142.09 209.053 155.78 206.512C157.322 206.208 159.316 206.246 160.268 205.449C161.311 204.577 159.951 203.021 159.951 201.693C159.951 201.618 159.951 201.58 159.951 201.504C158.682 193.006 157.684 184.47 156.007 176.01C155.735 174.53 155.282 174.378 153.604 174.91C138.644 179.424 124.274 185.001 109.586 190.085C108.18 190.54 107.999 191.147 108.18 191.64Z" fill="#060605"/>
<path d="M114.572 215.844C129.94 214.099 145.172 211.519 160.268 208.56C160.858 208.446 161.447 208.333 162.036 208.181C165.391 207.422 165.482 207.156 164.756 204.311C162.716 195.851 160.767 187.391 159.543 178.855C159.316 177.376 158.954 175.896 158.682 174.378C159.452 174.606 160.132 174.303 160.858 174.075C164.031 172.975 165.527 173.544 166.071 176.427C166.751 179.917 167.25 183.408 167.658 186.898C168.383 193.044 168.338 199.228 170.332 205.222C170.967 207.156 169.879 208.295 167.295 208.902C159.135 210.912 150.703 212.012 142.407 213.416C134.746 214.706 127.084 215.958 119.378 217.096C117.61 217.362 115.434 218.082 114.572 215.844Z" fill="#937234"/>
<path d="M119.604 238.607C118.426 238.645 117.655 238.417 117.202 237.734C116.703 237.013 116.748 236.292 117.292 235.572C117.927 234.699 118.924 234.092 119.876 233.485C124.5 230.64 129.079 227.756 133.114 224.342C134.61 223.052 136.287 223.052 138.01 224.114C143.45 227.529 149.706 229.577 155.962 231.626C157.05 231.968 157.775 231.778 158.636 231.285C161.22 229.843 162.988 227.794 164.439 225.594C164.802 225.063 165.028 224.228 166.026 224.608C166.932 224.949 166.57 225.708 166.298 226.277C164.666 229.843 162.671 233.219 158.455 235.23C156.914 235.951 155.372 236.103 153.695 235.572C147.938 233.864 142.362 231.74 137.194 229.008C136.06 228.401 135.426 228.477 134.519 229.236C130.484 232.499 125.86 235.116 121.327 237.886C120.738 238.265 120.103 238.607 119.604 238.607Z" fill="#060605"/>
<path d="M109.268 281.666C109.268 286.408 109.495 291.15 108.271 295.816C108.089 296.537 107.772 297.258 107.409 297.941C105.823 300.748 103.329 301.317 100.292 299.534C96.2572 297.182 93.4465 293.844 90.7265 290.543C84.2892 282.766 78.7132 274.571 74.2252 265.884C73.6358 264.746 73.5905 264.101 75.1318 263.342C84.4252 258.789 93.8998 254.54 103.556 250.633C105.551 249.836 106.503 250.216 106.865 252.112C107.409 254.844 107.953 257.575 108.225 260.345C108.86 267.401 109.313 274.533 109.268 281.666ZM81.1612 274.306C85.2865 279.959 89.0038 285.725 93.7185 290.998C96.0305 293.578 98.2065 296.234 101.38 298.131C103.239 299.231 104.372 299.003 105.279 297.296C105.596 296.689 105.913 296.006 105.959 295.323C106.276 292.705 106.775 290.05 106.775 287.432C106.775 281.704 106.548 275.937 106.321 270.209C106.276 268.388 105.959 266.567 105.732 264.594C103.103 265.732 101.652 264.366 100.156 263.228C99.1132 262.469 98.2519 262.128 96.9825 262.773C93.5825 264.556 90.2278 266.339 87.0998 268.463C86.4198 268.919 86.0572 269.45 86.0118 270.209C85.7398 273.471 85.2412 273.889 81.1612 274.306ZM105.913 262.09C105.551 259.434 105.324 257.12 104.916 254.806C104.463 252.378 104.417 252.454 101.607 253.516C93.0838 256.855 85.3318 261.369 76.7638 264.632C75.9025 264.973 76.3105 265.239 76.4918 265.618C77.4892 267.781 78.5772 269.905 80.7985 271.498C81.5238 272.03 82.2492 272.409 83.2012 272.181C84.1532 271.954 84.1532 271.081 84.1079 270.626C83.7905 268.198 85.6492 266.946 87.6438 265.77C89.6385 264.632 91.6332 263.532 93.6279 262.356C96.8465 260.421 99.9745 259.396 103.012 262.621C103.193 262.811 103.511 263 103.783 263C104.825 263.114 105.868 263 105.913 262.09Z" fill="#090805"/>
<path d="M178.583 161.1C176.044 159.81 173.369 158.634 170.06 157.8C172.508 156.737 174.548 155.941 176.497 154.992C188.148 149.15 197.305 141.449 202.337 130.712C203.969 127.222 204.831 123.58 204.015 119.786C203.425 117.131 202.247 114.817 199.889 112.996C198.801 112.161 199.073 111.895 200.116 111.25C206.78 107.229 212.764 102.639 217.388 96.91C220.335 93.268 222.692 89.3984 223.145 84.9218C223.463 81.6971 222.647 78.7001 219.7 76.4617C218.385 75.4754 218.793 75.096 219.927 74.4511C225.185 71.3402 229.9 67.6982 233.844 63.4112C236.383 60.6418 238.377 57.6068 239.057 54.0786C240.281 55.5202 239.737 57.0757 239.42 58.5932C237.788 66.4462 232.529 72.6301 226.137 78.2448C224.913 79.3071 224.551 80.2555 224.868 81.735C225.911 86.4393 224.279 90.878 222.329 95.2029C218.929 102.79 213.444 109.24 206.236 114.627C205.375 115.272 204.785 115.841 205.284 116.865C209.001 124.68 206.599 132.078 202.655 139.172C197.849 147.86 190.007 154.461 180.487 159.735C179.852 160.076 178.855 160.266 178.583 161.1Z" fill="#A0908A"/>
<path d="M234.297 46.9464C232.121 46.4911 229.945 46.1876 227.407 46.4153C231.215 41.5972 234.841 37.0826 240.1 33.6682C241.868 32.5301 243.727 31.4299 246.129 31.4299C245.268 33.7062 242.729 34.8822 241.188 36.7032C239.103 39.1692 236.836 41.5213 235.204 44.2149C234.66 45.0874 234.252 45.96 234.297 46.9464Z" fill="#A0908A"/>
<path d="M108.18 191.64C107.999 191.147 108.18 190.54 109.495 190.085C124.183 185.039 138.554 179.424 153.514 174.91C155.191 174.416 155.599 174.568 155.916 176.01C157.594 184.47 158.636 193.006 159.86 201.504C159.86 201.58 159.86 201.618 159.86 201.693C159.86 202.983 161.22 204.539 160.178 205.449C159.226 206.246 157.231 206.208 155.69 206.511C141.999 209.053 128.308 211.519 114.482 213.416C113.212 213.606 112.26 213.682 111.943 212.24C110.719 205.525 109.268 198.848 108.18 191.64Z" fill="#F4FB95"/>
<path d="M81.1611 274.306C85.2411 273.888 85.7851 273.509 86.1025 270.246C86.1931 269.488 86.5105 268.957 87.1905 268.501C90.3185 266.377 93.6731 264.594 97.0731 262.811C98.3425 262.128 99.2491 262.469 100.246 263.266C101.742 264.404 103.238 265.77 105.822 264.632C106.049 266.604 106.321 268.425 106.412 270.246C106.638 275.975 106.865 281.742 106.865 287.47C106.865 290.088 106.366 292.743 106.049 295.361C105.958 296.044 105.686 296.727 105.369 297.334C104.462 299.041 103.329 299.307 101.47 298.168C98.2971 296.234 96.0758 293.578 93.8091 291.036C89.0038 285.725 85.2865 279.958 81.1611 274.306Z" fill="#B0603E"/>
<path d="M105.913 262.09C105.868 263 104.825 263.076 103.737 263.038C103.465 263.038 103.148 262.849 102.967 262.659C99.9748 259.434 96.8014 260.459 93.5828 262.393C91.6334 263.57 89.5934 264.67 87.5988 265.808C85.5588 266.984 83.7454 268.236 84.0628 270.664C84.1081 271.119 84.1081 271.992 83.1561 272.219C82.2041 272.447 81.5241 272.067 80.7534 271.536C78.5774 269.943 77.4894 267.818 76.4468 265.656C76.2654 265.277 75.9028 265.011 76.7188 264.67C85.2414 261.407 93.0388 256.855 101.561 253.554C104.372 252.454 104.417 252.416 104.871 254.844C105.369 257.12 105.551 259.434 105.913 262.09Z" fill="#FAFAFA"/>
<path d="M56.3164 418.283C67.0604 414.825 78.3484 413.495 89.6817 412.773C100.516 412.051 111.396 411.823 122.276 412.089C135.786 412.431 149.295 412.545 162.804 412.811C175.906 413.077 189.052 413.571 201.882 416.155C204.058 416.611 206.234 417.181 208.41 417.713C208.228 420.107 209.634 422.083 210.858 424.097C214.711 430.405 218.61 436.751 222.463 443.059C222.463 444.275 222.508 445.529 221.828 446.669C221.556 446.783 221.33 446.897 221.058 446.973C211.81 449.595 202.244 451.039 192.498 451.419C185.335 451.723 178.172 451.989 171.01 451.267C170.103 451.191 169.378 451.001 168.743 450.317C166.522 447.847 163.983 445.567 161.898 443.021C159.586 440.209 156.684 439.487 152.74 439.867C144.127 440.627 135.468 440.779 126.764 440.247C119.103 439.791 111.487 438.993 103.871 437.967C102.874 437.815 101.604 437.625 101.106 438.689C100.516 439.905 101.967 440.057 102.783 440.551C102.692 441.425 103.236 442.109 103.871 442.793C107.271 446.517 111.034 449.937 115.522 452.825C115.93 453.091 116.474 453.243 116.383 453.813C110.082 456.511 103.327 455.941 96.6631 455.523C89.6817 455.067 83.1537 453.129 76.5351 451.381C73.3164 450.545 71.5031 449.367 70.2337 446.707C68.0577 442.071 65.4284 437.587 63.2524 432.951C60.9404 428.011 58.9911 423.033 56.3164 418.283Z" fill="#EDD05E"/>
<path d="M102.737 440.513C101.967 440.019 100.471 439.867 101.06 438.651C101.559 437.587 102.828 437.777 103.825 437.929C111.396 438.955 119.012 439.753 126.719 440.209C135.423 440.741 144.081 440.627 152.695 439.829C156.639 439.487 159.54 440.171 161.852 442.983C163.937 445.529 166.476 447.809 168.697 450.279C169.332 451.001 170.057 451.153 170.964 451.229C178.127 451.951 185.289 451.685 192.452 451.381C202.199 451.001 211.764 449.557 221.012 446.935C221.284 446.859 221.556 446.707 221.783 446.631C224.639 446.099 224.639 446.099 223.279 444.085C223.007 443.705 222.689 443.363 222.417 443.021C218.564 436.713 214.665 430.367 210.812 424.059C209.588 422.045 208.137 420.107 208.364 417.675C210.359 415.927 211.9 416.117 213.215 418.245C218.383 426.757 223.596 435.231 228.764 443.705C228.991 444.085 229.036 444.617 229.761 444.617C231.892 444.579 232.663 445.871 233.524 447.201C234.884 449.253 236.289 451.267 237.105 453.509C237.649 455.029 237.74 456.397 235.927 457.347C235.337 457.651 235.383 457.993 235.609 458.449C236.425 460.235 237.377 461.869 239.644 462.819C242.409 463.959 245.084 465.289 247.759 466.581C249.209 467.303 250.705 468.139 250.479 469.773C250.252 471.369 248.62 471.977 246.988 472.433C242.228 473.763 237.287 474.295 232.3 474.637C222.825 475.283 213.305 475.739 203.831 475.853C197.076 475.967 190.457 474.941 183.793 474.257C182.071 474.067 180.665 473.421 179.668 472.167C177.809 469.849 175.86 467.607 174.092 465.251C173.457 464.415 172.823 463.997 171.644 463.921C170.692 463.883 169.74 463.617 168.743 463.465C165.751 462.971 163.711 461.641 162.849 459.095C162.351 457.651 161.625 456.245 161.036 454.801C160.537 453.623 160.583 452.483 161.897 451.723C162.849 451.153 162.668 450.697 162.033 450.051C160.401 448.417 158.724 446.745 157.228 445.035C156.367 444.047 155.324 443.743 153.919 443.895C145.441 444.807 136.919 445.187 128.396 444.579C127.353 444.503 126.945 444.845 126.628 445.605C126.129 446.859 125.449 448.075 124.815 449.291C124.271 450.355 123.319 451.267 124.951 452.369C125.676 452.901 125.268 453.927 124.996 454.725C124.089 457.081 123.047 459.361 121.777 461.603C120.961 463.047 119.919 464.225 118.015 464.643C117.289 464.833 116.972 465.099 116.836 465.783C116.292 468.177 114.977 470.305 113.708 472.471C112.711 474.181 110.988 475.017 108.631 475.093C92.9907 475.701 77.3961 475.321 61.8014 474.219C59.9428 474.105 58.0387 473.801 56.2254 473.383C53.3694 472.737 52.6441 470.723 54.6387 468.899C57.0867 466.581 59.8521 464.491 62.7987 462.591C63.7961 461.945 64.2947 461.527 62.9801 460.653C61.0307 459.361 60.3961 457.271 59.4441 455.447C58.5374 453.661 57.8121 451.761 56.9961 449.937C56.2707 448.379 56.8148 447.201 58.4014 446.327C59.3988 445.757 60.3507 445.035 61.4841 444.731C64.1587 444.009 63.6601 442.831 62.7534 441.121C59.3987 434.775 56.3614 428.315 54.2761 421.551C54.0947 420.943 53.9134 420.297 53.9134 419.689C53.8227 417.903 54.2761 417.675 56.4974 418.093C59.2174 422.805 61.1214 427.821 63.3881 432.685C65.5641 437.359 68.1934 441.805 70.3694 446.441C71.6388 449.101 73.4521 450.279 76.6707 451.115C83.2894 452.825 89.8174 454.801 96.7987 455.257C103.463 455.713 110.217 456.245 116.519 453.547C117.244 453.471 117.788 453.129 118.06 452.597C119.329 450.089 120.508 447.581 121.777 445.111C122.276 444.161 121.868 443.705 120.735 443.553C114.524 443.059 108.676 441.615 102.737 440.513ZM243.271 469.583C242.137 468.367 240.505 468.063 239.1 467.493C235.111 465.821 231.62 463.807 230.668 459.855C230.396 458.753 229.807 458.373 228.537 458.411C227.54 458.449 226.407 458.373 226.225 457.309C226.089 456.359 227.268 456.207 227.993 455.827C229.353 455.143 231.756 455.333 232.073 453.965C232.391 452.711 230.623 451.533 229.988 450.279C229.399 449.101 228.537 449.063 227.268 449.481C225.092 450.203 222.916 450.925 220.695 451.495C205.463 455.219 189.868 456.207 174.092 455.713C171.327 455.637 168.607 455.067 165.433 454.649C166.839 456.625 166.34 459.171 169.287 459.969C173.095 460.995 176.857 462.097 180.937 462.211C181.572 462.211 182.433 462.097 182.479 462.933C182.524 463.693 181.708 463.883 181.119 463.959C179.895 464.149 178.625 464.149 176.993 464.263C178.852 466.353 180.348 468.405 182.524 469.925C183.068 470.305 183.703 470.457 184.383 470.533C190.956 471.293 197.529 471.901 204.193 472.015C209.996 472.091 215.844 471.863 221.601 471.559C228.855 471.217 236.017 470.989 243.271 469.583ZM60.2148 470.077C68.9641 470.837 77.3507 470.799 85.7374 471.027C92.3561 471.217 99.0201 471.331 105.639 471.255C106.953 471.217 108.54 471.331 109.22 470.115C109.991 468.823 110.807 467.569 111.124 466.011C108.857 465.973 106.863 465.365 104.868 464.871C103.735 464.567 102.964 464.035 103.145 462.971C103.327 461.907 104.279 461.755 105.321 461.755C107.951 461.793 110.625 461.831 113.255 461.831C118.241 461.831 118.241 461.831 119.601 457.765C119.783 457.309 120.236 456.777 119.692 456.359C119.239 456.017 118.695 456.397 118.196 456.549C115.068 457.347 111.985 457.955 108.676 458.107C93.6707 458.715 79.3908 455.485 65.2014 452.027C64.1134 451.761 63.0707 451.343 61.6201 450.849C62.5267 452.787 63.2521 454.383 63.9774 455.979C65.9267 460.045 67.6947 460.995 73.0441 460.957C73.5427 460.957 73.9507 460.881 74.0867 461.375C74.1774 461.793 73.8601 462.059 73.4521 462.287C72.5454 462.743 71.5481 462.629 70.5961 462.705C69.9161 462.743 69.1454 462.477 68.6467 462.971C66.2894 465.441 63.1161 467.417 60.2148 470.077Z" fill="#060504"/>
<path d="M102.737 440.513C108.676 441.577 114.524 443.021 120.553 443.781C121.687 443.933 122.095 444.351 121.596 445.339C120.327 447.809 119.148 450.355 117.879 452.825C117.607 453.357 117.017 453.699 116.337 453.775C116.428 453.205 115.884 453.053 115.476 452.787C111.033 449.937 107.225 446.479 103.825 442.755C103.191 442.109 102.647 441.425 102.737 440.513Z" fill="#927133"/>
<path d="M222.463 443.059C222.735 443.401 223.052 443.743 223.324 444.123C224.684 446.137 224.684 446.137 221.828 446.669C222.463 445.529 222.463 444.313 222.463 443.059Z" fill="#E0DDD4"/>
<path d="M243.271 469.583C236.017 470.989 228.855 471.217 221.692 471.597C215.889 471.901 210.087 472.129 204.284 472.053C197.62 471.939 191.047 471.331 184.473 470.571C183.793 470.495 183.113 470.343 182.615 469.963C180.393 468.405 178.943 466.353 177.084 464.301C178.716 464.187 179.985 464.149 181.209 463.997C181.844 463.921 182.615 463.731 182.569 462.971C182.524 462.135 181.708 462.249 181.028 462.249C176.948 462.135 173.185 461.033 169.377 460.007C166.431 459.209 166.929 456.663 165.524 454.687C168.697 455.105 171.417 455.675 174.183 455.751C189.959 456.245 205.553 455.257 220.785 451.533C223.007 451.001 225.228 450.279 227.359 449.519C228.628 449.101 229.489 449.139 230.079 450.317C230.713 451.609 232.481 452.749 232.164 454.003C231.847 455.371 229.444 455.181 228.084 455.865C227.359 456.245 226.18 456.397 226.316 457.347C226.452 458.411 227.631 458.487 228.628 458.449C229.897 458.411 230.487 458.753 230.759 459.893C231.711 463.845 235.201 465.859 239.191 467.531C240.505 468.063 242.137 468.367 243.271 469.583Z" fill="#945940"/>
<path d="M60.2148 470.077C63.1162 467.417 66.2895 465.441 68.7375 462.857C69.1908 462.363 70.0068 462.629 70.6868 462.591C71.6388 462.515 72.6362 462.629 73.5428 462.173C73.9508 461.945 74.2682 461.717 74.1775 461.261C74.0415 460.767 73.6335 460.843 73.1348 460.843C67.7855 460.919 66.0628 459.969 64.0682 455.865C63.2975 454.307 62.6175 452.711 61.7108 450.735C63.1615 451.229 64.2042 451.647 65.2922 451.913C79.4815 455.409 93.7162 458.601 108.767 457.993C112.031 457.879 115.159 457.233 118.287 456.435C118.74 456.321 119.33 455.941 119.783 456.245C120.327 456.663 119.874 457.195 119.692 457.651C118.287 461.717 118.287 461.717 113.346 461.717C110.716 461.717 108.042 461.679 105.412 461.641C104.37 461.641 103.372 461.793 103.236 462.857C103.055 463.921 103.826 464.453 104.959 464.757C106.954 465.289 108.948 465.897 111.215 465.897C110.898 467.455 110.036 468.709 109.311 470.001C108.586 471.217 107.044 471.103 105.73 471.141C99.0655 471.255 92.4468 471.103 85.8282 470.913C77.3508 470.799 68.9642 470.875 60.2148 470.077Z" fill="#945940"/>
<path d="M52.532 379.644C48.8841 376.414 44.7257 373.764 39.5785 372.376C38.1515 371.992 36.6905 371.841 35.1763 372.007C35.2896 372.566 35.2258 373.094 34.8867 373.621C28.134 384.566 33.0953 397.832 42.8287 404.46C48.679 408.441 55.3115 410.334 62.947 408.616C69.6465 407.108 74.1943 403.4 76.9057 398.078C76.6261 398.013 76.348 397.969 76.0905 397.861C69.5203 395.418 63.3801 392.317 57.2635 389.194C55.8385 388.474 54.2743 387.91 53.15 386.834C51.4204 387.141 49.6864 387.386 48.1461 386.443C47.5201 386.067 47.0099 385.557 47.3873 384.86C47.7207 384.25 48.4732 384.283 49.1304 384.384C49.4583 384.425 49.7877 384.486 50.0907 384.528C50.9514 384.679 51.4713 384.601 51.0321 383.667C50.7651 383.056 51.0721 382.427 51.3322 381.843C51.7317 381.103 52.1325 380.384 52.532 379.644Z" fill="#EDCF5D"/>
<path d="M76.9056 398.078C74.1942 403.4 69.6478 407.129 62.9469 408.616C55.3363 410.332 48.6774 408.42 42.8286 404.46C33.0703 397.834 28.109 384.568 34.8866 373.621C35.2257 373.094 35.2895 372.566 35.1762 372.007C34.0016 371.291 33.3836 371.396 32.5867 372.541C30.4911 375.536 29.3657 378.821 29.1245 382.234C28.3697 392.747 32.7338 401.316 42.7153 407.55C49.2214 411.611 56.6717 413.029 64.6711 410.782C73.5552 408.307 78.4252 402.732 80.4387 395.257C80.6184 394.594 80.7406 394.188 81.6937 394.227C82.5956 394.249 83.2085 393.704 83.3092 392.984C83.6526 390.697 83.7939 388.381 83.1899 386.137C82.9833 385.313 83.2528 385.231 83.9939 385.097C87.0066 384.534 89.9844 383.826 92.4966 382.166C94.77 380.668 95.4904 378.774 94.7825 376.474C94.4955 375.571 94.1837 374.67 93.7018 373.844C93.42 373.381 93.444 373.002 93.8166 372.599C96.4507 369.798 96.1245 366.864 94.4483 363.939C93.8248 362.871 93.6054 361.859 93.9982 360.658C94.3925 359.478 94.4326 358.238 94.2984 357.01C94.0543 354.909 93.1699 354.048 90.7621 353.584C88.9119 353.228 87.0014 353.087 85.0775 353.114C81.7552 353.174 78.4349 352.899 75.1249 353.503C74.4336 353.634 74.4079 353.258 74.2811 352.869C73.623 350.566 72.77 348.339 71.5494 346.222C70.044 343.599 67.898 341.482 64.6187 340.345C62.5187 339.629 60.3813 339.461 58.203 340.155C54.4587 341.356 52.5788 344.944 53.8014 348.55C54.1176 349.513 54.6301 350.422 55.2158 351.304C55.7446 352.085 56.2264 352.912 56.8739 353.601C60.4097 357.384 60.5991 361.606 59.0852 366.154C57.7595 370.165 55.4607 373.845 53.598 377.684C53.269 378.356 52.8638 379.013 52.485 379.689C52.0855 380.429 51.6846 381.148 51.3115 381.908C51.0265 382.493 50.7195 383.122 51.0114 383.731C51.4257 384.667 50.9293 384.722 50.07 384.592C49.7407 384.531 49.4128 384.491 49.1097 384.448C48.4276 384.349 47.7 384.315 47.3666 384.924C46.9892 385.621 47.5243 386.13 48.1255 386.508C49.6657 387.45 51.3997 387.206 53.1293 386.898C53.7551 386.541 54.3377 386.648 54.98 386.897C57.4002 387.905 59.9553 388.694 62.487 389.506C67.5227 391.09 72.6465 392.499 77.8555 393.694C78.2873 393.79 78.7674 393.862 78.5571 394.442C78.0881 395.627 77.7522 396.929 76.9056 398.078ZM80.8138 390.514C80.9915 392.011 80.9915 392.011 79.3889 391.618C73.0339 390.125 66.8494 388.201 60.7339 386.188C58.7129 385.53 56.6671 384.874 54.8899 383.759C54.1571 383.285 54.0524 382.852 54.481 382.172C55.2459 380.925 55.9331 379.641 56.5941 378.338C58.7988 374.015 61.3868 369.812 62.5173 365.143C63.3148 361.818 63.6407 358.546 61.7774 355.445C61.0151 354.177 60.1078 352.981 59.2503 351.782C58.365 350.543 57.4313 349.328 56.9094 347.917C55.6599 344.649 58.0479 341.906 61.8512 342.295C62.6315 342.368 63.3706 342.568 64.0919 342.875C66.5675 343.964 68.187 345.697 69.3067 347.801C70.3665 349.762 71.0821 351.809 71.7494 353.881C72.2536 355.398 72.8021 355.738 74.6954 355.629C77.1862 355.479 79.677 355.329 82.1572 355.39C84.7633 355.463 87.38 355.325 89.94 355.82C90.9543 356.023 91.4104 356.474 91.4193 357.333C91.4539 358.568 91.2866 359.774 90.9435 360.972C90.621 362.105 90.694 363.169 91.3409 364.215C92.9138 366.728 93.4589 369.206 91.0039 371.702C90.1151 372.601 90.2116 373.643 90.8805 374.645C91.3261 375.306 91.6251 376.02 91.8274 376.782C92.3807 378.651 91.9899 379.517 89.9867 380.577C88.4421 381.395 86.7545 381.951 85 382.26C81.5143 382.856 78.1113 383.928 74.488 383.61C73.7326 383.536 73.0044 383.858 73.0645 384.735C74.3075 385.719 76.016 385.832 77.5041 386.38C78.5811 386.768 80.2276 386.34 80.6796 387.462C81.0164 388.362 80.7935 389.488 80.8138 390.514Z" fill="#050504"/>
<path d="M76.9059 398.077C77.7525 396.929 78.0884 395.627 78.578 394.378C78.8147 393.817 78.3345 393.745 77.8764 393.629C72.6674 392.435 67.5685 391.024 62.5079 389.442C59.9777 388.651 57.4211 387.841 55.001 386.833C54.3572 386.562 53.776 386.477 53.1503 386.834C54.2759 387.931 55.8388 388.473 57.2637 389.193C63.3804 392.317 69.5205 395.418 76.0907 397.861C76.3468 397.948 76.6263 398.013 76.9059 398.077Z" fill="#927233"/>
<path d="M73.0382 384.716C72.9795 383.86 73.7077 383.538 74.4617 383.591C78.085 383.908 81.4865 382.816 84.9736 382.241C86.7282 381.932 88.4158 381.376 89.9604 380.557C91.965 379.518 92.3544 378.632 91.801 376.762C91.5753 376.023 91.2763 375.31 90.8542 374.626C90.2101 373.622 90.1137 372.58 90.9775 371.682C93.4326 369.187 92.8875 366.709 91.3146 364.196C90.6691 363.171 90.5947 362.086 90.9172 360.953C91.2602 359.755 91.4276 358.549 91.393 357.314C91.3841 356.455 90.928 356.004 89.9137 355.801C87.3537 355.306 84.7355 355.422 82.1309 355.37C79.6507 355.31 77.1599 355.46 74.6691 355.609C72.7758 355.718 72.2287 355.399 71.7231 353.862C71.0558 351.79 70.3388 349.722 69.2804 347.782C68.1373 345.701 66.5412 343.944 64.0656 342.856C63.3691 342.548 62.6052 342.348 61.8249 342.276C58.0479 341.906 55.6335 344.629 56.8831 347.898C57.4284 349.286 58.3386 350.524 59.2239 351.763C60.1064 352.96 60.9902 354.178 61.7511 355.426C63.6144 358.527 63.2885 361.799 62.491 365.124C61.3591 369.772 58.771 373.974 56.5678 378.318C55.9054 379.601 55.2181 380.885 54.4547 382.153C54.051 382.831 54.1322 383.286 54.8636 383.739C56.6173 384.877 58.6866 385.511 60.7076 386.169C66.8245 388.202 73.0076 390.106 79.3626 391.599C80.9887 391.969 80.9887 391.969 80.7875 390.495C78.5468 389.914 76.6423 388.766 74.6497 387.792C73.7967 387.389 72.9892 386.92 72.3944 386.269C71.7426 385.517 71.9806 384.977 73.0382 384.716Z" fill="#955A40"/>
<path d="M73.0374 384.716C71.9799 384.977 71.7433 385.538 72.42 386.288C73.0148 386.939 73.8472 387.406 74.6752 387.811C76.6679 388.785 78.5475 389.935 80.8131 390.514C80.7679 389.49 81.0157 388.362 80.6511 387.422C80.199 386.3 78.5526 386.727 77.4756 386.34C75.9889 385.813 74.2804 385.7 73.0374 384.716Z" fill="#513224"/>
<path d="M206.208 342.254C206.423 340.839 207.253 340.53 208.667 341.456C212.48 343.875 215.77 346.757 218.721 349.921C226.684 358.412 231.942 367.907 233.695 378.636C234.986 386.535 234.309 394.28 230.097 401.613C227.822 405.55 224.624 408.843 220.136 411.159C219.89 411.288 219.582 411.416 219.398 411.622C216.262 414.967 211.619 415.636 207.068 416.434C205.716 416.665 204.517 416.202 204.025 415.147C202.918 412.754 201.042 411.442 197.968 410.722C193.632 409.718 192.28 406.425 191.388 403.131C190.834 401.099 190.558 398.989 190.22 396.93C190.097 396.107 189.666 395.541 188.836 395.078C184.562 392.685 183.855 388.645 187.053 385.223C187.452 384.812 187.668 384.631 187.053 384.143C184.224 381.853 183.732 378.096 185.946 375.317C186.715 374.365 186.346 374.159 185.392 373.722C179.889 371.226 177.521 366.749 179.028 361.989C180.104 358.618 182.902 357.306 186.96 358.232C190.158 358.978 192.987 360.342 195.785 361.783C196.646 362.22 197.014 362.478 197.26 361.294C197.783 358.644 199.29 356.56 202.61 355.762C202.825 355.788 203.01 355.788 203.225 355.814C207.314 356.148 210.574 357.641 212.633 360.651C214.509 363.43 213.525 366.029 211.373 368.396C210.573 369.271 210.143 370.094 210.973 371.175C211.342 371.638 211.311 372.332 211.404 372.924C211.896 376.398 212.357 379.897 212.849 383.371C212.91 383.731 212.849 384.091 213.31 384.4C216.354 386.355 218.66 388.825 220.566 391.604C221.458 394.949 222.011 398.32 221.888 401.768C221.827 403.44 221.488 405.087 221.273 406.939C225.516 403.594 228.252 399.761 229.821 395.309C232.096 388.825 231.85 382.29 230.251 375.729C229.698 373.439 229.206 371.123 227.853 369.013C225.116 361.243 220.074 354.579 213.74 348.532C211.373 346.268 208.636 344.39 206.208 342.254ZM201.473 360.059C200.888 361.037 200.304 362.04 199.751 363.044C199.474 363.558 199.72 363.944 200.243 364.253C202.549 365.591 204.947 366.8 207.407 367.907C207.899 368.138 208.452 368.164 208.729 367.701C209.159 366.929 210.02 366.363 210.051 365.437C211.004 364.665 210.85 363.739 210.543 362.812C209.836 360.754 206.484 358.593 203.902 358.515C202.61 358.49 201.842 359.03 201.473 360.059ZM208.483 405.807C207.345 406.836 206.238 407.891 205.131 408.921C204.824 409.204 204.824 409.59 204.947 409.898C205.347 411.108 206.331 412.06 207.068 413.115C207.314 413.475 207.899 413.269 208.36 413.166C210.328 412.806 212.172 412.214 214.017 411.597C215.77 411.005 216.846 410.001 217.43 408.535C218.26 406.45 218.752 404.289 218.936 402.154C219.09 400.404 219.398 398.577 218.66 396.827C218.875 392.788 216.876 389.597 213.279 386.999C213.617 387.925 213.525 388.877 213.679 389.803C214.325 394.177 214.079 398.423 210.942 402.256C209.989 403.363 208.944 404.444 208.483 405.807ZM207.683 401.768C210.451 398.731 211.127 395.258 210.635 391.579C209.836 385.455 209.005 379.357 208.268 373.233C208.114 371.972 207.56 371.02 206.208 370.454C202.303 368.833 198.798 366.646 195.139 364.716C192.218 363.147 189.205 361.68 185.792 360.934C184.624 360.677 183.548 360.78 183.086 361.809C182.072 363.97 181.98 366.131 183.578 368.164C183.609 368.73 184.07 369.09 184.532 369.425C187.606 371.638 191.265 373.079 194.77 374.725C194.985 374.905 195.231 375.06 195.446 375.24C196.123 375.78 196.646 376.372 195.969 377.144C195.385 377.813 194.555 377.71 193.755 377.401C193.14 377.17 192.556 376.912 191.972 376.655C189.42 375.497 188.467 375.857 188.037 378.276C187.883 379.074 187.76 379.897 188.283 380.669C188.867 382.856 191.08 383.525 193.14 384.323C193.755 384.812 194.278 385.378 193.755 386.124C193.233 386.896 192.28 386.716 191.542 386.561C189.881 386.175 189.174 386.767 188.805 388.028C188.621 388.645 188.436 389.263 188.59 389.906C188.283 391.501 189.728 392.196 190.927 392.942C192.187 393.74 192.956 394.718 193.171 396.004C193.571 398.191 193.878 400.404 194.432 402.565C195.17 405.524 196.768 407.943 200.612 408.792C201.134 408.895 201.596 409.023 201.995 408.612C204.209 406.476 206.331 404.366 207.683 401.768Z" fill="#050403"/>
<path d="M220.535 391.527C218.629 388.748 216.323 386.278 213.279 384.323C212.818 384.04 212.88 383.654 212.818 383.293C212.326 379.82 211.865 376.321 211.373 372.847C211.281 372.255 211.311 371.561 210.943 371.097C210.112 370.017 210.543 369.193 211.342 368.319C213.494 365.951 214.478 363.353 212.603 360.574C210.574 357.563 207.284 356.045 203.195 355.737C202.979 355.711 202.795 355.711 202.58 355.685C203.256 351.748 203.902 347.812 204.64 343.901C204.763 343.155 204.947 342.331 206.208 342.28C208.637 344.415 211.373 346.294 213.71 348.506C220.043 354.553 225.086 361.217 227.822 368.988C227.576 370.325 228.222 371.586 228.222 372.899C228.283 378.07 226.592 382.83 223.641 387.333C222.718 388.748 221.581 390.112 220.535 391.527Z" fill="#ECCE5D"/>
<path d="M183.578 368.113C181.949 366.08 182.072 363.919 183.086 361.757C183.578 360.728 184.624 360.651 185.792 360.882C189.205 361.629 192.218 363.095 195.139 364.665C198.798 366.62 202.303 368.782 206.207 370.403C207.591 370.969 208.114 371.946 208.267 373.181C209.036 379.305 209.836 385.403 210.635 391.527C211.127 395.232 210.45 398.68 207.683 401.716C206.054 401.768 204.824 402.745 203.287 403.028C201.165 403.44 199.413 403.106 198.306 401.613C196.953 399.786 195.631 397.934 194.77 395.927C193.909 393.843 192.525 392.119 190.619 390.626C190.035 390.163 189.451 389.803 188.621 389.803C188.436 389.16 188.651 388.542 188.836 387.925C189.174 386.664 189.912 386.072 191.572 386.458C192.31 386.638 193.263 386.793 193.786 386.021C194.278 385.275 193.786 384.734 193.171 384.22C191.941 382.65 190.742 381.029 188.313 380.566C187.791 379.794 187.944 378.971 188.067 378.173C188.498 375.754 189.42 375.394 192.003 376.552C192.587 376.809 193.171 377.092 193.786 377.298C194.585 377.581 195.416 377.71 196 377.041C196.645 376.295 196.123 375.677 195.477 375.137C195.262 374.957 195.016 374.802 194.801 374.622C193.848 373.13 192.249 372.101 190.681 371.123C188.498 369.862 186.376 368.473 183.578 368.113Z" fill="#955A40"/>
<path d="M220.535 391.527C221.581 390.112 222.687 388.748 223.641 387.282C226.592 382.805 228.252 378.019 228.222 372.847C228.222 371.535 227.576 370.274 227.822 368.936C229.175 371.046 229.636 373.362 230.22 375.652C231.819 382.187 232.065 388.748 229.79 395.232C228.252 399.683 225.485 403.517 221.242 406.862C221.458 405.01 221.765 403.363 221.857 401.69C221.98 398.243 221.427 394.872 220.535 391.527Z" fill="#917133"/>
<path d="M208.482 405.807C208.944 404.469 209.989 403.389 210.911 402.256C214.047 398.423 214.293 394.177 213.648 389.803C213.525 388.877 213.617 387.925 213.248 386.999C216.845 389.597 218.875 392.788 218.629 396.827C218.075 396.93 218.167 397.291 218.075 397.625C217.368 401.124 216.446 404.469 212.633 406.708C210.819 407.788 209.343 407.583 208.482 405.807Z" fill="#93593F"/>
<path d="M208.483 405.807C209.344 407.583 210.82 407.788 212.665 406.708C216.477 404.469 217.399 401.124 218.107 397.625C218.168 397.291 218.107 396.93 218.66 396.827C219.429 398.577 219.09 400.404 218.937 402.154C218.752 404.315 218.23 406.476 217.43 408.535C216.846 410.001 215.77 411.005 214.017 411.597C212.173 412.214 210.328 412.832 208.36 413.166C207.899 413.243 207.345 413.475 207.069 413.115C206.331 412.06 205.347 411.108 204.947 409.898C204.855 409.59 204.824 409.204 205.132 408.921C206.239 407.866 207.376 406.836 208.483 405.807Z" fill="#503123"/>
<path d="M188.652 389.855C189.482 389.855 190.097 390.241 190.65 390.678C192.526 392.17 193.94 393.894 194.801 395.978C195.631 397.985 196.984 399.838 198.337 401.665C199.444 403.157 201.165 403.492 203.318 403.08C204.855 402.797 206.085 401.819 207.714 401.768C206.362 404.341 204.209 406.451 202.057 408.56C201.657 408.946 201.196 408.843 200.673 408.74C196.83 407.917 195.231 405.473 194.494 402.514C193.971 400.353 193.633 398.14 193.233 395.953C192.987 394.666 192.249 393.688 190.988 392.891C189.789 392.17 188.344 391.45 188.652 389.855Z" fill="#513123"/>
<path d="M201.473 360.059C201.842 359.03 202.61 358.49 203.932 358.515C206.515 358.593 209.866 360.728 210.573 362.812C210.881 363.739 211.035 364.665 210.082 365.437C209.743 365.462 209.374 365.488 209.036 365.54C205.5 366.209 202.825 364.793 201.965 361.86C201.749 361.268 202.118 360.574 201.473 360.059Z" fill="#93593F"/>
<path d="M201.473 360.059C202.119 360.574 201.75 361.268 201.934 361.86C202.795 364.793 205.47 366.209 209.006 365.54C209.344 365.462 209.713 365.462 210.051 365.437C210.02 366.363 209.129 366.929 208.729 367.701C208.452 368.19 207.899 368.138 207.407 367.907C204.947 366.775 202.549 365.591 200.243 364.253C199.72 363.944 199.474 363.533 199.751 363.044C200.305 362.015 200.92 361.037 201.473 360.059Z" fill="#503123"/>
<path d="M183.579 368.113C186.346 368.447 188.498 369.862 190.65 371.175C192.218 372.152 193.817 373.156 194.77 374.674C191.265 373.027 187.606 371.586 184.532 369.373C184.071 369.065 183.609 368.704 183.579 368.113Z" fill="#513123"/>
<path d="M188.313 380.617C190.711 381.106 191.941 382.702 193.171 384.271C191.08 383.474 188.866 382.805 188.313 380.617Z" fill="#503123"/>
</svg>
